<?xml version="1.0" encoding="UTF-8" standalone="no"?>
<!DOCTYPE svg PUBLIC "-//W3C//DTD SVG 1.1//EN"
 "http://www.w3.org/Graphics/SVG/1.1/DTD/svg11.dtd">
<!-- Generated by graphviz version 2.43.0 (0)
 -->
<!-- Title: /home/bugy/projs/lobotomy/src/cgc.h Pages: 1 -->
<svg width="448pt" height="207pt"
 viewBox="0.00 0.00 447.50 207.00" xmlns="http://www.w3.org/2000/svg" xmlns:xlink="http://www.w3.org/1999/xlink">
<g id="graph0" class="graph" transform="scale(1 1) rotate(0) translate(4 203)">
<title>/home/bugy/projs/lobotomy/src/cgc.h</title>
<polygon fill="white" stroke="transparent" points="-4,4 -4,-203 443.5,-203 443.5,4 -4,4"/>
<!-- Node1 -->
<g id="node1" class="node">
<title>Node1</title>
<g id="a_node1"><a xlink:title=" ">
<polygon fill="#bfbfbf" stroke="black" points="2.5,-168.5 2.5,-198.5 153.5,-198.5 153.5,-168.5 2.5,-168.5"/>
<text text-anchor="start" x="10.5" y="-186.5" font-family="Helvetica,sans-Serif" font-size="10.00">/home/bugy/projs/lobotomy</text>
<text text-anchor="middle" x="78" y="-175.5" font-family="Helvetica,sans-Serif" font-size="10.00">/src/cgc.h</text>
</a>
</g>
</g>
<!-- Node2 -->
<g id="node2" class="node">
<title>Node2</title>
<g id="a_node2"><a xlink:title=" ">
<polygon fill="white" stroke="#bfbfbf" points="0,-0.5 0,-19.5 62,-19.5 62,-0.5 0,-0.5"/>
<text text-anchor="middle" x="31" y="-7.5" font-family="Helvetica,sans-Serif" font-size="10.00">stdbool.h</text>
</a>
</g>
</g>
<!-- Node1&#45;&gt;Node2 -->
<g id="edge1" class="edge">
<title>Node1&#45;&gt;Node2</title>
<path fill="none" stroke="midnightblue" d="M74.15,-168.47C65.69,-137.57 45.44,-63.69 36,-29.25"/>
<polygon fill="midnightblue" stroke="midnightblue" points="39.36,-28.28 33.35,-19.56 32.61,-30.13 39.36,-28.28"/>
</g>
<!-- Node3 -->
<g id="node3" class="node">
<title>Node3</title>
<g id="a_node3"><a xlink:href="obj_8h.html" target="_top" xlink:title=" ">
<polygon fill="white" stroke="black" points="142.5,-112.5 142.5,-131.5 183.5,-131.5 183.5,-112.5 142.5,-112.5"/>
<text text-anchor="middle" x="163" y="-119.5" font-family="Helvetica,sans-Serif" font-size="10.00">obj.h</text>
</a>
</g>
</g>
<!-- Node1&#45;&gt;Node3 -->
<g id="edge2" class="edge">
<title>Node1&#45;&gt;Node3</title>
<path fill="none" stroke="midnightblue" d="M98.14,-168.4C111.39,-159.13 128.68,-147.03 142.08,-137.65"/>
<polygon fill="midnightblue" stroke="midnightblue" points="144.45,-140.26 150.63,-131.66 140.43,-134.53 144.45,-140.26"/>
</g>
<!-- Node3&#45;&gt;Node2 -->
<g id="edge5" class="edge">
<title>Node3&#45;&gt;Node2</title>
<path fill="none" stroke="midnightblue" d="M145.04,-112.48C128.93,-104.37 105.1,-91.16 87,-76 69.95,-61.72 53.74,-41.99 43.19,-28.02"/>
<polygon fill="midnightblue" stroke="midnightblue" points="45.87,-25.76 37.12,-19.79 40.24,-29.92 45.87,-25.76"/>
</g>
<!-- Node4 -->
<g id="node4" class="node">
<title>Node4</title>
<g id="a_node4"><a xlink:title=" ">
<polygon fill="white" stroke="#bfbfbf" points="107.5,-0.5 107.5,-19.5 160.5,-19.5 160.5,-0.5 107.5,-0.5"/>
<text text-anchor="middle" x="134" y="-7.5" font-family="Helvetica,sans-Serif" font-size="10.00">stdlib.h</text>
</a>
</g>
</g>
<!-- Node3&#45;&gt;Node4 -->
<g id="edge3" class="edge">
<title>Node3&#45;&gt;Node4</title>
<path fill="none" stroke="midnightblue" d="M142.28,-114.03C125.63,-107.2 103.38,-95.02 93,-76 83.4,-58.41 99.17,-39.09 113.86,-26.12"/>
<polygon fill="midnightblue" stroke="midnightblue" points="116.25,-28.68 121.73,-19.62 111.79,-23.29 116.25,-28.68"/>
</g>
<!-- Node5 -->
<g id="node5" class="node">
<title>Node5</title>
<g id="a_node5"><a xlink:title=" ">
<polygon fill="white" stroke="#bfbfbf" points="209.5,-0.5 209.5,-19.5 262.5,-19.5 262.5,-0.5 209.5,-0.5"/>
<text text-anchor="middle" x="236" y="-7.5" font-family="Helvetica,sans-Serif" font-size="10.00">stdint.h</text>
</a>
</g>
</g>
<!-- Node3&#45;&gt;Node5 -->
<g id="edge4" class="edge">
<title>Node3&#45;&gt;Node5</title>
<path fill="none" stroke="midnightblue" d="M151.71,-112.35C136.56,-99.66 112.97,-75.41 126,-56 142.27,-31.76 174.17,-20.57 199.44,-15.41"/>
<polygon fill="midnightblue" stroke="midnightblue" points="200.23,-18.82 209.45,-13.6 198.99,-11.93 200.23,-18.82"/>
</g>
<!-- Node6 -->
<g id="node6" class="node">
<title>Node6</title>
<g id="a_node6"><a xlink:title=" ">
<polygon fill="white" stroke="#bfbfbf" points="296,-0.5 296,-19.5 346,-19.5 346,-0.5 296,-0.5"/>
<text text-anchor="middle" x="321" y="-7.5" font-family="Helvetica,sans-Serif" font-size="10.00">stdio.h</text>
</a>
</g>
</g>
<!-- Node3&#45;&gt;Node6 -->
<g id="edge6" class="edge">
<title>Node3&#45;&gt;Node6</title>
<path fill="none" stroke="midnightblue" d="M183.69,-119.62C230.87,-116.01 344.11,-104.49 367,-76 380.39,-59.33 360.81,-39.07 343.2,-25.65"/>
<polygon fill="midnightblue" stroke="midnightblue" points="345.04,-22.66 334.88,-19.66 340.95,-28.34 345.04,-22.66"/>
</g>
<!-- Node7 -->
<g id="node7" class="node">
<title>Node7</title>
<g id="a_node7"><a xlink:title=" ">
<polygon fill="white" stroke="#bfbfbf" points="386.5,-0.5 386.5,-19.5 439.5,-19.5 439.5,-0.5 386.5,-0.5"/>
<text text-anchor="middle" x="413" y="-7.5" font-family="Helvetica,sans-Serif" font-size="10.00">string.h</text>
</a>
</g>
</g>
<!-- Node3&#45;&gt;Node7 -->
<g id="edge7" class="edge">
<title>Node3&#45;&gt;Node7</title>
<path fill="none" stroke="midnightblue" d="M183.76,-119.14C232.41,-114.4 352.06,-100.51 383,-76 397.44,-64.56 405.21,-44.58 409.2,-29.78"/>
<polygon fill="midnightblue" stroke="midnightblue" points="412.69,-30.24 411.56,-19.7 405.87,-28.64 412.69,-30.24"/>
</g>
<!-- Node8 -->
<g id="node8" class="node">
<title>Node8</title>
<g id="a_node8"><a xlink:title=" ">
<polygon fill="white" stroke="#bfbfbf" points="135.5,-56.5 135.5,-75.5 190.5,-75.5 190.5,-56.5 135.5,-56.5"/>
<text text-anchor="middle" x="163" y="-63.5" font-family="Helvetica,sans-Serif" font-size="10.00">wchar.h</text>
</a>
</g>
</g>
<!-- Node3&#45;&gt;Node8 -->
<g id="edge8" class="edge">
<title>Node3&#45;&gt;Node8</title>
<path fill="none" stroke="midnightblue" d="M163,-112.08C163,-105.01 163,-94.86 163,-85.99"/>
<polygon fill="midnightblue" stroke="midnightblue" points="166.5,-85.75 163,-75.75 159.5,-85.75 166.5,-85.75"/>
</g>
<!-- Node9 -->
<g id="node9" class="node">
<title>Node9</title>
<g id="a_node9"><a xlink:href="SHM_2hashmap_8h.html" target="_top" xlink:title=" ">
<polygon fill="white" stroke="black" points="262,-56.5 262,-75.5 358,-75.5 358,-56.5 262,-56.5"/>
<text text-anchor="middle" x="310" y="-63.5" font-family="Helvetica,sans-Serif" font-size="10.00">SHM/hashmap.h</text>
</a>
</g>
</g>
<!-- Node3&#45;&gt;Node9 -->
<g id="edge9" class="edge">
<title>Node3&#45;&gt;Node9</title>
<path fill="none" stroke="midnightblue" d="M183.75,-113.38C207.96,-104.48 248.31,-89.66 276.87,-79.17"/>
<polygon fill="midnightblue" stroke="midnightblue" points="278.26,-82.39 286.44,-75.65 275.85,-75.82 278.26,-82.39"/>
</g>
<!-- Node10 -->
<g id="node10" class="node">
<title>Node10</title>
<g id="a_node10"><a xlink:href="io_8h.html" target="_top" xlink:title=" ">
<polygon fill="white" stroke="black" points="208.5,-56.5 208.5,-75.5 243.5,-75.5 243.5,-56.5 208.5,-56.5"/>
<text text-anchor="middle" x="226" y="-63.5" font-family="Helvetica,sans-Serif" font-size="10.00">io.h</text>
</a>
</g>
</g>
<!-- Node3&#45;&gt;Node10 -->
<g id="edge15" class="edge">
<title>Node3&#45;&gt;Node10</title>
<path fill="none" stroke="midnightblue" d="M173.12,-112.32C182.53,-104.26 196.74,-92.08 208.07,-82.37"/>
<polygon fill="midnightblue" stroke="midnightblue" points="210.38,-85 215.69,-75.83 205.82,-79.68 210.38,-85"/>
</g>
<!-- Node9&#45;&gt;Node2 -->
<g id="edge13" class="edge">
<title>Node9&#45;&gt;Node2</title>
<path fill="none" stroke="midnightblue" d="M265.79,-56.44C212.49,-46.13 123.65,-28.93 71.88,-18.91"/>
<polygon fill="midnightblue" stroke="midnightblue" points="72.53,-15.47 62.04,-17.01 71.2,-22.34 72.53,-15.47"/>
</g>
<!-- Node9&#45;&gt;Node4 -->
<g id="edge10" class="edge">
<title>Node9&#45;&gt;Node4</title>
<path fill="none" stroke="midnightblue" d="M282.11,-56.44C251.89,-47.17 203.56,-32.34 170.38,-22.16"/>
<polygon fill="midnightblue" stroke="midnightblue" points="171.19,-18.75 160.61,-19.16 169.14,-25.44 171.19,-18.75"/>
</g>
<!-- Node9&#45;&gt;Node5 -->
<g id="edge12" class="edge">
<title>Node9&#45;&gt;Node5</title>
<path fill="none" stroke="midnightblue" d="M298.11,-56.32C286.85,-48.11 269.71,-35.6 256.29,-25.81"/>
<polygon fill="midnightblue" stroke="midnightblue" points="258.25,-22.9 248.11,-19.83 254.12,-28.56 258.25,-22.9"/>
</g>
<!-- Node9&#45;&gt;Node6 -->
<g id="edge11" class="edge">
<title>Node9&#45;&gt;Node6</title>
<path fill="none" stroke="midnightblue" d="M311.82,-56.08C313.27,-48.93 315.37,-38.64 317.19,-29.69"/>
<polygon fill="midnightblue" stroke="midnightblue" points="320.65,-30.25 319.22,-19.75 313.79,-28.85 320.65,-30.25"/>
</g>
<!-- Node9&#45;&gt;Node7 -->
<g id="edge14" class="edge">
<title>Node9&#45;&gt;Node7</title>
<path fill="none" stroke="midnightblue" d="M326.55,-56.32C342.99,-47.7 368.43,-34.36 387.47,-24.39"/>
<polygon fill="midnightblue" stroke="midnightblue" points="389.26,-27.4 396.49,-19.65 386.01,-21.2 389.26,-27.4"/>
</g>
</g>
</svg>
