<?xml version="1.0" encoding="UTF-8" standalone="no"?>
<!DOCTYPE svg PUBLIC "-//W3C//DTD SVG 1.1//EN"
 "http://www.w3.org/Graphics/SVG/1.1/DTD/svg11.dtd">
<!-- Generated by graphviz version 2.43.0 (0)
 -->
<!-- Title: /home/bugy/projs/lobotomy/src/cgc.h Pages: 1 -->
<svg width="836pt" height="374pt"
 viewBox="0.00 0.00 836.06 374.00" xmlns="http://www.w3.org/2000/svg" xmlns:xlink="http://www.w3.org/1999/xlink">
<g id="graph0" class="graph" transform="scale(1 1) rotate(0) translate(4 370)">
<title>/home/bugy/projs/lobotomy/src/cgc.h</title>
<polygon fill="white" stroke="transparent" points="-4,4 -4,-370 832.06,-370 832.06,4 -4,4"/>
<!-- Node1 -->
<g id="node1" class="node">
<title>Node1</title>
<g id="a_node1"><a xlink:title=" ">
<polygon fill="#bfbfbf" stroke="black" points="535.06,-335.5 535.06,-365.5 686.06,-365.5 686.06,-335.5 535.06,-335.5"/>
<text text-anchor="start" x="543.06" y="-353.5" font-family="Helvetica,sans-Serif" font-size="10.00">/home/bugy/projs/lobotomy</text>
<text text-anchor="middle" x="610.56" y="-342.5" font-family="Helvetica,sans-Serif" font-size="10.00">/src/cgc.h</text>
</a>
</g>
</g>
<!-- Node2 -->
<g id="node2" class="node">
<title>Node2</title>
<g id="a_node2"><a xlink:href="gc_8h.html" target="_top" xlink:title=" ">
<polygon fill="white" stroke="black" points="535.06,-268.5 535.06,-298.5 686.06,-298.5 686.06,-268.5 535.06,-268.5"/>
<text text-anchor="start" x="543.06" y="-286.5" font-family="Helvetica,sans-Serif" font-size="10.00">/home/bugy/projs/lobotomy</text>
<text text-anchor="middle" x="610.56" y="-275.5" font-family="Helvetica,sans-Serif" font-size="10.00">/src/gc.h</text>
</a>
</g>
</g>
<!-- Node1&#45;&gt;Node2 -->
<g id="edge1" class="edge">
<title>Node1&#45;&gt;Node2</title>
<path fill="none" stroke="midnightblue" d="M610.56,-325.11C610.56,-316.15 610.56,-306.32 610.56,-298.58"/>
<polygon fill="midnightblue" stroke="midnightblue" points="607.06,-325.4 610.56,-335.4 614.06,-325.4 607.06,-325.4"/>
</g>
<!-- Node3 -->
<g id="node3" class="node">
<title>Node3</title>
<g id="a_node3"><a xlink:href="obj_8c.html" target="_top" xlink:title=" ">
<polygon fill="white" stroke="black" points="308.06,-201.5 308.06,-231.5 459.06,-231.5 459.06,-201.5 308.06,-201.5"/>
<text text-anchor="start" x="316.06" y="-219.5" font-family="Helvetica,sans-Serif" font-size="10.00">/home/bugy/projs/lobotomy</text>
<text text-anchor="middle" x="383.56" y="-208.5" font-family="Helvetica,sans-Serif" font-size="10.00">/src/obj.c</text>
</a>
</g>
</g>
<!-- Node2&#45;&gt;Node3 -->
<g id="edge2" class="edge">
<title>Node2&#45;&gt;Node3</title>
<path fill="none" stroke="midnightblue" d="M551.95,-265.71C515.01,-255.14 467.85,-241.63 432.84,-231.61"/>
<polygon fill="midnightblue" stroke="midnightblue" points="551.01,-269.09 561.59,-268.48 552.94,-262.36 551.01,-269.09"/>
</g>
<!-- Node5 -->
<g id="node5" class="node">
<title>Node5</title>
<g id="a_node5"><a xlink:href="eval_8c.html" target="_top" xlink:title=" ">
<polygon fill="white" stroke="black" points="223.06,-67.5 223.06,-97.5 374.06,-97.5 374.06,-67.5 223.06,-67.5"/>
<text text-anchor="start" x="231.06" y="-85.5" font-family="Helvetica,sans-Serif" font-size="10.00">/home/bugy/projs/lobotomy</text>
<text text-anchor="middle" x="298.56" y="-74.5" font-family="Helvetica,sans-Serif" font-size="10.00">/src/eval.c</text>
</a>
</g>
</g>
<!-- Node2&#45;&gt;Node5 -->
<g id="edge13" class="edge">
<title>Node2&#45;&gt;Node5</title>
<path fill="none" stroke="midnightblue" d="M524.62,-278.99C373.46,-270.79 69.96,-244.59 6.56,-165 -2.02,-154.22 -2.31,-144.54 6.56,-134 33.73,-101.73 145.93,-90.08 223.06,-85.87"/>
<polygon fill="midnightblue" stroke="midnightblue" points="524.63,-282.5 534.8,-279.53 525,-275.51 524.63,-282.5"/>
</g>
<!-- Node7 -->
<g id="node7" class="node">
<title>Node7</title>
<g id="a_node7"><a xlink:href="main_8c.html" target="_top" xlink:title=" ">
<polygon fill="white" stroke="black" points="392.06,-0.5 392.06,-30.5 543.06,-30.5 543.06,-0.5 392.06,-0.5"/>
<text text-anchor="start" x="400.06" y="-18.5" font-family="Helvetica,sans-Serif" font-size="10.00">/home/bugy/projs/lobotomy</text>
<text text-anchor="middle" x="467.56" y="-7.5" font-family="Helvetica,sans-Serif" font-size="10.00">/src/main.c</text>
</a>
</g>
</g>
<!-- Node2&#45;&gt;Node7 -->
<g id="edge15" class="edge">
<title>Node2&#45;&gt;Node7</title>
<path fill="none" stroke="midnightblue" d="M621.45,-258.88C624.75,-250.57 627.92,-241.04 629.56,-232 637.48,-188.51 633.35,-173.02 612.56,-134 586.52,-85.1 530.57,-49.1 496.29,-30.59"/>
<polygon fill="midnightblue" stroke="midnightblue" points="618.14,-257.74 617.48,-268.31 624.59,-260.46 618.14,-257.74"/>
</g>
<!-- Node8 -->
<g id="node8" class="node">
<title>Node8</title>
<g id="a_node8"><a xlink:href="l__std_8c.html" target="_top" xlink:title=" ">
<polygon fill="white" stroke="black" points="392.06,-67.5 392.06,-97.5 543.06,-97.5 543.06,-67.5 392.06,-67.5"/>
<text text-anchor="start" x="400.06" y="-85.5" font-family="Helvetica,sans-Serif" font-size="10.00">/home/bugy/projs/lobotomy</text>
<text text-anchor="middle" x="467.56" y="-74.5" font-family="Helvetica,sans-Serif" font-size="10.00">/src/l_std.c</text>
</a>
</g>
</g>
<!-- Node2&#45;&gt;Node8 -->
<g id="edge14" class="edge">
<title>Node2&#45;&gt;Node8</title>
<path fill="none" stroke="midnightblue" d="M614.43,-257.83C618,-225.85 619.21,-169.94 591.56,-134 578.1,-116.5 557.55,-105.03 537.04,-97.53"/>
<polygon fill="midnightblue" stroke="midnightblue" points="610.91,-257.7 613.11,-268.07 617.86,-258.6 610.91,-257.7"/>
</g>
<!-- Node11 -->
<g id="node11" class="node">
<title>Node11</title>
<g id="a_node11"><a xlink:href="tgc_8c.html" target="_top" xlink:title=" ">
<polygon fill="white" stroke="black" points="677.06,-201.5 677.06,-231.5 828.06,-231.5 828.06,-201.5 677.06,-201.5"/>
<text text-anchor="start" x="685.06" y="-219.5" font-family="Helvetica,sans-Serif" font-size="10.00">/home/bugy/projs/lobotomy</text>
<text text-anchor="middle" x="752.56" y="-208.5" font-family="Helvetica,sans-Serif" font-size="10.00">/src/tgc.c</text>
</a>
</g>
</g>
<!-- Node2&#45;&gt;Node11 -->
<g id="edge16" class="edge">
<title>Node2&#45;&gt;Node11</title>
<path fill="none" stroke="midnightblue" d="M650.69,-264.13C673.26,-253.8 700.99,-241.11 721.81,-231.58"/>
<polygon fill="midnightblue" stroke="midnightblue" points="649.01,-261.05 641.38,-268.4 651.93,-267.42 649.01,-261.05"/>
</g>
<!-- Node4 -->
<g id="node4" class="node">
<title>Node4</title>
<g id="a_node4"><a xlink:href="parse_8h.html" target="_top" xlink:title=" ">
<polygon fill="white" stroke="black" points="16.06,-134.5 16.06,-164.5 167.06,-164.5 167.06,-134.5 16.06,-134.5"/>
<text text-anchor="start" x="24.06" y="-152.5" font-family="Helvetica,sans-Serif" font-size="10.00">/home/bugy/projs/lobotomy</text>
<text text-anchor="middle" x="91.56" y="-141.5" font-family="Helvetica,sans-Serif" font-size="10.00">/src/parse.h</text>
</a>
</g>
</g>
<!-- Node3&#45;&gt;Node4 -->
<g id="edge3" class="edge">
<title>Node3&#45;&gt;Node4</title>
<path fill="none" stroke="midnightblue" d="M310.56,-199.25C262.61,-188.58 200.52,-174.75 154.7,-164.55"/>
<polygon fill="midnightblue" stroke="midnightblue" points="310.04,-202.72 320.56,-201.48 311.56,-195.89 310.04,-202.72"/>
</g>
<!-- Node3&#45;&gt;Node5 -->
<g id="edge7" class="edge">
<title>Node3&#45;&gt;Node5</title>
<path fill="none" stroke="midnightblue" d="M374.35,-191.67C367.34,-174.87 356.83,-152.21 344.56,-134 335.56,-120.62 323.14,-107.2 313.47,-97.57"/>
<polygon fill="midnightblue" stroke="midnightblue" points="371.24,-193.33 378.24,-201.28 377.73,-190.7 371.24,-193.33"/>
</g>
<!-- Node3&#45;&gt;Node8 -->
<g id="edge8" class="edge">
<title>Node3&#45;&gt;Node8</title>
<path fill="none" stroke="midnightblue" d="M392.44,-191.65C399.23,-174.84 409.45,-152.19 421.56,-134 430.51,-120.58 442.93,-107.16 452.61,-97.54"/>
<polygon fill="midnightblue" stroke="midnightblue" points="389.07,-190.68 388.68,-201.27 395.58,-193.23 389.07,-190.68"/>
</g>
<!-- Node9 -->
<g id="node9" class="node">
<title>Node9</title>
<g id="a_node9"><a xlink:href="lsdl_8c.html" target="_top" xlink:title=" ">
<polygon fill="white" stroke="black" points="431.06,-134.5 431.06,-164.5 582.06,-164.5 582.06,-134.5 431.06,-134.5"/>
<text text-anchor="start" x="439.06" y="-152.5" font-family="Helvetica,sans-Serif" font-size="10.00">/home/bugy/projs/lobotomy</text>
<text text-anchor="middle" x="506.56" y="-141.5" font-family="Helvetica,sans-Serif" font-size="10.00">/src/lsdl.c</text>
</a>
</g>
</g>
<!-- Node3&#45;&gt;Node9 -->
<g id="edge11" class="edge">
<title>Node3&#45;&gt;Node9</title>
<path fill="none" stroke="midnightblue" d="M419.11,-196.71C438.51,-186.46 462.13,-173.98 479.93,-164.58"/>
<polygon fill="midnightblue" stroke="midnightblue" points="417.46,-193.63 410.25,-201.4 420.73,-199.82 417.46,-193.63"/>
</g>
<!-- Node10 -->
<g id="node10" class="node">
<title>Node10</title>
<g id="a_node10"><a xlink:href="sample__module_8c.html" target="_top" xlink:title=" ">
<polygon fill="white" stroke="black" points="185.06,-134.5 185.06,-164.5 336.06,-164.5 336.06,-134.5 185.06,-134.5"/>
<text text-anchor="start" x="193.06" y="-152.5" font-family="Helvetica,sans-Serif" font-size="10.00">/home/bugy/projs/lobotomy</text>
<text text-anchor="middle" x="260.56" y="-141.5" font-family="Helvetica,sans-Serif" font-size="10.00">/src/sample_module.c</text>
</a>
</g>
</g>
<!-- Node3&#45;&gt;Node10 -->
<g id="edge12" class="edge">
<title>Node3&#45;&gt;Node10</title>
<path fill="none" stroke="midnightblue" d="M348.02,-196.71C328.62,-186.46 305,-173.98 287.2,-164.58"/>
<polygon fill="midnightblue" stroke="midnightblue" points="346.4,-199.82 356.88,-201.4 349.67,-193.63 346.4,-199.82"/>
</g>
<!-- Node4&#45;&gt;Node5 -->
<g id="edge4" class="edge">
<title>Node4&#45;&gt;Node5</title>
<path fill="none" stroke="midnightblue" d="M145.88,-131.44C179.44,-120.91 221.98,-107.55 253.63,-97.61"/>
<polygon fill="midnightblue" stroke="midnightblue" points="144.72,-128.14 136.23,-134.48 146.82,-134.82 144.72,-128.14"/>
</g>
<!-- Node6 -->
<g id="node6" class="node">
<title>Node6</title>
<g id="a_node6"><a xlink:href="l__sdl_8c.html" target="_top" xlink:title=" ">
<polygon fill="white" stroke="black" points="223.06,-0.5 223.06,-30.5 374.06,-30.5 374.06,-0.5 223.06,-0.5"/>
<text text-anchor="start" x="231.06" y="-18.5" font-family="Helvetica,sans-Serif" font-size="10.00">/home/bugy/projs/lobotomy</text>
<text text-anchor="middle" x="298.56" y="-7.5" font-family="Helvetica,sans-Serif" font-size="10.00">/src/l_sdl.c</text>
</a>
</g>
</g>
<!-- Node5&#45;&gt;Node6 -->
<g id="edge5" class="edge">
<title>Node5&#45;&gt;Node6</title>
<path fill="none" stroke="midnightblue" d="M298.56,-57.11C298.56,-48.15 298.56,-38.32 298.56,-30.58"/>
<polygon fill="midnightblue" stroke="midnightblue" points="295.06,-57.4 298.56,-67.4 302.06,-57.4 295.06,-57.4"/>
</g>
<!-- Node5&#45;&gt;Node7 -->
<g id="edge6" class="edge">
<title>Node5&#45;&gt;Node7</title>
<path fill="none" stroke="midnightblue" d="M344.89,-63.68C372,-53.26 405.74,-40.28 430.97,-30.58"/>
<polygon fill="midnightblue" stroke="midnightblue" points="343.31,-60.54 335.24,-67.4 345.83,-67.07 343.31,-60.54"/>
</g>
<!-- Node8&#45;&gt;Node6 -->
<g id="edge9" class="edge">
<title>Node8&#45;&gt;Node6</title>
<path fill="none" stroke="midnightblue" d="M421.24,-63.68C394.13,-53.26 360.39,-40.28 335.16,-30.58"/>
<polygon fill="midnightblue" stroke="midnightblue" points="420.3,-67.07 430.89,-67.4 422.82,-60.54 420.3,-67.07"/>
</g>
<!-- Node8&#45;&gt;Node7 -->
<g id="edge10" class="edge">
<title>Node8&#45;&gt;Node7</title>
<path fill="none" stroke="midnightblue" d="M467.56,-57.11C467.56,-48.15 467.56,-38.32 467.56,-30.58"/>
<polygon fill="midnightblue" stroke="midnightblue" points="464.06,-57.4 467.56,-67.4 471.06,-57.4 464.06,-57.4"/>
</g>
</g>
</svg>
