<?xml version="1.0" encoding="UTF-8" standalone="no"?>
<!DOCTYPE svg PUBLIC "-//W3C//DTD SVG 1.1//EN"
 "http://www.w3.org/Graphics/SVG/1.1/DTD/svg11.dtd">
<!-- Generated by graphviz version 2.43.0 (0)
 -->
<!-- Title: /home/bugy/projs/lobotomy/src/error.h Pages: 1 -->
<svg width="1230pt" height="374pt"
 viewBox="0.00 0.00 1230.05 374.00" xmlns="http://www.w3.org/2000/svg" xmlns:xlink="http://www.w3.org/1999/xlink">
<g id="graph0" class="graph" transform="scale(1 1) rotate(0) translate(4 370)">
<title>/home/bugy/projs/lobotomy/src/error.h</title>
<polygon fill="white" stroke="transparent" points="-4,4 -4,-370 1226.05,-370 1226.05,4 -4,4"/>
<!-- Node1 -->
<g id="node1" class="node">
<title>Node1</title>
<g id="a_node1"><a xlink:title=" ">
<polygon fill="#bfbfbf" stroke="black" points="834.55,-335.5 834.55,-365.5 985.55,-365.5 985.55,-335.5 834.55,-335.5"/>
<text text-anchor="start" x="842.55" y="-353.5" font-family="Helvetica,sans-Serif" font-size="10.00">/home/bugy/projs/lobotomy</text>
<text text-anchor="middle" x="910.05" y="-342.5" font-family="Helvetica,sans-Serif" font-size="10.00">/src/error.h</text>
</a>
</g>
</g>
<!-- Node2 -->
<g id="node2" class="node">
<title>Node2</title>
<g id="a_node2"><a xlink:href="util_8h.html" target="_top" xlink:title=" ">
<polygon fill="white" stroke="black" points="353.55,-268.5 353.55,-298.5 504.55,-298.5 504.55,-268.5 353.55,-268.5"/>
<text text-anchor="start" x="361.55" y="-286.5" font-family="Helvetica,sans-Serif" font-size="10.00">/home/bugy/projs/lobotomy</text>
<text text-anchor="middle" x="429.05" y="-275.5" font-family="Helvetica,sans-Serif" font-size="10.00">/src/util.h</text>
</a>
</g>
</g>
<!-- Node1&#45;&gt;Node2 -->
<g id="edge1" class="edge">
<title>Node1&#45;&gt;Node2</title>
<path fill="none" stroke="midnightblue" d="M824.37,-337.92C733.56,-325.65 591.5,-306.45 504.69,-294.72"/>
<polygon fill="midnightblue" stroke="midnightblue" points="823.99,-341.4 834.37,-339.27 824.93,-334.46 823.99,-341.4"/>
</g>
<!-- Node4 -->
<g id="node4" class="node">
<title>Node4</title>
<g id="a_node4"><a xlink:href="l__sdl_8c.html" target="_top" xlink:title=" ">
<polygon fill="white" stroke="black" points="522.55,-0.5 522.55,-30.5 673.55,-30.5 673.55,-0.5 522.55,-0.5"/>
<text text-anchor="start" x="530.55" y="-18.5" font-family="Helvetica,sans-Serif" font-size="10.00">/home/bugy/projs/lobotomy</text>
<text text-anchor="middle" x="598.05" y="-7.5" font-family="Helvetica,sans-Serif" font-size="10.00">/src/l_sdl.c</text>
</a>
</g>
</g>
<!-- Node1&#45;&gt;Node4 -->
<g id="edge24" class="edge">
<title>Node1&#45;&gt;Node4</title>
<path fill="none" stroke="midnightblue" d="M995.78,-348.43C1088.14,-342.19 1222.05,-316.14 1222.05,-217.5 1222.05,-217.5 1222.05,-217.5 1222.05,-148.5 1222.05,-37.56 839.76,-19.42 673.63,-16.77"/>
<polygon fill="midnightblue" stroke="midnightblue" points="995.35,-344.95 985.58,-349.05 995.77,-351.93 995.35,-344.95"/>
</g>
<!-- Node6 -->
<g id="node6" class="node">
<title>Node6</title>
<g id="a_node6"><a xlink:href="lexer_8h.html" target="_top" xlink:title=" ">
<polygon fill="white" stroke="black" points="42.55,-201.5 42.55,-231.5 193.55,-231.5 193.55,-201.5 42.55,-201.5"/>
<text text-anchor="start" x="50.55" y="-219.5" font-family="Helvetica,sans-Serif" font-size="10.00">/home/bugy/projs/lobotomy</text>
<text text-anchor="middle" x="118.05" y="-208.5" font-family="Helvetica,sans-Serif" font-size="10.00">/src/lexer.h</text>
</a>
</g>
</g>
<!-- Node1&#45;&gt;Node6 -->
<g id="edge20" class="edge">
<title>Node1&#45;&gt;Node6</title>
<path fill="none" stroke="midnightblue" d="M824.29,-348.67C712.5,-346.04 511.49,-336.01 344.05,-299 272.17,-283.11 191.98,-250.39 149.1,-231.6"/>
<polygon fill="midnightblue" stroke="midnightblue" points="824.42,-352.17 834.5,-348.9 824.58,-345.18 824.42,-352.17"/>
</g>
<!-- Node11 -->
<g id="node11" class="node">
<title>Node11</title>
<g id="a_node11"><a xlink:href="lsdl_8c.html" target="_top" xlink:title=" ">
<polygon fill="white" stroke="black" points="834.55,-201.5 834.55,-231.5 985.55,-231.5 985.55,-201.5 834.55,-201.5"/>
<text text-anchor="start" x="842.55" y="-219.5" font-family="Helvetica,sans-Serif" font-size="10.00">/home/bugy/projs/lobotomy</text>
<text text-anchor="middle" x="910.05" y="-208.5" font-family="Helvetica,sans-Serif" font-size="10.00">/src/lsdl.c</text>
</a>
</g>
</g>
<!-- Node1&#45;&gt;Node11 -->
<g id="edge25" class="edge">
<title>Node1&#45;&gt;Node11</title>
<path fill="none" stroke="midnightblue" d="M910.05,-325.02C910.05,-297.51 910.05,-253.79 910.05,-231.52"/>
<polygon fill="midnightblue" stroke="midnightblue" points="906.55,-325.37 910.05,-335.37 913.55,-325.37 906.55,-325.37"/>
</g>
<!-- Node14 -->
<g id="node14" class="node">
<title>Node14</title>
<g id="a_node14"><a xlink:href="linked__list_8h.html" target="_top" xlink:title=" ">
<polygon fill="white" stroke="black" points="938.55,-268.5 938.55,-298.5 1089.55,-298.5 1089.55,-268.5 938.55,-268.5"/>
<text text-anchor="start" x="946.55" y="-286.5" font-family="Helvetica,sans-Serif" font-size="10.00">/home/bugy/projs/lobotomy</text>
<text text-anchor="middle" x="1014.05" y="-275.5" font-family="Helvetica,sans-Serif" font-size="10.00">/src/linked_list.h</text>
</a>
</g>
</g>
<!-- Node1&#45;&gt;Node14 -->
<g id="edge21" class="edge">
<title>Node1&#45;&gt;Node14</title>
<path fill="none" stroke="midnightblue" d="M941.23,-330.02C957.41,-319.9 976.82,-307.77 991.53,-298.58"/>
<polygon fill="midnightblue" stroke="midnightblue" points="939.24,-327.13 932.62,-335.4 942.95,-333.06 939.24,-327.13"/>
</g>
<!-- Node3 -->
<g id="node3" class="node">
<title>Node3</title>
<g id="a_node3"><a xlink:href="eval_8c.html" target="_top" xlink:title=" ">
<polygon fill="white" stroke="black" points="315.55,-67.5 315.55,-97.5 466.55,-97.5 466.55,-67.5 315.55,-67.5"/>
<text text-anchor="start" x="323.55" y="-85.5" font-family="Helvetica,sans-Serif" font-size="10.00">/home/bugy/projs/lobotomy</text>
<text text-anchor="middle" x="391.05" y="-74.5" font-family="Helvetica,sans-Serif" font-size="10.00">/src/eval.c</text>
</a>
</g>
</g>
<!-- Node2&#45;&gt;Node3 -->
<g id="edge2" class="edge">
<title>Node2&#45;&gt;Node3</title>
<path fill="none" stroke="midnightblue" d="M424.42,-258.27C416.41,-216.29 400.19,-131.33 393.76,-97.68"/>
<polygon fill="midnightblue" stroke="midnightblue" points="421.01,-259.02 426.32,-268.19 427.88,-257.71 421.01,-259.02"/>
</g>
<!-- Node2&#45;&gt;Node4 -->
<g id="edge15" class="edge">
<title>Node2&#45;&gt;Node4</title>
<path fill="none" stroke="midnightblue" d="M514.82,-282.81C609.3,-281.1 752.5,-271.77 787.05,-232 853.31,-155.74 695.64,-64.92 627.52,-30.58"/>
<polygon fill="midnightblue" stroke="midnightblue" points="514.63,-279.31 504.69,-282.96 514.74,-286.31 514.63,-279.31"/>
</g>
<!-- Node5 -->
<g id="node5" class="node">
<title>Node5</title>
<g id="a_node5"><a xlink:href="main_8c.html" target="_top" xlink:title=" ">
<polygon fill="white" stroke="black" points="75.55,-0.5 75.55,-30.5 226.55,-30.5 226.55,-0.5 75.55,-0.5"/>
<text text-anchor="start" x="83.55" y="-18.5" font-family="Helvetica,sans-Serif" font-size="10.00">/home/bugy/projs/lobotomy</text>
<text text-anchor="middle" x="151.05" y="-7.5" font-family="Helvetica,sans-Serif" font-size="10.00">/src/main.c</text>
</a>
</g>
</g>
<!-- Node2&#45;&gt;Node5 -->
<g id="edge17" class="edge">
<title>Node2&#45;&gt;Node5</title>
<path fill="none" stroke="midnightblue" d="M343.16,-277.79C230.3,-270.71 43.88,-255.58 23.05,-232 -27.12,-175.2 13.95,-122.03 66.05,-67 80.69,-51.54 101.09,-39.21 118.23,-30.61"/>
<polygon fill="midnightblue" stroke="midnightblue" points="342.98,-281.28 353.17,-278.41 343.41,-274.3 342.98,-281.28"/>
</g>
<!-- Node2&#45;&gt;Node6 -->
<g id="edge5" class="edge">
<title>Node2&#45;&gt;Node6</title>
<path fill="none" stroke="midnightblue" d="M351.94,-266.38C300.78,-255.69 234.3,-241.8 185.3,-231.55"/>
<polygon fill="midnightblue" stroke="midnightblue" points="351.45,-269.86 361.95,-268.48 352.88,-263 351.45,-269.86"/>
</g>
<!-- Node7 -->
<g id="node7" class="node">
<title>Node7</title>
<g id="a_node7"><a xlink:href="parse_8h.html" target="_top" xlink:title=" ">
<polygon fill="white" stroke="black" points="419.55,-134.5 419.55,-164.5 570.55,-164.5 570.55,-134.5 419.55,-134.5"/>
<text text-anchor="start" x="427.55" y="-152.5" font-family="Helvetica,sans-Serif" font-size="10.00">/home/bugy/projs/lobotomy</text>
<text text-anchor="middle" x="495.05" y="-141.5" font-family="Helvetica,sans-Serif" font-size="10.00">/src/parse.h</text>
</a>
</g>
</g>
<!-- Node2&#45;&gt;Node7 -->
<g id="edge9" class="edge">
<title>Node2&#45;&gt;Node7</title>
<path fill="none" stroke="midnightblue" d="M431.36,-258.32C433.74,-241.47 438.53,-218.88 448.05,-201 455.48,-187.05 467.75,-174.05 477.88,-164.74"/>
<polygon fill="midnightblue" stroke="midnightblue" points="427.86,-258.12 430.11,-268.47 434.81,-258.97 427.86,-258.12"/>
</g>
<!-- Node8 -->
<g id="node8" class="node">
<title>Node8</title>
<g id="a_node8"><a xlink:href="hashmap_8h.html" target="_top" xlink:title=" ">
<polygon fill="white" stroke="black" points="457.55,-201.5 457.55,-231.5 608.55,-231.5 608.55,-201.5 457.55,-201.5"/>
<text text-anchor="start" x="465.55" y="-219.5" font-family="Helvetica,sans-Serif" font-size="10.00">/home/bugy/projs/lobotomy</text>
<text text-anchor="middle" x="533.05" y="-208.5" font-family="Helvetica,sans-Serif" font-size="10.00">/src/hashmap.h</text>
</a>
</g>
</g>
<!-- Node2&#45;&gt;Node8 -->
<g id="edge10" class="edge">
<title>Node2&#45;&gt;Node8</title>
<path fill="none" stroke="midnightblue" d="M460.23,-263.02C476.41,-252.9 495.82,-240.77 510.53,-231.58"/>
<polygon fill="midnightblue" stroke="midnightblue" points="458.24,-260.13 451.62,-268.4 461.95,-266.06 458.24,-260.13"/>
</g>
<!-- Node9 -->
<g id="node9" class="node">
<title>Node9</title>
<g id="a_node9"><a xlink:href="io_8c.html" target="_top" xlink:title=" ">
<polygon fill="white" stroke="black" points="40.55,-134.5 40.55,-164.5 191.55,-164.5 191.55,-134.5 40.55,-134.5"/>
<text text-anchor="start" x="48.55" y="-152.5" font-family="Helvetica,sans-Serif" font-size="10.00">/home/bugy/projs/lobotomy</text>
<text text-anchor="middle" x="116.05" y="-141.5" font-family="Helvetica,sans-Serif" font-size="10.00">/src/io.c</text>
</a>
</g>
</g>
<!-- Node2&#45;&gt;Node9 -->
<g id="edge11" class="edge">
<title>Node2&#45;&gt;Node9</title>
<path fill="none" stroke="midnightblue" d="M343.12,-277.49C232.83,-270.17 53.21,-254.89 33.05,-232 11.03,-206.99 51.88,-180.36 83.7,-164.59"/>
<polygon fill="midnightblue" stroke="midnightblue" points="343.03,-280.99 353.24,-278.16 343.49,-274.01 343.03,-280.99"/>
</g>
<!-- Node2&#45;&gt;Node11 -->
<g id="edge16" class="edge">
<title>Node2&#45;&gt;Node11</title>
<path fill="none" stroke="midnightblue" d="M514.78,-272.21C594.06,-262.51 715.14,-247.22 820.05,-232 824.75,-231.32 829.58,-230.6 834.46,-229.86"/>
<polygon fill="midnightblue" stroke="midnightblue" points="514.34,-268.74 504.84,-273.42 515.19,-275.69 514.34,-268.74"/>
</g>
<!-- Node12 -->
<g id="node12" class="node">
<title>Node12</title>
<g id="a_node12"><a xlink:href="tui_8h.html" target="_top" xlink:title=" ">
<polygon fill="white" stroke="black" points="626.55,-201.5 626.55,-231.5 777.55,-231.5 777.55,-201.5 626.55,-201.5"/>
<text text-anchor="start" x="634.55" y="-219.5" font-family="Helvetica,sans-Serif" font-size="10.00">/home/bugy/projs/lobotomy</text>
<text text-anchor="middle" x="702.05" y="-208.5" font-family="Helvetica,sans-Serif" font-size="10.00">/src/tui.h</text>
</a>
</g>
</g>
<!-- Node2&#45;&gt;Node12 -->
<g id="edge18" class="edge">
<title>Node2&#45;&gt;Node12</title>
<path fill="none" stroke="midnightblue" d="M497.85,-266.12C542.53,-255.48 600.15,-241.76 642.79,-231.61"/>
<polygon fill="midnightblue" stroke="midnightblue" points="496.87,-262.75 487.95,-268.48 498.49,-269.56 496.87,-262.75"/>
</g>
<!-- Node13 -->
<g id="node13" class="node">
<title>Node13</title>
<g id="a_node13"><a xlink:href="vm_8h.html" target="_top" xlink:title=" ">
<polygon fill="white" stroke="black" points="211.55,-201.5 211.55,-231.5 362.55,-231.5 362.55,-201.5 211.55,-201.5"/>
<text text-anchor="start" x="219.55" y="-219.5" font-family="Helvetica,sans-Serif" font-size="10.00">/home/bugy/projs/lobotomy</text>
<text text-anchor="middle" x="287.05" y="-208.5" font-family="Helvetica,sans-Serif" font-size="10.00">/src/vm.h</text>
</a>
</g>
</g>
<!-- Node2&#45;&gt;Node13 -->
<g id="edge19" class="edge">
<title>Node2&#45;&gt;Node13</title>
<path fill="none" stroke="midnightblue" d="M388.92,-264.13C366.36,-253.8 338.63,-241.11 317.8,-231.58"/>
<polygon fill="midnightblue" stroke="midnightblue" points="387.69,-267.42 398.24,-268.4 390.6,-261.05 387.69,-267.42"/>
</g>
<!-- Node3&#45;&gt;Node4 -->
<g id="edge3" class="edge">
<title>Node3&#45;&gt;Node4</title>
<path fill="none" stroke="midnightblue" d="M445.37,-64.44C478.92,-53.91 521.46,-40.55 553.11,-30.61"/>
<polygon fill="midnightblue" stroke="midnightblue" points="444.21,-61.14 435.71,-67.48 446.3,-67.82 444.21,-61.14"/>
</g>
<!-- Node3&#45;&gt;Node5 -->
<g id="edge4" class="edge">
<title>Node3&#45;&gt;Node5</title>
<path fill="none" stroke="midnightblue" d="M329.57,-64.85C290.45,-54.25 240.32,-40.68 203.15,-30.61"/>
<polygon fill="midnightblue" stroke="midnightblue" points="328.7,-68.24 339.27,-67.48 330.53,-61.48 328.7,-68.24"/>
</g>
<!-- Node6&#45;&gt;Node3 -->
<g id="edge6" class="edge">
<title>Node6&#45;&gt;Node3</title>
<path fill="none" stroke="midnightblue" d="M156.11,-197.1C211.29,-170.42 312.35,-121.55 361.98,-97.56"/>
<polygon fill="midnightblue" stroke="midnightblue" points="154.49,-193.99 147.01,-201.5 157.54,-200.3 154.49,-193.99"/>
</g>
<!-- Node6&#45;&gt;Node7 -->
<g id="edge7" class="edge">
<title>Node6&#45;&gt;Node7</title>
<path fill="none" stroke="midnightblue" d="M203.75,-200.71C282.81,-187.07 362.73,-173.3 419.47,-163.52"/>
<polygon fill="midnightblue" stroke="midnightblue" points="202.87,-197.31 193.61,-202.46 204.06,-204.21 202.87,-197.31"/>
</g>
<!-- Node7&#45;&gt;Node3 -->
<g id="edge8" class="edge">
<title>Node7&#45;&gt;Node3</title>
<path fill="none" stroke="midnightblue" d="M463.88,-129.02C447.69,-118.9 428.28,-106.77 413.57,-97.58"/>
<polygon fill="midnightblue" stroke="midnightblue" points="462.15,-132.06 472.49,-134.4 465.86,-126.13 462.15,-132.06"/>
</g>
<!-- Node10 -->
<g id="node10" class="node">
<title>Node10</title>
<g id="a_node10"><a xlink:href="l__std_8c.html" target="_top" xlink:title=" ">
<polygon fill="white" stroke="black" points="75.55,-67.5 75.55,-97.5 226.55,-97.5 226.55,-67.5 75.55,-67.5"/>
<text text-anchor="start" x="83.55" y="-85.5" font-family="Helvetica,sans-Serif" font-size="10.00">/home/bugy/projs/lobotomy</text>
<text text-anchor="middle" x="151.05" y="-74.5" font-family="Helvetica,sans-Serif" font-size="10.00">/src/l_std.c</text>
</a>
</g>
</g>
<!-- Node9&#45;&gt;Node10 -->
<g id="edge12" class="edge">
<title>Node9&#45;&gt;Node10</title>
<path fill="none" stroke="midnightblue" d="M128.4,-125.58C133.42,-116.24 139.07,-105.75 143.47,-97.58"/>
<polygon fill="midnightblue" stroke="midnightblue" points="125.31,-123.93 123.65,-134.4 131.47,-127.25 125.31,-123.93"/>
</g>
<!-- Node10&#45;&gt;Node4 -->
<g id="edge13" class="edge">
<title>Node10&#45;&gt;Node4</title>
<path fill="none" stroke="midnightblue" d="M236.75,-69.04C319.45,-57.01 443.42,-38.99 522.51,-27.48"/>
<polygon fill="midnightblue" stroke="midnightblue" points="236.02,-65.61 226.63,-70.51 237.03,-72.53 236.02,-65.61"/>
</g>
<!-- Node10&#45;&gt;Node5 -->
<g id="edge14" class="edge">
<title>Node10&#45;&gt;Node5</title>
<path fill="none" stroke="midnightblue" d="M151.05,-57.11C151.05,-48.15 151.05,-38.32 151.05,-30.58"/>
<polygon fill="midnightblue" stroke="midnightblue" points="147.55,-57.4 151.05,-67.4 154.55,-57.4 147.55,-57.4"/>
</g>
<!-- Node14&#45;&gt;Node7 -->
<g id="edge22" class="edge">
<title>Node14&#45;&gt;Node7</title>
<path fill="none" stroke="midnightblue" d="M1015.37,-258.16C1014.94,-239.64 1011.01,-215.03 995.05,-201 963.87,-173.58 702.55,-159.02 570.63,-153.35"/>
<polygon fill="midnightblue" stroke="midnightblue" points="1011.87,-258.2 1015.28,-268.23 1018.87,-258.26 1011.87,-258.2"/>
</g>
<!-- Node15 -->
<g id="node15" class="node">
<title>Node15</title>
<g id="a_node15"><a xlink:href="repl_8h.html" target="_top" xlink:title=" ">
<polygon fill="white" stroke="black" points="1042.55,-201.5 1042.55,-231.5 1193.55,-231.5 1193.55,-201.5 1042.55,-201.5"/>
<text text-anchor="start" x="1050.55" y="-219.5" font-family="Helvetica,sans-Serif" font-size="10.00">/home/bugy/projs/lobotomy</text>
<text text-anchor="middle" x="1118.05" y="-208.5" font-family="Helvetica,sans-Serif" font-size="10.00">/src/repl.h</text>
</a>
</g>
</g>
<!-- Node14&#45;&gt;Node15 -->
<g id="edge23" class="edge">
<title>Node14&#45;&gt;Node15</title>
<path fill="none" stroke="midnightblue" d="M1045.23,-263.02C1061.41,-252.9 1080.82,-240.77 1095.53,-231.58"/>
<polygon fill="midnightblue" stroke="midnightblue" points="1043.24,-260.13 1036.62,-268.4 1046.95,-266.06 1043.24,-260.13"/>
</g>
</g>
</svg>
