<?xml version="1.0" encoding="UTF-8" standalone="no"?>
<!DOCTYPE svg PUBLIC "-//W3C//DTD SVG 1.1//EN"
 "http://www.w3.org/Graphics/SVG/1.1/DTD/svg11.dtd">
<!-- Generated by graphviz version 2.43.0 (0)
 -->
<!-- Title: /home/bugy/projs/lobotomy/src/gc.h Pages: 1 -->
<svg width="480pt" height="263pt"
 viewBox="0.00 0.00 479.50 263.00" xmlns="http://www.w3.org/2000/svg" xmlns:xlink="http://www.w3.org/1999/xlink">
<g id="graph0" class="graph" transform="scale(1 1) rotate(0) translate(4 259)">
<title>/home/bugy/projs/lobotomy/src/gc.h</title>
<polygon fill="white" stroke="transparent" points="-4,4 -4,-259 475.5,-259 475.5,4 -4,4"/>
<!-- Node1 -->
<g id="node1" class="node">
<title>Node1</title>
<g id="a_node1"><a xlink:title=" ">
<polygon fill="#bfbfbf" stroke="black" points="0,-224.5 0,-254.5 151,-254.5 151,-224.5 0,-224.5"/>
<text text-anchor="start" x="8" y="-242.5" font-family="Helvetica,sans-Serif" font-size="10.00">/home/bugy/projs/lobotomy</text>
<text text-anchor="middle" x="75.5" y="-231.5" font-family="Helvetica,sans-Serif" font-size="10.00">/src/gc.h</text>
</a>
</g>
</g>
<!-- Node2 -->
<g id="node2" class="node">
<title>Node2</title>
<g id="a_node2"><a xlink:title=" ">
<polygon fill="white" stroke="#bfbfbf" points="4.5,-0.5 4.5,-19.5 66.5,-19.5 66.5,-0.5 4.5,-0.5"/>
<text text-anchor="middle" x="35.5" y="-7.5" font-family="Helvetica,sans-Serif" font-size="10.00">stdbool.h</text>
</a>
</g>
</g>
<!-- Node1&#45;&gt;Node2 -->
<g id="edge1" class="edge">
<title>Node1&#45;&gt;Node2</title>
<path fill="none" stroke="midnightblue" d="M64.57,-224.36C57.76,-214.69 49.55,-201.26 45.5,-188 28.54,-132.44 31.15,-62.59 33.7,-29.73"/>
<polygon fill="midnightblue" stroke="midnightblue" points="37.19,-29.99 34.56,-19.73 30.21,-29.39 37.19,-29.99"/>
</g>
<!-- Node3 -->
<g id="node3" class="node">
<title>Node3</title>
<g id="a_node3"><a xlink:href="obj_8h.html" target="_top" xlink:title=" ">
<polygon fill="white" stroke="black" points="176,-112.5 176,-131.5 217,-131.5 217,-112.5 176,-112.5"/>
<text text-anchor="middle" x="196.5" y="-119.5" font-family="Helvetica,sans-Serif" font-size="10.00">obj.h</text>
</a>
</g>
</g>
<!-- Node1&#45;&gt;Node3 -->
<g id="edge2" class="edge">
<title>Node1&#45;&gt;Node3</title>
<path fill="none" stroke="midnightblue" d="M90.34,-224.34C113.03,-202.68 156.22,-161.45 179.91,-138.83"/>
<polygon fill="midnightblue" stroke="midnightblue" points="182.6,-141.11 187.42,-131.67 177.77,-136.04 182.6,-141.11"/>
</g>
<!-- Node11 -->
<g id="node11" class="node">
<title>Node11</title>
<g id="a_node11"><a xlink:href="cgc_8h.html" target="_top" xlink:title=" ">
<polygon fill="white" stroke="black" points="54.5,-168.5 54.5,-187.5 96.5,-187.5 96.5,-168.5 54.5,-168.5"/>
<text text-anchor="middle" x="75.5" y="-175.5" font-family="Helvetica,sans-Serif" font-size="10.00">cgc.h</text>
</a>
</g>
</g>
<!-- Node1&#45;&gt;Node11 -->
<g id="edge16" class="edge">
<title>Node1&#45;&gt;Node11</title>
<path fill="none" stroke="midnightblue" d="M75.5,-224.4C75.5,-216.47 75.5,-206.46 75.5,-197.86"/>
<polygon fill="midnightblue" stroke="midnightblue" points="79,-197.66 75.5,-187.66 72,-197.66 79,-197.66"/>
</g>
<!-- Node3&#45;&gt;Node2 -->
<g id="edge5" class="edge">
<title>Node3&#45;&gt;Node2</title>
<path fill="none" stroke="midnightblue" d="M175.83,-117.73C149.72,-112.71 104.57,-100.92 74.5,-76 59.5,-63.57 48.8,-43.77 42.45,-29.29"/>
<polygon fill="midnightblue" stroke="midnightblue" points="45.62,-27.8 38.59,-19.87 39.14,-30.45 45.62,-27.8"/>
</g>
<!-- Node4 -->
<g id="node4" class="node">
<title>Node4</title>
<g id="a_node4"><a xlink:title=" ">
<polygon fill="white" stroke="#bfbfbf" points="273,-0.5 273,-19.5 326,-19.5 326,-0.5 273,-0.5"/>
<text text-anchor="middle" x="299.5" y="-7.5" font-family="Helvetica,sans-Serif" font-size="10.00">stdlib.h</text>
</a>
</g>
</g>
<!-- Node3&#45;&gt;Node4 -->
<g id="edge3" class="edge">
<title>Node3&#45;&gt;Node4</title>
<path fill="none" stroke="midnightblue" d="M204.58,-112.37C221.81,-93.97 262.35,-50.67 284.47,-27.05"/>
<polygon fill="midnightblue" stroke="midnightblue" points="287.18,-29.28 291.46,-19.59 282.07,-24.5 287.18,-29.28"/>
</g>
<!-- Node5 -->
<g id="node5" class="node">
<title>Node5</title>
<g id="a_node5"><a xlink:title=" ">
<polygon fill="white" stroke="#bfbfbf" points="348,-0.5 348,-19.5 401,-19.5 401,-0.5 348,-0.5"/>
<text text-anchor="middle" x="374.5" y="-7.5" font-family="Helvetica,sans-Serif" font-size="10.00">stdint.h</text>
</a>
</g>
</g>
<!-- Node3&#45;&gt;Node5 -->
<g id="edge4" class="edge">
<title>Node3&#45;&gt;Node5</title>
<path fill="none" stroke="midnightblue" d="M217.2,-119.37C262.68,-115.31 368.99,-103.07 390.5,-76 401.31,-62.4 394.04,-42.51 386.12,-28.33"/>
<polygon fill="midnightblue" stroke="midnightblue" points="388.95,-26.26 380.74,-19.56 382.98,-29.91 388.95,-26.26"/>
</g>
<!-- Node6 -->
<g id="node6" class="node">
<title>Node6</title>
<g id="a_node6"><a xlink:title=" ">
<polygon fill="white" stroke="#bfbfbf" points="421.5,-0.5 421.5,-19.5 471.5,-19.5 471.5,-0.5 421.5,-0.5"/>
<text text-anchor="middle" x="446.5" y="-7.5" font-family="Helvetica,sans-Serif" font-size="10.00">stdio.h</text>
</a>
</g>
</g>
<!-- Node3&#45;&gt;Node6 -->
<g id="edge6" class="edge">
<title>Node3&#45;&gt;Node6</title>
<path fill="none" stroke="midnightblue" d="M217.09,-121.71C257.29,-122.06 347.42,-117.74 406.5,-76 422.7,-64.56 433.63,-44.28 439.91,-29.4"/>
<polygon fill="midnightblue" stroke="midnightblue" points="443.31,-30.32 443.68,-19.73 436.79,-27.78 443.31,-30.32"/>
</g>
<!-- Node7 -->
<g id="node7" class="node">
<title>Node7</title>
<g id="a_node7"><a xlink:title=" ">
<polygon fill="white" stroke="#bfbfbf" points="194,-0.5 194,-19.5 247,-19.5 247,-0.5 194,-0.5"/>
<text text-anchor="middle" x="220.5" y="-7.5" font-family="Helvetica,sans-Serif" font-size="10.00">string.h</text>
</a>
</g>
</g>
<!-- Node3&#45;&gt;Node7 -->
<g id="edge7" class="edge">
<title>Node3&#45;&gt;Node7</title>
<path fill="none" stroke="midnightblue" d="M198.38,-112.37C202.26,-94.62 211.19,-53.67 216.44,-29.6"/>
<polygon fill="midnightblue" stroke="midnightblue" points="219.91,-30.11 218.63,-19.59 213.07,-28.62 219.91,-30.11"/>
</g>
<!-- Node8 -->
<g id="node8" class="node">
<title>Node8</title>
<g id="a_node8"><a xlink:title=" ">
<polygon fill="white" stroke="#bfbfbf" points="83,-56.5 83,-75.5 138,-75.5 138,-56.5 83,-56.5"/>
<text text-anchor="middle" x="110.5" y="-63.5" font-family="Helvetica,sans-Serif" font-size="10.00">wchar.h</text>
</a>
</g>
</g>
<!-- Node3&#45;&gt;Node8 -->
<g id="edge8" class="edge">
<title>Node3&#45;&gt;Node8</title>
<path fill="none" stroke="midnightblue" d="M182.68,-112.32C169.27,-103.9 148.68,-90.97 132.91,-81.07"/>
<polygon fill="midnightblue" stroke="midnightblue" points="134.61,-78.01 124.28,-75.65 130.89,-83.94 134.61,-78.01"/>
</g>
<!-- Node9 -->
<g id="node9" class="node">
<title>Node9</title>
<g id="a_node9"><a xlink:href="SHM_2hashmap_8h.html" target="_top" xlink:title=" ">
<polygon fill="white" stroke="black" points="285.5,-56.5 285.5,-75.5 381.5,-75.5 381.5,-56.5 285.5,-56.5"/>
<text text-anchor="middle" x="333.5" y="-63.5" font-family="Helvetica,sans-Serif" font-size="10.00">SHM/hashmap.h</text>
</a>
</g>
</g>
<!-- Node3&#45;&gt;Node9 -->
<g id="edge9" class="edge">
<title>Node3&#45;&gt;Node9</title>
<path fill="none" stroke="midnightblue" d="M217.01,-112.92C239.51,-104.05 275.91,-89.7 302.03,-79.4"/>
<polygon fill="midnightblue" stroke="midnightblue" points="303.47,-82.6 311.49,-75.68 300.9,-76.09 303.47,-82.6"/>
</g>
<!-- Node10 -->
<g id="node10" class="node">
<title>Node10</title>
<g id="a_node10"><a xlink:href="io_8h.html" target="_top" xlink:title=" ">
<polygon fill="white" stroke="black" points="156,-56.5 156,-75.5 191,-75.5 191,-56.5 156,-56.5"/>
<text text-anchor="middle" x="173.5" y="-63.5" font-family="Helvetica,sans-Serif" font-size="10.00">io.h</text>
</a>
</g>
</g>
<!-- Node3&#45;&gt;Node10 -->
<g id="edge15" class="edge">
<title>Node3&#45;&gt;Node10</title>
<path fill="none" stroke="midnightblue" d="M192.7,-112.08C189.59,-104.77 185.08,-94.18 181.21,-85.1"/>
<polygon fill="midnightblue" stroke="midnightblue" points="184.37,-83.58 177.23,-75.75 177.93,-86.32 184.37,-83.58"/>
</g>
<!-- Node9&#45;&gt;Node2 -->
<g id="edge13" class="edge">
<title>Node9&#45;&gt;Node2</title>
<path fill="none" stroke="midnightblue" d="M286.28,-56.44C228.46,-45.97 131.48,-28.39 76.6,-18.45"/>
<polygon fill="midnightblue" stroke="midnightblue" points="77,-14.96 66.54,-16.62 75.75,-21.85 77,-14.96"/>
</g>
<!-- Node9&#45;&gt;Node4 -->
<g id="edge10" class="edge">
<title>Node9&#45;&gt;Node4</title>
<path fill="none" stroke="midnightblue" d="M327.89,-56.08C323.13,-48.53 316.18,-37.49 310.35,-28.23"/>
<polygon fill="midnightblue" stroke="midnightblue" points="313.3,-26.35 305.01,-19.75 307.38,-30.08 313.3,-26.35"/>
</g>
<!-- Node9&#45;&gt;Node5 -->
<g id="edge12" class="edge">
<title>Node9&#45;&gt;Node5</title>
<path fill="none" stroke="midnightblue" d="M340.27,-56.08C346.06,-48.46 354.56,-37.26 361.64,-27.94"/>
<polygon fill="midnightblue" stroke="midnightblue" points="364.6,-29.83 367.86,-19.75 359.02,-25.6 364.6,-29.83"/>
</g>
<!-- Node9&#45;&gt;Node6 -->
<g id="edge11" class="edge">
<title>Node9&#45;&gt;Node6</title>
<path fill="none" stroke="midnightblue" d="M351.41,-56.44C369.75,-47.68 398.51,-33.94 419.59,-23.86"/>
<polygon fill="midnightblue" stroke="midnightblue" points="421.17,-26.99 428.68,-19.52 418.15,-20.67 421.17,-26.99"/>
</g>
<!-- Node9&#45;&gt;Node7 -->
<g id="edge14" class="edge">
<title>Node9&#45;&gt;Node7</title>
<path fill="none" stroke="midnightblue" d="M315.59,-56.44C297.25,-47.68 268.49,-33.94 247.41,-23.86"/>
<polygon fill="midnightblue" stroke="midnightblue" points="248.85,-20.67 238.32,-19.52 245.83,-26.99 248.85,-20.67"/>
</g>
<!-- Node11&#45;&gt;Node2 -->
<g id="edge17" class="edge">
<title>Node11&#45;&gt;Node2</title>
<path fill="none" stroke="midnightblue" d="M73.35,-168.08C67.05,-141.95 48.56,-65.21 39.98,-29.58"/>
<polygon fill="midnightblue" stroke="midnightblue" points="43.31,-28.47 37.56,-19.57 36.5,-30.11 43.31,-28.47"/>
</g>
<!-- Node11&#45;&gt;Node3 -->
<g id="edge18" class="edge">
<title>Node11&#45;&gt;Node3</title>
<path fill="none" stroke="midnightblue" d="M94.67,-168.44C114.41,-159.64 145.39,-145.81 167.99,-135.72"/>
<polygon fill="midnightblue" stroke="midnightblue" points="169.71,-138.79 177.42,-131.52 166.86,-132.4 169.71,-138.79"/>
</g>
</g>
</svg>
