<?xml version="1.0" encoding="UTF-8" standalone="no"?>
<!DOCTYPE svg PUBLIC "-//W3C//DTD SVG 1.1//EN"
 "http://www.w3.org/Graphics/SVG/1.1/DTD/svg11.dtd">
<!-- Generated by graphviz version 2.43.0 (0)
 -->
<!-- Title: /home/bugy/projs/lobotomy/src/hashmap.h Pages: 1 -->
<svg width="687pt" height="207pt"
 viewBox="0.00 0.00 687.00 207.00" xmlns="http://www.w3.org/2000/svg" xmlns:xlink="http://www.w3.org/1999/xlink">
<g id="graph0" class="graph" transform="scale(1 1) rotate(0) translate(4 203)">
<title>/home/bugy/projs/lobotomy/src/hashmap.h</title>
<polygon fill="white" stroke="transparent" points="-4,4 -4,-203 683,-203 683,4 -4,4"/>
<!-- Node1 -->
<g id="node1" class="node">
<title>Node1</title>
<g id="a_node1"><a xlink:title=" ">
<polygon fill="#bfbfbf" stroke="black" points="243,-168.5 243,-198.5 394,-198.5 394,-168.5 243,-168.5"/>
<text text-anchor="start" x="251" y="-186.5" font-family="Helvetica,sans-Serif" font-size="10.00">/home/bugy/projs/lobotomy</text>
<text text-anchor="middle" x="318.5" y="-175.5" font-family="Helvetica,sans-Serif" font-size="10.00">/src/hashmap.h</text>
</a>
</g>
</g>
<!-- Node2 -->
<g id="node2" class="node">
<title>Node2</title>
<g id="a_node2"><a xlink:href="util_8h.html" target="_top" xlink:title=" ">
<polygon fill="white" stroke="black" points="298,-112.5 298,-131.5 339,-131.5 339,-112.5 298,-112.5"/>
<text text-anchor="middle" x="318.5" y="-119.5" font-family="Helvetica,sans-Serif" font-size="10.00">util.h</text>
</a>
</g>
</g>
<!-- Node1&#45;&gt;Node2 -->
<g id="edge1" class="edge">
<title>Node1&#45;&gt;Node2</title>
<path fill="none" stroke="midnightblue" d="M318.5,-168.4C318.5,-160.47 318.5,-150.46 318.5,-141.86"/>
<polygon fill="midnightblue" stroke="midnightblue" points="322,-141.66 318.5,-131.66 315,-141.66 322,-141.66"/>
</g>
<!-- Node3 -->
<g id="node3" class="node">
<title>Node3</title>
<g id="a_node3"><a xlink:title=" ">
<polygon fill="white" stroke="#bfbfbf" points="0,-0.5 0,-19.5 53,-19.5 53,-0.5 0,-0.5"/>
<text text-anchor="middle" x="26.5" y="-7.5" font-family="Helvetica,sans-Serif" font-size="10.00">stdlib.h</text>
</a>
</g>
</g>
<!-- Node2&#45;&gt;Node3 -->
<g id="edge2" class="edge">
<title>Node2&#45;&gt;Node3</title>
<path fill="none" stroke="midnightblue" d="M297.75,-118.15C262.67,-112.86 189.87,-99.83 132.5,-76 100.37,-62.65 66.69,-40.35 46.14,-25.66"/>
<polygon fill="midnightblue" stroke="midnightblue" points="48.07,-22.74 37.93,-19.69 43.96,-28.4 48.07,-22.74"/>
</g>
<!-- Node4 -->
<g id="node4" class="node">
<title>Node4</title>
<g id="a_node4"><a xlink:title=" ">
<polygon fill="white" stroke="#bfbfbf" points="71.5,-0.5 71.5,-19.5 121.5,-19.5 121.5,-0.5 71.5,-0.5"/>
<text text-anchor="middle" x="96.5" y="-7.5" font-family="Helvetica,sans-Serif" font-size="10.00">stdio.h</text>
</a>
</g>
</g>
<!-- Node2&#45;&gt;Node4 -->
<g id="edge3" class="edge">
<title>Node2&#45;&gt;Node4</title>
<path fill="none" stroke="midnightblue" d="M297.77,-118.35C266.62,-113.65 206.66,-101.83 162.5,-76 140.92,-63.37 121.2,-42.11 109.05,-27.35"/>
<polygon fill="midnightblue" stroke="midnightblue" points="111.79,-25.17 102.81,-19.53 106.31,-29.53 111.79,-25.17"/>
</g>
<!-- Node5 -->
<g id="node5" class="node">
<title>Node5</title>
<g id="a_node5"><a xlink:title=" ">
<polygon fill="white" stroke="#bfbfbf" points="139.5,-0.5 139.5,-19.5 201.5,-19.5 201.5,-0.5 139.5,-0.5"/>
<text text-anchor="middle" x="170.5" y="-7.5" font-family="Helvetica,sans-Serif" font-size="10.00">stdbool.h</text>
</a>
</g>
</g>
<!-- Node2&#45;&gt;Node5 -->
<g id="edge4" class="edge">
<title>Node2&#45;&gt;Node5</title>
<path fill="none" stroke="midnightblue" d="M297.79,-121.33C265.61,-120.58 204.23,-113.93 174.5,-76 164.38,-63.08 164.45,-43.91 166.41,-29.73"/>
<polygon fill="midnightblue" stroke="midnightblue" points="169.9,-30.11 168.23,-19.65 163.01,-28.87 169.9,-30.11"/>
</g>
<!-- Node6 -->
<g id="node6" class="node">
<title>Node6</title>
<g id="a_node6"><a xlink:title=" ">
<polygon fill="white" stroke="#bfbfbf" points="365.5,-56.5 365.5,-75.5 421.5,-75.5 421.5,-56.5 365.5,-56.5"/>
<text text-anchor="middle" x="393.5" y="-63.5" font-family="Helvetica,sans-Serif" font-size="10.00">assert.h</text>
</a>
</g>
</g>
<!-- Node2&#45;&gt;Node6 -->
<g id="edge5" class="edge">
<title>Node2&#45;&gt;Node6</title>
<path fill="none" stroke="midnightblue" d="M330.55,-112.32C341.96,-104.11 359.33,-91.6 372.93,-81.81"/>
<polygon fill="midnightblue" stroke="midnightblue" points="375.16,-84.52 381.23,-75.83 371.07,-78.84 375.16,-84.52"/>
</g>
<!-- Node7 -->
<g id="node7" class="node">
<title>Node7</title>
<g id="a_node7"><a xlink:title=" ">
<polygon fill="white" stroke="#bfbfbf" points="220,-0.5 220,-19.5 273,-19.5 273,-0.5 220,-0.5"/>
<text text-anchor="middle" x="246.5" y="-7.5" font-family="Helvetica,sans-Serif" font-size="10.00">string.h</text>
</a>
</g>
</g>
<!-- Node2&#45;&gt;Node7 -->
<g id="edge6" class="edge">
<title>Node2&#45;&gt;Node7</title>
<path fill="none" stroke="midnightblue" d="M312.85,-112.37C300.97,-94.22 273.21,-51.8 257.62,-27.99"/>
<polygon fill="midnightblue" stroke="midnightblue" points="260.53,-26.04 252.12,-19.59 254.67,-29.88 260.53,-26.04"/>
</g>
<!-- Node8 -->
<g id="node8" class="node">
<title>Node8</title>
<g id="a_node8"><a xlink:title=" ">
<polygon fill="white" stroke="#bfbfbf" points="440,-56.5 440,-75.5 491,-75.5 491,-56.5 440,-56.5"/>
<text text-anchor="middle" x="465.5" y="-63.5" font-family="Helvetica,sans-Serif" font-size="10.00">math.h</text>
</a>
</g>
</g>
<!-- Node2&#45;&gt;Node8 -->
<g id="edge7" class="edge">
<title>Node2&#45;&gt;Node8</title>
<path fill="none" stroke="midnightblue" d="M339.25,-113.38C363.46,-104.48 403.81,-89.66 432.37,-79.17"/>
<polygon fill="midnightblue" stroke="midnightblue" points="433.76,-82.39 441.94,-75.65 431.35,-75.82 433.76,-82.39"/>
</g>
<!-- Node9 -->
<g id="node9" class="node">
<title>Node9</title>
<g id="a_node9"><a xlink:title=" ">
<polygon fill="white" stroke="#bfbfbf" points="509.5,-56.5 509.5,-75.5 557.5,-75.5 557.5,-56.5 509.5,-56.5"/>
<text text-anchor="middle" x="533.5" y="-63.5" font-family="Helvetica,sans-Serif" font-size="10.00">float.h</text>
</a>
</g>
</g>
<!-- Node2&#45;&gt;Node9 -->
<g id="edge8" class="edge">
<title>Node2&#45;&gt;Node9</title>
<path fill="none" stroke="midnightblue" d="M339.01,-116.1C371.11,-108.39 435.38,-92.81 499.5,-76.22"/>
<polygon fill="midnightblue" stroke="midnightblue" points="500.57,-79.55 509.37,-73.65 498.81,-72.78 500.57,-79.55"/>
</g>
<!-- Node10 -->
<g id="node10" class="node">
<title>Node10</title>
<g id="a_node10"><a xlink:title=" ">
<polygon fill="white" stroke="#bfbfbf" points="291,-0.5 291,-19.5 344,-19.5 344,-0.5 291,-0.5"/>
<text text-anchor="middle" x="317.5" y="-7.5" font-family="Helvetica,sans-Serif" font-size="10.00">stdint.h</text>
</a>
</g>
</g>
<!-- Node2&#45;&gt;Node10 -->
<g id="edge9" class="edge">
<title>Node2&#45;&gt;Node10</title>
<path fill="none" stroke="midnightblue" d="M318.42,-112.37C318.26,-94.62 317.89,-53.67 317.67,-29.6"/>
<polygon fill="midnightblue" stroke="midnightblue" points="321.17,-29.56 317.58,-19.59 314.17,-29.62 321.17,-29.56"/>
</g>
<!-- Node11 -->
<g id="node11" class="node">
<title>Node11</title>
<g id="a_node11"><a xlink:title=" ">
<polygon fill="white" stroke="#bfbfbf" points="575.5,-56.5 575.5,-75.5 623.5,-75.5 623.5,-56.5 575.5,-56.5"/>
<text text-anchor="middle" x="599.5" y="-63.5" font-family="Helvetica,sans-Serif" font-size="10.00">time.h</text>
</a>
</g>
</g>
<!-- Node2&#45;&gt;Node11 -->
<g id="edge10" class="edge">
<title>Node2&#45;&gt;Node11</title>
<path fill="none" stroke="midnightblue" d="M339.2,-117.87C380.42,-111.5 475.83,-96.09 565.62,-76.04"/>
<polygon fill="midnightblue" stroke="midnightblue" points="566.43,-79.45 575.41,-73.83 564.88,-72.62 566.43,-79.45"/>
</g>
<!-- Node12 -->
<g id="node12" class="node">
<title>Node12</title>
<g id="a_node12"><a xlink:title=" ">
<polygon fill="white" stroke="#bfbfbf" points="362,-0.5 362,-19.5 417,-19.5 417,-0.5 362,-0.5"/>
<text text-anchor="middle" x="389.5" y="-7.5" font-family="Helvetica,sans-Serif" font-size="10.00">wchar.h</text>
</a>
</g>
</g>
<!-- Node2&#45;&gt;Node12 -->
<g id="edge11" class="edge">
<title>Node2&#45;&gt;Node12</title>
<path fill="none" stroke="midnightblue" d="M323.14,-112.42C330.05,-99.81 343.59,-75.67 356.5,-56 362.75,-46.48 370.21,-36.22 376.46,-27.91"/>
<polygon fill="midnightblue" stroke="midnightblue" points="379.38,-29.85 382.65,-19.77 373.81,-25.61 379.38,-29.85"/>
</g>
<!-- Node13 -->
<g id="node13" class="node">
<title>Node13</title>
<g id="a_node13"><a xlink:href="os_8h.html" target="_top" xlink:title=" ">
<polygon fill="white" stroke="black" points="642,-56.5 642,-75.5 679,-75.5 679,-56.5 642,-56.5"/>
<text text-anchor="middle" x="660.5" y="-63.5" font-family="Helvetica,sans-Serif" font-size="10.00">os.h</text>
</a>
</g>
</g>
<!-- Node2&#45;&gt;Node13 -->
<g id="edge12" class="edge">
<title>Node2&#45;&gt;Node13</title>
<path fill="none" stroke="midnightblue" d="M339.3,-119.24C388.52,-114.83 516.06,-101.89 631.85,-75.76"/>
<polygon fill="midnightblue" stroke="midnightblue" points="632.98,-79.1 641.95,-73.45 631.42,-72.27 632.98,-79.1"/>
</g>
<!-- Node14 -->
<g id="node14" class="node">
<title>Node14</title>
<g id="a_node14"><a xlink:href="error_8h.html" target="_top" xlink:title=" ">
<polygon fill="white" stroke="black" points="184,-56.5 184,-75.5 233,-75.5 233,-56.5 184,-56.5"/>
<text text-anchor="middle" x="208.5" y="-63.5" font-family="Helvetica,sans-Serif" font-size="10.00">error.h</text>
</a>
</g>
</g>
<!-- Node2&#45;&gt;Node14 -->
<g id="edge13" class="edge">
<title>Node2&#45;&gt;Node14</title>
<path fill="none" stroke="midnightblue" d="M300.83,-112.32C283.11,-103.62 255.6,-90.12 235.21,-80.11"/>
<polygon fill="midnightblue" stroke="midnightblue" points="236.65,-76.92 226.13,-75.65 233.56,-83.2 236.65,-76.92"/>
</g>
<!-- Node14&#45;&gt;Node3 -->
<g id="edge14" class="edge">
<title>Node14&#45;&gt;Node3</title>
<path fill="none" stroke="midnightblue" d="M183.95,-57.72C152.74,-48.45 98.57,-32.38 62.63,-21.72"/>
<polygon fill="midnightblue" stroke="midnightblue" points="63.6,-18.36 53.01,-18.87 61.6,-25.07 63.6,-18.36"/>
</g>
<!-- Node14&#45;&gt;Node4 -->
<g id="edge17" class="edge">
<title>Node14&#45;&gt;Node4</title>
<path fill="none" stroke="midnightblue" d="M190.51,-56.32C172.46,-47.62 144.45,-34.12 123.7,-24.11"/>
<polygon fill="midnightblue" stroke="midnightblue" points="124.98,-20.84 114.45,-19.65 121.94,-27.15 124.98,-20.84"/>
</g>
<!-- Node14&#45;&gt;Node5 -->
<g id="edge16" class="edge">
<title>Node14&#45;&gt;Node5</title>
<path fill="none" stroke="midnightblue" d="M202.23,-56.08C196.86,-48.46 188.98,-37.26 182.42,-27.94"/>
<polygon fill="midnightblue" stroke="midnightblue" points="185.28,-25.91 176.66,-19.75 179.55,-29.94 185.28,-25.91"/>
</g>
<!-- Node14&#45;&gt;Node7 -->
<g id="edge18" class="edge">
<title>Node14&#45;&gt;Node7</title>
<path fill="none" stroke="midnightblue" d="M214.77,-56.08C220.14,-48.46 228.02,-37.26 234.58,-27.94"/>
<polygon fill="midnightblue" stroke="midnightblue" points="237.45,-29.94 240.34,-19.75 231.72,-25.91 237.45,-29.94"/>
</g>
<!-- Node14&#45;&gt;Node10 -->
<g id="edge15" class="edge">
<title>Node14&#45;&gt;Node10</title>
<path fill="none" stroke="midnightblue" d="M226.01,-56.32C243.57,-47.62 270.83,-34.12 291.03,-24.11"/>
<polygon fill="midnightblue" stroke="midnightblue" points="292.62,-27.23 300.03,-19.65 289.52,-20.96 292.62,-27.23"/>
</g>
<!-- Node14&#45;&gt;Node12 -->
<g id="edge19" class="edge">
<title>Node14&#45;&gt;Node12</title>
<path fill="none" stroke="midnightblue" d="M233.29,-57.6C263.87,-48.48 316.16,-32.88 351.74,-22.26"/>
<polygon fill="midnightblue" stroke="midnightblue" points="353.17,-25.49 361.75,-19.28 351.17,-18.78 353.17,-25.49"/>
</g>
</g>
</svg>
