<?xml version="1.0" encoding="UTF-8" standalone="no"?>
<!DOCTYPE svg PUBLIC "-//W3C//DTD SVG 1.1//EN"
 "http://www.w3.org/Graphics/SVG/1.1/DTD/svg11.dtd">
<!-- Generated by graphviz version 2.43.0 (0)
 -->
<!-- Title: /home/bugy/projs/lobotomy/src/io.c Pages: 1 -->
<svg width="1049pt" height="207pt"
 viewBox="0.00 0.00 1049.05 207.00" xmlns="http://www.w3.org/2000/svg" xmlns:xlink="http://www.w3.org/1999/xlink">
<g id="graph0" class="graph" transform="scale(1 1) rotate(0) translate(4 203)">
<title>/home/bugy/projs/lobotomy/src/io.c</title>
<polygon fill="white" stroke="transparent" points="-4,4 -4,-203 1045.05,-203 1045.05,4 -4,4"/>
<!-- Node1 -->
<g id="node1" class="node">
<title>Node1</title>
<g id="a_node1"><a xlink:title=" ">
<polygon fill="#bfbfbf" stroke="black" points="197.69,-168.5 197.69,-198.5 348.69,-198.5 348.69,-168.5 197.69,-168.5"/>
<text text-anchor="start" x="205.69" y="-186.5" font-family="Helvetica,sans-Serif" font-size="10.00">/home/bugy/projs/lobotomy</text>
<text text-anchor="middle" x="273.19" y="-175.5" font-family="Helvetica,sans-Serif" font-size="10.00">/src/io.c</text>
</a>
</g>
</g>
<!-- Node2 -->
<g id="node2" class="node">
<title>Node2</title>
<g id="a_node2"><a xlink:title=" ">
<polygon fill="white" stroke="#bfbfbf" points="172.19,-0.5 172.19,-19.5 222.19,-19.5 222.19,-0.5 172.19,-0.5"/>
<text text-anchor="middle" x="197.19" y="-7.5" font-family="Helvetica,sans-Serif" font-size="10.00">stdio.h</text>
</a>
</g>
</g>
<!-- Node1&#45;&gt;Node2 -->
<g id="edge1" class="edge">
<title>Node1&#45;&gt;Node2</title>
<path fill="none" stroke="midnightblue" d="M197.53,-175.22C135.03,-164.69 50.28,-138.95 10.19,-76 5.41,-68.5 4.69,-62.98 10.19,-56 12.57,-52.97 108.76,-30.91 162.22,-18.84"/>
<polygon fill="midnightblue" stroke="midnightblue" points="163,-22.25 171.99,-16.64 161.46,-15.42 163,-22.25"/>
</g>
<!-- Node3 -->
<g id="node3" class="node">
<title>Node3</title>
<g id="a_node3"><a xlink:title=" ">
<polygon fill="white" stroke="#bfbfbf" points="94.69,-0.5 94.69,-19.5 147.69,-19.5 147.69,-0.5 94.69,-0.5"/>
<text text-anchor="middle" x="121.19" y="-7.5" font-family="Helvetica,sans-Serif" font-size="10.00">stdlib.h</text>
</a>
</g>
</g>
<!-- Node1&#45;&gt;Node3 -->
<g id="edge2" class="edge">
<title>Node1&#45;&gt;Node3</title>
<path fill="none" stroke="midnightblue" d="M197.5,-179.89C149.53,-175.05 88.1,-162.67 42.19,-132 16.97,-115.15 12.27,-104.94 3.19,-76 0.52,-67.52 -1.86,-63.32 3.19,-56 21.33,-29.66 57.11,-18.73 84.53,-14.2"/>
<polygon fill="midnightblue" stroke="midnightblue" points="85.18,-17.64 94.58,-12.75 84.18,-10.71 85.18,-17.64"/>
</g>
<!-- Node4 -->
<g id="node4" class="node">
<title>Node4</title>
<g id="a_node4"><a xlink:title=" ">
<polygon fill="white" stroke="#bfbfbf" points="395.69,-0.5 395.69,-19.5 448.69,-19.5 448.69,-0.5 395.69,-0.5"/>
<text text-anchor="middle" x="422.19" y="-7.5" font-family="Helvetica,sans-Serif" font-size="10.00">stdint.h</text>
</a>
</g>
</g>
<!-- Node1&#45;&gt;Node4 -->
<g id="edge3" class="edge">
<title>Node1&#45;&gt;Node4</title>
<path fill="none" stroke="midnightblue" d="M286.26,-168.17C304.72,-147.86 339.41,-109.42 368.19,-76 382.16,-59.77 397.76,-40.9 408.59,-27.69"/>
<polygon fill="midnightblue" stroke="midnightblue" points="411.33,-29.87 414.95,-19.91 405.91,-25.44 411.33,-29.87"/>
</g>
<!-- Node5 -->
<g id="node5" class="node">
<title>Node5</title>
<g id="a_node5"><a xlink:title=" ">
<polygon fill="white" stroke="#bfbfbf" points="538.19,-0.5 538.19,-19.5 600.19,-19.5 600.19,-0.5 538.19,-0.5"/>
<text text-anchor="middle" x="569.19" y="-7.5" font-family="Helvetica,sans-Serif" font-size="10.00">stdbool.h</text>
</a>
</g>
</g>
<!-- Node1&#45;&gt;Node5 -->
<g id="edge4" class="edge">
<title>Node1&#45;&gt;Node5</title>
<path fill="none" stroke="midnightblue" d="M348.87,-177.57C532.6,-164.83 990.38,-128.11 1034.19,-76 1093.63,-5.29 726.66,-32.7 610.66,-19.81"/>
<polygon fill="midnightblue" stroke="midnightblue" points="610.92,-16.32 600.55,-18.48 610.01,-23.26 610.92,-16.32"/>
</g>
<!-- Node6 -->
<g id="node6" class="node">
<title>Node6</title>
<g id="a_node6"><a xlink:href="io_8h.html" target="_top" xlink:title=" ">
<polygon fill="white" stroke="black" points="19.69,-56.5 19.69,-75.5 54.69,-75.5 54.69,-56.5 19.69,-56.5"/>
<text text-anchor="middle" x="37.19" y="-63.5" font-family="Helvetica,sans-Serif" font-size="10.00">io.h</text>
</a>
</g>
</g>
<!-- Node1&#45;&gt;Node6 -->
<g id="edge5" class="edge">
<title>Node1&#45;&gt;Node6</title>
<path fill="none" stroke="midnightblue" d="M244.25,-168.34C198.04,-145.72 108.26,-101.78 63.65,-79.95"/>
<polygon fill="midnightblue" stroke="midnightblue" points="65.12,-76.77 54.6,-75.52 62.04,-83.06 65.12,-76.77"/>
</g>
<!-- Node7 -->
<g id="node7" class="node">
<title>Node7</title>
<g id="a_node7"><a xlink:href="util_8h.html" target="_top" xlink:title=" ">
<polygon fill="white" stroke="black" points="662.69,-112.5 662.69,-131.5 703.69,-131.5 703.69,-112.5 662.69,-112.5"/>
<text text-anchor="middle" x="683.19" y="-119.5" font-family="Helvetica,sans-Serif" font-size="10.00">util.h</text>
</a>
</g>
</g>
<!-- Node1&#45;&gt;Node7 -->
<g id="edge6" class="edge">
<title>Node1&#45;&gt;Node7</title>
<path fill="none" stroke="midnightblue" d="M348.87,-171.52C439.86,-158.31 588.3,-136.77 652.26,-127.49"/>
<polygon fill="midnightblue" stroke="midnightblue" points="653.09,-130.9 662.49,-126 652.09,-123.98 653.09,-130.9"/>
</g>
<!-- Node16 -->
<g id="node16" class="node">
<title>Node16</title>
<g id="a_node16"><a xlink:href="obj_8h.html" target="_top" xlink:title=" ">
<polygon fill="white" stroke="black" points="252.69,-112.5 252.69,-131.5 293.69,-131.5 293.69,-112.5 252.69,-112.5"/>
<text text-anchor="middle" x="273.19" y="-119.5" font-family="Helvetica,sans-Serif" font-size="10.00">obj.h</text>
</a>
</g>
</g>
<!-- Node1&#45;&gt;Node16 -->
<g id="edge25" class="edge">
<title>Node1&#45;&gt;Node16</title>
<path fill="none" stroke="midnightblue" d="M273.19,-168.4C273.19,-160.47 273.19,-150.46 273.19,-141.86"/>
<polygon fill="midnightblue" stroke="midnightblue" points="276.69,-141.66 273.19,-131.66 269.69,-141.66 276.69,-141.66"/>
</g>
<!-- Node7&#45;&gt;Node2 -->
<g id="edge8" class="edge">
<title>Node7&#45;&gt;Node2</title>
<path fill="none" stroke="midnightblue" d="M662.69,-120.8C587.4,-119.79 326.76,-113.57 254.19,-76 233.44,-65.26 216.84,-43.54 207.03,-28.17"/>
<polygon fill="midnightblue" stroke="midnightblue" points="209.99,-26.31 201.81,-19.58 204.01,-29.94 209.99,-26.31"/>
</g>
<!-- Node7&#45;&gt;Node3 -->
<g id="edge7" class="edge">
<title>Node7&#45;&gt;Node3</title>
<path fill="none" stroke="midnightblue" d="M662.49,-120.2C584.54,-117.02 308.88,-103.98 226.19,-76 192.93,-64.75 159.25,-41.29 139.3,-25.85"/>
<polygon fill="midnightblue" stroke="midnightblue" points="141.41,-23.05 131.39,-19.59 137.06,-28.54 141.41,-23.05"/>
</g>
<!-- Node7&#45;&gt;Node4 -->
<g id="edge14" class="edge">
<title>Node7&#45;&gt;Node4</title>
<path fill="none" stroke="midnightblue" d="M662.64,-120.38C624.56,-118.41 541.52,-110.19 482.19,-76 461.69,-64.19 444.14,-43.06 433.41,-28.1"/>
<polygon fill="midnightblue" stroke="midnightblue" points="436.19,-25.98 427.64,-19.72 430.43,-29.94 436.19,-25.98"/>
</g>
<!-- Node7&#45;&gt;Node5 -->
<g id="edge9" class="edge">
<title>Node7&#45;&gt;Node5</title>
<path fill="none" stroke="midnightblue" d="M675.41,-112.33C663.91,-99.63 641.51,-75.36 621.19,-56 610.38,-45.71 597.73,-34.74 587.61,-26.2"/>
<polygon fill="midnightblue" stroke="midnightblue" points="589.72,-23.41 579.81,-19.68 585.23,-28.78 589.72,-23.41"/>
</g>
<!-- Node8 -->
<g id="node8" class="node">
<title>Node8</title>
<g id="a_node8"><a xlink:title=" ">
<polygon fill="white" stroke="#bfbfbf" points="767.19,-56.5 767.19,-75.5 823.19,-75.5 823.19,-56.5 767.19,-56.5"/>
<text text-anchor="middle" x="795.19" y="-63.5" font-family="Helvetica,sans-Serif" font-size="10.00">assert.h</text>
</a>
</g>
</g>
<!-- Node7&#45;&gt;Node8 -->
<g id="edge10" class="edge">
<title>Node7&#45;&gt;Node8</title>
<path fill="none" stroke="midnightblue" d="M701.18,-112.32C719.22,-103.62 747.23,-90.12 767.99,-80.11"/>
<polygon fill="midnightblue" stroke="midnightblue" points="769.75,-83.15 777.24,-75.65 766.71,-76.84 769.75,-83.15"/>
</g>
<!-- Node9 -->
<g id="node9" class="node">
<title>Node9</title>
<g id="a_node9"><a xlink:title=" ">
<polygon fill="white" stroke="#bfbfbf" points="466.69,-0.5 466.69,-19.5 519.69,-19.5 519.69,-0.5 466.69,-0.5"/>
<text text-anchor="middle" x="493.19" y="-7.5" font-family="Helvetica,sans-Serif" font-size="10.00">string.h</text>
</a>
</g>
</g>
<!-- Node7&#45;&gt;Node9 -->
<g id="edge11" class="edge">
<title>Node7&#45;&gt;Node9</title>
<path fill="none" stroke="midnightblue" d="M668.28,-112.37C635.4,-93.33 556.43,-47.62 516.76,-24.65"/>
<polygon fill="midnightblue" stroke="midnightblue" points="518.43,-21.57 508.03,-19.59 514.93,-27.63 518.43,-21.57"/>
</g>
<!-- Node10 -->
<g id="node10" class="node">
<title>Node10</title>
<g id="a_node10"><a xlink:title=" ">
<polygon fill="white" stroke="#bfbfbf" points="841.69,-56.5 841.69,-75.5 892.69,-75.5 892.69,-56.5 841.69,-56.5"/>
<text text-anchor="middle" x="867.19" y="-63.5" font-family="Helvetica,sans-Serif" font-size="10.00">math.h</text>
</a>
</g>
</g>
<!-- Node7&#45;&gt;Node10 -->
<g id="edge12" class="edge">
<title>Node7&#45;&gt;Node10</title>
<path fill="none" stroke="midnightblue" d="M703.94,-114.91C735,-105.8 793.97,-88.49 831.89,-77.36"/>
<polygon fill="midnightblue" stroke="midnightblue" points="832.9,-80.71 841.51,-74.54 830.93,-73.99 832.9,-80.71"/>
</g>
<!-- Node11 -->
<g id="node11" class="node">
<title>Node11</title>
<g id="a_node11"><a xlink:title=" ">
<polygon fill="white" stroke="#bfbfbf" points="911.19,-56.5 911.19,-75.5 959.19,-75.5 959.19,-56.5 911.19,-56.5"/>
<text text-anchor="middle" x="935.19" y="-63.5" font-family="Helvetica,sans-Serif" font-size="10.00">float.h</text>
</a>
</g>
</g>
<!-- Node7&#45;&gt;Node11 -->
<g id="edge13" class="edge">
<title>Node7&#45;&gt;Node11</title>
<path fill="none" stroke="midnightblue" d="M703.81,-117.21C741.16,-110.27 822.65,-94.66 901.04,-76.15"/>
<polygon fill="midnightblue" stroke="midnightblue" points="902.16,-79.49 911.08,-73.76 900.54,-72.68 902.16,-79.49"/>
</g>
<!-- Node12 -->
<g id="node12" class="node">
<title>Node12</title>
<g id="a_node12"><a xlink:title=" ">
<polygon fill="white" stroke="#bfbfbf" points="977.19,-56.5 977.19,-75.5 1025.19,-75.5 1025.19,-56.5 977.19,-56.5"/>
<text text-anchor="middle" x="1001.19" y="-63.5" font-family="Helvetica,sans-Serif" font-size="10.00">time.h</text>
</a>
</g>
</g>
<!-- Node7&#45;&gt;Node12 -->
<g id="edge15" class="edge">
<title>Node7&#45;&gt;Node12</title>
<path fill="none" stroke="midnightblue" d="M703.72,-118.54C749.32,-112.92 862.61,-98.05 967.04,-76.05"/>
<polygon fill="midnightblue" stroke="midnightblue" points="968.06,-79.4 977.11,-73.89 966.6,-72.56 968.06,-79.4"/>
</g>
<!-- Node13 -->
<g id="node13" class="node">
<title>Node13</title>
<g id="a_node13"><a xlink:title=" ">
<polygon fill="white" stroke="#bfbfbf" points="618.69,-0.5 618.69,-19.5 673.69,-19.5 673.69,-0.5 618.69,-0.5"/>
<text text-anchor="middle" x="646.19" y="-7.5" font-family="Helvetica,sans-Serif" font-size="10.00">wchar.h</text>
</a>
</g>
</g>
<!-- Node7&#45;&gt;Node13 -->
<g id="edge16" class="edge">
<title>Node7&#45;&gt;Node13</title>
<path fill="none" stroke="midnightblue" d="M704.11,-119.9C776.37,-115.89 1012.22,-100.96 1034.19,-76 1040.06,-69.33 1040.1,-62.64 1034.19,-56 1011.11,-30.1 777.05,-16.85 684.02,-12.58"/>
<polygon fill="midnightblue" stroke="midnightblue" points="684.06,-9.08 673.91,-12.13 683.75,-16.07 684.06,-9.08"/>
</g>
<!-- Node14 -->
<g id="node14" class="node">
<title>Node14</title>
<g id="a_node14"><a xlink:href="os_8h.html" target="_top" xlink:title=" ">
<polygon fill="white" stroke="black" points="711.69,-56.5 711.69,-75.5 748.69,-75.5 748.69,-56.5 711.69,-56.5"/>
<text text-anchor="middle" x="730.19" y="-63.5" font-family="Helvetica,sans-Serif" font-size="10.00">os.h</text>
</a>
</g>
</g>
<!-- Node7&#45;&gt;Node14 -->
<g id="edge17" class="edge">
<title>Node7&#45;&gt;Node14</title>
<path fill="none" stroke="midnightblue" d="M690.95,-112.08C697.72,-104.3 707.73,-92.8 715.94,-83.37"/>
<polygon fill="midnightblue" stroke="midnightblue" points="718.65,-85.59 722.57,-75.75 713.36,-81 718.65,-85.59"/>
</g>
<!-- Node15 -->
<g id="node15" class="node">
<title>Node15</title>
<g id="a_node15"><a xlink:href="error_8h.html" target="_top" xlink:title=" ">
<polygon fill="white" stroke="black" points="491.69,-56.5 491.69,-75.5 540.69,-75.5 540.69,-56.5 491.69,-56.5"/>
<text text-anchor="middle" x="516.19" y="-63.5" font-family="Helvetica,sans-Serif" font-size="10.00">error.h</text>
</a>
</g>
</g>
<!-- Node7&#45;&gt;Node15 -->
<g id="edge18" class="edge">
<title>Node7&#45;&gt;Node15</title>
<path fill="none" stroke="midnightblue" d="M662.37,-114.27C634.4,-105.23 584.31,-89.03 550.67,-78.15"/>
<polygon fill="midnightblue" stroke="midnightblue" points="551.39,-74.7 540.8,-74.96 549.23,-81.36 551.39,-74.7"/>
</g>
<!-- Node15&#45;&gt;Node2 -->
<g id="edge22" class="edge">
<title>Node15&#45;&gt;Node2</title>
<path fill="none" stroke="midnightblue" d="M491.69,-60.85C435.58,-51.35 297.6,-28 232.4,-16.96"/>
<polygon fill="midnightblue" stroke="midnightblue" points="232.66,-13.45 222.21,-15.24 231.49,-20.36 232.66,-13.45"/>
</g>
<!-- Node15&#45;&gt;Node3 -->
<g id="edge19" class="edge">
<title>Node15&#45;&gt;Node3</title>
<path fill="none" stroke="midnightblue" d="M491.26,-62.55C433.4,-56.71 285.6,-40.88 163.19,-20 161.47,-19.71 159.71,-19.39 157.94,-19.06"/>
<polygon fill="midnightblue" stroke="midnightblue" points="158.27,-15.56 147.78,-17.05 156.91,-22.43 158.27,-15.56"/>
</g>
<!-- Node15&#45;&gt;Node4 -->
<g id="edge20" class="edge">
<title>Node15&#45;&gt;Node4</title>
<path fill="none" stroke="midnightblue" d="M501.08,-56.32C486.28,-47.82 463.49,-34.73 446.2,-24.8"/>
<polygon fill="midnightblue" stroke="midnightblue" points="447.67,-21.6 437.25,-19.65 444.18,-27.67 447.67,-21.6"/>
</g>
<!-- Node15&#45;&gt;Node5 -->
<g id="edge21" class="edge">
<title>Node15&#45;&gt;Node5</title>
<path fill="none" stroke="midnightblue" d="M524.94,-56.08C532.66,-48.22 544.09,-36.57 553.4,-27.08"/>
<polygon fill="midnightblue" stroke="midnightblue" points="556.09,-29.34 560.6,-19.75 551.1,-24.44 556.09,-29.34"/>
</g>
<!-- Node15&#45;&gt;Node9 -->
<g id="edge23" class="edge">
<title>Node15&#45;&gt;Node9</title>
<path fill="none" stroke="midnightblue" d="M512.39,-56.08C509.27,-48.77 504.76,-38.18 500.9,-29.1"/>
<polygon fill="midnightblue" stroke="midnightblue" points="504.05,-27.58 496.91,-19.75 497.61,-30.32 504.05,-27.58"/>
</g>
<!-- Node15&#45;&gt;Node13 -->
<g id="edge24" class="edge">
<title>Node15&#45;&gt;Node13</title>
<path fill="none" stroke="midnightblue" d="M536.79,-56.44C558.18,-47.56 591.87,-33.56 616.21,-23.45"/>
<polygon fill="midnightblue" stroke="midnightblue" points="617.79,-26.58 625.68,-19.52 615.11,-20.12 617.79,-26.58"/>
</g>
<!-- Node16&#45;&gt;Node2 -->
<g id="edge29" class="edge">
<title>Node16&#45;&gt;Node2</title>
<path fill="none" stroke="midnightblue" d="M252.51,-117.18C230.95,-111.98 198.25,-100.37 183.19,-76 174.3,-61.62 180.16,-42.42 186.81,-28.62"/>
<polygon fill="midnightblue" stroke="midnightblue" points="189.96,-30.14 191.59,-19.67 183.79,-26.85 189.96,-30.14"/>
</g>
<!-- Node16&#45;&gt;Node3 -->
<g id="edge26" class="edge">
<title>Node16&#45;&gt;Node3</title>
<path fill="none" stroke="midnightblue" d="M252.42,-118.49C211.93,-113.13 124.88,-99.12 107.19,-76 96.7,-62.29 103.24,-42.43 110.49,-28.27"/>
<polygon fill="midnightblue" stroke="midnightblue" points="113.56,-29.96 115.43,-19.53 107.46,-26.52 113.56,-29.96"/>
</g>
<!-- Node16&#45;&gt;Node4 -->
<g id="edge27" class="edge">
<title>Node16&#45;&gt;Node4</title>
<path fill="none" stroke="midnightblue" d="M266.08,-112.1C256.26,-98.67 241.16,-72.98 254.19,-56 270.06,-35.32 340.94,-22.07 385.41,-15.63"/>
<polygon fill="midnightblue" stroke="midnightblue" points="386.13,-19.06 395.55,-14.21 385.17,-12.13 386.13,-19.06"/>
</g>
<!-- Node16&#45;&gt;Node5 -->
<g id="edge28" class="edge">
<title>Node16&#45;&gt;Node5</title>
<path fill="none" stroke="midnightblue" d="M293.81,-120.38C351.19,-118.23 510.94,-109.34 549.19,-76 562.38,-64.5 567,-44.53 568.55,-29.75"/>
<polygon fill="midnightblue" stroke="midnightblue" points="572.05,-29.9 569.23,-19.69 565.07,-29.43 572.05,-29.9"/>
</g>
<!-- Node16&#45;&gt;Node6 -->
<g id="edge38" class="edge">
<title>Node16&#45;&gt;Node6</title>
<path fill="none" stroke="midnightblue" d="M252.54,-116.85C215.6,-109.34 135.85,-92.71 69.19,-76 67.72,-75.63 66.21,-75.24 64.7,-74.85"/>
<polygon fill="midnightblue" stroke="midnightblue" points="65.31,-71.39 54.74,-72.13 63.47,-78.14 65.31,-71.39"/>
</g>
<!-- Node16&#45;&gt;Node9 -->
<g id="edge30" class="edge">
<title>Node16&#45;&gt;Node9</title>
<path fill="none" stroke="midnightblue" d="M291.85,-112.41C311.08,-103.5 341.87,-89.07 368.19,-76 403.15,-58.63 443.11,-37.66 468.24,-24.32"/>
<polygon fill="midnightblue" stroke="midnightblue" points="469.92,-27.39 477.1,-19.61 466.63,-21.21 469.92,-27.39"/>
</g>
<!-- Node16&#45;&gt;Node13 -->
<g id="edge31" class="edge">
<title>Node16&#45;&gt;Node13</title>
<path fill="none" stroke="midnightblue" d="M293.73,-121.67C343.57,-122.53 473.91,-120.03 570.19,-76 594.97,-64.67 617.93,-42.8 631.98,-27.58"/>
<polygon fill="midnightblue" stroke="midnightblue" points="634.78,-29.7 638.83,-19.91 629.56,-25.03 634.78,-29.7"/>
</g>
<!-- Node17 -->
<g id="node17" class="node">
<title>Node17</title>
<g id="a_node17"><a xlink:href="SHM_2hashmap_8h.html" target="_top" xlink:title=" ">
<polygon fill="white" stroke="black" points="263.19,-56.5 263.19,-75.5 359.19,-75.5 359.19,-56.5 263.19,-56.5"/>
<text text-anchor="middle" x="311.19" y="-63.5" font-family="Helvetica,sans-Serif" font-size="10.00">SHM/hashmap.h</text>
</a>
</g>
</g>
<!-- Node16&#45;&gt;Node17 -->
<g id="edge32" class="edge">
<title>Node16&#45;&gt;Node17</title>
<path fill="none" stroke="midnightblue" d="M279.46,-112.08C284.83,-104.46 292.7,-93.26 299.27,-83.94"/>
<polygon fill="midnightblue" stroke="midnightblue" points="302.14,-85.94 305.03,-75.75 296.41,-81.91 302.14,-85.94"/>
</g>
<!-- Node17&#45;&gt;Node2 -->
<g id="edge34" class="edge">
<title>Node17&#45;&gt;Node2</title>
<path fill="none" stroke="midnightblue" d="M293.12,-56.44C274.61,-47.68 245.61,-33.94 224.33,-23.86"/>
<polygon fill="midnightblue" stroke="midnightblue" points="225.7,-20.63 215.17,-19.52 222.71,-26.96 225.7,-20.63"/>
</g>
<!-- Node17&#45;&gt;Node3 -->
<g id="edge33" class="edge">
<title>Node17&#45;&gt;Node3</title>
<path fill="none" stroke="midnightblue" d="M281.08,-56.44C247.65,-46.94 193.69,-31.61 157.83,-21.41"/>
<polygon fill="midnightblue" stroke="midnightblue" points="158.36,-17.93 147.78,-18.56 156.44,-24.66 158.36,-17.93"/>
</g>
<!-- Node17&#45;&gt;Node4 -->
<g id="edge35" class="edge">
<title>Node17&#45;&gt;Node4</title>
<path fill="none" stroke="midnightblue" d="M329.02,-56.32C346.9,-47.62 374.66,-34.12 395.23,-24.11"/>
<polygon fill="midnightblue" stroke="midnightblue" points="396.94,-27.18 404.4,-19.65 393.87,-20.88 396.94,-27.18"/>
</g>
<!-- Node17&#45;&gt;Node5 -->
<g id="edge36" class="edge">
<title>Node17&#45;&gt;Node5</title>
<path fill="none" stroke="midnightblue" d="M353.22,-56.43C394.91,-47.9 460.87,-34.32 527.95,-20.03"/>
<polygon fill="midnightblue" stroke="midnightblue" points="528.81,-23.43 537.86,-17.92 527.35,-16.58 528.81,-23.43"/>
</g>
<!-- Node17&#45;&gt;Node9 -->
<g id="edge37" class="edge">
<title>Node17&#45;&gt;Node9</title>
<path fill="none" stroke="midnightblue" d="M340.03,-56.44C371.68,-47.05 422.56,-31.95 456.9,-21.77"/>
<polygon fill="midnightblue" stroke="midnightblue" points="457.96,-25.1 466.56,-18.9 455.97,-18.39 457.96,-25.1"/>
</g>
</g>
</svg>
