<?xml version="1.0" encoding="UTF-8" standalone="no"?>
<!DOCTYPE svg PUBLIC "-//W3C//DTD SVG 1.1//EN"
 "http://www.w3.org/Graphics/SVG/1.1/DTD/svg11.dtd">
<!-- Generated by graphviz version 2.43.0 (0)
 -->
<!-- Title: /home/bugy/projs/lobotomy/src/io.h Pages: 1 -->
<svg width="981pt" height="508pt"
 viewBox="0.00 0.00 981.00 508.00" xmlns="http://www.w3.org/2000/svg" xmlns:xlink="http://www.w3.org/1999/xlink">
<g id="graph0" class="graph" transform="scale(1 1) rotate(0) translate(4 504)">
<title>/home/bugy/projs/lobotomy/src/io.h</title>
<polygon fill="white" stroke="transparent" points="-4,4 -4,-504 977,-504 977,4 -4,4"/>
<!-- Node1 -->
<g id="node1" class="node">
<title>Node1</title>
<g id="a_node1"><a xlink:title=" ">
<polygon fill="#bfbfbf" stroke="black" points="308.5,-469.5 308.5,-499.5 459.5,-499.5 459.5,-469.5 308.5,-469.5"/>
<text text-anchor="start" x="316.5" y="-487.5" font-family="Helvetica,sans-Serif" font-size="10.00">/home/bugy/projs/lobotomy</text>
<text text-anchor="middle" x="384" y="-476.5" font-family="Helvetica,sans-Serif" font-size="10.00">/src/io.h</text>
</a>
</g>
</g>
<!-- Node2 -->
<g id="node2" class="node">
<title>Node2</title>
<g id="a_node2"><a xlink:href="obj_8h.html" target="_top" xlink:title=" ">
<polygon fill="white" stroke="black" points="444.5,-402.5 444.5,-432.5 595.5,-432.5 595.5,-402.5 444.5,-402.5"/>
<text text-anchor="start" x="452.5" y="-420.5" font-family="Helvetica,sans-Serif" font-size="10.00">/home/bugy/projs/lobotomy</text>
<text text-anchor="middle" x="520" y="-409.5" font-family="Helvetica,sans-Serif" font-size="10.00">/src/obj.h</text>
</a>
</g>
</g>
<!-- Node1&#45;&gt;Node2 -->
<g id="edge1" class="edge">
<title>Node1&#45;&gt;Node2</title>
<path fill="none" stroke="midnightblue" d="M422.72,-464.99C444.28,-454.69 470.69,-442.07 490.55,-432.58"/>
<polygon fill="midnightblue" stroke="midnightblue" points="421.02,-461.93 413.51,-469.4 424.04,-468.24 421.02,-461.93"/>
</g>
<!-- Node16 -->
<g id="node16" class="node">
<title>Node16</title>
<g id="a_node16"><a xlink:href="io_8c.html" target="_top" xlink:title=" ">
<polygon fill="white" stroke="black" points="171.5,-335.5 171.5,-365.5 322.5,-365.5 322.5,-335.5 171.5,-335.5"/>
<text text-anchor="start" x="179.5" y="-353.5" font-family="Helvetica,sans-Serif" font-size="10.00">/home/bugy/projs/lobotomy</text>
<text text-anchor="middle" x="247" y="-342.5" font-family="Helvetica,sans-Serif" font-size="10.00">/src/io.c</text>
</a>
</g>
</g>
<!-- Node1&#45;&gt;Node16 -->
<g id="edge33" class="edge">
<title>Node1&#45;&gt;Node16</title>
<path fill="none" stroke="midnightblue" d="M361.94,-462.25C333.71,-435.04 285.59,-388.68 261.56,-365.52"/>
<polygon fill="midnightblue" stroke="midnightblue" points="359.71,-464.96 369.34,-469.37 364.57,-459.91 359.71,-464.96"/>
</g>
<!-- Node3 -->
<g id="node3" class="node">
<title>Node3</title>
<g id="a_node3"><a xlink:href="cgc_8h.html" target="_top" xlink:title=" ">
<polygon fill="white" stroke="black" points="340.5,-335.5 340.5,-365.5 491.5,-365.5 491.5,-335.5 340.5,-335.5"/>
<text text-anchor="start" x="348.5" y="-353.5" font-family="Helvetica,sans-Serif" font-size="10.00">/home/bugy/projs/lobotomy</text>
<text text-anchor="middle" x="416" y="-342.5" font-family="Helvetica,sans-Serif" font-size="10.00">/src/cgc.h</text>
</a>
</g>
</g>
<!-- Node2&#45;&gt;Node3 -->
<g id="edge2" class="edge">
<title>Node2&#45;&gt;Node3</title>
<path fill="none" stroke="midnightblue" d="M488.82,-397.02C472.64,-386.9 453.23,-374.77 438.52,-365.58"/>
<polygon fill="midnightblue" stroke="midnightblue" points="487.1,-400.06 497.43,-402.4 490.81,-394.13 487.1,-400.06"/>
</g>
<!-- Node4 -->
<g id="node4" class="node">
<title>Node4</title>
<g id="a_node4"><a xlink:href="gc_8h.html" target="_top" xlink:title=" ">
<polygon fill="white" stroke="black" points="208.5,-268.5 208.5,-298.5 359.5,-298.5 359.5,-268.5 208.5,-268.5"/>
<text text-anchor="start" x="216.5" y="-286.5" font-family="Helvetica,sans-Serif" font-size="10.00">/home/bugy/projs/lobotomy</text>
<text text-anchor="middle" x="284" y="-275.5" font-family="Helvetica,sans-Serif" font-size="10.00">/src/gc.h</text>
</a>
</g>
</g>
<!-- Node2&#45;&gt;Node4 -->
<g id="edge20" class="edge">
<title>Node2&#45;&gt;Node4</title>
<path fill="none" stroke="midnightblue" d="M434.24,-416.81C339.75,-415.1 196.56,-405.77 162,-366 136.11,-336.2 186.29,-312.61 229.92,-298.63"/>
<polygon fill="midnightblue" stroke="midnightblue" points="434.31,-420.31 444.36,-416.96 434.42,-413.31 434.31,-420.31"/>
</g>
<!-- Node5 -->
<g id="node5" class="node">
<title>Node5</title>
<g id="a_node5"><a xlink:href="obj_8c.html" target="_top" xlink:title=" ">
<polygon fill="white" stroke="black" points="208.5,-201.5 208.5,-231.5 359.5,-231.5 359.5,-201.5 208.5,-201.5"/>
<text text-anchor="start" x="216.5" y="-219.5" font-family="Helvetica,sans-Serif" font-size="10.00">/home/bugy/projs/lobotomy</text>
<text text-anchor="middle" x="284" y="-208.5" font-family="Helvetica,sans-Serif" font-size="10.00">/src/obj.c</text>
</a>
</g>
</g>
<!-- Node2&#45;&gt;Node5 -->
<g id="edge19" class="edge">
<title>Node2&#45;&gt;Node5</title>
<path fill="none" stroke="midnightblue" d="M519.51,-392.33C518.02,-374.83 513.55,-351.45 501,-335 459.29,-280.33 384.58,-248.03 334.65,-231.53"/>
<polygon fill="midnightblue" stroke="midnightblue" points="516.02,-392.57 520.1,-402.35 523.01,-392.16 516.02,-392.57"/>
</g>
<!-- Node8 -->
<g id="node8" class="node">
<title>Node8</title>
<g id="a_node8"><a xlink:href="l__sdl_8c.html" target="_top" xlink:title=" ">
<polygon fill="white" stroke="black" points="689.5,-0.5 689.5,-30.5 840.5,-30.5 840.5,-0.5 689.5,-0.5"/>
<text text-anchor="start" x="697.5" y="-18.5" font-family="Helvetica,sans-Serif" font-size="10.00">/home/bugy/projs/lobotomy</text>
<text text-anchor="middle" x="765" y="-7.5" font-family="Helvetica,sans-Serif" font-size="10.00">/src/l_sdl.c</text>
</a>
</g>
</g>
<!-- Node2&#45;&gt;Node8 -->
<g id="edge29" class="edge">
<title>Node2&#45;&gt;Node8</title>
<path fill="none" stroke="midnightblue" d="M605.76,-415.09C676.58,-411.3 778.5,-399.72 861,-366 917.98,-342.71 973,-346.06 973,-284.5 973,-284.5 973,-284.5 973,-148.5 973,-81.67 895.51,-47.25 835.13,-30.57"/>
<polygon fill="midnightblue" stroke="midnightblue" points="605.36,-411.6 595.55,-415.59 605.71,-418.59 605.36,-411.6"/>
</g>
<!-- Node9 -->
<g id="node9" class="node">
<title>Node9</title>
<g id="a_node9"><a xlink:href="main_8c.html" target="_top" xlink:title=" ">
<polygon fill="white" stroke="black" points="222.5,-0.5 222.5,-30.5 373.5,-30.5 373.5,-0.5 222.5,-0.5"/>
<text text-anchor="start" x="230.5" y="-18.5" font-family="Helvetica,sans-Serif" font-size="10.00">/home/bugy/projs/lobotomy</text>
<text text-anchor="middle" x="298" y="-7.5" font-family="Helvetica,sans-Serif" font-size="10.00">/src/main.c</text>
</a>
</g>
</g>
<!-- Node2&#45;&gt;Node9 -->
<g id="edge30" class="edge">
<title>Node2&#45;&gt;Node9</title>
<path fill="none" stroke="midnightblue" d="M434,-412.34C286.26,-402.82 0,-372.96 0,-284.5 0,-284.5 0,-284.5 0,-148.5 0,-51.32 134.13,-25.12 222.42,-18.4"/>
<polygon fill="midnightblue" stroke="midnightblue" points="434.19,-415.86 444.39,-412.99 434.63,-408.87 434.19,-415.86"/>
</g>
<!-- Node13 -->
<g id="node13" class="node">
<title>Node13</title>
<g id="a_node13"><a xlink:href="tgc_8c.html" target="_top" xlink:title=" ">
<polygon fill="white" stroke="black" points="416.5,-201.5 416.5,-231.5 567.5,-231.5 567.5,-201.5 416.5,-201.5"/>
<text text-anchor="start" x="424.5" y="-219.5" font-family="Helvetica,sans-Serif" font-size="10.00">/home/bugy/projs/lobotomy</text>
<text text-anchor="middle" x="492" y="-208.5" font-family="Helvetica,sans-Serif" font-size="10.00">/src/tgc.c</text>
</a>
</g>
</g>
<!-- Node2&#45;&gt;Node13 -->
<g id="edge31" class="edge">
<title>Node2&#45;&gt;Node13</title>
<path fill="none" stroke="midnightblue" d="M528.32,-392.89C537.53,-362.92 549.2,-310.04 534,-268 528.88,-253.84 517.88,-240.86 508.41,-231.6"/>
<polygon fill="midnightblue" stroke="midnightblue" points="524.97,-391.89 525.21,-402.49 531.62,-394.05 524.97,-391.89"/>
</g>
<!-- Node14 -->
<g id="node14" class="node">
<title>Node14</title>
<g id="a_node14"><a xlink:href="l__std_8h.html" target="_top" xlink:title=" ">
<polygon fill="white" stroke="black" points="624.5,-201.5 624.5,-231.5 775.5,-231.5 775.5,-201.5 624.5,-201.5"/>
<text text-anchor="start" x="632.5" y="-219.5" font-family="Helvetica,sans-Serif" font-size="10.00">/home/bugy/projs/lobotomy</text>
<text text-anchor="middle" x="700" y="-208.5" font-family="Helvetica,sans-Serif" font-size="10.00">/src/l_std.h</text>
</a>
</g>
</g>
<!-- Node2&#45;&gt;Node14 -->
<g id="edge21" class="edge">
<title>Node2&#45;&gt;Node14</title>
<path fill="none" stroke="midnightblue" d="M539.79,-394.62C576.93,-353.56 656.16,-265.97 687.17,-231.68"/>
<polygon fill="midnightblue" stroke="midnightblue" points="537.06,-392.42 532.95,-402.19 542.25,-397.12 537.06,-392.42"/>
</g>
<!-- Node15 -->
<g id="node15" class="node">
<title>Node15</title>
<g id="a_node15"><a xlink:href="eval_8h.html" target="_top" xlink:title=" ">
<polygon fill="white" stroke="black" points="793.5,-201.5 793.5,-231.5 944.5,-231.5 944.5,-201.5 793.5,-201.5"/>
<text text-anchor="start" x="801.5" y="-219.5" font-family="Helvetica,sans-Serif" font-size="10.00">/home/bugy/projs/lobotomy</text>
<text text-anchor="middle" x="869" y="-208.5" font-family="Helvetica,sans-Serif" font-size="10.00">/src/eval.h</text>
</a>
</g>
</g>
<!-- Node2&#45;&gt;Node15 -->
<g id="edge24" class="edge">
<title>Node2&#45;&gt;Node15</title>
<path fill="none" stroke="midnightblue" d="M553.66,-397.3C623.46,-357.51 782.56,-266.79 844.07,-231.71"/>
<polygon fill="midnightblue" stroke="midnightblue" points="551.77,-394.35 544.82,-402.35 555.24,-400.44 551.77,-394.35"/>
</g>
<!-- Node2&#45;&gt;Node16 -->
<g id="edge27" class="edge">
<title>Node2&#45;&gt;Node16</title>
<path fill="none" stroke="midnightblue" d="M451.2,-400.12C406.53,-389.48 348.9,-375.76 306.27,-365.61"/>
<polygon fill="midnightblue" stroke="midnightblue" points="450.56,-403.56 461.1,-402.48 452.18,-396.75 450.56,-403.56"/>
</g>
<!-- Node17 -->
<g id="node17" class="node">
<title>Node17</title>
<g id="a_node17"><a xlink:href="vm_8h.html" target="_top" xlink:title=" ">
<polygon fill="white" stroke="black" points="700.5,-335.5 700.5,-365.5 851.5,-365.5 851.5,-335.5 700.5,-335.5"/>
<text text-anchor="start" x="708.5" y="-353.5" font-family="Helvetica,sans-Serif" font-size="10.00">/home/bugy/projs/lobotomy</text>
<text text-anchor="middle" x="776" y="-342.5" font-family="Helvetica,sans-Serif" font-size="10.00">/src/vm.h</text>
</a>
</g>
</g>
<!-- Node2&#45;&gt;Node17 -->
<g id="edge32" class="edge">
<title>Node2&#45;&gt;Node17</title>
<path fill="none" stroke="midnightblue" d="M585.05,-399.98C626.86,-389.37 680.61,-375.72 720.42,-365.61"/>
<polygon fill="midnightblue" stroke="midnightblue" points="584.06,-396.62 575.23,-402.48 585.79,-403.41 584.06,-396.62"/>
</g>
<!-- Node3&#45;&gt;Node4 -->
<g id="edge3" class="edge">
<title>Node3&#45;&gt;Node4</title>
<path fill="none" stroke="midnightblue" d="M378.13,-330.85C357.26,-320.58 331.77,-308.03 312.59,-298.58"/>
<polygon fill="midnightblue" stroke="midnightblue" points="376.84,-334.12 387.36,-335.4 379.93,-327.84 376.84,-334.12"/>
</g>
<!-- Node4&#45;&gt;Node5 -->
<g id="edge4" class="edge">
<title>Node4&#45;&gt;Node5</title>
<path fill="none" stroke="midnightblue" d="M284,-258.11C284,-249.15 284,-239.32 284,-231.58"/>
<polygon fill="midnightblue" stroke="midnightblue" points="280.5,-258.4 284,-268.4 287.5,-258.4 280.5,-258.4"/>
</g>
<!-- Node7 -->
<g id="node7" class="node">
<title>Node7</title>
<g id="a_node7"><a xlink:href="eval_8c.html" target="_top" xlink:title=" ">
<polygon fill="white" stroke="black" points="481.5,-67.5 481.5,-97.5 632.5,-97.5 632.5,-67.5 481.5,-67.5"/>
<text text-anchor="start" x="489.5" y="-85.5" font-family="Helvetica,sans-Serif" font-size="10.00">/home/bugy/projs/lobotomy</text>
<text text-anchor="middle" x="557" y="-74.5" font-family="Helvetica,sans-Serif" font-size="10.00">/src/eval.c</text>
</a>
</g>
</g>
<!-- Node4&#45;&gt;Node7 -->
<g id="edge15" class="edge">
<title>Node4&#45;&gt;Node7</title>
<path fill="none" stroke="midnightblue" d="M228.39,-265C156.31,-239.56 45.38,-189.34 95,-134 120.28,-105.8 356.98,-91.8 481.39,-86.34"/>
<polygon fill="midnightblue" stroke="midnightblue" points="227.69,-268.46 238.29,-268.42 229.98,-261.84 227.69,-268.46"/>
</g>
<!-- Node4&#45;&gt;Node9 -->
<g id="edge17" class="edge">
<title>Node4&#45;&gt;Node9</title>
<path fill="none" stroke="midnightblue" d="M198.2,-276.23C164.19,-269.67 127.06,-256.84 101,-232 68.69,-201.2 56.08,-172.31 79,-134 113.06,-77.07 185.2,-46.14 237.4,-30.52"/>
<polygon fill="midnightblue" stroke="midnightblue" points="197.72,-279.69 208.17,-277.99 198.94,-272.8 197.72,-279.69"/>
</g>
<!-- Node10 -->
<g id="node10" class="node">
<title>Node10</title>
<g id="a_node10"><a xlink:href="l__std_8c.html" target="_top" xlink:title=" ">
<polygon fill="white" stroke="black" points="689.5,-134.5 689.5,-164.5 840.5,-164.5 840.5,-134.5 689.5,-134.5"/>
<text text-anchor="start" x="697.5" y="-152.5" font-family="Helvetica,sans-Serif" font-size="10.00">/home/bugy/projs/lobotomy</text>
<text text-anchor="middle" x="765" y="-141.5" font-family="Helvetica,sans-Serif" font-size="10.00">/src/l_std.c</text>
</a>
</g>
</g>
<!-- Node4&#45;&gt;Node10 -->
<g id="edge16" class="edge">
<title>Node4&#45;&gt;Node10</title>
<path fill="none" stroke="midnightblue" d="M318.71,-263.31C334.38,-254.28 352.94,-243.08 369,-232 387.23,-219.43 387.66,-209.75 408,-201 420.8,-195.5 588.39,-173.23 689.33,-160.18"/>
<polygon fill="midnightblue" stroke="midnightblue" points="316.81,-260.36 309.85,-268.35 320.27,-266.44 316.81,-260.36"/>
</g>
<!-- Node4&#45;&gt;Node13 -->
<g id="edge18" class="edge">
<title>Node4&#45;&gt;Node13</title>
<path fill="none" stroke="midnightblue" d="M338.58,-265.44C372.3,-254.91 415.04,-241.55 446.85,-231.61"/>
<polygon fill="midnightblue" stroke="midnightblue" points="337.38,-262.15 328.88,-268.48 339.47,-268.83 337.38,-262.15"/>
</g>
<!-- Node6 -->
<g id="node6" class="node">
<title>Node6</title>
<g id="a_node6"><a xlink:href="parse_8h.html" target="_top" xlink:title=" ">
<polygon fill="white" stroke="black" points="481.5,-134.5 481.5,-164.5 632.5,-164.5 632.5,-134.5 481.5,-134.5"/>
<text text-anchor="start" x="489.5" y="-152.5" font-family="Helvetica,sans-Serif" font-size="10.00">/home/bugy/projs/lobotomy</text>
<text text-anchor="middle" x="557" y="-141.5" font-family="Helvetica,sans-Serif" font-size="10.00">/src/parse.h</text>
</a>
</g>
</g>
<!-- Node5&#45;&gt;Node6 -->
<g id="edge5" class="edge">
<title>Node5&#45;&gt;Node6</title>
<path fill="none" stroke="midnightblue" d="M352.8,-199.12C397.47,-188.48 455.1,-174.76 497.73,-164.61"/>
<polygon fill="midnightblue" stroke="midnightblue" points="351.82,-195.75 342.9,-201.48 353.44,-202.56 351.82,-195.75"/>
</g>
<!-- Node5&#45;&gt;Node7 -->
<g id="edge9" class="edge">
<title>Node5&#45;&gt;Node7</title>
<path fill="none" stroke="midnightblue" d="M350.47,-198.54C377.29,-190.33 407.99,-179.15 434,-165 453.45,-154.42 454.81,-146.62 473,-134 492.01,-120.81 514.53,-107.38 531.47,-97.69"/>
<polygon fill="midnightblue" stroke="midnightblue" points="349.36,-195.22 340.78,-201.43 351.36,-201.93 349.36,-195.22"/>
</g>
<!-- Node5&#45;&gt;Node10 -->
<g id="edge10" class="edge">
<title>Node5&#45;&gt;Node10</title>
<path fill="none" stroke="midnightblue" d="M369.56,-201.65C371.05,-201.43 372.53,-201.21 374,-201 483.39,-185.13 610.38,-169.18 689.22,-159.58"/>
<polygon fill="midnightblue" stroke="midnightblue" points="368.97,-198.2 359.6,-203.14 370,-205.12 368.97,-198.2"/>
</g>
<!-- Node11 -->
<g id="node11" class="node">
<title>Node11</title>
<g id="a_node11"><a xlink:href="lsdl_8c.html" target="_top" xlink:title=" ">
<polygon fill="white" stroke="black" points="104.5,-134.5 104.5,-164.5 255.5,-164.5 255.5,-134.5 104.5,-134.5"/>
<text text-anchor="start" x="112.5" y="-152.5" font-family="Helvetica,sans-Serif" font-size="10.00">/home/bugy/projs/lobotomy</text>
<text text-anchor="middle" x="180" y="-141.5" font-family="Helvetica,sans-Serif" font-size="10.00">/src/lsdl.c</text>
</a>
</g>
</g>
<!-- Node5&#45;&gt;Node11 -->
<g id="edge13" class="edge">
<title>Node5&#45;&gt;Node11</title>
<path fill="none" stroke="midnightblue" d="M252.82,-196.02C236.64,-185.9 217.23,-173.77 202.52,-164.58"/>
<polygon fill="midnightblue" stroke="midnightblue" points="251.1,-199.06 261.43,-201.4 254.81,-193.13 251.1,-199.06"/>
</g>
<!-- Node12 -->
<g id="node12" class="node">
<title>Node12</title>
<g id="a_node12"><a xlink:href="sample__module_8c.html" target="_top" xlink:title=" ">
<polygon fill="white" stroke="black" points="273.5,-134.5 273.5,-164.5 424.5,-164.5 424.5,-134.5 273.5,-134.5"/>
<text text-anchor="start" x="281.5" y="-152.5" font-family="Helvetica,sans-Serif" font-size="10.00">/home/bugy/projs/lobotomy</text>
<text text-anchor="middle" x="349" y="-141.5" font-family="Helvetica,sans-Serif" font-size="10.00">/src/sample_module.c</text>
</a>
</g>
</g>
<!-- Node5&#45;&gt;Node12 -->
<g id="edge14" class="edge">
<title>Node5&#45;&gt;Node12</title>
<path fill="none" stroke="midnightblue" d="M305.19,-194.31C314.94,-184.56 326.24,-173.26 334.92,-164.58"/>
<polygon fill="midnightblue" stroke="midnightblue" points="302.7,-191.85 298.1,-201.4 307.65,-196.8 302.7,-191.85"/>
</g>
<!-- Node6&#45;&gt;Node7 -->
<g id="edge6" class="edge">
<title>Node6&#45;&gt;Node7</title>
<path fill="none" stroke="midnightblue" d="M557,-124.11C557,-115.15 557,-105.32 557,-97.58"/>
<polygon fill="midnightblue" stroke="midnightblue" points="553.5,-124.4 557,-134.4 560.5,-124.4 553.5,-124.4"/>
</g>
<!-- Node7&#45;&gt;Node8 -->
<g id="edge7" class="edge">
<title>Node7&#45;&gt;Node8</title>
<path fill="none" stroke="midnightblue" d="M611.58,-64.44C645.3,-53.91 688.04,-40.55 719.85,-30.61"/>
<polygon fill="midnightblue" stroke="midnightblue" points="610.38,-61.15 601.88,-67.48 612.47,-67.83 610.38,-61.15"/>
</g>
<!-- Node7&#45;&gt;Node9 -->
<g id="edge8" class="edge">
<title>Node7&#45;&gt;Node9</title>
<path fill="none" stroke="midnightblue" d="M491.19,-64.98C448.89,-54.37 394.51,-40.72 354.23,-30.61"/>
<polygon fill="midnightblue" stroke="midnightblue" points="490.57,-68.44 501.12,-67.48 492.27,-61.65 490.57,-68.44"/>
</g>
<!-- Node10&#45;&gt;Node8 -->
<g id="edge11" class="edge">
<title>Node10&#45;&gt;Node8</title>
<path fill="none" stroke="midnightblue" d="M765,-124.02C765,-96.51 765,-52.79 765,-30.52"/>
<polygon fill="midnightblue" stroke="midnightblue" points="761.5,-124.37 765,-134.37 768.5,-124.37 761.5,-124.37"/>
</g>
<!-- Node10&#45;&gt;Node9 -->
<g id="edge12" class="edge">
<title>Node10&#45;&gt;Node9</title>
<path fill="none" stroke="midnightblue" d="M740.78,-127.72C717.19,-108.68 679.5,-81.35 642,-67 553.77,-33.24 444.86,-21.88 373.52,-18.16"/>
<polygon fill="midnightblue" stroke="midnightblue" points="738.86,-130.67 748.81,-134.32 743.31,-125.26 738.86,-130.67"/>
</g>
<!-- Node14&#45;&gt;Node7 -->
<g id="edge22" class="edge">
<title>Node14&#45;&gt;Node7</title>
<path fill="none" stroke="midnightblue" d="M687.22,-192.49C676.7,-174.98 660.54,-151.07 642,-134 625.84,-119.12 604.59,-106.49 587.38,-97.59"/>
<polygon fill="midnightblue" stroke="midnightblue" points="684.4,-194.6 692.46,-201.47 690.44,-191.07 684.4,-194.6"/>
</g>
<!-- Node14&#45;&gt;Node10 -->
<g id="edge23" class="edge">
<title>Node14&#45;&gt;Node10</title>
<path fill="none" stroke="midnightblue" d="M721.19,-194.31C730.94,-184.56 742.24,-173.26 750.92,-164.58"/>
<polygon fill="midnightblue" stroke="midnightblue" points="718.7,-191.85 714.1,-201.4 723.65,-196.8 718.7,-191.85"/>
</g>
<!-- Node15&#45;&gt;Node7 -->
<g id="edge25" class="edge">
<title>Node15&#45;&gt;Node7</title>
<path fill="none" stroke="midnightblue" d="M870.03,-191.2C869.42,-172.88 865.39,-148.52 850,-134 819.4,-105.13 708.98,-92.55 632.79,-87.22"/>
<polygon fill="midnightblue" stroke="midnightblue" points="866.53,-191.43 870.05,-201.43 873.53,-191.42 866.53,-191.43"/>
</g>
<!-- Node15&#45;&gt;Node10 -->
<g id="edge26" class="edge">
<title>Node15&#45;&gt;Node10</title>
<path fill="none" stroke="midnightblue" d="M837.82,-196.02C821.64,-185.9 802.23,-173.77 787.52,-164.58"/>
<polygon fill="midnightblue" stroke="midnightblue" points="836.1,-199.06 846.43,-201.4 839.81,-193.13 836.1,-199.06"/>
</g>
<!-- Node16&#45;&gt;Node10 -->
<g id="edge28" class="edge">
<title>Node16&#45;&gt;Node10</title>
<path fill="none" stroke="midnightblue" d="M313.53,-332.8C382.2,-313.98 491.1,-279.69 577,-232 596.36,-221.25 596.56,-211.6 616,-201 645.14,-185.11 680.18,-172.93 708.96,-164.52"/>
<polygon fill="midnightblue" stroke="midnightblue" points="312.44,-329.47 303.7,-335.46 314.27,-336.22 312.44,-329.47"/>
</g>
</g>
</svg>
