<?xml version="1.0" encoding="UTF-8" standalone="no"?>
<!DOCTYPE svg PUBLIC "-//W3C//DTD SVG 1.1//EN"
 "http://www.w3.org/Graphics/SVG/1.1/DTD/svg11.dtd">
<!-- Generated by graphviz version 2.43.0 (0)
 -->
<!-- Title: /home/bugy/projs/lobotomy/src/l_std.h Pages: 1 -->
<svg width="565pt" height="207pt"
 viewBox="0.00 0.00 564.50 207.00" xmlns="http://www.w3.org/2000/svg" xmlns:xlink="http://www.w3.org/1999/xlink">
<g id="graph0" class="graph" transform="scale(1 1) rotate(0) translate(4 203)">
<title>/home/bugy/projs/lobotomy/src/l_std.h</title>
<polygon fill="white" stroke="transparent" points="-4,4 -4,-203 560.5,-203 560.5,4 -4,4"/>
<!-- Node1 -->
<g id="node1" class="node">
<title>Node1</title>
<g id="a_node1"><a xlink:title=" ">
<polygon fill="#bfbfbf" stroke="black" points="160.5,-168.5 160.5,-198.5 311.5,-198.5 311.5,-168.5 160.5,-168.5"/>
<text text-anchor="start" x="168.5" y="-186.5" font-family="Helvetica,sans-Serif" font-size="10.00">/home/bugy/projs/lobotomy</text>
<text text-anchor="middle" x="236" y="-175.5" font-family="Helvetica,sans-Serif" font-size="10.00">/src/l_std.h</text>
</a>
</g>
</g>
<!-- Node2 -->
<g id="node2" class="node">
<title>Node2</title>
<g id="a_node2"><a xlink:title=" ">
<polygon fill="white" stroke="#bfbfbf" points="0,-0.5 0,-19.5 50,-19.5 50,-0.5 0,-0.5"/>
<text text-anchor="middle" x="25" y="-7.5" font-family="Helvetica,sans-Serif" font-size="10.00">stdio.h</text>
</a>
</g>
</g>
<!-- Node1&#45;&gt;Node2 -->
<g id="edge1" class="edge">
<title>Node1&#45;&gt;Node2</title>
<path fill="none" stroke="midnightblue" d="M202.87,-168.37C183.6,-159.36 159.38,-146.65 140,-132 98,-100.24 57.69,-52.61 37.83,-27.64"/>
<polygon fill="midnightblue" stroke="midnightblue" points="40.4,-25.24 31.47,-19.53 34.89,-29.56 40.4,-25.24"/>
</g>
<!-- Node3 -->
<g id="node3" class="node">
<title>Node3</title>
<g id="a_node3"><a xlink:title=" ">
<polygon fill="white" stroke="#bfbfbf" points="412.5,-0.5 412.5,-19.5 465.5,-19.5 465.5,-0.5 412.5,-0.5"/>
<text text-anchor="middle" x="439" y="-7.5" font-family="Helvetica,sans-Serif" font-size="10.00">stdlib.h</text>
</a>
</g>
</g>
<!-- Node1&#45;&gt;Node3 -->
<g id="edge2" class="edge">
<title>Node1&#45;&gt;Node3</title>
<path fill="none" stroke="midnightblue" d="M298.41,-168.48C346.39,-154.08 409.46,-126.4 440,-76 448.4,-62.14 447.06,-43.37 444.27,-29.57"/>
<polygon fill="midnightblue" stroke="midnightblue" points="447.64,-28.64 441.87,-19.75 440.84,-30.29 447.64,-28.64"/>
</g>
<!-- Node4 -->
<g id="node4" class="node">
<title>Node4</title>
<g id="a_node4"><a xlink:title=" ">
<polygon fill="white" stroke="#bfbfbf" points="68.5,-0.5 68.5,-19.5 121.5,-19.5 121.5,-0.5 68.5,-0.5"/>
<text text-anchor="middle" x="95" y="-7.5" font-family="Helvetica,sans-Serif" font-size="10.00">string.h</text>
</a>
</g>
</g>
<!-- Node1&#45;&gt;Node4 -->
<g id="edge3" class="edge">
<title>Node1&#45;&gt;Node4</title>
<path fill="none" stroke="midnightblue" d="M213.15,-168.47C185.63,-150.42 139.89,-116.51 114,-76 105,-61.91 100.13,-43.42 97.59,-29.77"/>
<polygon fill="midnightblue" stroke="midnightblue" points="101,-28.95 95.96,-19.63 94.09,-30.06 101,-28.95"/>
</g>
<!-- Node5 -->
<g id="node5" class="node">
<title>Node5</title>
<g id="a_node5"><a xlink:title=" ">
<polygon fill="white" stroke="#bfbfbf" points="505.5,-112.5 505.5,-131.5 556.5,-131.5 556.5,-112.5 505.5,-112.5"/>
<text text-anchor="middle" x="531" y="-119.5" font-family="Helvetica,sans-Serif" font-size="10.00">math.h</text>
</a>
</g>
</g>
<!-- Node1&#45;&gt;Node5 -->
<g id="edge4" class="edge">
<title>Node1&#45;&gt;Node5</title>
<path fill="none" stroke="midnightblue" d="M309.47,-168.47C360.48,-158.6 429.96,-144.91 491,-132 492.44,-131.7 493.9,-131.38 495.38,-131.06"/>
<polygon fill="midnightblue" stroke="midnightblue" points="496.18,-134.47 505.2,-128.91 494.68,-127.63 496.18,-134.47"/>
</g>
<!-- Node6 -->
<g id="node6" class="node">
<title>Node6</title>
<g id="a_node6"><a xlink:href="obj_8h.html" target="_top" xlink:title=" ">
<polygon fill="white" stroke="black" points="215.5,-112.5 215.5,-131.5 256.5,-131.5 256.5,-112.5 215.5,-112.5"/>
<text text-anchor="middle" x="236" y="-119.5" font-family="Helvetica,sans-Serif" font-size="10.00">obj.h</text>
</a>
</g>
</g>
<!-- Node1&#45;&gt;Node6 -->
<g id="edge5" class="edge">
<title>Node1&#45;&gt;Node6</title>
<path fill="none" stroke="midnightblue" d="M236,-168.4C236,-160.47 236,-150.46 236,-141.86"/>
<polygon fill="midnightblue" stroke="midnightblue" points="239.5,-141.66 236,-131.66 232.5,-141.66 239.5,-141.66"/>
</g>
<!-- Node6&#45;&gt;Node2 -->
<g id="edge9" class="edge">
<title>Node6&#45;&gt;Node2</title>
<path fill="none" stroke="midnightblue" d="M215.4,-115.32C190.53,-108.03 147.82,-94.13 114,-76 87.58,-61.84 60.16,-40.66 42.86,-26.36"/>
<polygon fill="midnightblue" stroke="midnightblue" points="44.7,-23.34 34.8,-19.59 40.2,-28.7 44.7,-23.34"/>
</g>
<!-- Node6&#45;&gt;Node3 -->
<g id="edge6" class="edge">
<title>Node6&#45;&gt;Node3</title>
<path fill="none" stroke="midnightblue" d="M256.76,-118.54C299.76,-113.04 396.53,-98.45 420,-76 432.47,-64.07 436.89,-44.46 438.39,-29.89"/>
<polygon fill="midnightblue" stroke="midnightblue" points="441.9,-29.74 439.06,-19.53 434.92,-29.28 441.9,-29.74"/>
</g>
<!-- Node6&#45;&gt;Node4 -->
<g id="edge10" class="edge">
<title>Node6&#45;&gt;Node4</title>
<path fill="none" stroke="midnightblue" d="M215.17,-115.88C192.97,-109.56 157.8,-97 134,-76 119.39,-63.11 108.63,-43.39 102.16,-29.05"/>
<polygon fill="midnightblue" stroke="midnightblue" points="105.34,-27.57 98.21,-19.73 98.89,-30.3 105.34,-27.57"/>
</g>
<!-- Node7 -->
<g id="node7" class="node">
<title>Node7</title>
<g id="a_node7"><a xlink:title=" ">
<polygon fill="white" stroke="#bfbfbf" points="150.5,-0.5 150.5,-19.5 203.5,-19.5 203.5,-0.5 150.5,-0.5"/>
<text text-anchor="middle" x="177" y="-7.5" font-family="Helvetica,sans-Serif" font-size="10.00">stdint.h</text>
</a>
</g>
</g>
<!-- Node6&#45;&gt;Node7 -->
<g id="edge7" class="edge">
<title>Node6&#45;&gt;Node7</title>
<path fill="none" stroke="midnightblue" d="M215.45,-117.8C192.76,-113.06 157.3,-101.75 141,-76 130.62,-59.6 144.88,-40.02 158.4,-26.67"/>
<polygon fill="midnightblue" stroke="midnightblue" points="161.09,-28.94 166.08,-19.6 156.35,-23.79 161.09,-28.94"/>
</g>
<!-- Node8 -->
<g id="node8" class="node">
<title>Node8</title>
<g id="a_node8"><a xlink:title=" ">
<polygon fill="white" stroke="#bfbfbf" points="233,-0.5 233,-19.5 295,-19.5 295,-0.5 233,-0.5"/>
<text text-anchor="middle" x="264" y="-7.5" font-family="Helvetica,sans-Serif" font-size="10.00">stdbool.h</text>
</a>
</g>
</g>
<!-- Node6&#45;&gt;Node8 -->
<g id="edge8" class="edge">
<title>Node6&#45;&gt;Node8</title>
<path fill="none" stroke="midnightblue" d="M240.49,-112.28C244.88,-103.39 251.4,-89.08 255,-76 259.21,-60.71 261.5,-42.83 262.72,-29.69"/>
<polygon fill="midnightblue" stroke="midnightblue" points="266.22,-29.81 263.53,-19.56 259.24,-29.25 266.22,-29.81"/>
</g>
<!-- Node9 -->
<g id="node9" class="node">
<title>Node9</title>
<g id="a_node9"><a xlink:title=" ">
<polygon fill="white" stroke="#bfbfbf" points="302.5,-56.5 302.5,-75.5 357.5,-75.5 357.5,-56.5 302.5,-56.5"/>
<text text-anchor="middle" x="330" y="-63.5" font-family="Helvetica,sans-Serif" font-size="10.00">wchar.h</text>
</a>
</g>
</g>
<!-- Node6&#45;&gt;Node9 -->
<g id="edge11" class="edge">
<title>Node6&#45;&gt;Node9</title>
<path fill="none" stroke="midnightblue" d="M251.1,-112.32C265.9,-103.82 288.69,-90.73 305.98,-80.8"/>
<polygon fill="midnightblue" stroke="midnightblue" points="308.01,-83.67 314.93,-75.65 304.52,-77.6 308.01,-83.67"/>
</g>
<!-- Node10 -->
<g id="node10" class="node">
<title>Node10</title>
<g id="a_node10"><a xlink:href="SHM_2hashmap_8h.html" target="_top" xlink:title=" ">
<polygon fill="white" stroke="black" points="150,-56.5 150,-75.5 246,-75.5 246,-56.5 150,-56.5"/>
<text text-anchor="middle" x="198" y="-63.5" font-family="Helvetica,sans-Serif" font-size="10.00">SHM/hashmap.h</text>
</a>
</g>
</g>
<!-- Node6&#45;&gt;Node10 -->
<g id="edge12" class="edge">
<title>Node6&#45;&gt;Node10</title>
<path fill="none" stroke="midnightblue" d="M229.73,-112.08C224.36,-104.46 216.48,-93.26 209.92,-83.94"/>
<polygon fill="midnightblue" stroke="midnightblue" points="212.78,-81.91 204.16,-75.75 207.05,-85.94 212.78,-81.91"/>
</g>
<!-- Node11 -->
<g id="node11" class="node">
<title>Node11</title>
<g id="a_node11"><a xlink:href="io_8h.html" target="_top" xlink:title=" ">
<polygon fill="white" stroke="black" points="375.5,-56.5 375.5,-75.5 410.5,-75.5 410.5,-56.5 375.5,-56.5"/>
<text text-anchor="middle" x="393" y="-63.5" font-family="Helvetica,sans-Serif" font-size="10.00">io.h</text>
</a>
</g>
</g>
<!-- Node6&#45;&gt;Node11 -->
<g id="edge18" class="edge">
<title>Node6&#45;&gt;Node11</title>
<path fill="none" stroke="midnightblue" d="M256.88,-113.84C280.97,-105.59 322.01,-91.5 365.72,-76.44"/>
<polygon fill="midnightblue" stroke="midnightblue" points="367.07,-79.67 375.38,-73.11 364.79,-73.06 367.07,-79.67"/>
</g>
<!-- Node10&#45;&gt;Node2 -->
<g id="edge14" class="edge">
<title>Node10&#45;&gt;Node2</title>
<path fill="none" stroke="midnightblue" d="M170.59,-56.44C140.54,-47.06 92.27,-32 59.63,-21.81"/>
<polygon fill="midnightblue" stroke="midnightblue" points="60.63,-18.45 50.04,-18.82 58.54,-25.14 60.63,-18.45"/>
</g>
<!-- Node10&#45;&gt;Node3 -->
<g id="edge13" class="edge">
<title>Node10&#45;&gt;Node3</title>
<path fill="none" stroke="midnightblue" d="M236.19,-56.44C281.75,-46.24 357.38,-29.29 402.28,-19.23"/>
<polygon fill="midnightblue" stroke="midnightblue" points="403.19,-22.61 412.18,-17.01 401.66,-15.78 403.19,-22.61"/>
</g>
<!-- Node10&#45;&gt;Node4 -->
<g id="edge17" class="edge">
<title>Node10&#45;&gt;Node4</title>
<path fill="none" stroke="midnightblue" d="M181.45,-56.32C165.01,-47.7 139.57,-34.36 120.53,-24.39"/>
<polygon fill="midnightblue" stroke="midnightblue" points="121.99,-21.2 111.51,-19.65 118.74,-27.4 121.99,-21.2"/>
</g>
<!-- Node10&#45;&gt;Node7 -->
<g id="edge15" class="edge">
<title>Node10&#45;&gt;Node7</title>
<path fill="none" stroke="midnightblue" d="M194.53,-56.08C191.69,-48.77 187.57,-38.18 184.04,-29.1"/>
<polygon fill="midnightblue" stroke="midnightblue" points="187.29,-27.8 180.4,-19.75 180.77,-30.34 187.29,-27.8"/>
</g>
<!-- Node10&#45;&gt;Node8 -->
<g id="edge16" class="edge">
<title>Node10&#45;&gt;Node8</title>
<path fill="none" stroke="midnightblue" d="M208.6,-56.32C218.46,-48.26 233.35,-36.08 245.22,-26.37"/>
<polygon fill="midnightblue" stroke="midnightblue" points="247.68,-28.88 253.2,-19.83 243.25,-23.46 247.68,-28.88"/>
</g>
</g>
</svg>
