<?xml version="1.0" encoding="UTF-8" standalone="no"?>
<!DOCTYPE svg PUBLIC "-//W3C//DTD SVG 1.1//EN"
 "http://www.w3.org/Graphics/SVG/1.1/DTD/svg11.dtd">
<!-- Generated by graphviz version 2.43.0 (0)
 -->
<!-- Title: /home/bugy/projs/lobotomy/src/l_sdl.c Pages: 1 -->
<svg width="1891pt" height="487pt"
 viewBox="0.00 0.00 1890.94 487.00" xmlns="http://www.w3.org/2000/svg" xmlns:xlink="http://www.w3.org/1999/xlink">
<g id="graph0" class="graph" transform="scale(1 1) rotate(0) translate(4 483)">
<title>/home/bugy/projs/lobotomy/src/l_sdl.c</title>
<polygon fill="white" stroke="transparent" points="-4,4 -4,-483 1886.94,-483 1886.94,4 -4,4"/>
<!-- Node1 -->
<g id="node1" class="node">
<title>Node1</title>
<g id="a_node1"><a xlink:title=" ">
<polygon fill="#bfbfbf" stroke="black" points="743,-448.5 743,-478.5 894,-478.5 894,-448.5 743,-448.5"/>
<text text-anchor="start" x="751" y="-466.5" font-family="Helvetica,sans-Serif" font-size="10.00">/home/bugy/projs/lobotomy</text>
<text text-anchor="middle" x="818.5" y="-455.5" font-family="Helvetica,sans-Serif" font-size="10.00">/src/l_sdl.c</text>
</a>
</g>
</g>
<!-- Node2 -->
<g id="node2" class="node">
<title>Node2</title>
<g id="a_node2"><a xlink:title=" ">
<polygon fill="white" stroke="#bfbfbf" points="72.5,-392.5 72.5,-411.5 144.5,-411.5 144.5,-392.5 72.5,-392.5"/>
<text text-anchor="middle" x="108.5" y="-399.5" font-family="Helvetica,sans-Serif" font-size="10.00">SDL2/SDL.h</text>
</a>
</g>
</g>
<!-- Node1&#45;&gt;Node2 -->
<g id="edge1" class="edge">
<title>Node1&#45;&gt;Node2</title>
<path fill="none" stroke="midnightblue" d="M742.89,-459.75C621.05,-454.67 373.63,-441.61 154.85,-412.03"/>
<polygon fill="midnightblue" stroke="midnightblue" points="155.17,-408.54 144.79,-410.65 154.22,-415.47 155.17,-408.54"/>
</g>
<!-- Node3 -->
<g id="node3" class="node">
<title>Node3</title>
<g id="a_node3"><a xlink:title=" ">
<polygon fill="white" stroke="#bfbfbf" points="162.5,-392.5 162.5,-411.5 266.5,-411.5 266.5,-392.5 162.5,-392.5"/>
<text text-anchor="middle" x="214.5" y="-399.5" font-family="Helvetica,sans-Serif" font-size="10.00">SDL2/SDL_video.h</text>
</a>
</g>
</g>
<!-- Node1&#45;&gt;Node3 -->
<g id="edge2" class="edge">
<title>Node1&#45;&gt;Node3</title>
<path fill="none" stroke="midnightblue" d="M742.66,-456.39C638.4,-447.76 445,-430.93 280.5,-412 279.24,-411.86 277.97,-411.71 276.68,-411.55"/>
<polygon fill="midnightblue" stroke="midnightblue" points="277.07,-408.07 266.71,-410.33 276.21,-415.02 277.07,-408.07"/>
</g>
<!-- Node4 -->
<g id="node4" class="node">
<title>Node4</title>
<g id="a_node4"><a xlink:href="obj_8h.html" target="_top" xlink:title=" ">
<polygon fill="white" stroke="black" points="1327,-112.5 1327,-131.5 1368,-131.5 1368,-112.5 1327,-112.5"/>
<text text-anchor="middle" x="1347.5" y="-119.5" font-family="Helvetica,sans-Serif" font-size="10.00">obj.h</text>
</a>
</g>
</g>
<!-- Node1&#45;&gt;Node4 -->
<g id="edge3" class="edge">
<title>Node1&#45;&gt;Node4</title>
<path fill="none" stroke="midnightblue" d="M894.08,-459.66C1096.12,-451.08 1633.5,-421.27 1633.5,-347 1633.5,-347 1633.5,-347 1633.5,-233 1633.5,-205.87 1451.94,-152.14 1378.14,-131.42"/>
<polygon fill="midnightblue" stroke="midnightblue" points="1378.64,-127.93 1368.07,-128.61 1376.76,-134.67 1378.64,-127.93"/>
</g>
<!-- Node13 -->
<g id="node13" class="node">
<title>Node13</title>
<g id="a_node13"><a xlink:href="eval_8c.html" target="_top" xlink:title=" ">
<polygon fill="white" stroke="black" points="795.5,-392.5 795.5,-411.5 841.5,-411.5 841.5,-392.5 795.5,-392.5"/>
<text text-anchor="middle" x="818.5" y="-399.5" font-family="Helvetica,sans-Serif" font-size="10.00">eval.c</text>
</a>
</g>
</g>
<!-- Node1&#45;&gt;Node13 -->
<g id="edge17" class="edge">
<title>Node1&#45;&gt;Node13</title>
<path fill="none" stroke="midnightblue" d="M818.5,-448.4C818.5,-440.47 818.5,-430.46 818.5,-421.86"/>
<polygon fill="midnightblue" stroke="midnightblue" points="822,-421.66 818.5,-411.66 815,-421.66 822,-421.66"/>
</g>
<!-- Node16 -->
<g id="node16" class="node">
<title>Node16</title>
<g id="a_node16"><a xlink:href="util_8h.html" target="_top" xlink:title=" ">
<polygon fill="white" stroke="black" points="415,-112.5 415,-131.5 456,-131.5 456,-112.5 415,-112.5"/>
<text text-anchor="middle" x="435.5" y="-119.5" font-family="Helvetica,sans-Serif" font-size="10.00">util.h</text>
</a>
</g>
</g>
<!-- Node1&#45;&gt;Node16 -->
<g id="edge100" class="edge">
<title>Node1&#45;&gt;Node16</title>
<path fill="none" stroke="midnightblue" d="M742.87,-461.41C597.75,-457.25 294.5,-437.71 294.5,-347 294.5,-347 294.5,-347 294.5,-233 294.5,-177.21 363.96,-145.55 405.38,-131.63"/>
<polygon fill="midnightblue" stroke="midnightblue" points="406.54,-134.93 415,-128.54 404.41,-128.26 406.54,-134.93"/>
</g>
<!-- Node21 -->
<g id="node21" class="node">
<title>Node21</title>
<g id="a_node21"><a xlink:href="error_8h.html" target="_top" xlink:title=" ">
<polygon fill="white" stroke="black" points="787,-56.5 787,-75.5 836,-75.5 836,-56.5 787,-56.5"/>
<text text-anchor="middle" x="811.5" y="-63.5" font-family="Helvetica,sans-Serif" font-size="10.00">error.h</text>
</a>
</g>
</g>
<!-- Node1&#45;&gt;Node21 -->
<g id="edge101" class="edge">
<title>Node1&#45;&gt;Node21</title>
<path fill="none" stroke="midnightblue" d="M837.75,-448.44C862.27,-428.75 901.5,-390.46 901.5,-347 901.5,-347 901.5,-347 901.5,-289 901.5,-207.3 848.5,-120.26 823.85,-84.19"/>
<polygon fill="midnightblue" stroke="midnightblue" points="826.57,-81.97 817.97,-75.78 820.83,-85.98 826.57,-81.97"/>
</g>
<!-- Node30 -->
<g id="node30" class="node">
<title>Node30</title>
<g id="a_node30"><a xlink:href="l__std_8c.html" target="_top" xlink:title=" ">
<polygon fill="white" stroke="black" points="1094.5,-336.5 1094.5,-355.5 1142.5,-355.5 1142.5,-336.5 1094.5,-336.5"/>
<text text-anchor="middle" x="1118.5" y="-343.5" font-family="Helvetica,sans-Serif" font-size="10.00">l_std.c</text>
</a>
</g>
</g>
<!-- Node1&#45;&gt;Node30 -->
<g id="edge86" class="edge">
<title>Node1&#45;&gt;Node30</title>
<path fill="none" stroke="midnightblue" d="M854.99,-448.45C914.35,-425.6 1030.84,-380.75 1086.9,-359.17"/>
<polygon fill="midnightblue" stroke="midnightblue" points="1088.24,-362.4 1096.31,-355.54 1085.72,-355.87 1088.24,-362.4"/>
</g>
<!-- Node5 -->
<g id="node5" class="node">
<title>Node5</title>
<g id="a_node5"><a xlink:title=" ">
<polygon fill="white" stroke="#bfbfbf" points="849,-0.5 849,-19.5 902,-19.5 902,-0.5 849,-0.5"/>
<text text-anchor="middle" x="875.5" y="-7.5" font-family="Helvetica,sans-Serif" font-size="10.00">stdlib.h</text>
</a>
</g>
</g>
<!-- Node4&#45;&gt;Node5 -->
<g id="edge4" class="edge">
<title>Node4&#45;&gt;Node5</title>
<path fill="none" stroke="midnightblue" d="M1326.77,-118.4C1285.91,-112.95 1192.37,-98.94 1116.5,-76 1094.38,-69.31 1090.5,-63.09 1068.5,-56 1014.99,-38.75 951.16,-25.19 911.99,-17.63"/>
<polygon fill="midnightblue" stroke="midnightblue" points="912.58,-14.18 902.1,-15.75 911.27,-21.06 912.58,-14.18"/>
</g>
<!-- Node6 -->
<g id="node6" class="node">
<title>Node6</title>
<g id="a_node6"><a xlink:title=" ">
<polygon fill="white" stroke="#bfbfbf" points="1066,-0.5 1066,-19.5 1119,-19.5 1119,-0.5 1066,-0.5"/>
<text text-anchor="middle" x="1092.5" y="-7.5" font-family="Helvetica,sans-Serif" font-size="10.00">stdint.h</text>
</a>
</g>
</g>
<!-- Node4&#45;&gt;Node6 -->
<g id="edge5" class="edge">
<title>Node4&#45;&gt;Node6</title>
<path fill="none" stroke="midnightblue" d="M1326.96,-114.14C1302.51,-105.8 1260.58,-91 1225.5,-76 1204.96,-67.22 1150.99,-40.39 1118.46,-24.07"/>
<polygon fill="midnightblue" stroke="midnightblue" points="1120.01,-20.94 1109.5,-19.58 1116.87,-27.19 1120.01,-20.94"/>
</g>
<!-- Node7 -->
<g id="node7" class="node">
<title>Node7</title>
<g id="a_node7"><a xlink:title=" ">
<polygon fill="white" stroke="#bfbfbf" points="1658.5,-0.5 1658.5,-19.5 1720.5,-19.5 1720.5,-0.5 1658.5,-0.5"/>
<text text-anchor="middle" x="1689.5" y="-7.5" font-family="Helvetica,sans-Serif" font-size="10.00">stdbool.h</text>
</a>
</g>
</g>
<!-- Node4&#45;&gt;Node7 -->
<g id="edge6" class="edge">
<title>Node4&#45;&gt;Node7</title>
<path fill="none" stroke="midnightblue" d="M1368.16,-115.37C1397.97,-107.16 1454.71,-91.23 1502.5,-76 1556.68,-58.73 1618.93,-36.64 1656.2,-23.16"/>
<polygon fill="midnightblue" stroke="midnightblue" points="1657.81,-26.3 1666.02,-19.6 1655.42,-19.72 1657.81,-26.3"/>
</g>
<!-- Node8 -->
<g id="node8" class="node">
<title>Node8</title>
<g id="a_node8"><a xlink:title=" ">
<polygon fill="white" stroke="#bfbfbf" points="1428.5,-0.5 1428.5,-19.5 1478.5,-19.5 1478.5,-0.5 1428.5,-0.5"/>
<text text-anchor="middle" x="1453.5" y="-7.5" font-family="Helvetica,sans-Serif" font-size="10.00">stdio.h</text>
</a>
</g>
</g>
<!-- Node4&#45;&gt;Node8 -->
<g id="edge7" class="edge">
<title>Node4&#45;&gt;Node8</title>
<path fill="none" stroke="midnightblue" d="M1368.04,-121.27C1399.57,-120.44 1459.12,-113.64 1486.5,-76 1497.7,-60.6 1484.33,-40.85 1471.41,-27.18"/>
<polygon fill="midnightblue" stroke="midnightblue" points="1473.62,-24.44 1464.04,-19.91 1468.71,-29.43 1473.62,-24.44"/>
</g>
<!-- Node9 -->
<g id="node9" class="node">
<title>Node9</title>
<g id="a_node9"><a xlink:title=" ">
<polygon fill="white" stroke="#bfbfbf" points="580,-0.5 580,-19.5 633,-19.5 633,-0.5 580,-0.5"/>
<text text-anchor="middle" x="606.5" y="-7.5" font-family="Helvetica,sans-Serif" font-size="10.00">string.h</text>
</a>
</g>
</g>
<!-- Node4&#45;&gt;Node9 -->
<g id="edge8" class="edge">
<title>Node4&#45;&gt;Node9</title>
<path fill="none" stroke="midnightblue" d="M1326.87,-117.85C1264.82,-108.37 1074.45,-79.37 916.5,-56 817.74,-41.39 701.21,-24.59 643.18,-16.26"/>
<polygon fill="midnightblue" stroke="midnightblue" points="643.44,-12.76 633.05,-14.8 642.45,-19.69 643.44,-12.76"/>
</g>
<!-- Node10 -->
<g id="node10" class="node">
<title>Node10</title>
<g id="a_node10"><a xlink:title=" ">
<polygon fill="white" stroke="#bfbfbf" points="0,-0.5 0,-19.5 55,-19.5 55,-0.5 0,-0.5"/>
<text text-anchor="middle" x="27.5" y="-7.5" font-family="Helvetica,sans-Serif" font-size="10.00">wchar.h</text>
</a>
</g>
</g>
<!-- Node4&#45;&gt;Node10 -->
<g id="edge9" class="edge">
<title>Node4&#45;&gt;Node10</title>
<path fill="none" stroke="midnightblue" d="M1326.82,-119.55C1252.58,-114.33 992.63,-95.68 778.5,-76 693.51,-68.19 672.49,-63.86 587.5,-56 391.08,-37.83 155.5,-20.28 65.23,-13.72"/>
<polygon fill="midnightblue" stroke="midnightblue" points="65.43,-10.22 55.2,-12.99 64.92,-17.2 65.43,-10.22"/>
</g>
<!-- Node11 -->
<g id="node11" class="node">
<title>Node11</title>
<g id="a_node11"><a xlink:href="SHM_2hashmap_8h.html" target="_top" xlink:title=" ">
<polygon fill="white" stroke="black" points="1234.5,-56.5 1234.5,-75.5 1330.5,-75.5 1330.5,-56.5 1234.5,-56.5"/>
<text text-anchor="middle" x="1282.5" y="-63.5" font-family="Helvetica,sans-Serif" font-size="10.00">SHM/hashmap.h</text>
</a>
</g>
</g>
<!-- Node4&#45;&gt;Node11 -->
<g id="edge10" class="edge">
<title>Node4&#45;&gt;Node11</title>
<path fill="none" stroke="midnightblue" d="M1337.06,-112.32C1327.35,-104.26 1312.68,-92.08 1301,-82.37"/>
<polygon fill="midnightblue" stroke="midnightblue" points="1303.06,-79.53 1293.13,-75.83 1298.59,-84.92 1303.06,-79.53"/>
</g>
<!-- Node12 -->
<g id="node12" class="node">
<title>Node12</title>
<g id="a_node12"><a xlink:href="io_8h.html" target="_top" xlink:title=" ">
<polygon fill="white" stroke="black" points="1653,-56.5 1653,-75.5 1688,-75.5 1688,-56.5 1653,-56.5"/>
<text text-anchor="middle" x="1670.5" y="-63.5" font-family="Helvetica,sans-Serif" font-size="10.00">io.h</text>
</a>
</g>
</g>
<!-- Node4&#45;&gt;Node12 -->
<g id="edge16" class="edge">
<title>Node4&#45;&gt;Node12</title>
<path fill="none" stroke="midnightblue" d="M1368.12,-118.68C1415.96,-113.11 1538.09,-97.8 1638.5,-76 1639.98,-75.68 1641.49,-75.33 1643.02,-74.96"/>
<polygon fill="midnightblue" stroke="midnightblue" points="1644.21,-78.26 1652.99,-72.34 1642.43,-71.49 1644.21,-78.26"/>
</g>
<!-- Node11&#45;&gt;Node5 -->
<g id="edge11" class="edge">
<title>Node11&#45;&gt;Node5</title>
<path fill="none" stroke="midnightblue" d="M1234.21,-58.59C1151.93,-47.68 986.28,-25.7 912.46,-15.9"/>
<polygon fill="midnightblue" stroke="midnightblue" points="912.63,-12.4 902.26,-14.55 911.71,-19.34 912.63,-12.4"/>
</g>
<!-- Node11&#45;&gt;Node6 -->
<g id="edge13" class="edge">
<title>Node11&#45;&gt;Node6</title>
<path fill="none" stroke="midnightblue" d="M1252.39,-56.44C1218.97,-46.94 1165,-31.61 1129.15,-21.41"/>
<polygon fill="midnightblue" stroke="midnightblue" points="1129.67,-17.93 1119.09,-18.56 1127.76,-24.66 1129.67,-17.93"/>
</g>
<!-- Node11&#45;&gt;Node7 -->
<g id="edge14" class="edge">
<title>Node11&#45;&gt;Node7</title>
<path fill="none" stroke="midnightblue" d="M1330.79,-58.59C1411.53,-47.88 1572.54,-26.52 1648.29,-16.47"/>
<polygon fill="midnightblue" stroke="midnightblue" points="1648.95,-19.91 1658.4,-15.13 1648.03,-12.97 1648.95,-19.91"/>
</g>
<!-- Node11&#45;&gt;Node8 -->
<g id="edge12" class="edge">
<title>Node11&#45;&gt;Node8</title>
<path fill="none" stroke="midnightblue" d="M1309.6,-56.44C1339.08,-47.13 1386.32,-32.21 1418.58,-22.03"/>
<polygon fill="midnightblue" stroke="midnightblue" points="1420,-25.25 1428.48,-18.9 1417.89,-18.58 1420,-25.25"/>
</g>
<!-- Node11&#45;&gt;Node9 -->
<g id="edge15" class="edge">
<title>Node11&#45;&gt;Node9</title>
<path fill="none" stroke="midnightblue" d="M1234.43,-61.16C1106.02,-50.9 757.04,-23.03 643.05,-13.92"/>
<polygon fill="midnightblue" stroke="midnightblue" points="643.33,-10.43 633.08,-13.12 642.77,-17.41 643.33,-10.43"/>
</g>
<!-- Node13&#45;&gt;Node5 -->
<g id="edge18" class="edge">
<title>Node13&#45;&gt;Node5</title>
<path fill="none" stroke="midnightblue" d="M795.37,-399.15C739.71,-394.35 599.94,-380.18 560.5,-356 445.72,-285.63 425.05,-152.91 518.5,-56 540.51,-33.18 752.16,-18.25 838.8,-13.05"/>
<polygon fill="midnightblue" stroke="midnightblue" points="839.19,-16.53 848.97,-12.45 838.78,-9.55 839.19,-16.53"/>
</g>
<!-- Node13&#45;&gt;Node8 -->
<g id="edge19" class="edge">
<title>Node13&#45;&gt;Node8</title>
<path fill="none" stroke="midnightblue" d="M841.53,-400.26C936.81,-397.07 1300.33,-383.3 1411.5,-356 1595.18,-310.9 1698.45,-345.95 1802.5,-188 1827.22,-150.47 1865.28,-139.01 1768.5,-56 1727.14,-20.52 1562.43,-13 1489.07,-11.42"/>
<polygon fill="midnightblue" stroke="midnightblue" points="1489,-7.91 1478.93,-11.22 1488.87,-14.91 1489,-7.91"/>
</g>
<!-- Node13&#45;&gt;Node9 -->
<g id="edge20" class="edge">
<title>Node13&#45;&gt;Node9</title>
<path fill="none" stroke="midnightblue" d="M795.32,-400.28C719.58,-397.66 480.34,-387.04 410.5,-356 239.33,-279.92 172.23,-246.88 95.5,-76 91.86,-67.89 89.5,-62.56 95.5,-56 127.44,-21.13 458.14,-13.14 569.86,-11.44"/>
<polygon fill="midnightblue" stroke="midnightblue" points="570.02,-14.93 579.97,-11.29 569.92,-7.94 570.02,-14.93"/>
</g>
<!-- Node14 -->
<g id="node14" class="node">
<title>Node14</title>
<g id="a_node14"><a xlink:title=" ">
<polygon fill="white" stroke="#bfbfbf" points="527,-56.5 527,-75.5 578,-75.5 578,-56.5 527,-56.5"/>
<text text-anchor="middle" x="552.5" y="-63.5" font-family="Helvetica,sans-Serif" font-size="10.00">math.h</text>
</a>
</g>
</g>
<!-- Node13&#45;&gt;Node14 -->
<g id="edge21" class="edge">
<title>Node13&#45;&gt;Node14</title>
<path fill="none" stroke="midnightblue" d="M795.27,-397.52C725.49,-386.41 522.5,-349.11 522.5,-291 522.5,-291 522.5,-291 522.5,-177 522.5,-143.64 535.5,-106.53 544.39,-85.07"/>
<polygon fill="midnightblue" stroke="midnightblue" points="547.71,-86.19 548.45,-75.62 541.28,-83.42 547.71,-86.19"/>
</g>
<!-- Node15 -->
<g id="node15" class="node">
<title>Node15</title>
<g id="a_node15"><a xlink:title=" ">
<polygon fill="white" stroke="#bfbfbf" points="1040.5,-280.5 1040.5,-299.5 1090.5,-299.5 1090.5,-280.5 1040.5,-280.5"/>
<text text-anchor="middle" x="1065.5" y="-287.5" font-family="Helvetica,sans-Serif" font-size="10.00">dlfcn.h</text>
</a>
</g>
</g>
<!-- Node13&#45;&gt;Node15 -->
<g id="edge22" class="edge">
<title>Node13&#45;&gt;Node15</title>
<path fill="none" stroke="midnightblue" d="M841.7,-398.34C875.92,-393.69 941.21,-381.97 990.5,-356 1014.42,-343.39 1037.2,-321.82 1051.25,-307"/>
<polygon fill="midnightblue" stroke="midnightblue" points="1053.9,-309.29 1058.1,-299.57 1048.75,-304.55 1053.9,-309.29"/>
</g>
<!-- Node13&#45;&gt;Node16 -->
<g id="edge23" class="edge">
<title>Node13&#45;&gt;Node16</title>
<path fill="none" stroke="midnightblue" d="M795.32,-401.37C720.85,-402.09 489.24,-400.64 432.5,-356 408.3,-336.96 408.5,-321.8 408.5,-291 408.5,-291 408.5,-291 408.5,-233 408.5,-199.86 420.2,-162.68 428.2,-141.14"/>
<polygon fill="midnightblue" stroke="midnightblue" points="431.52,-142.25 431.86,-131.66 424.99,-139.73 431.52,-142.25"/>
</g>
<!-- Node22 -->
<g id="node22" class="node">
<title>Node22</title>
<g id="a_node22"><a xlink:href="lexer_8h.html" target="_top" xlink:title=" ">
<polygon fill="white" stroke="black" points="664.5,-168.5 664.5,-187.5 714.5,-187.5 714.5,-168.5 664.5,-168.5"/>
<text text-anchor="middle" x="689.5" y="-175.5" font-family="Helvetica,sans-Serif" font-size="10.00">lexer.h</text>
</a>
</g>
</g>
<!-- Node13&#45;&gt;Node22 -->
<g id="edge42" class="edge">
<title>Node13&#45;&gt;Node22</title>
<path fill="none" stroke="midnightblue" d="M795.38,-396.96C772.42,-391.68 738.04,-380.09 719.5,-356 683.12,-308.74 684.37,-233.23 687.31,-198.11"/>
<polygon fill="midnightblue" stroke="midnightblue" points="690.83,-198.15 688.33,-187.85 683.86,-197.46 690.83,-198.15"/>
</g>
<!-- Node23 -->
<g id="node23" class="node">
<title>Node23</title>
<g id="a_node23"><a xlink:href="parse_8h.html" target="_top" xlink:title=" ">
<polygon fill="white" stroke="black" points="728,-336.5 728,-355.5 781,-355.5 781,-336.5 728,-336.5"/>
<text text-anchor="middle" x="754.5" y="-343.5" font-family="Helvetica,sans-Serif" font-size="10.00">parse.h</text>
</a>
</g>
</g>
<!-- Node13&#45;&gt;Node23 -->
<g id="edge51" class="edge">
<title>Node13&#45;&gt;Node23</title>
<path fill="none" stroke="midnightblue" d="M808.22,-392.32C798.66,-384.26 784.22,-372.08 772.72,-362.37"/>
<polygon fill="midnightblue" stroke="midnightblue" points="774.87,-359.61 764.97,-355.83 770.36,-364.96 774.87,-359.61"/>
</g>
<!-- Node24 -->
<g id="node24" class="node">
<title>Node24</title>
<g id="a_node24"><a xlink:href="obj_8c.html" target="_top" xlink:title=" ">
<polygon fill="white" stroke="black" points="982.5,-280.5 982.5,-299.5 1022.5,-299.5 1022.5,-280.5 982.5,-280.5"/>
<text text-anchor="middle" x="1002.5" y="-287.5" font-family="Helvetica,sans-Serif" font-size="10.00">obj.c</text>
</a>
</g>
</g>
<!-- Node13&#45;&gt;Node24 -->
<g id="edge77" class="edge">
<title>Node13&#45;&gt;Node24</title>
<path fill="none" stroke="midnightblue" d="M841.67,-399.57C873.56,-396.48 931.29,-386.72 968.5,-356 983.06,-343.98 992.15,-324.09 997.24,-309.47"/>
<polygon fill="midnightblue" stroke="midnightblue" points="1000.7,-310.13 1000.36,-299.54 994.02,-308.03 1000.7,-310.13"/>
</g>
<!-- Node25 -->
<g id="node25" class="node">
<title>Node25</title>
<g id="a_node25"><a xlink:href="gc_8h.html" target="_top" xlink:title=" ">
<polygon fill="white" stroke="black" points="1531,-224.5 1531,-243.5 1568,-243.5 1568,-224.5 1531,-224.5"/>
<text text-anchor="middle" x="1549.5" y="-231.5" font-family="Helvetica,sans-Serif" font-size="10.00">gc.h</text>
</a>
</g>
</g>
<!-- Node13&#45;&gt;Node25 -->
<g id="edge78" class="edge">
<title>Node13&#45;&gt;Node25</title>
<path fill="none" stroke="midnightblue" d="M841.68,-400.62C950.51,-398.38 1410.18,-384.02 1520.5,-300 1535.07,-288.9 1542.49,-268.87 1546.16,-253.96"/>
<polygon fill="midnightblue" stroke="midnightblue" points="1549.66,-254.3 1548.28,-243.8 1542.81,-252.87 1549.66,-254.3"/>
</g>
<!-- Node28 -->
<g id="node28" class="node">
<title>Node28</title>
<g id="a_node28"><a xlink:href="l__std_8h.html" target="_top" xlink:title=" ">
<polygon fill="white" stroke="black" points="939,-168.5 939,-187.5 988,-187.5 988,-168.5 939,-168.5"/>
<text text-anchor="middle" x="963.5" y="-175.5" font-family="Helvetica,sans-Serif" font-size="10.00">l_std.h</text>
</a>
</g>
</g>
<!-- Node13&#45;&gt;Node28 -->
<g id="edge71" class="edge">
<title>Node13&#45;&gt;Node28</title>
<path fill="none" stroke="midnightblue" d="M824.18,-392.3C845.75,-359.29 922.74,-241.4 952.06,-196.52"/>
<polygon fill="midnightblue" stroke="midnightblue" points="955.16,-198.17 957.7,-187.88 949.3,-194.34 955.16,-198.17"/>
</g>
<!-- Node29 -->
<g id="node29" class="node">
<title>Node29</title>
<g id="a_node29"><a xlink:href="eval_8h.html" target="_top" xlink:title=" ">
<polygon fill="white" stroke="black" points="1169,-168.5 1169,-187.5 1216,-187.5 1216,-168.5 1169,-168.5"/>
<text text-anchor="middle" x="1192.5" y="-175.5" font-family="Helvetica,sans-Serif" font-size="10.00">eval.h</text>
</a>
</g>
</g>
<!-- Node13&#45;&gt;Node29 -->
<g id="edge79" class="edge">
<title>Node13&#45;&gt;Node29</title>
<path fill="none" stroke="midnightblue" d="M828.07,-392.23C851.54,-371.02 914.33,-316.07 973.5,-280 1036.35,-241.68 1116.16,-208.36 1159.99,-191.24"/>
<polygon fill="midnightblue" stroke="midnightblue" points="1161.49,-194.42 1169.56,-187.54 1158.97,-187.89 1161.49,-194.42"/>
</g>
<!-- Node16&#45;&gt;Node5 -->
<g id="edge24" class="edge">
<title>Node16&#45;&gt;Node5</title>
<path fill="none" stroke="midnightblue" d="M439.15,-112.47C445.82,-98.06 461.44,-69.19 484.5,-56 544.42,-21.71 753.36,-13.52 838.73,-11.58"/>
<polygon fill="midnightblue" stroke="midnightblue" points="838.83,-15.08 848.75,-11.37 838.68,-8.09 838.83,-15.08"/>
</g>
<!-- Node16&#45;&gt;Node6 -->
<g id="edge31" class="edge">
<title>Node16&#45;&gt;Node6</title>
<path fill="none" stroke="midnightblue" d="M456.32,-116.72C509.72,-105.8 655.94,-76.39 778.5,-56 878.48,-39.37 997,-23.39 1055.72,-15.73"/>
<polygon fill="midnightblue" stroke="midnightblue" points="1056.51,-19.15 1065.97,-14.39 1055.6,-12.21 1056.51,-19.15"/>
</g>
<!-- Node16&#45;&gt;Node7 -->
<g id="edge26" class="edge">
<title>Node16&#45;&gt;Node7</title>
<path fill="none" stroke="midnightblue" d="M456.04,-121.18C556.65,-121.84 1007.31,-121.93 1372.5,-76 1472.62,-63.41 1588.29,-36.49 1648.41,-21.55"/>
<polygon fill="midnightblue" stroke="midnightblue" points="1649.42,-24.9 1658.27,-19.08 1647.72,-18.11 1649.42,-24.9"/>
</g>
<!-- Node16&#45;&gt;Node8 -->
<g id="edge25" class="edge">
<title>Node16&#45;&gt;Node8</title>
<path fill="none" stroke="midnightblue" d="M456.36,-120.54C583.54,-117.68 1252.2,-101.48 1339.5,-76 1358.56,-70.44 1404.51,-42.32 1431.9,-24.94"/>
<polygon fill="midnightblue" stroke="midnightblue" points="1433.87,-27.83 1440.41,-19.5 1430.1,-21.93 1433.87,-27.83"/>
</g>
<!-- Node16&#45;&gt;Node9 -->
<g id="edge28" class="edge">
<title>Node16&#45;&gt;Node9</title>
<path fill="none" stroke="midnightblue" d="M426.56,-112.2C414.13,-98.9 394.63,-73.38 408.5,-56 428.3,-31.19 518.23,-19.02 569.82,-13.98"/>
<polygon fill="midnightblue" stroke="midnightblue" points="570.27,-17.45 579.9,-13.04 569.62,-10.48 570.27,-17.45"/>
</g>
<!-- Node16&#45;&gt;Node10 -->
<g id="edge33" class="edge">
<title>Node16&#45;&gt;Node10</title>
<path fill="none" stroke="midnightblue" d="M414.89,-119.73C351.43,-115.59 159.9,-101.26 103.5,-76 78.63,-64.86 55.69,-42.95 41.66,-27.66"/>
<polygon fill="midnightblue" stroke="midnightblue" points="44.08,-25.12 34.83,-19.96 38.85,-29.76 44.08,-25.12"/>
</g>
<!-- Node16&#45;&gt;Node14 -->
<g id="edge29" class="edge">
<title>Node16&#45;&gt;Node14</title>
<path fill="none" stroke="midnightblue" d="M454.04,-112.44C473.12,-103.64 503.07,-89.81 524.94,-79.72"/>
<polygon fill="midnightblue" stroke="midnightblue" points="526.43,-82.88 534.05,-75.52 523.5,-76.53 526.43,-82.88"/>
</g>
<!-- Node17 -->
<g id="node17" class="node">
<title>Node17</title>
<g id="a_node17"><a xlink:title=" ">
<polygon fill="white" stroke="#bfbfbf" points="168.5,-56.5 168.5,-75.5 224.5,-75.5 224.5,-56.5 168.5,-56.5"/>
<text text-anchor="middle" x="196.5" y="-63.5" font-family="Helvetica,sans-Serif" font-size="10.00">assert.h</text>
</a>
</g>
</g>
<!-- Node16&#45;&gt;Node17 -->
<g id="edge27" class="edge">
<title>Node16&#45;&gt;Node17</title>
<path fill="none" stroke="midnightblue" d="M414.82,-116.53C379.86,-108.95 306.61,-92.93 234.88,-76.29"/>
<polygon fill="midnightblue" stroke="midnightblue" points="235.3,-72.79 224.77,-73.94 233.71,-79.61 235.3,-72.79"/>
</g>
<!-- Node18 -->
<g id="node18" class="node">
<title>Node18</title>
<g id="a_node18"><a xlink:title=" ">
<polygon fill="white" stroke="#bfbfbf" points="242.5,-56.5 242.5,-75.5 290.5,-75.5 290.5,-56.5 242.5,-56.5"/>
<text text-anchor="middle" x="266.5" y="-63.5" font-family="Helvetica,sans-Serif" font-size="10.00">float.h</text>
</a>
</g>
</g>
<!-- Node16&#45;&gt;Node18 -->
<g id="edge30" class="edge">
<title>Node16&#45;&gt;Node18</title>
<path fill="none" stroke="midnightblue" d="M414.78,-114.38C386.22,-105.25 334.42,-88.7 300.24,-77.78"/>
<polygon fill="midnightblue" stroke="midnightblue" points="301.26,-74.43 290.67,-74.72 299.13,-81.1 301.26,-74.43"/>
</g>
<!-- Node19 -->
<g id="node19" class="node">
<title>Node19</title>
<g id="a_node19"><a xlink:title=" ">
<polygon fill="white" stroke="#bfbfbf" points="308.5,-56.5 308.5,-75.5 356.5,-75.5 356.5,-56.5 308.5,-56.5"/>
<text text-anchor="middle" x="332.5" y="-63.5" font-family="Helvetica,sans-Serif" font-size="10.00">time.h</text>
</a>
</g>
</g>
<!-- Node16&#45;&gt;Node19 -->
<g id="edge32" class="edge">
<title>Node16&#45;&gt;Node19</title>
<path fill="none" stroke="midnightblue" d="M418.95,-112.32C402.51,-103.7 377.07,-90.36 358.03,-80.39"/>
<polygon fill="midnightblue" stroke="midnightblue" points="359.49,-77.2 349.01,-75.65 356.24,-83.4 359.49,-77.2"/>
</g>
<!-- Node20 -->
<g id="node20" class="node">
<title>Node20</title>
<g id="a_node20"><a xlink:href="os_8h.html" target="_top" xlink:title=" ">
<polygon fill="white" stroke="black" points="113,-56.5 113,-75.5 150,-75.5 150,-56.5 113,-56.5"/>
<text text-anchor="middle" x="131.5" y="-63.5" font-family="Helvetica,sans-Serif" font-size="10.00">os.h</text>
</a>
</g>
</g>
<!-- Node16&#45;&gt;Node20 -->
<g id="edge34" class="edge">
<title>Node16&#45;&gt;Node20</title>
<path fill="none" stroke="midnightblue" d="M414.86,-118.71C370.12,-113.51 260.79,-99.58 159.81,-75.73"/>
<polygon fill="midnightblue" stroke="midnightblue" points="160.61,-72.33 150.07,-73.4 158.97,-79.13 160.61,-72.33"/>
</g>
<!-- Node16&#45;&gt;Node21 -->
<g id="edge35" class="edge">
<title>Node16&#45;&gt;Node21</title>
<path fill="none" stroke="midnightblue" d="M456.25,-118.02C517.86,-109.17 700.18,-82.99 776.88,-71.97"/>
<polygon fill="midnightblue" stroke="midnightblue" points="777.58,-75.41 786.98,-70.52 776.58,-68.48 777.58,-75.41"/>
</g>
<!-- Node21&#45;&gt;Node5 -->
<g id="edge36" class="edge">
<title>Node21&#45;&gt;Node5</title>
<path fill="none" stroke="midnightblue" d="M821.78,-56.32C831.34,-48.26 845.78,-36.08 857.28,-26.37"/>
<polygon fill="midnightblue" stroke="midnightblue" points="859.64,-28.96 865.03,-19.83 855.13,-23.61 859.64,-28.96"/>
</g>
<!-- Node21&#45;&gt;Node6 -->
<g id="edge37" class="edge">
<title>Node21&#45;&gt;Node6</title>
<path fill="none" stroke="midnightblue" d="M836.22,-59.13C840.95,-58.05 845.87,-56.96 850.5,-56 923.04,-40.89 1008.33,-25.61 1055.82,-17.31"/>
<polygon fill="midnightblue" stroke="midnightblue" points="1056.68,-20.72 1065.93,-15.56 1055.48,-13.82 1056.68,-20.72"/>
</g>
<!-- Node21&#45;&gt;Node7 -->
<g id="edge38" class="edge">
<title>Node21&#45;&gt;Node7</title>
<path fill="none" stroke="midnightblue" d="M836.36,-63.47C958.32,-55.97 1493.62,-23.05 1647.81,-13.56"/>
<polygon fill="midnightblue" stroke="midnightblue" points="1648.47,-17.03 1658.24,-12.92 1648.04,-10.04 1648.47,-17.03"/>
</g>
<!-- Node21&#45;&gt;Node8 -->
<g id="edge39" class="edge">
<title>Node21&#45;&gt;Node8</title>
<path fill="none" stroke="midnightblue" d="M836.27,-62.92C935.27,-54.59 1302.66,-23.69 1418.37,-13.95"/>
<polygon fill="midnightblue" stroke="midnightblue" points="1418.78,-17.43 1428.45,-13.11 1418.2,-10.46 1418.78,-17.43"/>
</g>
<!-- Node21&#45;&gt;Node9 -->
<g id="edge40" class="edge">
<title>Node21&#45;&gt;Node9</title>
<path fill="none" stroke="midnightblue" d="M786.77,-58.49C750.96,-49.05 684.43,-31.53 642.97,-20.61"/>
<polygon fill="midnightblue" stroke="midnightblue" points="643.83,-17.21 633.26,-18.05 642.04,-23.98 643.83,-17.21"/>
</g>
<!-- Node21&#45;&gt;Node10 -->
<g id="edge41" class="edge">
<title>Node21&#45;&gt;Node10</title>
<path fill="none" stroke="midnightblue" d="M786.83,-62.99C763.55,-61.11 727.66,-58.27 696.5,-56 456.25,-38.52 167.29,-19.9 65.34,-13.4"/>
<polygon fill="midnightblue" stroke="midnightblue" points="65.43,-9.9 55.23,-12.76 64.99,-16.88 65.43,-9.9"/>
</g>
<!-- Node22&#45;&gt;Node5 -->
<g id="edge43" class="edge">
<title>Node22&#45;&gt;Node5</title>
<path fill="none" stroke="midnightblue" d="M691.01,-168.29C695.28,-146.27 709.49,-87.81 744.5,-56 770.66,-32.24 809.95,-20.93 838.68,-15.6"/>
<polygon fill="midnightblue" stroke="midnightblue" points="839.47,-19.02 848.74,-13.9 838.3,-12.12 839.47,-19.02"/>
</g>
<!-- Node22&#45;&gt;Node6 -->
<g id="edge44" class="edge">
<title>Node22&#45;&gt;Node6</title>
<path fill="none" stroke="midnightblue" d="M704.31,-168.3C727.09,-155.13 772.29,-129.77 812.5,-112 897.76,-74.32 1001.88,-39.6 1055.95,-22.37"/>
<polygon fill="midnightblue" stroke="midnightblue" points="1057.29,-25.62 1065.77,-19.26 1055.18,-18.94 1057.29,-25.62"/>
</g>
<!-- Node22&#45;&gt;Node7 -->
<g id="edge45" class="edge">
<title>Node22&#45;&gt;Node7</title>
<path fill="none" stroke="midnightblue" d="M714.81,-175.07C810.77,-167.44 1161.06,-136.78 1443.5,-76 1517.48,-60.08 1602.61,-36.36 1650.84,-22.41"/>
<polygon fill="midnightblue" stroke="midnightblue" points="1651.93,-25.73 1660.55,-19.58 1649.97,-19.01 1651.93,-25.73"/>
</g>
<!-- Node22&#45;&gt;Node8 -->
<g id="edge46" class="edge">
<title>Node22&#45;&gt;Node8</title>
<path fill="none" stroke="midnightblue" d="M714.56,-173.67C834.05,-157.74 1341.5,-89.53 1372.5,-76 1398.67,-64.58 1423.47,-42.41 1438.57,-27.16"/>
<polygon fill="midnightblue" stroke="midnightblue" points="1441.13,-29.55 1445.54,-19.91 1436.08,-24.7 1441.13,-29.55"/>
</g>
<!-- Node22&#45;&gt;Node9 -->
<g id="edge47" class="edge">
<title>Node22&#45;&gt;Node9</title>
<path fill="none" stroke="midnightblue" d="M664.42,-176.78C561.91,-175.3 176.63,-163.89 103.5,-76 97.81,-69.17 97.5,-62.56 103.5,-56 134.85,-21.72 458.97,-13.36 569.68,-11.49"/>
<polygon fill="midnightblue" stroke="midnightblue" points="569.76,-14.99 579.71,-11.33 569.65,-7.99 569.76,-14.99"/>
</g>
<!-- Node22&#45;&gt;Node10 -->
<g id="edge48" class="edge">
<title>Node22&#45;&gt;Node10</title>
<path fill="none" stroke="midnightblue" d="M664.25,-176.42C572.19,-174.05 255.03,-163.73 159.5,-132 114.79,-117.15 103.1,-109.03 69.5,-76 55.47,-62.21 43.75,-42.92 36.28,-28.94"/>
<polygon fill="midnightblue" stroke="midnightblue" points="39.3,-27.16 31.63,-19.86 33.07,-30.35 39.3,-27.16"/>
</g>
<!-- Node22&#45;&gt;Node16 -->
<g id="edge50" class="edge">
<title>Node22&#45;&gt;Node16</title>
<path fill="none" stroke="midnightblue" d="M664.22,-171.62C617.36,-161.66 517.18,-140.37 466.39,-129.57"/>
<polygon fill="midnightblue" stroke="midnightblue" points="466.85,-126.09 456.34,-127.43 465.39,-132.93 466.85,-126.09"/>
</g>
<!-- Node22&#45;&gt;Node21 -->
<g id="edge49" class="edge">
<title>Node22&#45;&gt;Node21</title>
<path fill="none" stroke="midnightblue" d="M699.07,-168.37C719.65,-149.81 768.34,-105.91 794.38,-82.44"/>
<polygon fill="midnightblue" stroke="midnightblue" points="796.89,-84.89 801.97,-75.59 792.2,-79.69 796.89,-84.89"/>
</g>
<!-- Node23&#45;&gt;Node10 -->
<g id="edge52" class="edge">
<title>Node23&#45;&gt;Node10</title>
<path fill="none" stroke="midnightblue" d="M727.87,-343.02C630.61,-334.57 289.05,-294.18 73.5,-132 49.66,-114.07 47.03,-103.91 36.5,-76 30.9,-61.16 28.73,-43.24 27.92,-29.97"/>
<polygon fill="midnightblue" stroke="midnightblue" points="31.4,-29.56 27.49,-19.71 24.41,-29.85 31.4,-29.56"/>
</g>
<!-- Node23&#45;&gt;Node16 -->
<g id="edge54" class="edge">
<title>Node23&#45;&gt;Node16</title>
<path fill="none" stroke="midnightblue" d="M741.99,-336.3C693.46,-302.52 517.22,-179.87 456.35,-137.51"/>
<polygon fill="midnightblue" stroke="midnightblue" points="458.13,-134.48 447.92,-131.64 454.13,-140.23 458.13,-134.48"/>
</g>
<!-- Node23&#45;&gt;Node22 -->
<g id="edge53" class="edge">
<title>Node23&#45;&gt;Node22</title>
<path fill="none" stroke="midnightblue" d="M751.01,-336.08C740.73,-309.83 710.47,-232.55 696.59,-197.12"/>
<polygon fill="midnightblue" stroke="midnightblue" points="699.76,-195.6 692.85,-187.57 693.24,-198.16 699.76,-195.6"/>
</g>
<!-- Node23&#45;&gt;Node24 -->
<g id="edge55" class="edge">
<title>Node23&#45;&gt;Node24</title>
<path fill="none" stroke="midnightblue" d="M781.04,-339.22C827.49,-329.11 923.23,-308.26 972.2,-297.6"/>
<polygon fill="midnightblue" stroke="midnightblue" points="973.16,-300.97 982.19,-295.42 971.67,-294.13 973.16,-300.97"/>
</g>
<!-- Node27 -->
<g id="node27" class="node">
<title>Node27</title>
<g id="a_node27"><a xlink:href="linked__list_8h.html" target="_top" xlink:title=" ">
<polygon fill="white" stroke="black" points="756,-224.5 756,-243.5 831,-243.5 831,-224.5 756,-224.5"/>
<text text-anchor="middle" x="793.5" y="-231.5" font-family="Helvetica,sans-Serif" font-size="10.00">linked_list.h</text>
</a>
</g>
</g>
<!-- Node23&#45;&gt;Node27 -->
<g id="edge69" class="edge">
<title>Node23&#45;&gt;Node27</title>
<path fill="none" stroke="midnightblue" d="M757.56,-336.37C763.88,-318.54 778.5,-277.3 787.02,-253.27"/>
<polygon fill="midnightblue" stroke="midnightblue" points="790.41,-254.19 790.45,-243.59 783.81,-251.85 790.41,-254.19"/>
</g>
<!-- Node24&#45;&gt;Node4 -->
<g id="edge62" class="edge">
<title>Node24&#45;&gt;Node4</title>
<path fill="none" stroke="midnightblue" d="M1022.53,-282.62C1057.66,-271.4 1127.7,-248.85 1138.5,-244 1210.43,-211.69 1289.47,-161.55 1326.35,-137.22"/>
<polygon fill="midnightblue" stroke="midnightblue" points="1328.4,-140.06 1334.79,-131.61 1324.52,-134.23 1328.4,-140.06"/>
</g>
<!-- Node24&#45;&gt;Node5 -->
<g id="edge56" class="edge">
<title>Node24&#45;&gt;Node5</title>
<path fill="none" stroke="midnightblue" d="M986.78,-280.34C943.46,-255.45 822.62,-178.83 778.5,-76 765.75,-46.29 806.54,-28.37 839.11,-19.08"/>
<polygon fill="midnightblue" stroke="midnightblue" points="840.12,-22.43 848.88,-16.47 838.32,-15.67 840.12,-22.43"/>
</g>
<!-- Node24&#45;&gt;Node6 -->
<g id="edge57" class="edge">
<title>Node24&#45;&gt;Node6</title>
<path fill="none" stroke="midnightblue" d="M1004.33,-280.49C1008.13,-262.07 1016.5,-217.12 1016.5,-179 1016.5,-179 1016.5,-179 1016.5,-121 1016.5,-81.28 1050.46,-45.5 1072.98,-26.15"/>
<polygon fill="midnightblue" stroke="midnightblue" points="1075.48,-28.63 1080.96,-19.57 1071.02,-23.24 1075.48,-28.63"/>
</g>
<!-- Node24&#45;&gt;Node7 -->
<g id="edge58" class="edge">
<title>Node24&#45;&gt;Node7</title>
<path fill="none" stroke="midnightblue" d="M1022.63,-282.09C1025.58,-281.27 1028.6,-280.54 1031.5,-280 1270.62,-235.65 1336.72,-278.18 1577.5,-244 1692.38,-227.69 1734.92,-250.79 1832.5,-188 1882.86,-155.6 1901.9,-98.28 1859.5,-56 1825.61,-22.21 1769.48,-12.93 1731.05,-10.81"/>
<polygon fill="midnightblue" stroke="midnightblue" points="1730.85,-7.3 1720.72,-10.39 1730.57,-14.29 1730.85,-7.3"/>
</g>
<!-- Node24&#45;&gt;Node8 -->
<g id="edge59" class="edge">
<title>Node24&#45;&gt;Node8</title>
<path fill="none" stroke="midnightblue" d="M1022.67,-282.27C1025.61,-281.43 1028.62,-280.64 1031.5,-280 1068.34,-271.82 1671.76,-206.76 1704.5,-188 1731.96,-172.26 1737.89,-161.82 1748.5,-132 1759.83,-100.17 1771.52,-81.62 1749.5,-56 1716.31,-17.38 1560.52,-11.52 1489.25,-10.89"/>
<polygon fill="midnightblue" stroke="midnightblue" points="1488.99,-7.39 1478.97,-10.83 1488.95,-14.39 1488.99,-7.39"/>
</g>
<!-- Node24&#45;&gt;Node9 -->
<g id="edge60" class="edge">
<title>Node24&#45;&gt;Node9</title>
<path fill="none" stroke="midnightblue" d="M982.32,-287.98C938.32,-285.2 830.99,-275.5 747.5,-244 702.71,-227.1 694.57,-215.66 655.5,-188 591.31,-142.56 552.19,-147.06 518.5,-76 505.93,-49.48 540.6,-31.29 570.06,-21.04"/>
<polygon fill="midnightblue" stroke="midnightblue" points="571.35,-24.3 579.77,-17.87 569.18,-17.64 571.35,-24.3"/>
</g>
<!-- Node24&#45;&gt;Node10 -->
<g id="edge61" class="edge">
<title>Node24&#45;&gt;Node10</title>
<path fill="none" stroke="midnightblue" d="M982.35,-286.43C933.84,-280.15 806.77,-263.12 701.5,-244 542.74,-215.17 505.22,-197.02 346.5,-168 241.7,-148.84 205.4,-178.42 109.5,-132 76.67,-116.11 69.28,-106.65 49.5,-76 40.31,-61.77 34.55,-43.29 31.23,-29.68"/>
<polygon fill="midnightblue" stroke="midnightblue" points="34.58,-28.6 29,-19.59 27.74,-30.11 34.58,-28.6"/>
</g>
<!-- Node24&#45;&gt;Node25 -->
<g id="edge63" class="edge">
<title>Node24&#45;&gt;Node25</title>
<path fill="none" stroke="midnightblue" d="M1022.64,-282.13C1025.58,-281.31 1028.6,-280.56 1031.5,-280 1221.06,-243.16 1272.25,-262.17 1464.5,-244 1483.28,-242.22 1504.38,-239.99 1520.85,-238.2"/>
<polygon fill="midnightblue" stroke="midnightblue" points="1521.38,-241.66 1530.94,-237.09 1520.62,-234.7 1521.38,-241.66"/>
</g>
<!-- Node25&#45;&gt;Node4 -->
<g id="edge65" class="edge">
<title>Node25&#45;&gt;Node4</title>
<path fill="none" stroke="midnightblue" d="M1533.65,-224.37C1498.62,-205.29 1414.38,-159.42 1372.3,-136.51"/>
<polygon fill="midnightblue" stroke="midnightblue" points="1373.73,-133.3 1363.28,-131.59 1370.39,-139.45 1373.73,-133.3"/>
</g>
<!-- Node25&#45;&gt;Node7 -->
<g id="edge64" class="edge">
<title>Node25&#45;&gt;Node7</title>
<path fill="none" stroke="midnightblue" d="M1568.16,-233.35C1611.74,-233.43 1722.61,-229.22 1802.5,-188 1834.06,-171.72 1845.76,-164.75 1859.5,-132 1869.44,-108.29 1844.02,-58.46 1841.5,-56 1811.89,-27.07 1764.59,-16.6 1730.62,-12.88"/>
<polygon fill="midnightblue" stroke="midnightblue" points="1730.82,-9.39 1720.53,-11.94 1730.16,-16.36 1730.82,-9.39"/>
</g>
<!-- Node26 -->
<g id="node26" class="node">
<title>Node26</title>
<g id="a_node26"><a xlink:href="cgc_8h.html" target="_top" xlink:title=" ">
<polygon fill="white" stroke="black" points="1751.5,-168.5 1751.5,-187.5 1793.5,-187.5 1793.5,-168.5 1751.5,-168.5"/>
<text text-anchor="middle" x="1772.5" y="-175.5" font-family="Helvetica,sans-Serif" font-size="10.00">cgc.h</text>
</a>
</g>
</g>
<!-- Node25&#45;&gt;Node26 -->
<g id="edge66" class="edge">
<title>Node25&#45;&gt;Node26</title>
<path fill="none" stroke="midnightblue" d="M1568.2,-228.63C1602.03,-220.71 1675.61,-203.36 1737.5,-188 1738.77,-187.69 1740.06,-187.36 1741.37,-187.03"/>
<polygon fill="midnightblue" stroke="midnightblue" points="1742.58,-190.34 1751.42,-184.48 1740.86,-183.55 1742.58,-190.34"/>
</g>
<!-- Node26&#45;&gt;Node4 -->
<g id="edge68" class="edge">
<title>Node26&#45;&gt;Node4</title>
<path fill="none" stroke="midnightblue" d="M1751.37,-174.17C1737.95,-172.38 1720.21,-170.03 1704.5,-168 1583.81,-152.41 1440.08,-134.49 1378.26,-126.81"/>
<polygon fill="midnightblue" stroke="midnightblue" points="1378.39,-123.3 1368.03,-125.54 1377.52,-130.25 1378.39,-123.3"/>
</g>
<!-- Node26&#45;&gt;Node7 -->
<g id="edge67" class="edge">
<title>Node26&#45;&gt;Node7</title>
<path fill="none" stroke="midnightblue" d="M1793.8,-170.19C1810.9,-163.46 1833.78,-151.34 1844.5,-132 1857.9,-107.83 1828,-62.12 1821.5,-56 1796.76,-32.73 1759.5,-21.45 1730.87,-16.01"/>
<polygon fill="midnightblue" stroke="midnightblue" points="1731.2,-12.51 1720.75,-14.26 1730.01,-19.41 1731.2,-12.51"/>
</g>
<!-- Node27&#45;&gt;Node21 -->
<g id="edge70" class="edge">
<title>Node27&#45;&gt;Node21</title>
<path fill="none" stroke="midnightblue" d="M794.47,-224.08C797.3,-197.95 805.62,-121.21 809.49,-85.58"/>
<polygon fill="midnightblue" stroke="midnightblue" points="812.97,-85.89 810.57,-75.57 806.01,-85.13 812.97,-85.89"/>
</g>
<!-- Node28&#45;&gt;Node4 -->
<g id="edge76" class="edge">
<title>Node28&#45;&gt;Node4</title>
<path fill="none" stroke="midnightblue" d="M988.11,-173.54C1055.47,-164.07 1242.83,-137.72 1316.85,-127.31"/>
<polygon fill="midnightblue" stroke="midnightblue" points="1317.5,-130.75 1326.92,-125.89 1316.53,-123.82 1317.5,-130.75"/>
</g>
<!-- Node28&#45;&gt;Node5 -->
<g id="edge73" class="edge">
<title>Node28&#45;&gt;Node5</title>
<path fill="none" stroke="midnightblue" d="M958.77,-168.08C944.8,-141.72 903.53,-63.88 884.86,-28.66"/>
<polygon fill="midnightblue" stroke="midnightblue" points="887.82,-26.76 880.04,-19.57 881.63,-30.04 887.82,-26.76"/>
</g>
<!-- Node28&#45;&gt;Node8 -->
<g id="edge72" class="edge">
<title>Node28&#45;&gt;Node8</title>
<path fill="none" stroke="midnightblue" d="M988,-171.99C1078.91,-153.34 1392.6,-88.36 1410.5,-76 1427.33,-64.38 1439.27,-43.83 1446.24,-28.94"/>
<polygon fill="midnightblue" stroke="midnightblue" points="1449.47,-30.28 1450.26,-19.71 1443.05,-27.48 1449.47,-30.28"/>
</g>
<!-- Node28&#45;&gt;Node9 -->
<g id="edge74" class="edge">
<title>Node28&#45;&gt;Node9</title>
<path fill="none" stroke="midnightblue" d="M944.81,-168.31C885.89,-140.91 703.83,-56.26 634.08,-23.82"/>
<polygon fill="midnightblue" stroke="midnightblue" points="635.55,-20.65 625.01,-19.61 632.6,-27 635.55,-20.65"/>
</g>
<!-- Node28&#45;&gt;Node14 -->
<g id="edge75" class="edge">
<title>Node28&#45;&gt;Node14</title>
<path fill="none" stroke="midnightblue" d="M938.92,-174.9C891.55,-170.4 784.71,-158.06 698.5,-132 654.31,-118.64 605.89,-95.19 577.4,-80.41"/>
<polygon fill="midnightblue" stroke="midnightblue" points="578.68,-77.13 568.2,-75.57 575.42,-83.32 578.68,-77.13"/>
</g>
<!-- Node29&#45;&gt;Node4 -->
<g id="edge85" class="edge">
<title>Node29&#45;&gt;Node4</title>
<path fill="none" stroke="midnightblue" d="M1216.04,-168.8C1243.01,-159.4 1287.29,-143.98 1316.91,-133.66"/>
<polygon fill="midnightblue" stroke="midnightblue" points="1318.43,-136.83 1326.72,-130.24 1316.13,-130.22 1318.43,-136.83"/>
</g>
<!-- Node29&#45;&gt;Node5 -->
<g id="edge81" class="edge">
<title>Node29&#45;&gt;Node5</title>
<path fill="none" stroke="midnightblue" d="M1175.9,-168.31C1123.91,-141.08 963.9,-57.29 901.14,-24.43"/>
<polygon fill="midnightblue" stroke="midnightblue" points="902.42,-21.14 891.93,-19.61 899.17,-27.34 902.42,-21.14"/>
</g>
<!-- Node29&#45;&gt;Node6 -->
<g id="edge82" class="edge">
<title>Node29&#45;&gt;Node6</title>
<path fill="none" stroke="midnightblue" d="M1187.12,-168.08C1171.18,-141.61 1123.95,-63.21 1102.87,-28.21"/>
<polygon fill="midnightblue" stroke="midnightblue" points="1105.82,-26.33 1097.66,-19.57 1099.82,-29.94 1105.82,-26.33"/>
</g>
<!-- Node29&#45;&gt;Node7 -->
<g id="edge83" class="edge">
<title>Node29&#45;&gt;Node7</title>
<path fill="none" stroke="midnightblue" d="M1216.26,-176.07C1307.75,-171.94 1635.22,-151.97 1697.5,-76 1708.17,-62.98 1703.82,-43.28 1698.26,-28.98"/>
<polygon fill="midnightblue" stroke="midnightblue" points="1701.41,-27.45 1694.19,-19.69 1695,-30.26 1701.41,-27.45"/>
</g>
<!-- Node29&#45;&gt;Node8 -->
<g id="edge80" class="edge">
<title>Node29&#45;&gt;Node8</title>
<path fill="none" stroke="midnightblue" d="M1206.79,-168.39C1229.69,-154.87 1276.33,-128.51 1318.5,-112 1374.33,-90.14 1410.4,-122.29 1448.5,-76 1458.94,-63.31 1459.15,-44.11 1457.37,-29.86"/>
<polygon fill="midnightblue" stroke="midnightblue" points="1460.78,-29 1455.68,-19.72 1453.87,-30.16 1460.78,-29"/>
</g>
<!-- Node29&#45;&gt;Node9 -->
<g id="edge84" class="edge">
<title>Node29&#45;&gt;Node9</title>
<path fill="none" stroke="midnightblue" d="M1168.94,-168.56C1096.23,-142.53 878.29,-64.75 845.5,-56 774.96,-37.17 690.67,-23.25 643.39,-16.19"/>
<polygon fill="midnightblue" stroke="midnightblue" points="643.72,-12.7 633.32,-14.71 642.7,-19.63 643.72,-12.7"/>
</g>
<!-- Node30&#45;&gt;Node15 -->
<g id="edge99" class="edge">
<title>Node30&#45;&gt;Node15</title>
<path fill="none" stroke="midnightblue" d="M1109.75,-336.08C1102.03,-328.22 1090.6,-316.57 1081.28,-307.08"/>
<polygon fill="midnightblue" stroke="midnightblue" points="1083.59,-304.44 1074.09,-299.75 1078.6,-309.34 1083.59,-304.44"/>
</g>
<!-- Node30&#45;&gt;Node24 -->
<g id="edge87" class="edge">
<title>Node30&#45;&gt;Node24</title>
<path fill="none" stroke="midnightblue" d="M1100.12,-336.44C1081.28,-327.68 1051.77,-313.94 1030.12,-303.86"/>
<polygon fill="midnightblue" stroke="midnightblue" points="1031.34,-300.56 1020.79,-299.52 1028.38,-306.91 1031.34,-300.56"/>
</g>
<!-- Node30&#45;&gt;Node25 -->
<g id="edge98" class="edge">
<title>Node30&#45;&gt;Node25</title>
<path fill="none" stroke="midnightblue" d="M1142.64,-344.43C1215.86,-342.34 1434.12,-333.39 1495.5,-300 1515.38,-289.19 1530.9,-267.81 1540.1,-252.53"/>
<polygon fill="midnightblue" stroke="midnightblue" points="1543.32,-253.96 1545.22,-243.53 1537.24,-250.49 1543.32,-253.96"/>
</g>
<!-- Node30&#45;&gt;Node28 -->
<g id="edge97" class="edge">
<title>Node30&#45;&gt;Node28</title>
<path fill="none" stroke="midnightblue" d="M1117.72,-336.25C1116.17,-323.01 1111.73,-297.56 1099.5,-280 1071.33,-239.53 1021.72,-208.75 990.84,-192.33"/>
<polygon fill="midnightblue" stroke="midnightblue" points="992.4,-189.19 981.91,-187.69 989.17,-195.4 992.4,-189.19"/>
</g>
<!-- Node30&#45;&gt;Node29 -->
<g id="edge88" class="edge">
<title>Node30&#45;&gt;Node29</title>
<path fill="none" stroke="midnightblue" d="M1122.48,-336.08C1134.18,-309.83 1168.63,-232.55 1184.42,-197.12"/>
<polygon fill="midnightblue" stroke="midnightblue" points="1187.81,-198.13 1188.68,-187.57 1181.41,-195.28 1187.81,-198.13"/>
</g>
<!-- Node31 -->
<g id="node31" class="node">
<title>Node31</title>
<g id="a_node31"><a xlink:href="io_8c.html" target="_top" xlink:title=" ">
<polygon fill="white" stroke="black" points="1661.5,-168.5 1661.5,-187.5 1695.5,-187.5 1695.5,-168.5 1661.5,-168.5"/>
<text text-anchor="middle" x="1678.5" y="-175.5" font-family="Helvetica,sans-Serif" font-size="10.00">io.c</text>
</a>
</g>
</g>
<!-- Node30&#45;&gt;Node31 -->
<g id="edge89" class="edge">
<title>Node30&#45;&gt;Node31</title>
<path fill="none" stroke="midnightblue" d="M1142.61,-337.69C1205.22,-318.71 1378.15,-266.44 1522.5,-224 1567.69,-210.71 1620.36,-195.6 1651.48,-186.7"/>
<polygon fill="midnightblue" stroke="midnightblue" points="1652.52,-190.05 1661.17,-183.94 1650.59,-183.32 1652.52,-190.05"/>
</g>
<!-- Node31&#45;&gt;Node4 -->
<g id="edge96" class="edge">
<title>Node31&#45;&gt;Node4</title>
<path fill="none" stroke="midnightblue" d="M1661.23,-171.5C1656.79,-170.22 1652,-168.95 1647.5,-168 1531.22,-143.36 1499.14,-154.84 1382.5,-132 1381.04,-131.71 1379.55,-131.4 1378.04,-131.07"/>
<polygon fill="midnightblue" stroke="midnightblue" points="1378.67,-127.63 1368.14,-128.73 1377.06,-134.44 1378.67,-127.63"/>
</g>
<!-- Node31&#45;&gt;Node5 -->
<g id="edge91" class="edge">
<title>Node31&#45;&gt;Node5</title>
<path fill="none" stroke="midnightblue" d="M1661.19,-171.71C1656.74,-170.43 1651.96,-169.11 1647.5,-168 1409.2,-108.79 1347.24,-104.32 1106.5,-56 1037.93,-42.24 957.79,-26.76 912.2,-18.02"/>
<polygon fill="midnightblue" stroke="midnightblue" points="912.68,-14.54 902.2,-16.1 911.36,-21.42 912.68,-14.54"/>
</g>
<!-- Node31&#45;&gt;Node6 -->
<g id="edge92" class="edge">
<title>Node31&#45;&gt;Node6</title>
<path fill="none" stroke="midnightblue" d="M1683.99,-168.31C1697.13,-146.32 1727.16,-87.95 1697.5,-56 1678.07,-35.07 1257.25,-17.3 1129.16,-12.36"/>
<polygon fill="midnightblue" stroke="midnightblue" points="1129.2,-8.86 1119.07,-11.98 1128.93,-15.86 1129.2,-8.86"/>
</g>
<!-- Node31&#45;&gt;Node7 -->
<g id="edge93" class="edge">
<title>Node31&#45;&gt;Node7</title>
<path fill="none" stroke="midnightblue" d="M1695.61,-171.43C1714.94,-164.51 1746.55,-151.22 1768.5,-132 1791.13,-112.19 1797.67,-104.75 1806.5,-76 1809.11,-67.5 1811.53,-63.33 1806.5,-56 1789.59,-31.37 1757.17,-20.22 1730.74,-15.17"/>
<polygon fill="midnightblue" stroke="midnightblue" points="1731.02,-11.67 1720.58,-13.46 1729.86,-18.57 1731.02,-11.67"/>
</g>
<!-- Node31&#45;&gt;Node8 -->
<g id="edge90" class="edge">
<title>Node31&#45;&gt;Node8</title>
<path fill="none" stroke="midnightblue" d="M1694.28,-168.47C1706.7,-160.77 1723.11,-148.18 1730.5,-132 1744.54,-101.28 1752.39,-81.73 1730.5,-56 1699.86,-19.98 1556.42,-12.71 1488.86,-11.3"/>
<polygon fill="midnightblue" stroke="midnightblue" points="1488.76,-7.8 1478.7,-11.12 1488.64,-14.8 1488.76,-7.8"/>
</g>
<!-- Node31&#45;&gt;Node12 -->
<g id="edge94" class="edge">
<title>Node31&#45;&gt;Node12</title>
<path fill="none" stroke="midnightblue" d="M1677.87,-168.37C1676.58,-150.62 1673.6,-109.67 1671.85,-85.6"/>
<polygon fill="midnightblue" stroke="midnightblue" points="1675.34,-85.31 1671.12,-75.59 1668.36,-85.82 1675.34,-85.31"/>
</g>
<!-- Node31&#45;&gt;Node16 -->
<g id="edge95" class="edge">
<title>Node31&#45;&gt;Node16</title>
<path fill="none" stroke="midnightblue" d="M1661.4,-176.26C1527.16,-170.43 643.23,-132.02 466.3,-124.34"/>
<polygon fill="midnightblue" stroke="midnightblue" points="466.27,-120.83 456.13,-123.9 465.97,-127.83 466.27,-120.83"/>
</g>
</g>
</svg>
