<?xml version="1.0" encoding="UTF-8" standalone="no"?>
<!DOCTYPE svg PUBLIC "-//W3C//DTD SVG 1.1//EN"
 "http://www.w3.org/Graphics/SVG/1.1/DTD/svg11.dtd">
<!-- Generated by graphviz version 2.43.0 (0)
 -->
<!-- Title: /home/bugy/projs/lobotomy/src/l_std.c Pages: 1 -->
<svg width="1770pt" height="375pt"
 viewBox="0.00 0.00 1769.51 375.00" xmlns="http://www.w3.org/2000/svg" xmlns:xlink="http://www.w3.org/1999/xlink">
<g id="graph0" class="graph" transform="scale(1 1) rotate(0) translate(4 371)">
<title>/home/bugy/projs/lobotomy/src/l_std.c</title>
<polygon fill="white" stroke="transparent" points="-4,4 -4,-371 1765.51,-371 1765.51,4 -4,4"/>
<!-- Node1 -->
<g id="node1" class="node">
<title>Node1</title>
<g id="a_node1"><a xlink:title=" ">
<polygon fill="#bfbfbf" stroke="black" points="1118.01,-336.5 1118.01,-366.5 1269.01,-366.5 1269.01,-336.5 1118.01,-336.5"/>
<text text-anchor="start" x="1126.01" y="-354.5" font-family="Helvetica,sans-Serif" font-size="10.00">/home/bugy/projs/lobotomy</text>
<text text-anchor="middle" x="1193.51" y="-343.5" font-family="Helvetica,sans-Serif" font-size="10.00">/src/l_std.c</text>
</a>
</g>
</g>
<!-- Node2 -->
<g id="node2" class="node">
<title>Node2</title>
<g id="a_node2"><a xlink:href="obj_8c.html" target="_top" xlink:title=" ">
<polygon fill="white" stroke="black" points="569.51,-280.5 569.51,-299.5 609.51,-299.5 609.51,-280.5 569.51,-280.5"/>
<text text-anchor="middle" x="589.51" y="-287.5" font-family="Helvetica,sans-Serif" font-size="10.00">obj.c</text>
</a>
</g>
</g>
<!-- Node1&#45;&gt;Node2 -->
<g id="edge1" class="edge">
<title>Node1&#45;&gt;Node2</title>
<path fill="none" stroke="midnightblue" d="M1117.93,-343.05C984.09,-329.87 710.94,-302.96 619.84,-293.99"/>
<polygon fill="midnightblue" stroke="midnightblue" points="619.95,-290.48 609.66,-292.98 619.27,-297.45 619.95,-290.48"/>
</g>
<!-- Node12 -->
<g id="node12" class="node">
<title>Node12</title>
<g id="a_node12"><a xlink:href="gc_8h.html" target="_top" xlink:title=" ">
<polygon fill="white" stroke="black" points="54.01,-224.5 54.01,-243.5 91.01,-243.5 91.01,-224.5 54.01,-224.5"/>
<text text-anchor="middle" x="72.51" y="-231.5" font-family="Helvetica,sans-Serif" font-size="10.00">gc.h</text>
</a>
</g>
</g>
<!-- Node1&#45;&gt;Node12 -->
<g id="edge67" class="edge">
<title>Node1&#45;&gt;Node12</title>
<path fill="none" stroke="midnightblue" d="M1117.9,-345.52C999.09,-337.46 761.5,-320.38 560.51,-300 357.8,-279.45 305.42,-283.35 105.51,-244 104.05,-243.71 102.57,-243.4 101.07,-243.06"/>
<polygon fill="midnightblue" stroke="midnightblue" points="101.8,-239.63 91.25,-240.61 100.1,-246.43 101.8,-239.63"/>
</g>
<!-- Node14 -->
<g id="node14" class="node">
<title>Node14</title>
<g id="a_node14"><a xlink:href="eval_8h.html" target="_top" xlink:title=" ">
<polygon fill="white" stroke="black" points="618.01,-168.5 618.01,-187.5 665.01,-187.5 665.01,-168.5 618.01,-168.5"/>
<text text-anchor="middle" x="641.51" y="-175.5" font-family="Helvetica,sans-Serif" font-size="10.00">eval.h</text>
</a>
</g>
</g>
<!-- Node1&#45;&gt;Node14 -->
<g id="edge28" class="edge">
<title>Node1&#45;&gt;Node14</title>
<path fill="none" stroke="midnightblue" d="M1148.34,-336.47C1040.39,-302.93 769.42,-218.74 674.77,-189.33"/>
<polygon fill="midnightblue" stroke="midnightblue" points="675.73,-185.97 665.14,-186.34 673.65,-192.65 675.73,-185.97"/>
</g>
<!-- Node15 -->
<g id="node15" class="node">
<title>Node15</title>
<g id="a_node15"><a xlink:href="io_8c.html" target="_top" xlink:title=" ">
<polygon fill="white" stroke="black" points="768.51,-168.5 768.51,-187.5 802.51,-187.5 802.51,-168.5 768.51,-168.5"/>
<text text-anchor="middle" x="785.51" y="-175.5" font-family="Helvetica,sans-Serif" font-size="10.00">io.c</text>
</a>
</g>
</g>
<!-- Node1&#45;&gt;Node15 -->
<g id="edge35" class="edge">
<title>Node1&#45;&gt;Node15</title>
<path fill="none" stroke="midnightblue" d="M1198.24,-336.12C1205.82,-310.02 1217.11,-254.73 1188.51,-224 1162.87,-196.45 898.84,-183.53 812.6,-180.02"/>
<polygon fill="midnightblue" stroke="midnightblue" points="812.67,-176.52 802.54,-179.62 812.39,-183.51 812.67,-176.52"/>
</g>
<!-- Node23 -->
<g id="node23" class="node">
<title>Node23</title>
<g id="a_node23"><a xlink:href="l__std_8h.html" target="_top" xlink:title=" ">
<polygon fill="white" stroke="black" points="1589.01,-168.5 1589.01,-187.5 1638.01,-187.5 1638.01,-168.5 1589.01,-168.5"/>
<text text-anchor="middle" x="1613.51" y="-175.5" font-family="Helvetica,sans-Serif" font-size="10.00">l_std.h</text>
</a>
</g>
</g>
<!-- Node1&#45;&gt;Node23 -->
<g id="edge61" class="edge">
<title>Node1&#45;&gt;Node23</title>
<path fill="none" stroke="midnightblue" d="M1227.88,-336.47C1308.13,-303.7 1506.79,-222.58 1583.04,-191.44"/>
<polygon fill="midnightblue" stroke="midnightblue" points="1584.61,-194.58 1592.55,-187.56 1581.97,-188.1 1584.61,-194.58"/>
</g>
<!-- Node24 -->
<g id="node24" class="node">
<title>Node24</title>
<g id="a_node24"><a xlink:title=" ">
<polygon fill="white" stroke="#bfbfbf" points="1711.51,-280.5 1711.51,-299.5 1761.51,-299.5 1761.51,-280.5 1711.51,-280.5"/>
<text text-anchor="middle" x="1736.51" y="-287.5" font-family="Helvetica,sans-Serif" font-size="10.00">dlfcn.h</text>
</a>
</g>
</g>
<!-- Node1&#45;&gt;Node24 -->
<g id="edge68" class="edge">
<title>Node1&#45;&gt;Node24</title>
<path fill="none" stroke="midnightblue" d="M1269.04,-345.93C1367.95,-339.27 1546.53,-324.88 1697.51,-300 1698.78,-299.79 1700.07,-299.56 1701.38,-299.32"/>
<polygon fill="midnightblue" stroke="midnightblue" points="1702.32,-302.7 1711.43,-297.28 1700.93,-295.84 1702.32,-302.7"/>
</g>
<!-- Node3 -->
<g id="node3" class="node">
<title>Node3</title>
<g id="a_node3"><a xlink:title=" ">
<polygon fill="white" stroke="#bfbfbf" points="1527.01,-0.5 1527.01,-19.5 1580.01,-19.5 1580.01,-0.5 1527.01,-0.5"/>
<text text-anchor="middle" x="1553.51" y="-7.5" font-family="Helvetica,sans-Serif" font-size="10.00">stdlib.h</text>
</a>
</g>
</g>
<!-- Node2&#45;&gt;Node3 -->
<g id="edge2" class="edge">
<title>Node2&#45;&gt;Node3</title>
<path fill="none" stroke="midnightblue" d="M609.79,-289.08C739.79,-289.27 1456.62,-285.83 1647.51,-188 1703.34,-159.39 1734.67,-106.54 1697.51,-56 1673.04,-22.72 1624.08,-13.37 1590.09,-11.09"/>
<polygon fill="midnightblue" stroke="midnightblue" points="1590.22,-7.59 1580.06,-10.59 1589.87,-14.58 1590.22,-7.59"/>
</g>
<!-- Node4 -->
<g id="node4" class="node">
<title>Node4</title>
<g id="a_node4"><a xlink:title=" ">
<polygon fill="white" stroke="#bfbfbf" points="348.01,-0.5 348.01,-19.5 401.01,-19.5 401.01,-0.5 348.01,-0.5"/>
<text text-anchor="middle" x="374.51" y="-7.5" font-family="Helvetica,sans-Serif" font-size="10.00">stdint.h</text>
</a>
</g>
</g>
<!-- Node2&#45;&gt;Node4 -->
<g id="edge3" class="edge">
<title>Node2&#45;&gt;Node4</title>
<path fill="none" stroke="midnightblue" d="M569.36,-281.15C515.3,-258.81 367.32,-189.15 311.51,-76 301.09,-54.88 324.45,-36.22 345.61,-24.37"/>
<polygon fill="midnightblue" stroke="midnightblue" points="347.52,-27.32 354.75,-19.57 344.27,-21.12 347.52,-27.32"/>
</g>
<!-- Node5 -->
<g id="node5" class="node">
<title>Node5</title>
<g id="a_node5"><a xlink:title=" ">
<polygon fill="white" stroke="#bfbfbf" points="115.51,-0.5 115.51,-19.5 177.51,-19.5 177.51,-0.5 115.51,-0.5"/>
<text text-anchor="middle" x="146.51" y="-7.5" font-family="Helvetica,sans-Serif" font-size="10.00">stdbool.h</text>
</a>
</g>
</g>
<!-- Node2&#45;&gt;Node5 -->
<g id="edge4" class="edge">
<title>Node2&#45;&gt;Node5</title>
<path fill="none" stroke="midnightblue" d="M569.35,-283.16C543.01,-275.3 495.62,-260.41 456.51,-244 304.02,-180 211.11,-216.88 124.51,-76 115.28,-60.99 124.06,-41.63 133.11,-27.96"/>
<polygon fill="midnightblue" stroke="midnightblue" points="136.19,-29.68 139.21,-19.52 130.52,-25.58 136.19,-29.68"/>
</g>
<!-- Node6 -->
<g id="node6" class="node">
<title>Node6</title>
<g id="a_node6"><a xlink:title=" ">
<polygon fill="white" stroke="#bfbfbf" points="1022.51,-0.5 1022.51,-19.5 1072.51,-19.5 1072.51,-0.5 1022.51,-0.5"/>
<text text-anchor="middle" x="1047.51" y="-7.5" font-family="Helvetica,sans-Serif" font-size="10.00">stdio.h</text>
</a>
</g>
</g>
<!-- Node2&#45;&gt;Node6 -->
<g id="edge5" class="edge">
<title>Node2&#45;&gt;Node6</title>
<path fill="none" stroke="midnightblue" d="M609.54,-288.42C652.66,-286.53 756.74,-278.44 835.51,-244 949.53,-194.14 1003.86,-187.31 1059.51,-76 1066.87,-61.28 1062.22,-42.65 1056.7,-29.11"/>
<polygon fill="midnightblue" stroke="midnightblue" points="1059.83,-27.55 1052.5,-19.9 1053.46,-30.45 1059.83,-27.55"/>
</g>
<!-- Node7 -->
<g id="node7" class="node">
<title>Node7</title>
<g id="a_node7"><a xlink:title=" ">
<polygon fill="white" stroke="#bfbfbf" points="614.01,-0.5 614.01,-19.5 667.01,-19.5 667.01,-0.5 614.01,-0.5"/>
<text text-anchor="middle" x="640.51" y="-7.5" font-family="Helvetica,sans-Serif" font-size="10.00">string.h</text>
</a>
</g>
</g>
<!-- Node2&#45;&gt;Node7 -->
<g id="edge6" class="edge">
<title>Node2&#45;&gt;Node7</title>
<path fill="none" stroke="midnightblue" d="M580.46,-280.17C548.22,-247.62 443.74,-132.33 499.51,-56 523.17,-23.61 570.41,-13.99 603.66,-11.41"/>
<polygon fill="midnightblue" stroke="midnightblue" points="604.15,-14.89 613.92,-10.8 603.73,-7.9 604.15,-14.89"/>
</g>
<!-- Node8 -->
<g id="node8" class="node">
<title>Node8</title>
<g id="a_node8"><a xlink:title=" ">
<polygon fill="white" stroke="#bfbfbf" points="845.01,-0.5 845.01,-19.5 900.01,-19.5 900.01,-0.5 845.01,-0.5"/>
<text text-anchor="middle" x="872.51" y="-7.5" font-family="Helvetica,sans-Serif" font-size="10.00">wchar.h</text>
</a>
</g>
</g>
<!-- Node2&#45;&gt;Node8 -->
<g id="edge7" class="edge">
<title>Node2&#45;&gt;Node8</title>
<path fill="none" stroke="midnightblue" d="M609.68,-289.49C670.26,-289.81 846.51,-281.89 846.51,-179 846.51,-179 846.51,-179 846.51,-121 846.51,-87.93 857.78,-50.73 865.48,-29.17"/>
<polygon fill="midnightblue" stroke="midnightblue" points="868.8,-30.27 869,-19.68 862.24,-27.83 868.8,-30.27"/>
</g>
<!-- Node9 -->
<g id="node9" class="node">
<title>Node9</title>
<g id="a_node9"><a xlink:href="obj_8h.html" target="_top" xlink:title=" ">
<polygon fill="white" stroke="black" points="570.01,-112.5 570.01,-131.5 611.01,-131.5 611.01,-112.5 570.01,-112.5"/>
<text text-anchor="middle" x="590.51" y="-119.5" font-family="Helvetica,sans-Serif" font-size="10.00">obj.h</text>
</a>
</g>
</g>
<!-- Node2&#45;&gt;Node9 -->
<g id="edge8" class="edge">
<title>Node2&#45;&gt;Node9</title>
<path fill="none" stroke="midnightblue" d="M589.56,-280.08C589.72,-253.95 590.18,-177.21 590.4,-141.58"/>
<polygon fill="midnightblue" stroke="midnightblue" points="593.9,-141.59 590.46,-131.57 586.9,-141.55 593.9,-141.59"/>
</g>
<!-- Node2&#45;&gt;Node12 -->
<g id="edge22" class="edge">
<title>Node2&#45;&gt;Node12</title>
<path fill="none" stroke="midnightblue" d="M569.05,-288.37C502.03,-286.02 283.2,-276.24 105.51,-244 104.05,-243.73 102.56,-243.44 101.06,-243.11"/>
<polygon fill="midnightblue" stroke="midnightblue" points="101.77,-239.68 91.23,-240.71 100.11,-246.48 101.77,-239.68"/>
</g>
<!-- Node9&#45;&gt;Node3 -->
<g id="edge9" class="edge">
<title>Node9&#45;&gt;Node3</title>
<path fill="none" stroke="midnightblue" d="M611.07,-118.65C732.57,-104.77 1356.86,-33.46 1516.37,-15.24"/>
<polygon fill="midnightblue" stroke="midnightblue" points="1517.08,-18.68 1526.61,-14.07 1516.28,-11.73 1517.08,-18.68"/>
</g>
<!-- Node9&#45;&gt;Node4 -->
<g id="edge10" class="edge">
<title>Node9&#45;&gt;Node4</title>
<path fill="none" stroke="midnightblue" d="M569.95,-118.46C539.06,-113.92 479.7,-102.28 436.51,-76 415.99,-63.51 397.72,-42.52 386.42,-27.78"/>
<polygon fill="midnightblue" stroke="midnightblue" points="389.08,-25.5 380.32,-19.54 383.45,-29.66 389.08,-25.5"/>
</g>
<!-- Node9&#45;&gt;Node5 -->
<g id="edge11" class="edge">
<title>Node9&#45;&gt;Node5</title>
<path fill="none" stroke="midnightblue" d="M569.76,-115.88C535.98,-107.53 466.96,-90.48 408.51,-76 330.25,-56.62 238.86,-33.93 187.32,-21.14"/>
<polygon fill="midnightblue" stroke="midnightblue" points="188.11,-17.73 177.56,-18.71 186.42,-24.52 188.11,-17.73"/>
</g>
<!-- Node9&#45;&gt;Node6 -->
<g id="edge12" class="edge">
<title>Node9&#45;&gt;Node6</title>
<path fill="none" stroke="midnightblue" d="M611.16,-119.34C675.69,-114 872.88,-96.38 933.51,-76 968.84,-64.12 1005.58,-40.87 1027.49,-25.64"/>
<polygon fill="midnightblue" stroke="midnightblue" points="1029.8,-28.3 1035.93,-19.66 1025.75,-22.59 1029.8,-28.3"/>
</g>
<!-- Node9&#45;&gt;Node7 -->
<g id="edge13" class="edge">
<title>Node9&#45;&gt;Node7</title>
<path fill="none" stroke="midnightblue" d="M569.85,-114.96C539.35,-104.97 487.88,-83.36 507.51,-56 529.21,-25.75 572.36,-15.58 603.64,-12.29"/>
<polygon fill="midnightblue" stroke="midnightblue" points="604.08,-15.77 613.74,-11.42 603.48,-8.79 604.08,-15.77"/>
</g>
<!-- Node9&#45;&gt;Node8 -->
<g id="edge14" class="edge">
<title>Node9&#45;&gt;Node8</title>
<path fill="none" stroke="midnightblue" d="M602.21,-112.39C621.4,-98.64 661.18,-71.67 698.51,-56 743.68,-37.04 798.89,-24.41 834.84,-17.48"/>
<polygon fill="midnightblue" stroke="midnightblue" points="835.71,-20.88 844.89,-15.59 834.42,-14 835.71,-20.88"/>
</g>
<!-- Node10 -->
<g id="node10" class="node">
<title>Node10</title>
<g id="a_node10"><a xlink:href="SHM_2hashmap_8h.html" target="_top" xlink:title=" ">
<polygon fill="white" stroke="black" points="516.51,-56.5 516.51,-75.5 612.51,-75.5 612.51,-56.5 516.51,-56.5"/>
<text text-anchor="middle" x="564.51" y="-63.5" font-family="Helvetica,sans-Serif" font-size="10.00">SHM/hashmap.h</text>
</a>
</g>
</g>
<!-- Node9&#45;&gt;Node10 -->
<g id="edge15" class="edge">
<title>Node9&#45;&gt;Node10</title>
<path fill="none" stroke="midnightblue" d="M586.22,-112.08C582.66,-104.69 577.49,-93.95 573.08,-84.81"/>
<polygon fill="midnightblue" stroke="midnightblue" points="576.21,-83.24 568.72,-75.75 569.91,-86.28 576.21,-83.24"/>
</g>
<!-- Node11 -->
<g id="node11" class="node">
<title>Node11</title>
<g id="a_node11"><a xlink:href="io_8h.html" target="_top" xlink:title=" ">
<polygon fill="white" stroke="black" points="707.01,-56.5 707.01,-75.5 742.01,-75.5 742.01,-56.5 707.01,-56.5"/>
<text text-anchor="middle" x="724.51" y="-63.5" font-family="Helvetica,sans-Serif" font-size="10.00">io.h</text>
</a>
</g>
</g>
<!-- Node9&#45;&gt;Node11 -->
<g id="edge21" class="edge">
<title>Node9&#45;&gt;Node11</title>
<path fill="none" stroke="midnightblue" d="M611.15,-112.68C634.23,-103.38 671.68,-88.29 697.17,-78.02"/>
<polygon fill="midnightblue" stroke="midnightblue" points="698.66,-81.19 706.63,-74.2 696.05,-74.7 698.66,-81.19"/>
</g>
<!-- Node10&#45;&gt;Node3 -->
<g id="edge16" class="edge">
<title>Node10&#45;&gt;Node3</title>
<path fill="none" stroke="midnightblue" d="M612.56,-61.6C638.09,-59.84 670,-57.71 698.51,-56 1015.06,-37.04 1397.79,-18.43 1516.56,-12.75"/>
<polygon fill="midnightblue" stroke="midnightblue" points="1517.08,-16.23 1526.91,-12.26 1516.75,-9.24 1517.08,-16.23"/>
</g>
<!-- Node10&#45;&gt;Node4 -->
<g id="edge18" class="edge">
<title>Node10&#45;&gt;Node4</title>
<path fill="none" stroke="midnightblue" d="M534.4,-56.44C500.97,-46.94 447.01,-31.61 411.15,-21.41"/>
<polygon fill="midnightblue" stroke="midnightblue" points="411.68,-17.93 401.1,-18.56 409.76,-24.66 411.68,-17.93"/>
</g>
<!-- Node10&#45;&gt;Node5 -->
<g id="edge19" class="edge">
<title>Node10&#45;&gt;Node5</title>
<path fill="none" stroke="midnightblue" d="M516.15,-58.75C433.33,-48.05 265.77,-26.41 187.96,-16.35"/>
<polygon fill="midnightblue" stroke="midnightblue" points="187.96,-12.83 177.59,-15.02 187.06,-19.77 187.96,-12.83"/>
</g>
<!-- Node10&#45;&gt;Node6 -->
<g id="edge17" class="edge">
<title>Node10&#45;&gt;Node6</title>
<path fill="none" stroke="midnightblue" d="M612.59,-59.62C709.71,-48.77 927.27,-24.44 1012.4,-14.92"/>
<polygon fill="midnightblue" stroke="midnightblue" points="1012.8,-18.4 1022.35,-13.81 1012.02,-11.45 1012.8,-18.4"/>
</g>
<!-- Node10&#45;&gt;Node7 -->
<g id="edge20" class="edge">
<title>Node10&#45;&gt;Node7</title>
<path fill="none" stroke="midnightblue" d="M576.72,-56.32C588.28,-48.11 605.88,-35.6 619.67,-25.81"/>
<polygon fill="midnightblue" stroke="midnightblue" points="621.95,-28.48 628.08,-19.83 617.9,-22.77 621.95,-28.48"/>
</g>
<!-- Node12&#45;&gt;Node5 -->
<g id="edge23" class="edge">
<title>Node12&#45;&gt;Node5</title>
<path fill="none" stroke="midnightblue" d="M53.75,-226.82C36.94,-220.16 13.31,-207.78 2.51,-188 -1.75,-180.2 0.99,-176.76 2.51,-168 11.53,-115.92 6.37,-94.58 42.51,-56 59.23,-38.15 84.23,-27.03 105.53,-20.3"/>
<polygon fill="midnightblue" stroke="midnightblue" points="106.72,-23.6 115.33,-17.43 104.75,-16.89 106.72,-23.6"/>
</g>
<!-- Node12&#45;&gt;Node9 -->
<g id="edge24" class="edge">
<title>Node12&#45;&gt;Node9</title>
<path fill="none" stroke="midnightblue" d="M91.25,-229.02C168.61,-212.59 463.54,-149.96 559.87,-129.51"/>
<polygon fill="midnightblue" stroke="midnightblue" points="560.79,-132.89 569.85,-127.39 559.34,-126.04 560.79,-132.89"/>
</g>
<!-- Node13 -->
<g id="node13" class="node">
<title>Node13</title>
<g id="a_node13"><a xlink:href="cgc_8h.html" target="_top" xlink:title=" ">
<polygon fill="white" stroke="black" points="11.51,-168.5 11.51,-187.5 53.51,-187.5 53.51,-168.5 11.51,-168.5"/>
<text text-anchor="middle" x="32.51" y="-175.5" font-family="Helvetica,sans-Serif" font-size="10.00">cgc.h</text>
</a>
</g>
</g>
<!-- Node12&#45;&gt;Node13 -->
<g id="edge25" class="edge">
<title>Node12&#45;&gt;Node13</title>
<path fill="none" stroke="midnightblue" d="M65.9,-224.08C60.25,-216.46 51.96,-205.26 45.06,-195.94"/>
<polygon fill="midnightblue" stroke="midnightblue" points="47.76,-193.7 38.99,-187.75 42.13,-197.87 47.76,-193.7"/>
</g>
<!-- Node13&#45;&gt;Node5 -->
<g id="edge26" class="edge">
<title>Node13&#45;&gt;Node5</title>
<path fill="none" stroke="midnightblue" d="M31.8,-168.35C30.51,-146.95 30.02,-90.74 56.51,-56 68.66,-40.06 88.01,-29.37 105.65,-22.42"/>
<polygon fill="midnightblue" stroke="midnightblue" points="107.02,-25.65 115.22,-18.94 104.62,-19.07 107.02,-25.65"/>
</g>
<!-- Node13&#45;&gt;Node9 -->
<g id="edge27" class="edge">
<title>Node13&#45;&gt;Node9</title>
<path fill="none" stroke="midnightblue" d="M53.86,-170.91C58.34,-169.8 63.06,-168.76 67.51,-168 252.79,-136.43 478.98,-126.52 559.91,-123.86"/>
<polygon fill="midnightblue" stroke="midnightblue" points="560.03,-127.36 569.92,-123.55 559.81,-120.36 560.03,-127.36"/>
</g>
<!-- Node14&#45;&gt;Node3 -->
<g id="edge30" class="edge">
<title>Node14&#45;&gt;Node3</title>
<path fill="none" stroke="midnightblue" d="M665.22,-175.19C770.03,-167.2 1187.74,-135.28 1215.51,-132 1373.7,-113.32 1466.05,-197.12 1569.51,-76 1580.79,-62.79 1573.44,-42.84 1565.37,-28.53"/>
<polygon fill="midnightblue" stroke="midnightblue" points="1568.13,-26.33 1559.89,-19.67 1562.18,-30.02 1568.13,-26.33"/>
</g>
<!-- Node14&#45;&gt;Node4 -->
<g id="edge31" class="edge">
<title>Node14&#45;&gt;Node4</title>
<path fill="none" stroke="midnightblue" d="M617.85,-176.94C552.96,-176.27 374.31,-170.85 333.51,-132 308.79,-108.46 308.32,-87.04 322.51,-56 328.29,-43.36 339.56,-32.91 350.14,-25.27"/>
<polygon fill="midnightblue" stroke="midnightblue" points="352.36,-28 358.73,-19.53 348.47,-22.18 352.36,-28"/>
</g>
<!-- Node14&#45;&gt;Node5 -->
<g id="edge32" class="edge">
<title>Node14&#45;&gt;Node5</title>
<path fill="none" stroke="midnightblue" d="M617.66,-176.71C556.6,-175.42 390.17,-168.56 257.51,-132 198.82,-115.83 165.61,-127.09 132.51,-76 123.32,-61.81 129.22,-42.58 135.96,-28.73"/>
<polygon fill="midnightblue" stroke="midnightblue" points="139.15,-30.2 140.81,-19.73 132.99,-26.87 139.15,-30.2"/>
</g>
<!-- Node14&#45;&gt;Node6 -->
<g id="edge29" class="edge">
<title>Node14&#45;&gt;Node6</title>
<path fill="none" stroke="midnightblue" d="M665.33,-172.94C721.04,-162.75 863.1,-132.77 968.51,-76 992.79,-62.93 1016.67,-41.8 1031.71,-27.2"/>
<polygon fill="midnightblue" stroke="midnightblue" points="1034.48,-29.39 1039.1,-19.86 1029.55,-24.42 1034.48,-29.39"/>
</g>
<!-- Node14&#45;&gt;Node7 -->
<g id="edge33" class="edge">
<title>Node14&#45;&gt;Node7</title>
<path fill="none" stroke="midnightblue" d="M641.46,-168.08C641.3,-141.95 640.84,-65.21 640.62,-29.58"/>
<polygon fill="midnightblue" stroke="midnightblue" points="644.12,-29.55 640.56,-19.57 637.12,-29.59 644.12,-29.55"/>
</g>
<!-- Node14&#45;&gt;Node9 -->
<g id="edge34" class="edge">
<title>Node14&#45;&gt;Node9</title>
<path fill="none" stroke="midnightblue" d="M633.09,-168.08C625.66,-160.22 614.66,-148.57 605.7,-139.08"/>
<polygon fill="midnightblue" stroke="midnightblue" points="608.18,-136.62 598.77,-131.75 603.1,-141.42 608.18,-136.62"/>
</g>
<!-- Node15&#45;&gt;Node3 -->
<g id="edge37" class="edge">
<title>Node15&#45;&gt;Node3</title>
<path fill="none" stroke="midnightblue" d="M802.82,-176.59C910.87,-173.96 1490.6,-158.67 1564.51,-132 1609.44,-115.78 1665.34,-96.81 1640.51,-56 1629.49,-37.9 1608.59,-26.76 1590.03,-20.09"/>
<polygon fill="midnightblue" stroke="midnightblue" points="1590.92,-16.7 1580.33,-16.91 1588.74,-23.35 1590.92,-16.7"/>
</g>
<!-- Node15&#45;&gt;Node4 -->
<g id="edge38" class="edge">
<title>Node15&#45;&gt;Node4</title>
<path fill="none" stroke="midnightblue" d="M768.11,-174.42C701.6,-164.25 464.37,-125.09 408.51,-76 394.48,-63.67 385.37,-44.14 380.14,-29.71"/>
<polygon fill="midnightblue" stroke="midnightblue" points="383.35,-28.26 376.89,-19.86 376.7,-30.46 383.35,-28.26"/>
</g>
<!-- Node15&#45;&gt;Node5 -->
<g id="edge39" class="edge">
<title>Node15&#45;&gt;Node5</title>
<path fill="none" stroke="midnightblue" d="M768.47,-175.67C721.92,-171.77 588.89,-158.94 481.51,-132 410.06,-114.07 394.8,-101.02 325.51,-76 274.49,-57.58 215.34,-36.07 179.44,-23"/>
<polygon fill="midnightblue" stroke="midnightblue" points="180.55,-19.68 169.96,-19.55 178.15,-26.26 180.55,-19.68"/>
</g>
<!-- Node15&#45;&gt;Node6 -->
<g id="edge36" class="edge">
<title>Node15&#45;&gt;Node6</title>
<path fill="none" stroke="midnightblue" d="M802.63,-176.16C849.98,-172.82 983.09,-156.38 1042.51,-76 1052.28,-62.79 1052.57,-43.65 1051,-29.57"/>
<polygon fill="midnightblue" stroke="midnightblue" points="1054.44,-28.92 1049.48,-19.56 1047.52,-29.97 1054.44,-28.92"/>
</g>
<!-- Node15&#45;&gt;Node9 -->
<g id="edge60" class="edge">
<title>Node15&#45;&gt;Node9</title>
<path fill="none" stroke="midnightblue" d="M768.2,-172.21C735.12,-163.05 662.52,-142.94 621.08,-131.47"/>
<polygon fill="midnightblue" stroke="midnightblue" points="621.83,-128.04 611.26,-128.75 619.96,-134.79 621.83,-128.04"/>
</g>
<!-- Node15&#45;&gt;Node11 -->
<g id="edge40" class="edge">
<title>Node15&#45;&gt;Node11</title>
<path fill="none" stroke="midnightblue" d="M780.72,-168.37C770.74,-150.38 747.55,-108.55 734.28,-84.63"/>
<polygon fill="midnightblue" stroke="midnightblue" points="737.18,-82.64 729.27,-75.59 731.06,-86.03 737.18,-82.64"/>
</g>
<!-- Node16 -->
<g id="node16" class="node">
<title>Node16</title>
<g id="a_node16"><a xlink:href="util_8h.html" target="_top" xlink:title=" ">
<polygon fill="white" stroke="black" points="1165.01,-112.5 1165.01,-131.5 1206.01,-131.5 1206.01,-112.5 1165.01,-112.5"/>
<text text-anchor="middle" x="1185.51" y="-119.5" font-family="Helvetica,sans-Serif" font-size="10.00">util.h</text>
</a>
</g>
</g>
<!-- Node15&#45;&gt;Node16 -->
<g id="edge41" class="edge">
<title>Node15&#45;&gt;Node16</title>
<path fill="none" stroke="midnightblue" d="M802.7,-174.68C864.25,-166.37 1074.27,-138.02 1154.24,-127.22"/>
<polygon fill="midnightblue" stroke="midnightblue" points="1155.19,-130.62 1164.64,-125.82 1154.26,-123.69 1155.19,-130.62"/>
</g>
<!-- Node16&#45;&gt;Node3 -->
<g id="edge42" class="edge">
<title>Node16&#45;&gt;Node3</title>
<path fill="none" stroke="midnightblue" d="M1206.1,-120.77C1253.14,-119.59 1371.42,-112.86 1461.51,-76 1490.6,-64.1 1519.42,-41.53 1536.85,-26.37"/>
<polygon fill="midnightblue" stroke="midnightblue" points="1539.3,-28.87 1544.44,-19.6 1534.64,-23.64 1539.3,-28.87"/>
</g>
<!-- Node16&#45;&gt;Node4 -->
<g id="edge49" class="edge">
<title>Node16&#45;&gt;Node4</title>
<path fill="none" stroke="midnightblue" d="M1164.74,-120.7C1065.15,-119.1 636.17,-110.29 507.51,-76 465.93,-64.92 421.84,-40.53 396.32,-24.98"/>
<polygon fill="midnightblue" stroke="midnightblue" points="398.14,-21.99 387.79,-19.69 394.45,-27.93 398.14,-21.99"/>
</g>
<!-- Node16&#45;&gt;Node5 -->
<g id="edge44" class="edge">
<title>Node16&#45;&gt;Node5</title>
<path fill="none" stroke="midnightblue" d="M1164.85,-120.37C1060.79,-117.13 593.38,-101.35 450.51,-76 419.91,-70.57 413.7,-63.35 383.51,-56 315.46,-39.43 235.18,-25.31 187.69,-17.5"/>
<polygon fill="midnightblue" stroke="midnightblue" points="188.22,-14.04 177.78,-15.89 187.09,-20.95 188.22,-14.04"/>
</g>
<!-- Node16&#45;&gt;Node6 -->
<g id="edge43" class="edge">
<title>Node16&#45;&gt;Node6</title>
<path fill="none" stroke="midnightblue" d="M1183.79,-112.23C1180.66,-98.49 1172.81,-71.85 1156.51,-56 1136.18,-36.23 1105.94,-24.68 1082.47,-18.24"/>
<polygon fill="midnightblue" stroke="midnightblue" points="1083.1,-14.79 1072.54,-15.71 1081.37,-21.58 1083.1,-14.79"/>
</g>
<!-- Node16&#45;&gt;Node7 -->
<g id="edge46" class="edge">
<title>Node16&#45;&gt;Node7</title>
<path fill="none" stroke="midnightblue" d="M1164.81,-119.09C1113.74,-114.17 977.82,-99.74 866.51,-76 797.98,-61.39 719.76,-37.15 675.64,-22.76"/>
<polygon fill="midnightblue" stroke="midnightblue" points="676.56,-19.38 665.97,-19.59 674.38,-26.04 676.56,-19.38"/>
</g>
<!-- Node16&#45;&gt;Node8 -->
<g id="edge51" class="edge">
<title>Node16&#45;&gt;Node8</title>
<path fill="none" stroke="midnightblue" d="M1164.97,-113.78C1112.3,-95.27 971.98,-45.96 906.74,-23.03"/>
<polygon fill="midnightblue" stroke="midnightblue" points="907.53,-19.6 896.94,-19.59 905.21,-26.2 907.53,-19.6"/>
</g>
<!-- Node17 -->
<g id="node17" class="node">
<title>Node17</title>
<g id="a_node17"><a xlink:title=" ">
<polygon fill="white" stroke="#bfbfbf" points="1396.51,-56.5 1396.51,-75.5 1452.51,-75.5 1452.51,-56.5 1396.51,-56.5"/>
<text text-anchor="middle" x="1424.51" y="-63.5" font-family="Helvetica,sans-Serif" font-size="10.00">assert.h</text>
</a>
</g>
</g>
<!-- Node16&#45;&gt;Node17 -->
<g id="edge45" class="edge">
<title>Node16&#45;&gt;Node17</title>
<path fill="none" stroke="midnightblue" d="M1206.19,-116.53C1241.15,-108.95 1314.4,-92.93 1386.13,-76.29"/>
<polygon fill="midnightblue" stroke="midnightblue" points="1387.29,-79.61 1396.24,-73.94 1385.71,-72.79 1387.29,-79.61"/>
</g>
<!-- Node18 -->
<g id="node18" class="node">
<title>Node18</title>
<g id="a_node18"><a xlink:title=" ">
<polygon fill="white" stroke="#bfbfbf" points="1509.01,-56.5 1509.01,-75.5 1560.01,-75.5 1560.01,-56.5 1509.01,-56.5"/>
<text text-anchor="middle" x="1534.51" y="-63.5" font-family="Helvetica,sans-Serif" font-size="10.00">math.h</text>
</a>
</g>
</g>
<!-- Node16&#45;&gt;Node18 -->
<g id="edge47" class="edge">
<title>Node16&#45;&gt;Node18</title>
<path fill="none" stroke="midnightblue" d="M1206.21,-118.54C1256.05,-112.51 1386.56,-95.97 1494.51,-76 1495.95,-75.73 1497.42,-75.45 1498.91,-75.16"/>
<polygon fill="midnightblue" stroke="midnightblue" points="1499.67,-78.57 1508.75,-73.1 1498.24,-71.72 1499.67,-78.57"/>
</g>
<!-- Node19 -->
<g id="node19" class="node">
<title>Node19</title>
<g id="a_node19"><a xlink:title=" ">
<polygon fill="white" stroke="#bfbfbf" points="1208.51,-56.5 1208.51,-75.5 1256.51,-75.5 1256.51,-56.5 1208.51,-56.5"/>
<text text-anchor="middle" x="1232.51" y="-63.5" font-family="Helvetica,sans-Serif" font-size="10.00">float.h</text>
</a>
</g>
</g>
<!-- Node16&#45;&gt;Node19 -->
<g id="edge48" class="edge">
<title>Node16&#45;&gt;Node19</title>
<path fill="none" stroke="midnightblue" d="M1193.27,-112.08C1200.05,-104.3 1210.05,-92.8 1218.26,-83.37"/>
<polygon fill="midnightblue" stroke="midnightblue" points="1220.97,-85.59 1224.89,-75.75 1215.69,-81 1220.97,-85.59"/>
</g>
<!-- Node20 -->
<g id="node20" class="node">
<title>Node20</title>
<g id="a_node20"><a xlink:title=" ">
<polygon fill="white" stroke="#bfbfbf" points="1274.51,-56.5 1274.51,-75.5 1322.51,-75.5 1322.51,-56.5 1274.51,-56.5"/>
<text text-anchor="middle" x="1298.51" y="-63.5" font-family="Helvetica,sans-Serif" font-size="10.00">time.h</text>
</a>
</g>
</g>
<!-- Node16&#45;&gt;Node20 -->
<g id="edge50" class="edge">
<title>Node16&#45;&gt;Node20</title>
<path fill="none" stroke="midnightblue" d="M1203.41,-112.44C1221.76,-103.68 1250.51,-89.94 1271.6,-79.86"/>
<polygon fill="midnightblue" stroke="midnightblue" points="1273.17,-82.99 1280.69,-75.52 1270.16,-76.67 1273.17,-82.99"/>
</g>
<!-- Node21 -->
<g id="node21" class="node">
<title>Node21</title>
<g id="a_node21"><a xlink:href="os_8h.html" target="_top" xlink:title=" ">
<polygon fill="white" stroke="black" points="1341.01,-56.5 1341.01,-75.5 1378.01,-75.5 1378.01,-56.5 1341.01,-56.5"/>
<text text-anchor="middle" x="1359.51" y="-63.5" font-family="Helvetica,sans-Serif" font-size="10.00">os.h</text>
</a>
</g>
</g>
<!-- Node16&#45;&gt;Node21 -->
<g id="edge52" class="edge">
<title>Node16&#45;&gt;Node21</title>
<path fill="none" stroke="midnightblue" d="M1206.33,-114.67C1232.96,-106.55 1280.73,-91.93 1331.08,-76.11"/>
<polygon fill="midnightblue" stroke="midnightblue" points="1332.36,-79.38 1340.84,-73.03 1330.25,-72.7 1332.36,-79.38"/>
</g>
<!-- Node22 -->
<g id="node22" class="node">
<title>Node22</title>
<g id="a_node22"><a xlink:href="error_8h.html" target="_top" xlink:title=" ">
<polygon fill="white" stroke="black" points="875.01,-56.5 875.01,-75.5 924.01,-75.5 924.01,-56.5 875.01,-56.5"/>
<text text-anchor="middle" x="899.51" y="-63.5" font-family="Helvetica,sans-Serif" font-size="10.00">error.h</text>
</a>
</g>
</g>
<!-- Node16&#45;&gt;Node22 -->
<g id="edge53" class="edge">
<title>Node16&#45;&gt;Node22</title>
<path fill="none" stroke="midnightblue" d="M1164.95,-117.59C1122.52,-110.47 1022.18,-93.27 938.51,-76 937.06,-75.7 935.59,-75.39 934.1,-75.07"/>
<polygon fill="midnightblue" stroke="midnightblue" points="934.75,-71.63 924.23,-72.89 933.24,-78.47 934.75,-71.63"/>
</g>
<!-- Node22&#45;&gt;Node3 -->
<g id="edge54" class="edge">
<title>Node22&#45;&gt;Node3</title>
<path fill="none" stroke="midnightblue" d="M924.35,-62.95C1024.34,-54.69 1397.75,-23.86 1516.8,-14.03"/>
<polygon fill="midnightblue" stroke="midnightblue" points="1517.19,-17.51 1526.87,-13.2 1516.61,-10.53 1517.19,-17.51"/>
</g>
<!-- Node22&#45;&gt;Node4 -->
<g id="edge55" class="edge">
<title>Node22&#45;&gt;Node4</title>
<path fill="none" stroke="midnightblue" d="M874.89,-62.47C790.41,-53.78 511.93,-25.13 411.25,-14.78"/>
<polygon fill="midnightblue" stroke="midnightblue" points="411.55,-11.29 401.24,-13.75 410.83,-18.25 411.55,-11.29"/>
</g>
<!-- Node22&#45;&gt;Node5 -->
<g id="edge56" class="edge">
<title>Node22&#45;&gt;Node5</title>
<path fill="none" stroke="midnightblue" d="M874.88,-63.23C765.82,-55.41 325.63,-23.85 187.91,-13.97"/>
<polygon fill="midnightblue" stroke="midnightblue" points="188,-10.47 177.77,-13.24 187.49,-17.45 188,-10.47"/>
</g>
<!-- Node22&#45;&gt;Node6 -->
<g id="edge57" class="edge">
<title>Node22&#45;&gt;Node6</title>
<path fill="none" stroke="midnightblue" d="M922.96,-56.44C947.64,-47.44 986.69,-33.19 1014.49,-23.05"/>
<polygon fill="midnightblue" stroke="midnightblue" points="1015.97,-26.23 1024.17,-19.52 1013.57,-19.66 1015.97,-26.23"/>
</g>
<!-- Node22&#45;&gt;Node7 -->
<g id="edge58" class="edge">
<title>Node22&#45;&gt;Node7</title>
<path fill="none" stroke="midnightblue" d="M874.67,-59.82C828.86,-50.27 730.83,-29.83 677.28,-18.67"/>
<polygon fill="midnightblue" stroke="midnightblue" points="677.7,-15.18 667.19,-16.56 676.27,-22.03 677.7,-15.18"/>
</g>
<!-- Node22&#45;&gt;Node8 -->
<g id="edge59" class="edge">
<title>Node22&#45;&gt;Node8</title>
<path fill="none" stroke="midnightblue" d="M895.05,-56.08C891.35,-48.69 885.99,-37.95 881.41,-28.81"/>
<polygon fill="midnightblue" stroke="midnightblue" points="884.49,-27.13 876.88,-19.75 878.23,-30.26 884.49,-27.13"/>
</g>
<!-- Node23&#45;&gt;Node3 -->
<g id="edge63" class="edge">
<title>Node23&#45;&gt;Node3</title>
<path fill="none" stroke="midnightblue" d="M1635.32,-168.45C1650.45,-161.22 1669.46,-149.26 1678.51,-132 1694.19,-102.08 1697.93,-83.64 1678.51,-56 1658.72,-27.85 1619.55,-17.23 1590.3,-13.26"/>
<polygon fill="midnightblue" stroke="midnightblue" points="1590.37,-9.75 1580.03,-12.08 1589.57,-16.7 1590.37,-9.75"/>
</g>
<!-- Node23&#45;&gt;Node6 -->
<g id="edge62" class="edge">
<title>Node23&#45;&gt;Node6</title>
<path fill="none" stroke="midnightblue" d="M1613.33,-168.49C1612.34,-145.89 1606.23,-84.15 1569.51,-56 1531,-26.48 1193.98,-14.91 1082.87,-11.87"/>
<polygon fill="midnightblue" stroke="midnightblue" points="1082.63,-8.36 1072.54,-11.6 1082.45,-15.36 1082.63,-8.36"/>
</g>
<!-- Node23&#45;&gt;Node7 -->
<g id="edge64" class="edge">
<title>Node23&#45;&gt;Node7</title>
<path fill="none" stroke="midnightblue" d="M1588.86,-175.4C1468.39,-167.38 941.06,-129.75 786.51,-76 769.59,-70.12 767.62,-63.83 751.51,-56 725.93,-43.58 696,-31.58 673.67,-23.11"/>
<polygon fill="midnightblue" stroke="midnightblue" points="674.89,-19.83 664.3,-19.58 672.43,-26.38 674.89,-19.83"/>
</g>
<!-- Node23&#45;&gt;Node9 -->
<g id="edge66" class="edge">
<title>Node23&#45;&gt;Node9</title>
<path fill="none" stroke="midnightblue" d="M1588.98,-175.71C1451.15,-168.43 773.81,-132.68 621.12,-124.62"/>
<polygon fill="midnightblue" stroke="midnightblue" points="621.22,-121.12 611.05,-124.08 620.85,-128.11 621.22,-121.12"/>
</g>
<!-- Node23&#45;&gt;Node18 -->
<g id="edge65" class="edge">
<title>Node23&#45;&gt;Node18</title>
<path fill="none" stroke="midnightblue" d="M1607.31,-168.37C1594.27,-150.22 1563.81,-107.8 1546.71,-83.99"/>
<polygon fill="midnightblue" stroke="midnightblue" points="1549.36,-81.67 1540.68,-75.59 1543.67,-85.76 1549.36,-81.67"/>
</g>
</g>
</svg>
