<?xml version="1.0" encoding="UTF-8" standalone="no"?>
<!DOCTYPE svg PUBLIC "-//W3C//DTD SVG 1.1//EN"
 "http://www.w3.org/Graphics/SVG/1.1/DTD/svg11.dtd">
<!-- Generated by graphviz version 2.43.0 (0)
 -->
<!-- Title: /home/bugy/projs/lobotomy/src/lexer.h Pages: 1 -->
<svg width="728pt" height="207pt"
 viewBox="0.00 0.00 728.00 207.00" xmlns="http://www.w3.org/2000/svg" xmlns:xlink="http://www.w3.org/1999/xlink">
<g id="graph0" class="graph" transform="scale(1 1) rotate(0) translate(4 203)">
<title>/home/bugy/projs/lobotomy/src/lexer.h</title>
<polygon fill="white" stroke="transparent" points="-4,4 -4,-203 724,-203 724,4 -4,4"/>
<!-- Node1 -->
<g id="node1" class="node">
<title>Node1</title>
<g id="a_node1"><a xlink:title=" ">
<polygon fill="#bfbfbf" stroke="black" points="252,-168.5 252,-198.5 403,-198.5 403,-168.5 252,-168.5"/>
<text text-anchor="start" x="260" y="-186.5" font-family="Helvetica,sans-Serif" font-size="10.00">/home/bugy/projs/lobotomy</text>
<text text-anchor="middle" x="327.5" y="-175.5" font-family="Helvetica,sans-Serif" font-size="10.00">/src/lexer.h</text>
</a>
</g>
</g>
<!-- Node2 -->
<g id="node2" class="node">
<title>Node2</title>
<g id="a_node2"><a xlink:title=" ">
<polygon fill="white" stroke="#bfbfbf" points="492,-0.5 492,-19.5 545,-19.5 545,-0.5 492,-0.5"/>
<text text-anchor="middle" x="518.5" y="-7.5" font-family="Helvetica,sans-Serif" font-size="10.00">stdlib.h</text>
</a>
</g>
</g>
<!-- Node1&#45;&gt;Node2 -->
<g id="edge1" class="edge">
<title>Node1&#45;&gt;Node2</title>
<path fill="none" stroke="midnightblue" d="M403.21,-176.6C459.71,-170.3 537.95,-157.54 602.5,-132 645.26,-115.08 667.48,-116.37 689.5,-76 717.92,-23.9 613.74,-13.23 555.39,-11.26"/>
<polygon fill="midnightblue" stroke="midnightblue" points="555.16,-7.75 545.07,-10.99 554.98,-14.75 555.16,-7.75"/>
</g>
<!-- Node3 -->
<g id="node3" class="node">
<title>Node3</title>
<g id="a_node3"><a xlink:title=" ">
<polygon fill="white" stroke="#bfbfbf" points="0,-0.5 0,-19.5 53,-19.5 53,-0.5 0,-0.5"/>
<text text-anchor="middle" x="26.5" y="-7.5" font-family="Helvetica,sans-Serif" font-size="10.00">stdint.h</text>
</a>
</g>
</g>
<!-- Node1&#45;&gt;Node3 -->
<g id="edge2" class="edge">
<title>Node1&#45;&gt;Node3</title>
<path fill="none" stroke="midnightblue" d="M273.17,-168.46C243.96,-159.88 207.82,-147.54 177.5,-132 139.52,-112.53 132.82,-102.67 99.5,-76 79.57,-60.04 57.85,-40.39 43.33,-26.9"/>
<polygon fill="midnightblue" stroke="midnightblue" points="45.37,-24.01 35.68,-19.74 40.59,-29.13 45.37,-24.01"/>
</g>
<!-- Node4 -->
<g id="node4" class="node">
<title>Node4</title>
<g id="a_node4"><a xlink:title=" ">
<polygon fill="white" stroke="#bfbfbf" points="71.5,-0.5 71.5,-19.5 133.5,-19.5 133.5,-0.5 71.5,-0.5"/>
<text text-anchor="middle" x="102.5" y="-7.5" font-family="Helvetica,sans-Serif" font-size="10.00">stdbool.h</text>
</a>
</g>
</g>
<!-- Node1&#45;&gt;Node4 -->
<g id="edge3" class="edge">
<title>Node1&#45;&gt;Node4</title>
<path fill="none" stroke="midnightblue" d="M284.02,-168.43C260.38,-159.76 231.22,-147.36 207.5,-132 176.88,-112.17 171.35,-103.6 147.5,-76 134.5,-60.96 121.81,-42.13 113.23,-28.61"/>
<polygon fill="midnightblue" stroke="midnightblue" points="116.03,-26.48 107.77,-19.84 110.08,-30.18 116.03,-26.48"/>
</g>
<!-- Node5 -->
<g id="node5" class="node">
<title>Node5</title>
<g id="a_node5"><a xlink:title=" ">
<polygon fill="white" stroke="#bfbfbf" points="153.5,-0.5 153.5,-19.5 203.5,-19.5 203.5,-0.5 153.5,-0.5"/>
<text text-anchor="middle" x="178.5" y="-7.5" font-family="Helvetica,sans-Serif" font-size="10.00">stdio.h</text>
</a>
</g>
</g>
<!-- Node1&#45;&gt;Node5 -->
<g id="edge4" class="edge">
<title>Node1&#45;&gt;Node5</title>
<path fill="none" stroke="midnightblue" d="M293.28,-168.38C258.29,-151.9 205.72,-121.04 181.5,-76 173.89,-61.85 173.81,-43.37 175.24,-29.73"/>
<polygon fill="midnightblue" stroke="midnightblue" points="178.74,-30.01 176.67,-19.61 171.81,-29.03 178.74,-30.01"/>
</g>
<!-- Node6 -->
<g id="node6" class="node">
<title>Node6</title>
<g id="a_node6"><a xlink:title=" ">
<polygon fill="white" stroke="#bfbfbf" points="380,-0.5 380,-19.5 433,-19.5 433,-0.5 380,-0.5"/>
<text text-anchor="middle" x="406.5" y="-7.5" font-family="Helvetica,sans-Serif" font-size="10.00">string.h</text>
</a>
</g>
</g>
<!-- Node1&#45;&gt;Node6 -->
<g id="edge5" class="edge">
<title>Node1&#45;&gt;Node6</title>
<path fill="none" stroke="midnightblue" d="M403.24,-169.89C494.97,-152.9 641.25,-119.67 673.5,-76 678.78,-68.85 679.24,-62.79 673.5,-56 666.09,-47.23 514.45,-25.63 443.07,-15.9"/>
<polygon fill="midnightblue" stroke="midnightblue" points="443.52,-12.43 433.14,-14.55 442.58,-19.36 443.52,-12.43"/>
</g>
<!-- Node7 -->
<g id="node7" class="node">
<title>Node7</title>
<g id="a_node7"><a xlink:title=" ">
<polygon fill="white" stroke="#bfbfbf" points="665,-0.5 665,-19.5 720,-19.5 720,-0.5 665,-0.5"/>
<text text-anchor="middle" x="692.5" y="-7.5" font-family="Helvetica,sans-Serif" font-size="10.00">wchar.h</text>
</a>
</g>
</g>
<!-- Node1&#45;&gt;Node7 -->
<g id="edge6" class="edge">
<title>Node1&#45;&gt;Node7</title>
<path fill="none" stroke="midnightblue" d="M403.23,-182.14C469.33,-179.15 566.31,-168.13 642.5,-132 676.35,-115.95 690.15,-110.18 705.5,-76 712.26,-60.94 707.37,-42.35 701.75,-28.92"/>
<polygon fill="midnightblue" stroke="midnightblue" points="704.9,-27.38 697.5,-19.79 698.55,-30.33 704.9,-27.38"/>
</g>
<!-- Node8 -->
<g id="node8" class="node">
<title>Node8</title>
<g id="a_node8"><a xlink:href="error_8h.html" target="_top" xlink:title=" ">
<polygon fill="white" stroke="black" points="207,-56.5 207,-75.5 256,-75.5 256,-56.5 207,-56.5"/>
<text text-anchor="middle" x="231.5" y="-63.5" font-family="Helvetica,sans-Serif" font-size="10.00">error.h</text>
</a>
</g>
</g>
<!-- Node1&#45;&gt;Node8 -->
<g id="edge7" class="edge">
<title>Node1&#45;&gt;Node8</title>
<path fill="none" stroke="midnightblue" d="M315.73,-168.34C297.88,-146.86 264.06,-106.17 245.16,-83.43"/>
<polygon fill="midnightblue" stroke="midnightblue" points="247.79,-81.12 238.71,-75.67 242.41,-85.6 247.79,-81.12"/>
</g>
<!-- Node9 -->
<g id="node9" class="node">
<title>Node9</title>
<g id="a_node9"><a xlink:href="util_8h.html" target="_top" xlink:title=" ">
<polygon fill="white" stroke="black" points="339,-112.5 339,-131.5 380,-131.5 380,-112.5 339,-112.5"/>
<text text-anchor="middle" x="359.5" y="-119.5" font-family="Helvetica,sans-Serif" font-size="10.00">util.h</text>
</a>
</g>
</g>
<!-- Node1&#45;&gt;Node9 -->
<g id="edge14" class="edge">
<title>Node1&#45;&gt;Node9</title>
<path fill="none" stroke="midnightblue" d="M335.08,-168.4C339.54,-160.11 345.22,-149.55 349.98,-140.71"/>
<polygon fill="midnightblue" stroke="midnightblue" points="353.19,-142.12 354.84,-131.66 347.02,-138.81 353.19,-142.12"/>
</g>
<!-- Node8&#45;&gt;Node2 -->
<g id="edge8" class="edge">
<title>Node8&#45;&gt;Node2</title>
<path fill="none" stroke="midnightblue" d="M256.32,-58.18C259.41,-57.4 262.52,-56.66 265.5,-56 341.96,-39.11 432.5,-24.23 481.88,-16.54"/>
<polygon fill="midnightblue" stroke="midnightblue" points="482.42,-20 491.77,-15.01 481.35,-13.08 482.42,-20"/>
</g>
<!-- Node8&#45;&gt;Node3 -->
<g id="edge9" class="edge">
<title>Node8&#45;&gt;Node3</title>
<path fill="none" stroke="midnightblue" d="M206.77,-58.49C170.96,-49.05 104.43,-31.53 62.97,-20.61"/>
<polygon fill="midnightblue" stroke="midnightblue" points="63.83,-17.21 53.26,-18.05 62.04,-23.98 63.83,-17.21"/>
</g>
<!-- Node8&#45;&gt;Node4 -->
<g id="edge10" class="edge">
<title>Node8&#45;&gt;Node4</title>
<path fill="none" stroke="midnightblue" d="M211.06,-56.44C189.83,-47.56 156.4,-33.56 132.25,-23.45"/>
<polygon fill="midnightblue" stroke="midnightblue" points="133.42,-20.15 122.84,-19.52 130.72,-26.61 133.42,-20.15"/>
</g>
<!-- Node8&#45;&gt;Node5 -->
<g id="edge11" class="edge">
<title>Node8&#45;&gt;Node5</title>
<path fill="none" stroke="midnightblue" d="M222.75,-56.08C215.03,-48.22 203.6,-36.57 194.28,-27.08"/>
<polygon fill="midnightblue" stroke="midnightblue" points="196.59,-24.44 187.09,-19.75 191.6,-29.34 196.59,-24.44"/>
</g>
<!-- Node8&#45;&gt;Node6 -->
<g id="edge12" class="edge">
<title>Node8&#45;&gt;Node6</title>
<path fill="none" stroke="midnightblue" d="M256.2,-57.38C285.96,-48.2 336.19,-32.69 370.32,-22.16"/>
<polygon fill="midnightblue" stroke="midnightblue" points="371.4,-25.5 379.92,-19.2 369.33,-18.81 371.4,-25.5"/>
</g>
<!-- Node8&#45;&gt;Node7 -->
<g id="edge13" class="edge">
<title>Node8&#45;&gt;Node7</title>
<path fill="none" stroke="midnightblue" d="M256.28,-57.97C259.37,-57.23 262.5,-56.55 265.5,-56 407.7,-29.85 579.54,-17.49 654.48,-13.04"/>
<polygon fill="midnightblue" stroke="midnightblue" points="655.03,-16.51 664.81,-12.44 654.63,-9.53 655.03,-16.51"/>
</g>
<!-- Node9&#45;&gt;Node2 -->
<g id="edge15" class="edge">
<title>Node9&#45;&gt;Node2</title>
<path fill="none" stroke="midnightblue" d="M380.21,-120.2C410.63,-117.89 467.26,-109.11 499.5,-76 511.41,-63.77 515.92,-44.51 517.6,-30.12"/>
<polygon fill="midnightblue" stroke="midnightblue" points="521.11,-30.1 518.42,-19.85 514.13,-29.54 521.11,-30.1"/>
</g>
<!-- Node9&#45;&gt;Node3 -->
<g id="edge22" class="edge">
<title>Node9&#45;&gt;Node3</title>
<path fill="none" stroke="midnightblue" d="M338.79,-118.59C300.22,-113.67 215.16,-100.78 147.5,-76 110.73,-62.53 71.35,-39.6 47.83,-24.89"/>
<polygon fill="midnightblue" stroke="midnightblue" points="49.67,-21.9 39.35,-19.5 45.92,-27.81 49.67,-21.9"/>
</g>
<!-- Node9&#45;&gt;Node4 -->
<g id="edge17" class="edge">
<title>Node9&#45;&gt;Node4</title>
<path fill="none" stroke="midnightblue" d="M339,-118.78C304.78,-114.45 234.55,-102.82 181.5,-76 156.62,-63.42 132.56,-41.84 117.66,-27.02"/>
<polygon fill="midnightblue" stroke="midnightblue" points="119.87,-24.28 110.38,-19.58 114.87,-29.17 119.87,-24.28"/>
</g>
<!-- Node9&#45;&gt;Node5 -->
<g id="edge16" class="edge">
<title>Node9&#45;&gt;Node5</title>
<path fill="none" stroke="midnightblue" d="M338.73,-121.3C304.52,-120.64 236.25,-114.23 197.5,-76 185.35,-64.01 180.87,-44.71 179.27,-30.25"/>
<polygon fill="midnightblue" stroke="midnightblue" points="182.73,-29.64 178.51,-19.93 175.75,-30.16 182.73,-29.64"/>
</g>
<!-- Node9&#45;&gt;Node6 -->
<g id="edge19" class="edge">
<title>Node9&#45;&gt;Node6</title>
<path fill="none" stroke="midnightblue" d="M365.54,-112.38C371.5,-103.56 380.56,-89.31 386.5,-76 393.26,-60.84 398.63,-42.72 402.1,-29.47"/>
<polygon fill="midnightblue" stroke="midnightblue" points="405.52,-30.2 404.55,-19.65 398.73,-28.51 405.52,-30.2"/>
</g>
<!-- Node9&#45;&gt;Node7 -->
<g id="edge24" class="edge">
<title>Node9&#45;&gt;Node7</title>
<path fill="none" stroke="midnightblue" d="M380.23,-120.86C443,-120.01 629.4,-114.24 673.5,-76 686.67,-64.58 690.95,-44.6 692.23,-29.79"/>
<polygon fill="midnightblue" stroke="midnightblue" points="695.73,-29.87 692.72,-19.71 688.74,-29.53 695.73,-29.87"/>
</g>
<!-- Node9&#45;&gt;Node8 -->
<g id="edge26" class="edge">
<title>Node9&#45;&gt;Node8</title>
<path fill="none" stroke="midnightblue" d="M339.22,-112.44C318.15,-103.56 284.98,-89.56 261.01,-79.45"/>
<polygon fill="midnightblue" stroke="midnightblue" points="262.26,-76.18 251.69,-75.52 259.54,-82.63 262.26,-76.18"/>
</g>
<!-- Node10 -->
<g id="node10" class="node">
<title>Node10</title>
<g id="a_node10"><a xlink:title=" ">
<polygon fill="white" stroke="#bfbfbf" points="434.5,-56.5 434.5,-75.5 490.5,-75.5 490.5,-56.5 434.5,-56.5"/>
<text text-anchor="middle" x="462.5" y="-63.5" font-family="Helvetica,sans-Serif" font-size="10.00">assert.h</text>
</a>
</g>
</g>
<!-- Node9&#45;&gt;Node10 -->
<g id="edge18" class="edge">
<title>Node9&#45;&gt;Node10</title>
<path fill="none" stroke="midnightblue" d="M376.05,-112.32C392.49,-103.7 417.93,-90.36 436.97,-80.39"/>
<polygon fill="midnightblue" stroke="midnightblue" points="438.76,-83.4 445.99,-75.65 435.51,-77.2 438.76,-83.4"/>
</g>
<!-- Node11 -->
<g id="node11" class="node">
<title>Node11</title>
<g id="a_node11"><a xlink:title=" ">
<polygon fill="white" stroke="#bfbfbf" points="547,-56.5 547,-75.5 598,-75.5 598,-56.5 547,-56.5"/>
<text text-anchor="middle" x="572.5" y="-63.5" font-family="Helvetica,sans-Serif" font-size="10.00">math.h</text>
</a>
</g>
</g>
<!-- Node9&#45;&gt;Node11 -->
<g id="edge20" class="edge">
<title>Node9&#45;&gt;Node11</title>
<path fill="none" stroke="midnightblue" d="M380.31,-115.72C416.63,-106.52 491.99,-87.41 536.79,-76.05"/>
<polygon fill="midnightblue" stroke="midnightblue" points="537.84,-79.4 546.67,-73.55 536.12,-72.61 537.84,-79.4"/>
</g>
<!-- Node12 -->
<g id="node12" class="node">
<title>Node12</title>
<g id="a_node12"><a xlink:title=" ">
<polygon fill="white" stroke="#bfbfbf" points="616.5,-56.5 616.5,-75.5 664.5,-75.5 664.5,-56.5 616.5,-56.5"/>
<text text-anchor="middle" x="640.5" y="-63.5" font-family="Helvetica,sans-Serif" font-size="10.00">float.h</text>
</a>
</g>
</g>
<!-- Node9&#45;&gt;Node12 -->
<g id="edge21" class="edge">
<title>Node9&#45;&gt;Node12</title>
<path fill="none" stroke="midnightblue" d="M380.2,-117.87C421.42,-111.5 516.83,-96.09 606.62,-76.04"/>
<polygon fill="midnightblue" stroke="midnightblue" points="607.43,-79.45 616.41,-73.83 605.88,-72.62 607.43,-79.45"/>
</g>
<!-- Node13 -->
<g id="node13" class="node">
<title>Node13</title>
<g id="a_node13"><a xlink:title=" ">
<polygon fill="white" stroke="#bfbfbf" points="274.5,-56.5 274.5,-75.5 322.5,-75.5 322.5,-56.5 274.5,-56.5"/>
<text text-anchor="middle" x="298.5" y="-63.5" font-family="Helvetica,sans-Serif" font-size="10.00">time.h</text>
</a>
</g>
</g>
<!-- Node9&#45;&gt;Node13 -->
<g id="edge23" class="edge">
<title>Node9&#45;&gt;Node13</title>
<path fill="none" stroke="midnightblue" d="M349.7,-112.32C340.68,-104.34 327.09,-92.31 316.18,-82.65"/>
<polygon fill="midnightblue" stroke="midnightblue" points="318.29,-79.84 308.48,-75.83 313.65,-85.08 318.29,-79.84"/>
</g>
<!-- Node14 -->
<g id="node14" class="node">
<title>Node14</title>
<g id="a_node14"><a xlink:href="os_8h.html" target="_top" xlink:title=" ">
<polygon fill="white" stroke="black" points="341,-56.5 341,-75.5 378,-75.5 378,-56.5 341,-56.5"/>
<text text-anchor="middle" x="359.5" y="-63.5" font-family="Helvetica,sans-Serif" font-size="10.00">os.h</text>
</a>
</g>
</g>
<!-- Node9&#45;&gt;Node14 -->
<g id="edge25" class="edge">
<title>Node9&#45;&gt;Node14</title>
<path fill="none" stroke="midnightblue" d="M359.5,-112.08C359.5,-105.01 359.5,-94.86 359.5,-85.99"/>
<polygon fill="midnightblue" stroke="midnightblue" points="363,-85.75 359.5,-75.75 356,-85.75 363,-85.75"/>
</g>
</g>
</svg>
