<?xml version="1.0" encoding="UTF-8" standalone="no"?>
<!DOCTYPE svg PUBLIC "-//W3C//DTD SVG 1.1//EN"
 "http://www.w3.org/Graphics/SVG/1.1/DTD/svg11.dtd">
<!-- Generated by graphviz version 2.43.0 (0)
 -->
<!-- Title: /home/bugy/projs/lobotomy/src/linked_list.h Pages: 1 -->
<svg width="412pt" height="240pt"
 viewBox="0.00 0.00 412.00 240.00" xmlns="http://www.w3.org/2000/svg" xmlns:xlink="http://www.w3.org/1999/xlink">
<g id="graph0" class="graph" transform="scale(1 1) rotate(0) translate(4 236)">
<title>/home/bugy/projs/lobotomy/src/linked_list.h</title>
<polygon fill="white" stroke="transparent" points="-4,4 -4,-236 408,-236 408,4 -4,4"/>
<!-- Node1 -->
<g id="node1" class="node">
<title>Node1</title>
<g id="a_node1"><a xlink:title=" ">
<polygon fill="#bfbfbf" stroke="black" points="168,-201.5 168,-231.5 319,-231.5 319,-201.5 168,-201.5"/>
<text text-anchor="start" x="176" y="-219.5" font-family="Helvetica,sans-Serif" font-size="10.00">/home/bugy/projs/lobotomy</text>
<text text-anchor="middle" x="243.5" y="-208.5" font-family="Helvetica,sans-Serif" font-size="10.00">/src/linked_list.h</text>
</a>
</g>
</g>
<!-- Node2 -->
<g id="node2" class="node">
<title>Node2</title>
<g id="a_node2"><a xlink:href="parse_8h.html" target="_top" xlink:title=" ">
<polygon fill="white" stroke="black" points="84,-134.5 84,-164.5 235,-164.5 235,-134.5 84,-134.5"/>
<text text-anchor="start" x="92" y="-152.5" font-family="Helvetica,sans-Serif" font-size="10.00">/home/bugy/projs/lobotomy</text>
<text text-anchor="middle" x="159.5" y="-141.5" font-family="Helvetica,sans-Serif" font-size="10.00">/src/parse.h</text>
</a>
</g>
</g>
<!-- Node1&#45;&gt;Node2 -->
<g id="edge1" class="edge">
<title>Node1&#45;&gt;Node2</title>
<path fill="none" stroke="midnightblue" d="M217.22,-195.17C204.38,-185.23 189.24,-173.51 177.69,-164.58"/>
<polygon fill="midnightblue" stroke="midnightblue" points="215.22,-198.04 225.27,-201.4 219.51,-192.51 215.22,-198.04"/>
</g>
<!-- Node6 -->
<g id="node6" class="node">
<title>Node6</title>
<g id="a_node6"><a xlink:href="repl_8h.html" target="_top" xlink:title=" ">
<polygon fill="white" stroke="black" points="253,-134.5 253,-164.5 404,-164.5 404,-134.5 253,-134.5"/>
<text text-anchor="start" x="261" y="-152.5" font-family="Helvetica,sans-Serif" font-size="10.00">/home/bugy/projs/lobotomy</text>
<text text-anchor="middle" x="328.5" y="-141.5" font-family="Helvetica,sans-Serif" font-size="10.00">/src/repl.h</text>
</a>
</g>
</g>
<!-- Node1&#45;&gt;Node6 -->
<g id="edge5" class="edge">
<title>Node1&#45;&gt;Node6</title>
<path fill="none" stroke="midnightblue" d="M270.09,-195.17C283.09,-185.23 298.4,-173.51 310.09,-164.58"/>
<polygon fill="midnightblue" stroke="midnightblue" points="267.76,-192.54 261.94,-201.4 272.01,-198.1 267.76,-192.54"/>
</g>
<!-- Node3 -->
<g id="node3" class="node">
<title>Node3</title>
<g id="a_node3"><a xlink:href="eval_8c.html" target="_top" xlink:title=" ">
<polygon fill="white" stroke="black" points="84,-67.5 84,-97.5 235,-97.5 235,-67.5 84,-67.5"/>
<text text-anchor="start" x="92" y="-85.5" font-family="Helvetica,sans-Serif" font-size="10.00">/home/bugy/projs/lobotomy</text>
<text text-anchor="middle" x="159.5" y="-74.5" font-family="Helvetica,sans-Serif" font-size="10.00">/src/eval.c</text>
</a>
</g>
</g>
<!-- Node2&#45;&gt;Node3 -->
<g id="edge2" class="edge">
<title>Node2&#45;&gt;Node3</title>
<path fill="none" stroke="midnightblue" d="M159.5,-124.11C159.5,-115.15 159.5,-105.32 159.5,-97.58"/>
<polygon fill="midnightblue" stroke="midnightblue" points="156,-124.4 159.5,-134.4 163,-124.4 156,-124.4"/>
</g>
<!-- Node4 -->
<g id="node4" class="node">
<title>Node4</title>
<g id="a_node4"><a xlink:href="l__sdl_8c.html" target="_top" xlink:title=" ">
<polygon fill="white" stroke="black" points="0,-0.5 0,-30.5 151,-30.5 151,-0.5 0,-0.5"/>
<text text-anchor="start" x="8" y="-18.5" font-family="Helvetica,sans-Serif" font-size="10.00">/home/bugy/projs/lobotomy</text>
<text text-anchor="middle" x="75.5" y="-7.5" font-family="Helvetica,sans-Serif" font-size="10.00">/src/l_sdl.c</text>
</a>
</g>
</g>
<!-- Node3&#45;&gt;Node4 -->
<g id="edge3" class="edge">
<title>Node3&#45;&gt;Node4</title>
<path fill="none" stroke="midnightblue" d="M133.22,-61.17C120.38,-51.23 105.24,-39.51 93.69,-30.58"/>
<polygon fill="midnightblue" stroke="midnightblue" points="131.22,-64.04 141.27,-67.4 135.51,-58.51 131.22,-64.04"/>
</g>
<!-- Node5 -->
<g id="node5" class="node">
<title>Node5</title>
<g id="a_node5"><a xlink:href="main_8c.html" target="_top" xlink:title=" ">
<polygon fill="white" stroke="black" points="169,-0.5 169,-30.5 320,-30.5 320,-0.5 169,-0.5"/>
<text text-anchor="start" x="177" y="-18.5" font-family="Helvetica,sans-Serif" font-size="10.00">/home/bugy/projs/lobotomy</text>
<text text-anchor="middle" x="244.5" y="-7.5" font-family="Helvetica,sans-Serif" font-size="10.00">/src/main.c</text>
</a>
</g>
</g>
<!-- Node3&#45;&gt;Node5 -->
<g id="edge4" class="edge">
<title>Node3&#45;&gt;Node5</title>
<path fill="none" stroke="midnightblue" d="M186.09,-61.17C199.09,-51.23 214.4,-39.51 226.09,-30.58"/>
<polygon fill="midnightblue" stroke="midnightblue" points="183.76,-58.54 177.94,-67.4 188.01,-64.1 183.76,-58.54"/>
</g>
</g>
</svg>
