<?xml version="1.0" encoding="UTF-8" standalone="no"?>
<!DOCTYPE svg PUBLIC "-//W3C//DTD SVG 1.1//EN"
 "http://www.w3.org/Graphics/SVG/1.1/DTD/svg11.dtd">
<!-- Generated by graphviz version 2.43.0 (0)
 -->
<!-- Title: /home/bugy/projs/lobotomy/src/lsdl.c Pages: 1 -->
<svg width="1283pt" height="375pt"
 viewBox="0.00 0.00 1283.12 375.00" xmlns="http://www.w3.org/2000/svg" xmlns:xlink="http://www.w3.org/1999/xlink">
<g id="graph0" class="graph" transform="scale(1 1) rotate(0) translate(4 371)">
<title>/home/bugy/projs/lobotomy/src/lsdl.c</title>
<polygon fill="white" stroke="transparent" points="-4,4 -4,-371 1279.12,-371 1279.12,4 -4,4"/>
<!-- Node1 -->
<g id="node1" class="node">
<title>Node1</title>
<g id="a_node1"><a xlink:title=" ">
<polygon fill="#bfbfbf" stroke="black" points="510.5,-336.5 510.5,-366.5 661.5,-366.5 661.5,-336.5 510.5,-336.5"/>
<text text-anchor="start" x="518.5" y="-354.5" font-family="Helvetica,sans-Serif" font-size="10.00">/home/bugy/projs/lobotomy</text>
<text text-anchor="middle" x="586" y="-343.5" font-family="Helvetica,sans-Serif" font-size="10.00">/src/lsdl.c</text>
</a>
</g>
</g>
<!-- Node2 -->
<g id="node2" class="node">
<title>Node2</title>
<g id="a_node2"><a xlink:title=" ">
<polygon fill="white" stroke="#bfbfbf" points="354,-280.5 354,-299.5 426,-299.5 426,-280.5 354,-280.5"/>
<text text-anchor="middle" x="390" y="-287.5" font-family="Helvetica,sans-Serif" font-size="10.00">SDL2/SDL.h</text>
</a>
</g>
</g>
<!-- Node1&#45;&gt;Node2 -->
<g id="edge1" class="edge">
<title>Node1&#45;&gt;Node2</title>
<path fill="none" stroke="midnightblue" d="M539.55,-336.4C505.54,-326.07 459.94,-312.23 428.07,-302.56"/>
<polygon fill="midnightblue" stroke="midnightblue" points="428.82,-299.13 418.23,-299.57 426.79,-305.82 428.82,-299.13"/>
</g>
<!-- Node3 -->
<g id="node3" class="node">
<title>Node3</title>
<g id="a_node3"><a xlink:title=" ">
<polygon fill="white" stroke="#bfbfbf" points="444,-280.5 444,-299.5 548,-299.5 548,-280.5 444,-280.5"/>
<text text-anchor="middle" x="496" y="-287.5" font-family="Helvetica,sans-Serif" font-size="10.00">SDL2/SDL_video.h</text>
</a>
</g>
</g>
<!-- Node1&#45;&gt;Node3 -->
<g id="edge2" class="edge">
<title>Node1&#45;&gt;Node3</title>
<path fill="none" stroke="midnightblue" d="M564.67,-336.4C550.51,-327.04 531.99,-314.79 517.75,-305.38"/>
<polygon fill="midnightblue" stroke="midnightblue" points="519.37,-302.25 509.1,-299.66 515.51,-308.09 519.37,-302.25"/>
</g>
<!-- Node4 -->
<g id="node4" class="node">
<title>Node4</title>
<g id="a_node4"><a xlink:href="obj_8c.html" target="_top" xlink:title=" ">
<polygon fill="white" stroke="black" points="566,-280.5 566,-299.5 606,-299.5 606,-280.5 566,-280.5"/>
<text text-anchor="middle" x="586" y="-287.5" font-family="Helvetica,sans-Serif" font-size="10.00">obj.c</text>
</a>
</g>
</g>
<!-- Node1&#45;&gt;Node4 -->
<g id="edge3" class="edge">
<title>Node1&#45;&gt;Node4</title>
<path fill="none" stroke="midnightblue" d="M586,-336.4C586,-328.47 586,-318.46 586,-309.86"/>
<polygon fill="midnightblue" stroke="midnightblue" points="589.5,-309.66 586,-299.66 582.5,-309.66 589.5,-309.66"/>
</g>
<!-- Node16 -->
<g id="node16" class="node">
<title>Node16</title>
<g id="a_node16"><a xlink:href="util_8h.html" target="_top" xlink:title=" ">
<polygon fill="white" stroke="black" points="911.5,-112.5 911.5,-131.5 952.5,-131.5 952.5,-112.5 911.5,-112.5"/>
<text text-anchor="middle" x="932" y="-119.5" font-family="Helvetica,sans-Serif" font-size="10.00">util.h</text>
</a>
</g>
</g>
<!-- Node1&#45;&gt;Node16 -->
<g id="edge30" class="edge">
<title>Node1&#45;&gt;Node16</title>
<path fill="none" stroke="midnightblue" d="M661.82,-347.88C742.91,-343.45 864.3,-331.6 897,-300 940.7,-257.77 938.27,-177.9 934.52,-141.68"/>
<polygon fill="midnightblue" stroke="midnightblue" points="937.98,-141.08 933.32,-131.56 931.03,-141.91 937.98,-141.08"/>
</g>
<!-- Node22 -->
<g id="node22" class="node">
<title>Node22</title>
<g id="a_node22"><a xlink:href="error_8h.html" target="_top" xlink:title=" ">
<polygon fill="white" stroke="black" points="652.5,-56.5 652.5,-75.5 701.5,-75.5 701.5,-56.5 652.5,-56.5"/>
<text text-anchor="middle" x="677" y="-63.5" font-family="Helvetica,sans-Serif" font-size="10.00">error.h</text>
</a>
</g>
</g>
<!-- Node1&#45;&gt;Node22 -->
<g id="edge49" class="edge">
<title>Node1&#45;&gt;Node22</title>
<path fill="none" stroke="midnightblue" d="M661.71,-336.56C749.71,-318.15 883,-282.44 883,-235 883,-235 883,-235 883,-177 883,-138.58 770.08,-96.75 711.45,-77.62"/>
<polygon fill="midnightblue" stroke="midnightblue" points="712.44,-74.27 701.85,-74.54 710.3,-80.93 712.44,-74.27"/>
</g>
<!-- Node5 -->
<g id="node5" class="node">
<title>Node5</title>
<g id="a_node5"><a xlink:title=" ">
<polygon fill="white" stroke="#bfbfbf" points="293.5,-0.5 293.5,-19.5 346.5,-19.5 346.5,-0.5 293.5,-0.5"/>
<text text-anchor="middle" x="320" y="-7.5" font-family="Helvetica,sans-Serif" font-size="10.00">stdlib.h</text>
</a>
</g>
</g>
<!-- Node4&#45;&gt;Node5 -->
<g id="edge4" class="edge">
<title>Node4&#45;&gt;Node5</title>
<path fill="none" stroke="midnightblue" d="M565.82,-282.34C562.88,-281.49 559.87,-280.68 557,-280 460.57,-257.26 425.03,-289.47 337,-244 243.74,-195.83 210.88,-173.1 171,-76 151.73,-29.08 232.95,-16.01 283.06,-12.38"/>
<polygon fill="midnightblue" stroke="midnightblue" points="283.47,-15.86 293.24,-11.74 283.04,-8.87 283.47,-15.86"/>
</g>
<!-- Node6 -->
<g id="node6" class="node">
<title>Node6</title>
<g id="a_node6"><a xlink:title=" ">
<polygon fill="white" stroke="#bfbfbf" points="521.5,-0.5 521.5,-19.5 574.5,-19.5 574.5,-0.5 521.5,-0.5"/>
<text text-anchor="middle" x="548" y="-7.5" font-family="Helvetica,sans-Serif" font-size="10.00">stdint.h</text>
</a>
</g>
</g>
<!-- Node4&#45;&gt;Node6 -->
<g id="edge5" class="edge">
<title>Node4&#45;&gt;Node6</title>
<path fill="none" stroke="midnightblue" d="M580.72,-280.23C570.27,-262.04 548,-218.6 548,-179 548,-179 548,-179 548,-121 548,-88.95 548,-51.64 548,-29.75"/>
<polygon fill="midnightblue" stroke="midnightblue" points="551.5,-29.56 548,-19.56 544.5,-29.56 551.5,-29.56"/>
</g>
<!-- Node7 -->
<g id="node7" class="node">
<title>Node7</title>
<g id="a_node7"><a xlink:title=" ">
<polygon fill="white" stroke="#bfbfbf" points="121,-0.5 121,-19.5 183,-19.5 183,-0.5 121,-0.5"/>
<text text-anchor="middle" x="152" y="-7.5" font-family="Helvetica,sans-Serif" font-size="10.00">stdbool.h</text>
</a>
</g>
</g>
<!-- Node4&#45;&gt;Node7 -->
<g id="edge6" class="edge">
<title>Node4&#45;&gt;Node7</title>
<path fill="none" stroke="midnightblue" d="M565.83,-282.28C562.89,-281.43 559.88,-280.64 557,-280 434.21,-252.67 0,-304.8 0,-179 0,-179 0,-179 0,-121 0,-66.03 66.04,-35.74 111.06,-21.47"/>
<polygon fill="midnightblue" stroke="midnightblue" points="112.31,-24.75 120.87,-18.5 110.29,-18.05 112.31,-24.75"/>
</g>
<!-- Node8 -->
<g id="node8" class="node">
<title>Node8</title>
<g id="a_node8"><a xlink:title=" ">
<polygon fill="white" stroke="#bfbfbf" points="599,-0.5 599,-19.5 649,-19.5 649,-0.5 599,-0.5"/>
<text text-anchor="middle" x="624" y="-7.5" font-family="Helvetica,sans-Serif" font-size="10.00">stdio.h</text>
</a>
</g>
</g>
<!-- Node4&#45;&gt;Node8 -->
<g id="edge7" class="edge">
<title>Node4&#45;&gt;Node8</title>
<path fill="none" stroke="midnightblue" d="M591.28,-280.23C601.73,-262.04 624,-218.6 624,-179 624,-179 624,-179 624,-121 624,-88.95 624,-51.64 624,-29.75"/>
<polygon fill="midnightblue" stroke="midnightblue" points="627.5,-29.56 624,-19.56 620.5,-29.56 627.5,-29.56"/>
</g>
<!-- Node9 -->
<g id="node9" class="node">
<title>Node9</title>
<g id="a_node9"><a xlink:title=" ">
<polygon fill="white" stroke="#bfbfbf" points="741.5,-0.5 741.5,-19.5 794.5,-19.5 794.5,-0.5 741.5,-0.5"/>
<text text-anchor="middle" x="768" y="-7.5" font-family="Helvetica,sans-Serif" font-size="10.00">string.h</text>
</a>
</g>
</g>
<!-- Node4&#45;&gt;Node9 -->
<g id="edge8" class="edge">
<title>Node4&#45;&gt;Node9</title>
<path fill="none" stroke="midnightblue" d="M606.3,-288.22C660.77,-284.93 806,-267.82 806,-179 806,-179 806,-179 806,-121 806,-86.81 789.4,-49.76 778.14,-28.57"/>
<polygon fill="midnightblue" stroke="midnightblue" points="781.18,-26.83 773.28,-19.77 775.05,-30.22 781.18,-26.83"/>
</g>
<!-- Node10 -->
<g id="node10" class="node">
<title>Node10</title>
<g id="a_node10"><a xlink:title=" ">
<polygon fill="white" stroke="#bfbfbf" points="1004.5,-0.5 1004.5,-19.5 1059.5,-19.5 1059.5,-0.5 1004.5,-0.5"/>
<text text-anchor="middle" x="1032" y="-7.5" font-family="Helvetica,sans-Serif" font-size="10.00">wchar.h</text>
</a>
</g>
</g>
<!-- Node4&#45;&gt;Node10 -->
<g id="edge9" class="edge">
<title>Node4&#45;&gt;Node10</title>
<path fill="none" stroke="midnightblue" d="M606.19,-286.02C710.75,-270.13 1189.05,-191.75 1271,-76 1276.14,-68.75 1276.67,-62.84 1271,-56 1245.89,-25.72 1130.74,-15.68 1069.91,-12.46"/>
<polygon fill="midnightblue" stroke="midnightblue" points="1069.73,-8.94 1059.57,-11.95 1069.38,-15.94 1069.73,-8.94"/>
</g>
<!-- Node11 -->
<g id="node11" class="node">
<title>Node11</title>
<g id="a_node11"><a xlink:href="obj_8h.html" target="_top" xlink:title=" ">
<polygon fill="white" stroke="black" points="368.5,-112.5 368.5,-131.5 409.5,-131.5 409.5,-112.5 368.5,-112.5"/>
<text text-anchor="middle" x="389" y="-119.5" font-family="Helvetica,sans-Serif" font-size="10.00">obj.h</text>
</a>
</g>
</g>
<!-- Node4&#45;&gt;Node11 -->
<g id="edge10" class="edge">
<title>Node4&#45;&gt;Node11</title>
<path fill="none" stroke="midnightblue" d="M575.69,-280.31C543.9,-253.53 447.19,-172.03 406.91,-138.09"/>
<polygon fill="midnightblue" stroke="midnightblue" points="409.11,-135.37 399.21,-131.61 404.6,-140.73 409.11,-135.37"/>
</g>
<!-- Node14 -->
<g id="node14" class="node">
<title>Node14</title>
<g id="a_node14"><a xlink:href="gc_8h.html" target="_top" xlink:title=" ">
<polygon fill="white" stroke="black" points="346.5,-224.5 346.5,-243.5 383.5,-243.5 383.5,-224.5 346.5,-224.5"/>
<text text-anchor="middle" x="365" y="-231.5" font-family="Helvetica,sans-Serif" font-size="10.00">gc.h</text>
</a>
</g>
</g>
<!-- Node4&#45;&gt;Node14 -->
<g id="edge24" class="edge">
<title>Node4&#45;&gt;Node14</title>
<path fill="none" stroke="midnightblue" d="M565.77,-282.52C562.84,-281.64 559.85,-280.77 557,-280 499.57,-264.38 431.6,-249.22 393.89,-241.1"/>
<polygon fill="midnightblue" stroke="midnightblue" points="394.16,-237.58 383.64,-238.91 392.69,-244.43 394.16,-237.58"/>
</g>
<!-- Node11&#45;&gt;Node5 -->
<g id="edge11" class="edge">
<title>Node11&#45;&gt;Node5</title>
<path fill="none" stroke="midnightblue" d="M368.4,-116.27C348.48,-110.48 319.42,-98.53 306,-76 297.35,-61.47 303.18,-42.29 309.75,-28.54"/>
<polygon fill="midnightblue" stroke="midnightblue" points="312.89,-30.1 314.47,-19.63 306.7,-26.83 312.89,-30.1"/>
</g>
<!-- Node11&#45;&gt;Node6 -->
<g id="edge12" class="edge">
<title>Node11&#45;&gt;Node6</title>
<path fill="none" stroke="midnightblue" d="M383.63,-112.44C375.95,-98.99 364.11,-72.72 377,-56 393.26,-34.91 466.01,-21.74 511.22,-15.44"/>
<polygon fill="midnightblue" stroke="midnightblue" points="511.8,-18.89 521.25,-14.09 510.87,-11.95 511.8,-18.89"/>
</g>
<!-- Node11&#45;&gt;Node7 -->
<g id="edge13" class="edge">
<title>Node11&#45;&gt;Node7</title>
<path fill="none" stroke="midnightblue" d="M368.19,-119.4C319.43,-115.24 199.76,-102.53 171,-76 158.19,-64.19 153.84,-44.26 152.46,-29.58"/>
<polygon fill="midnightblue" stroke="midnightblue" points="155.95,-29.38 151.88,-19.6 148.96,-29.78 155.95,-29.38"/>
</g>
<!-- Node11&#45;&gt;Node8 -->
<g id="edge14" class="edge">
<title>Node11&#45;&gt;Node8</title>
<path fill="none" stroke="midnightblue" d="M409.04,-112.43C429.68,-103.55 462.74,-89.13 491,-76 528.36,-58.64 571.09,-37.53 597.81,-24.18"/>
<polygon fill="midnightblue" stroke="midnightblue" points="599.51,-27.24 606.89,-19.63 596.38,-20.98 599.51,-27.24"/>
</g>
<!-- Node11&#45;&gt;Node9 -->
<g id="edge15" class="edge">
<title>Node11&#45;&gt;Node9</title>
<path fill="none" stroke="midnightblue" d="M409.6,-119.99C472.08,-116.63 658.35,-104.42 711,-76 731.35,-65.02 747.84,-43.72 757.76,-28.5"/>
<polygon fill="midnightblue" stroke="midnightblue" points="760.76,-30.29 763.06,-19.95 754.81,-26.6 760.76,-30.29"/>
</g>
<!-- Node11&#45;&gt;Node10 -->
<g id="edge16" class="edge">
<title>Node11&#45;&gt;Node10</title>
<path fill="none" stroke="midnightblue" d="M409.82,-118.94C463.88,-113.45 613.02,-97.44 736,-76 829.69,-59.67 938.64,-34 994.59,-20.31"/>
<polygon fill="midnightblue" stroke="midnightblue" points="995.53,-23.69 1004.41,-17.9 993.86,-16.89 995.53,-23.69"/>
</g>
<!-- Node12 -->
<g id="node12" class="node">
<title>Node12</title>
<g id="a_node12"><a xlink:href="SHM_2hashmap_8h.html" target="_top" xlink:title=" ">
<polygon fill="white" stroke="black" points="386,-56.5 386,-75.5 482,-75.5 482,-56.5 386,-56.5"/>
<text text-anchor="middle" x="434" y="-63.5" font-family="Helvetica,sans-Serif" font-size="10.00">SHM/hashmap.h</text>
</a>
</g>
</g>
<!-- Node11&#45;&gt;Node12 -->
<g id="edge17" class="edge">
<title>Node11&#45;&gt;Node12</title>
<path fill="none" stroke="midnightblue" d="M396.43,-112.08C402.85,-104.38 412.31,-93.03 420.12,-83.65"/>
<polygon fill="midnightblue" stroke="midnightblue" points="422.99,-85.67 426.71,-75.75 417.62,-81.19 422.99,-85.67"/>
</g>
<!-- Node13 -->
<g id="node13" class="node">
<title>Node13</title>
<g id="a_node13"><a xlink:href="io_8h.html" target="_top" xlink:title=" ">
<polygon fill="white" stroke="black" points="180.5,-56.5 180.5,-75.5 215.5,-75.5 215.5,-56.5 180.5,-56.5"/>
<text text-anchor="middle" x="198" y="-63.5" font-family="Helvetica,sans-Serif" font-size="10.00">io.h</text>
</a>
</g>
</g>
<!-- Node11&#45;&gt;Node13 -->
<g id="edge23" class="edge">
<title>Node11&#45;&gt;Node13</title>
<path fill="none" stroke="midnightblue" d="M368.2,-115.12C333.64,-105.35 264.4,-85.77 225.73,-74.84"/>
<polygon fill="midnightblue" stroke="midnightblue" points="226.26,-71.35 215.69,-72 224.36,-78.09 226.26,-71.35"/>
</g>
<!-- Node12&#45;&gt;Node5 -->
<g id="edge18" class="edge">
<title>Node12&#45;&gt;Node5</title>
<path fill="none" stroke="midnightblue" d="M415.94,-56.44C397.43,-47.68 368.42,-33.94 347.14,-23.86"/>
<polygon fill="midnightblue" stroke="midnightblue" points="348.51,-20.63 337.98,-19.52 345.52,-26.96 348.51,-20.63"/>
</g>
<!-- Node12&#45;&gt;Node6 -->
<g id="edge20" class="edge">
<title>Node12&#45;&gt;Node6</title>
<path fill="none" stroke="midnightblue" d="M452.06,-56.44C470.57,-47.68 499.58,-33.94 520.86,-23.86"/>
<polygon fill="midnightblue" stroke="midnightblue" points="522.48,-26.96 530.02,-19.52 519.49,-20.63 522.48,-26.96"/>
</g>
<!-- Node12&#45;&gt;Node7 -->
<g id="edge21" class="edge">
<title>Node12&#45;&gt;Node7</title>
<path fill="none" stroke="midnightblue" d="M389.32,-56.44C335.44,-46.13 245.64,-28.93 193.32,-18.91"/>
<polygon fill="midnightblue" stroke="midnightblue" points="193.86,-15.45 183.38,-17.01 192.54,-22.33 193.86,-15.45"/>
</g>
<!-- Node12&#45;&gt;Node8 -->
<g id="edge19" class="edge">
<title>Node12&#45;&gt;Node8</title>
<path fill="none" stroke="midnightblue" d="M464.11,-56.44C498.01,-46.81 553.04,-31.17 588.88,-20.98"/>
<polygon fill="midnightblue" stroke="midnightblue" points="590.23,-24.24 598.89,-18.14 588.31,-17.5 590.23,-24.24"/>
</g>
<!-- Node12&#45;&gt;Node9 -->
<g id="edge22" class="edge">
<title>Node12&#45;&gt;Node9</title>
<path fill="none" stroke="midnightblue" d="M482.21,-57.21C549.67,-46.3 670.73,-26.73 731.34,-16.93"/>
<polygon fill="midnightblue" stroke="midnightblue" points="731.91,-20.38 741.23,-15.33 730.8,-13.47 731.91,-20.38"/>
</g>
<!-- Node14&#45;&gt;Node7 -->
<g id="edge25" class="edge">
<title>Node14&#45;&gt;Node7</title>
<path fill="none" stroke="midnightblue" d="M346.25,-225.44C311.95,-210.99 237.94,-176.84 187,-132 163.65,-111.45 154.84,-105.51 145,-76 139.95,-60.86 142.56,-42.74 145.94,-29.48"/>
<polygon fill="midnightblue" stroke="midnightblue" points="149.36,-30.24 148.81,-19.66 142.65,-28.28 149.36,-30.24"/>
</g>
<!-- Node14&#45;&gt;Node11 -->
<g id="edge26" class="edge">
<title>Node14&#45;&gt;Node11</title>
<path fill="none" stroke="midnightblue" d="M366.88,-224.37C370.76,-206.62 379.69,-165.67 384.94,-141.6"/>
<polygon fill="midnightblue" stroke="midnightblue" points="388.41,-142.11 387.13,-131.59 381.57,-140.62 388.41,-142.11"/>
</g>
<!-- Node15 -->
<g id="node15" class="node">
<title>Node15</title>
<g id="a_node15"><a xlink:href="cgc_8h.html" target="_top" xlink:title=" ">
<polygon fill="white" stroke="black" points="319,-168.5 319,-187.5 361,-187.5 361,-168.5 319,-168.5"/>
<text text-anchor="middle" x="340" y="-175.5" font-family="Helvetica,sans-Serif" font-size="10.00">cgc.h</text>
</a>
</g>
</g>
<!-- Node14&#45;&gt;Node15 -->
<g id="edge27" class="edge">
<title>Node14&#45;&gt;Node15</title>
<path fill="none" stroke="midnightblue" d="M360.87,-224.08C357.49,-216.77 352.58,-206.18 348.38,-197.1"/>
<polygon fill="midnightblue" stroke="midnightblue" points="351.43,-195.36 344.05,-187.75 345.08,-198.3 351.43,-195.36"/>
</g>
<!-- Node15&#45;&gt;Node7 -->
<g id="edge28" class="edge">
<title>Node15&#45;&gt;Node7</title>
<path fill="none" stroke="midnightblue" d="M318.7,-172.54C278.57,-162.88 192.43,-135.89 155,-76 146.49,-62.38 146.51,-43.84 148.2,-30.04"/>
<polygon fill="midnightblue" stroke="midnightblue" points="151.72,-30.22 149.88,-19.78 144.81,-29.09 151.72,-30.22"/>
</g>
<!-- Node15&#45;&gt;Node11 -->
<g id="edge29" class="edge">
<title>Node15&#45;&gt;Node11</title>
<path fill="none" stroke="midnightblue" d="M348.09,-168.08C355.16,-160.3 365.59,-148.8 374.15,-139.37"/>
<polygon fill="midnightblue" stroke="midnightblue" points="376.93,-141.51 381.06,-131.75 371.75,-136.8 376.93,-141.51"/>
</g>
<!-- Node16&#45;&gt;Node5 -->
<g id="edge31" class="edge">
<title>Node16&#45;&gt;Node5</title>
<path fill="none" stroke="midnightblue" d="M911.21,-121.37C822.18,-122.63 473.19,-124.37 377,-76 356.12,-65.5 339.56,-43.73 329.78,-28.28"/>
<polygon fill="midnightblue" stroke="midnightblue" points="332.74,-26.41 324.59,-19.64 326.74,-30.01 332.74,-26.41"/>
</g>
<!-- Node16&#45;&gt;Node6 -->
<g id="edge38" class="edge">
<title>Node16&#45;&gt;Node6</title>
<path fill="none" stroke="midnightblue" d="M911.3,-120.83C862.83,-119.79 738.88,-113.36 644,-76 613.9,-64.15 583.76,-41.56 565.49,-26.39"/>
<polygon fill="midnightblue" stroke="midnightblue" points="567.41,-23.43 557.53,-19.62 562.88,-28.76 567.41,-23.43"/>
</g>
<!-- Node16&#45;&gt;Node7 -->
<g id="edge33" class="edge">
<title>Node16&#45;&gt;Node7</title>
<path fill="none" stroke="midnightblue" d="M911.32,-121.21C835.39,-121.61 565.08,-119.68 348,-76 287.35,-63.8 219.4,-38.51 181.55,-23.32"/>
<polygon fill="midnightblue" stroke="midnightblue" points="182.74,-20.02 172.15,-19.51 180.11,-26.51 182.74,-20.02"/>
</g>
<!-- Node16&#45;&gt;Node8 -->
<g id="edge32" class="edge">
<title>Node16&#45;&gt;Node8</title>
<path fill="none" stroke="midnightblue" d="M911.31,-113.61C859.08,-94.96 721.48,-45.81 657.54,-22.98"/>
<polygon fill="midnightblue" stroke="midnightblue" points="658.53,-19.62 647.94,-19.55 656.18,-26.21 658.53,-19.62"/>
</g>
<!-- Node16&#45;&gt;Node9 -->
<g id="edge35" class="edge">
<title>Node16&#45;&gt;Node9</title>
<path fill="none" stroke="midnightblue" d="M919.13,-112.37C890.99,-93.49 823.74,-48.38 789.23,-25.24"/>
<polygon fill="midnightblue" stroke="midnightblue" points="791.06,-22.26 780.81,-19.59 787.16,-28.07 791.06,-22.26"/>
</g>
<!-- Node16&#45;&gt;Node10 -->
<g id="edge40" class="edge">
<title>Node16&#45;&gt;Node10</title>
<path fill="none" stroke="midnightblue" d="M952.68,-120.2C1004.26,-117.73 1136.37,-108.32 1163,-76 1191.58,-41.32 1118,-23.52 1069.88,-15.84"/>
<polygon fill="midnightblue" stroke="midnightblue" points="1070.16,-12.34 1059.75,-14.31 1069.11,-19.26 1070.16,-12.34"/>
</g>
<!-- Node17 -->
<g id="node17" class="node">
<title>Node17</title>
<g id="a_node17"><a xlink:title=" ">
<polygon fill="white" stroke="#bfbfbf" points="1098,-56.5 1098,-75.5 1154,-75.5 1154,-56.5 1098,-56.5"/>
<text text-anchor="middle" x="1126" y="-63.5" font-family="Helvetica,sans-Serif" font-size="10.00">assert.h</text>
</a>
</g>
</g>
<!-- Node16&#45;&gt;Node17 -->
<g id="edge34" class="edge">
<title>Node16&#45;&gt;Node17</title>
<path fill="none" stroke="midnightblue" d="M952.76,-115.22C985.02,-106.24 1047.67,-88.8 1088.13,-77.54"/>
<polygon fill="midnightblue" stroke="midnightblue" points="1089.21,-80.87 1097.91,-74.82 1087.34,-74.13 1089.21,-80.87"/>
</g>
<!-- Node18 -->
<g id="node18" class="node">
<title>Node18</title>
<g id="a_node18"><a xlink:title=" ">
<polygon fill="white" stroke="#bfbfbf" points="1210.5,-56.5 1210.5,-75.5 1261.5,-75.5 1261.5,-56.5 1210.5,-56.5"/>
<text text-anchor="middle" x="1236" y="-63.5" font-family="Helvetica,sans-Serif" font-size="10.00">math.h</text>
</a>
</g>
</g>
<!-- Node16&#45;&gt;Node18 -->
<g id="edge36" class="edge">
<title>Node16&#45;&gt;Node18</title>
<path fill="none" stroke="midnightblue" d="M952.61,-117.86C997.15,-111.01 1105.69,-93.84 1196,-76 1197.44,-75.72 1198.91,-75.42 1200.39,-75.11"/>
<polygon fill="midnightblue" stroke="midnightblue" points="1201.17,-78.52 1210.22,-73.01 1199.71,-71.68 1201.17,-78.52"/>
</g>
<!-- Node19 -->
<g id="node19" class="node">
<title>Node19</title>
<g id="a_node19"><a xlink:title=" ">
<polygon fill="white" stroke="#bfbfbf" points="910,-56.5 910,-75.5 958,-75.5 958,-56.5 910,-56.5"/>
<text text-anchor="middle" x="934" y="-63.5" font-family="Helvetica,sans-Serif" font-size="10.00">float.h</text>
</a>
</g>
</g>
<!-- Node16&#45;&gt;Node19 -->
<g id="edge37" class="edge">
<title>Node16&#45;&gt;Node19</title>
<path fill="none" stroke="midnightblue" d="M932.33,-112.08C932.59,-105.01 932.97,-94.86 933.3,-85.99"/>
<polygon fill="midnightblue" stroke="midnightblue" points="936.8,-85.87 933.68,-75.75 929.81,-85.61 936.8,-85.87"/>
</g>
<!-- Node20 -->
<g id="node20" class="node">
<title>Node20</title>
<g id="a_node20"><a xlink:title=" ">
<polygon fill="white" stroke="#bfbfbf" points="976,-56.5 976,-75.5 1024,-75.5 1024,-56.5 976,-56.5"/>
<text text-anchor="middle" x="1000" y="-63.5" font-family="Helvetica,sans-Serif" font-size="10.00">time.h</text>
</a>
</g>
</g>
<!-- Node16&#45;&gt;Node20 -->
<g id="edge39" class="edge">
<title>Node16&#45;&gt;Node20</title>
<path fill="none" stroke="midnightblue" d="M942.93,-112.32C953.17,-104.18 968.72,-91.84 981,-82.09"/>
<polygon fill="midnightblue" stroke="midnightblue" points="983.22,-84.79 988.88,-75.83 978.87,-79.31 983.22,-84.79"/>
</g>
<!-- Node21 -->
<g id="node21" class="node">
<title>Node21</title>
<g id="a_node21"><a xlink:href="os_8h.html" target="_top" xlink:title=" ">
<polygon fill="white" stroke="black" points="1042.5,-56.5 1042.5,-75.5 1079.5,-75.5 1079.5,-56.5 1042.5,-56.5"/>
<text text-anchor="middle" x="1061" y="-63.5" font-family="Helvetica,sans-Serif" font-size="10.00">os.h</text>
</a>
</g>
</g>
<!-- Node16&#45;&gt;Node21 -->
<g id="edge41" class="edge">
<title>Node16&#45;&gt;Node21</title>
<path fill="none" stroke="midnightblue" d="M952.44,-112.44C974.17,-103.35 1008.68,-88.9 1032.94,-78.74"/>
<polygon fill="midnightblue" stroke="midnightblue" points="1034.46,-81.91 1042.33,-74.82 1031.75,-75.45 1034.46,-81.91"/>
</g>
<!-- Node16&#45;&gt;Node22 -->
<g id="edge42" class="edge">
<title>Node16&#45;&gt;Node22</title>
<path fill="none" stroke="midnightblue" d="M911.32,-115.48C906.62,-114.28 901.65,-113.06 897,-112 817.03,-93.78 796.19,-93.22 716,-76 714.56,-75.69 713.08,-75.37 711.6,-75.04"/>
<polygon fill="midnightblue" stroke="midnightblue" points="712.26,-71.6 701.73,-72.83 710.72,-78.43 712.26,-71.6"/>
</g>
<!-- Node22&#45;&gt;Node5 -->
<g id="edge43" class="edge">
<title>Node22&#45;&gt;Node5</title>
<path fill="none" stroke="midnightblue" d="M652.46,-61.29C590.9,-51.98 429.64,-27.58 356.73,-16.56"/>
<polygon fill="midnightblue" stroke="midnightblue" points="357.05,-13.06 346.64,-15.03 356,-19.99 357.05,-13.06"/>
</g>
<!-- Node22&#45;&gt;Node6 -->
<g id="edge44" class="edge">
<title>Node22&#45;&gt;Node6</title>
<path fill="none" stroke="midnightblue" d="M656.56,-56.44C635.33,-47.56 601.9,-33.56 577.75,-23.45"/>
<polygon fill="midnightblue" stroke="midnightblue" points="578.92,-20.15 568.34,-19.52 576.22,-26.61 578.92,-20.15"/>
</g>
<!-- Node22&#45;&gt;Node7 -->
<g id="edge45" class="edge">
<title>Node22&#45;&gt;Node7</title>
<path fill="none" stroke="midnightblue" d="M652.38,-62.47C569.18,-53.91 297.86,-26 193.46,-15.26"/>
<polygon fill="midnightblue" stroke="midnightblue" points="193.61,-11.76 183.31,-14.22 192.9,-18.73 193.61,-11.76"/>
</g>
<!-- Node22&#45;&gt;Node8 -->
<g id="edge46" class="edge">
<title>Node22&#45;&gt;Node8</title>
<path fill="none" stroke="midnightblue" d="M668.25,-56.08C660.53,-48.22 649.1,-36.57 639.78,-27.08"/>
<polygon fill="midnightblue" stroke="midnightblue" points="642.09,-24.44 632.59,-19.75 637.1,-29.34 642.09,-24.44"/>
</g>
<!-- Node22&#45;&gt;Node9 -->
<g id="edge47" class="edge">
<title>Node22&#45;&gt;Node9</title>
<path fill="none" stroke="midnightblue" d="M691.62,-56.32C705.95,-47.82 728.01,-34.73 744.75,-24.8"/>
<polygon fill="midnightblue" stroke="midnightblue" points="746.6,-27.77 753.42,-19.65 743.03,-21.75 746.6,-27.77"/>
</g>
<!-- Node22&#45;&gt;Node10 -->
<g id="edge48" class="edge">
<title>Node22&#45;&gt;Node10</title>
<path fill="none" stroke="midnightblue" d="M701.68,-61.25C762.68,-51.97 920.86,-27.91 993.95,-16.79"/>
<polygon fill="midnightblue" stroke="midnightblue" points="994.74,-20.21 1004.1,-15.24 993.68,-13.29 994.74,-20.21"/>
</g>
</g>
</svg>
