<?xml version="1.0" encoding="UTF-8" standalone="no"?>
<!DOCTYPE svg PUBLIC "-//W3C//DTD SVG 1.1//EN"
 "http://www.w3.org/Graphics/SVG/1.1/DTD/svg11.dtd">
<!-- Generated by graphviz version 2.43.0 (0)
 -->
<!-- Title: /home/bugy/projs/lobotomy/src/obj.c Pages: 1 -->
<svg width="668pt" height="319pt"
 viewBox="0.00 0.00 668.00 319.00" xmlns="http://www.w3.org/2000/svg" xmlns:xlink="http://www.w3.org/1999/xlink">
<g id="graph0" class="graph" transform="scale(1 1) rotate(0) translate(4 315)">
<title>/home/bugy/projs/lobotomy/src/obj.c</title>
<polygon fill="white" stroke="transparent" points="-4,4 -4,-315 664,-315 664,4 -4,4"/>
<!-- Node1 -->
<g id="node1" class="node">
<title>Node1</title>
<g id="a_node1"><a xlink:title=" ">
<polygon fill="#bfbfbf" stroke="black" points="174.5,-280.5 174.5,-310.5 325.5,-310.5 325.5,-280.5 174.5,-280.5"/>
<text text-anchor="start" x="182.5" y="-298.5" font-family="Helvetica,sans-Serif" font-size="10.00">/home/bugy/projs/lobotomy</text>
<text text-anchor="middle" x="250" y="-287.5" font-family="Helvetica,sans-Serif" font-size="10.00">/src/obj.c</text>
</a>
</g>
</g>
<!-- Node2 -->
<g id="node2" class="node">
<title>Node2</title>
<g id="a_node2"><a xlink:title=" ">
<polygon fill="white" stroke="#bfbfbf" points="595.5,-0.5 595.5,-19.5 648.5,-19.5 648.5,-0.5 595.5,-0.5"/>
<text text-anchor="middle" x="622" y="-7.5" font-family="Helvetica,sans-Serif" font-size="10.00">stdlib.h</text>
</a>
</g>
</g>
<!-- Node1&#45;&gt;Node2 -->
<g id="edge1" class="edge">
<title>Node1&#45;&gt;Node2</title>
<path fill="none" stroke="midnightblue" d="M325.68,-288.7C444.15,-277.5 660,-247.68 660,-179 660,-179 660,-179 660,-121 660,-86.81 643.4,-49.76 632.14,-28.57"/>
<polygon fill="midnightblue" stroke="midnightblue" points="635.18,-26.83 627.28,-19.77 629.05,-30.22 635.18,-26.83"/>
</g>
<!-- Node3 -->
<g id="node3" class="node">
<title>Node3</title>
<g id="a_node3"><a xlink:title=" ">
<polygon fill="white" stroke="#bfbfbf" points="443.5,-0.5 443.5,-19.5 496.5,-19.5 496.5,-0.5 443.5,-0.5"/>
<text text-anchor="middle" x="470" y="-7.5" font-family="Helvetica,sans-Serif" font-size="10.00">stdint.h</text>
</a>
</g>
</g>
<!-- Node1&#45;&gt;Node3 -->
<g id="edge2" class="edge">
<title>Node1&#45;&gt;Node3</title>
<path fill="none" stroke="midnightblue" d="M325.67,-291.69C401.79,-284.32 508,-259.61 508,-179 508,-179 508,-179 508,-121 508,-86.81 491.4,-49.76 480.14,-28.57"/>
<polygon fill="midnightblue" stroke="midnightblue" points="483.18,-26.83 475.28,-19.77 477.05,-30.22 483.18,-26.83"/>
</g>
<!-- Node4 -->
<g id="node4" class="node">
<title>Node4</title>
<g id="a_node4"><a xlink:title=" ">
<polygon fill="white" stroke="#bfbfbf" points="45,-0.5 45,-19.5 107,-19.5 107,-0.5 45,-0.5"/>
<text text-anchor="middle" x="76" y="-7.5" font-family="Helvetica,sans-Serif" font-size="10.00">stdbool.h</text>
</a>
</g>
</g>
<!-- Node1&#45;&gt;Node4 -->
<g id="edge3" class="edge">
<title>Node1&#45;&gt;Node4</title>
<path fill="none" stroke="midnightblue" d="M174.31,-290.62C100.73,-282.29 0,-256.69 0,-179 0,-179 0,-179 0,-121 0,-81.28 33.96,-45.5 56.48,-26.15"/>
<polygon fill="midnightblue" stroke="midnightblue" points="58.98,-28.63 64.46,-19.57 54.52,-23.24 58.98,-28.63"/>
</g>
<!-- Node5 -->
<g id="node5" class="node">
<title>Node5</title>
<g id="a_node5"><a xlink:title=" ">
<polygon fill="white" stroke="#bfbfbf" points="239,-0.5 239,-19.5 289,-19.5 289,-0.5 239,-0.5"/>
<text text-anchor="middle" x="264" y="-7.5" font-family="Helvetica,sans-Serif" font-size="10.00">stdio.h</text>
</a>
</g>
</g>
<!-- Node1&#45;&gt;Node5 -->
<g id="edge4" class="edge">
<title>Node1&#45;&gt;Node5</title>
<path fill="none" stroke="midnightblue" d="M244.52,-280.5C235.07,-256.8 214.62,-207.52 193,-168 165.9,-118.46 100.19,-101.96 133,-56 154.56,-25.8 197.72,-15.66 228.61,-12.36"/>
<polygon fill="midnightblue" stroke="midnightblue" points="229.31,-15.82 238.97,-11.46 228.71,-8.84 229.31,-15.82"/>
</g>
<!-- Node6 -->
<g id="node6" class="node">
<title>Node6</title>
<g id="a_node6"><a xlink:title=" ">
<polygon fill="white" stroke="#bfbfbf" points="519.5,-0.5 519.5,-19.5 572.5,-19.5 572.5,-0.5 519.5,-0.5"/>
<text text-anchor="middle" x="546" y="-7.5" font-family="Helvetica,sans-Serif" font-size="10.00">string.h</text>
</a>
</g>
</g>
<!-- Node1&#45;&gt;Node6 -->
<g id="edge5" class="edge">
<title>Node1&#45;&gt;Node6</title>
<path fill="none" stroke="midnightblue" d="M325.73,-288.11C376.54,-281.7 443.98,-269 499,-244 542.3,-224.33 584,-226.56 584,-179 584,-179 584,-179 584,-121 584,-86.81 567.4,-49.76 556.14,-28.57"/>
<polygon fill="midnightblue" stroke="midnightblue" points="559.18,-26.83 551.28,-19.77 553.05,-30.22 559.18,-26.83"/>
</g>
<!-- Node7 -->
<g id="node7" class="node">
<title>Node7</title>
<g id="a_node7"><a xlink:title=" ">
<polygon fill="white" stroke="#bfbfbf" points="142.5,-56.5 142.5,-75.5 197.5,-75.5 197.5,-56.5 142.5,-56.5"/>
<text text-anchor="middle" x="170" y="-63.5" font-family="Helvetica,sans-Serif" font-size="10.00">wchar.h</text>
</a>
</g>
</g>
<!-- Node1&#45;&gt;Node7 -->
<g id="edge6" class="edge">
<title>Node1&#45;&gt;Node7</title>
<path fill="none" stroke="midnightblue" d="M187.09,-280.49C167.57,-272.96 148.04,-261.46 136,-244 101.56,-194.06 138.78,-118.25 158.88,-84.39"/>
<polygon fill="midnightblue" stroke="midnightblue" points="161.99,-86.01 164.24,-75.66 156.03,-82.35 161.99,-86.01"/>
</g>
<!-- Node8 -->
<g id="node8" class="node">
<title>Node8</title>
<g id="a_node8"><a xlink:href="obj_8h.html" target="_top" xlink:title=" ">
<polygon fill="white" stroke="black" points="267.5,-112.5 267.5,-131.5 308.5,-131.5 308.5,-112.5 267.5,-112.5"/>
<text text-anchor="middle" x="288" y="-119.5" font-family="Helvetica,sans-Serif" font-size="10.00">obj.h</text>
</a>
</g>
</g>
<!-- Node1&#45;&gt;Node8 -->
<g id="edge7" class="edge">
<title>Node1&#45;&gt;Node8</title>
<path fill="none" stroke="midnightblue" d="M253.11,-280.47C259.93,-249.7 276.18,-176.33 283.86,-141.7"/>
<polygon fill="midnightblue" stroke="midnightblue" points="287.36,-142.08 286.1,-131.56 280.52,-140.57 287.36,-142.08"/>
</g>
<!-- Node11 -->
<g id="node11" class="node">
<title>Node11</title>
<g id="a_node11"><a xlink:href="gc_8h.html" target="_top" xlink:title=" ">
<polygon fill="white" stroke="black" points="145.5,-224.5 145.5,-243.5 182.5,-243.5 182.5,-224.5 145.5,-224.5"/>
<text text-anchor="middle" x="164" y="-231.5" font-family="Helvetica,sans-Serif" font-size="10.00">gc.h</text>
</a>
</g>
</g>
<!-- Node1&#45;&gt;Node11 -->
<g id="edge21" class="edge">
<title>Node1&#45;&gt;Node11</title>
<path fill="none" stroke="midnightblue" d="M229.62,-280.4C216.09,-271.04 198.39,-258.79 184.78,-249.38"/>
<polygon fill="midnightblue" stroke="midnightblue" points="186.73,-246.47 176.51,-243.66 182.75,-252.23 186.73,-246.47"/>
</g>
<!-- Node8&#45;&gt;Node2 -->
<g id="edge8" class="edge">
<title>Node8&#45;&gt;Node2</title>
<path fill="none" stroke="midnightblue" d="M308.59,-118.53C346.95,-113.51 431.58,-100.47 499,-76 536.08,-62.54 575.91,-39.8 599.89,-25.1"/>
<polygon fill="midnightblue" stroke="midnightblue" points="601.91,-27.96 608.56,-19.71 598.22,-22.02 601.91,-27.96"/>
</g>
<!-- Node8&#45;&gt;Node3 -->
<g id="edge9" class="edge">
<title>Node8&#45;&gt;Node3</title>
<path fill="none" stroke="midnightblue" d="M308.62,-121.35C342.94,-120.78 411.89,-114.53 451,-76 463.16,-64.02 467.64,-44.72 469.24,-30.26"/>
<polygon fill="midnightblue" stroke="midnightblue" points="472.75,-30.16 469.99,-19.93 465.77,-29.65 472.75,-30.16"/>
</g>
<!-- Node8&#45;&gt;Node4 -->
<g id="edge10" class="edge">
<title>Node8&#45;&gt;Node4</title>
<path fill="none" stroke="midnightblue" d="M279.14,-112.28C264.85,-98.62 235.31,-72.08 206,-56 177.78,-40.52 143.24,-28.86 116.86,-21.3"/>
<polygon fill="midnightblue" stroke="midnightblue" points="117.75,-17.91 107.17,-18.6 115.87,-24.66 117.75,-17.91"/>
</g>
<!-- Node8&#45;&gt;Node5 -->
<g id="edge11" class="edge">
<title>Node8&#45;&gt;Node5</title>
<path fill="none" stroke="midnightblue" d="M286.12,-112.37C282.24,-94.62 273.31,-53.67 268.06,-29.6"/>
<polygon fill="midnightblue" stroke="midnightblue" points="271.43,-28.62 265.87,-19.59 264.59,-30.11 271.43,-28.62"/>
</g>
<!-- Node8&#45;&gt;Node6 -->
<g id="edge12" class="edge">
<title>Node8&#45;&gt;Node6</title>
<path fill="none" stroke="midnightblue" d="M308.59,-119.12C343.68,-115.23 416.52,-104.2 471,-76 495.02,-63.57 517.77,-41.95 531.79,-27.08"/>
<polygon fill="midnightblue" stroke="midnightblue" points="534.45,-29.36 538.63,-19.62 529.29,-24.63 534.45,-29.36"/>
</g>
<!-- Node8&#45;&gt;Node7 -->
<g id="edge13" class="edge">
<title>Node8&#45;&gt;Node7</title>
<path fill="none" stroke="midnightblue" d="M269.3,-112.44C250.06,-103.64 219.85,-89.81 197.8,-79.72"/>
<polygon fill="midnightblue" stroke="midnightblue" points="199.16,-76.5 188.61,-75.52 196.25,-82.86 199.16,-76.5"/>
</g>
<!-- Node9 -->
<g id="node9" class="node">
<title>Node9</title>
<g id="a_node9"><a xlink:href="SHM_2hashmap_8h.html" target="_top" xlink:title=" ">
<polygon fill="white" stroke="black" points="292,-56.5 292,-75.5 388,-75.5 388,-56.5 292,-56.5"/>
<text text-anchor="middle" x="340" y="-63.5" font-family="Helvetica,sans-Serif" font-size="10.00">SHM/hashmap.h</text>
</a>
</g>
</g>
<!-- Node8&#45;&gt;Node9 -->
<g id="edge14" class="edge">
<title>Node8&#45;&gt;Node9</title>
<path fill="none" stroke="midnightblue" d="M296.59,-112.08C304.16,-104.22 315.38,-92.57 324.51,-83.08"/>
<polygon fill="midnightblue" stroke="midnightblue" points="327.16,-85.38 331.57,-75.75 322.12,-80.53 327.16,-85.38"/>
</g>
<!-- Node10 -->
<g id="node10" class="node">
<title>Node10</title>
<g id="a_node10"><a xlink:href="io_8h.html" target="_top" xlink:title=" ">
<polygon fill="white" stroke="black" points="406.5,-56.5 406.5,-75.5 441.5,-75.5 441.5,-56.5 406.5,-56.5"/>
<text text-anchor="middle" x="424" y="-63.5" font-family="Helvetica,sans-Serif" font-size="10.00">io.h</text>
</a>
</g>
</g>
<!-- Node8&#45;&gt;Node10 -->
<g id="edge20" class="edge">
<title>Node8&#45;&gt;Node10</title>
<path fill="none" stroke="midnightblue" d="M308.66,-112.8C332.14,-103.47 370.58,-88.21 396.57,-77.89"/>
<polygon fill="midnightblue" stroke="midnightblue" points="398.19,-81.01 406.19,-74.07 395.61,-74.51 398.19,-81.01"/>
</g>
<!-- Node9&#45;&gt;Node2 -->
<g id="edge15" class="edge">
<title>Node9&#45;&gt;Node2</title>
<path fill="none" stroke="midnightblue" d="M388.31,-56.57C437.24,-47.9 515.02,-33.76 582,-20 583.08,-19.78 584.18,-19.55 585.28,-19.32"/>
<polygon fill="midnightblue" stroke="midnightblue" points="586.31,-22.68 595.35,-17.14 584.84,-15.83 586.31,-22.68"/>
</g>
<!-- Node9&#45;&gt;Node3 -->
<g id="edge17" class="edge">
<title>Node9&#45;&gt;Node3</title>
<path fill="none" stroke="midnightblue" d="M360.6,-56.44C381.99,-47.56 415.68,-33.56 440.02,-23.45"/>
<polygon fill="midnightblue" stroke="midnightblue" points="441.61,-26.58 449.5,-19.52 438.92,-20.12 441.61,-26.58"/>
</g>
<!-- Node9&#45;&gt;Node4 -->
<g id="edge18" class="edge">
<title>Node9&#45;&gt;Node4</title>
<path fill="none" stroke="midnightblue" d="M298.17,-56.44C248.62,-46.31 166.62,-29.54 117.3,-19.45"/>
<polygon fill="midnightblue" stroke="midnightblue" points="117.8,-15.98 107.3,-17.4 116.4,-22.84 117.8,-15.98"/>
</g>
<!-- Node9&#45;&gt;Node5 -->
<g id="edge16" class="edge">
<title>Node9&#45;&gt;Node5</title>
<path fill="none" stroke="midnightblue" d="M327.79,-56.32C316.22,-48.11 298.62,-35.6 284.84,-25.81"/>
<polygon fill="midnightblue" stroke="midnightblue" points="286.61,-22.77 276.43,-19.83 282.56,-28.48 286.61,-22.77"/>
</g>
<!-- Node9&#45;&gt;Node6 -->
<g id="edge19" class="edge">
<title>Node9&#45;&gt;Node6</title>
<path fill="none" stroke="midnightblue" d="M372.64,-56.44C409.92,-46.67 470.77,-30.72 509.57,-20.55"/>
<polygon fill="midnightblue" stroke="midnightblue" points="510.62,-23.89 519.41,-17.97 508.85,-17.12 510.62,-23.89"/>
</g>
<!-- Node11&#45;&gt;Node4 -->
<g id="edge22" class="edge">
<title>Node11&#45;&gt;Node4</title>
<path fill="none" stroke="midnightblue" d="M157.22,-224.4C150.49,-215.61 140.18,-201.37 133,-188 107.63,-140.73 102.94,-127.52 88,-76 83.55,-60.66 80.39,-42.78 78.43,-29.66"/>
<polygon fill="midnightblue" stroke="midnightblue" points="81.87,-28.96 77.02,-19.54 74.94,-29.93 81.87,-28.96"/>
</g>
<!-- Node11&#45;&gt;Node8 -->
<g id="edge23" class="edge">
<title>Node11&#45;&gt;Node8</title>
<path fill="none" stroke="midnightblue" d="M173.73,-224.37C194.65,-205.81 244.13,-161.91 270.6,-138.44"/>
<polygon fill="midnightblue" stroke="midnightblue" points="273.16,-140.85 278.32,-131.59 268.51,-135.61 273.16,-140.85"/>
</g>
<!-- Node12 -->
<g id="node12" class="node">
<title>Node12</title>
<g id="a_node12"><a xlink:href="cgc_8h.html" target="_top" xlink:title=" ">
<polygon fill="white" stroke="black" points="142,-168.5 142,-187.5 184,-187.5 184,-168.5 142,-168.5"/>
<text text-anchor="middle" x="163" y="-175.5" font-family="Helvetica,sans-Serif" font-size="10.00">cgc.h</text>
</a>
</g>
</g>
<!-- Node11&#45;&gt;Node12 -->
<g id="edge24" class="edge">
<title>Node11&#45;&gt;Node12</title>
<path fill="none" stroke="midnightblue" d="M163.83,-224.08C163.7,-217.01 163.52,-206.86 163.35,-197.99"/>
<polygon fill="midnightblue" stroke="midnightblue" points="166.85,-197.68 163.16,-187.75 159.85,-197.81 166.85,-197.68"/>
</g>
<!-- Node12&#45;&gt;Node4 -->
<g id="edge25" class="edge">
<title>Node12&#45;&gt;Node4</title>
<path fill="none" stroke="midnightblue" d="M156.81,-168.43C144.73,-151.44 117.64,-112 100,-76 92.56,-60.81 86.05,-42.69 81.69,-29.45"/>
<polygon fill="midnightblue" stroke="midnightblue" points="84.94,-28.11 78.57,-19.64 78.27,-30.23 84.94,-28.11"/>
</g>
<!-- Node12&#45;&gt;Node8 -->
<g id="edge26" class="edge">
<title>Node12&#45;&gt;Node8</title>
<path fill="none" stroke="midnightblue" d="M182.81,-168.44C203.29,-159.6 235.48,-145.69 258.86,-135.59"/>
<polygon fill="midnightblue" stroke="midnightblue" points="260.49,-138.7 268.29,-131.52 257.72,-132.27 260.49,-138.7"/>
</g>
</g>
</svg>
