<?xml version="1.0" encoding="UTF-8" standalone="no"?>
<!DOCTYPE svg PUBLIC "-//W3C//DTD SVG 1.1//EN"
 "http://www.w3.org/Graphics/SVG/1.1/DTD/svg11.dtd">
<!-- Generated by graphviz version 2.43.0 (0)
 -->
<!-- Title: /home/bugy/projs/lobotomy/src/obj.h Pages: 1 -->
<svg width="455pt" height="151pt"
 viewBox="0.00 0.00 455.00 151.00" xmlns="http://www.w3.org/2000/svg" xmlns:xlink="http://www.w3.org/1999/xlink">
<g id="graph0" class="graph" transform="scale(1 1) rotate(0) translate(4 147)">
<title>/home/bugy/projs/lobotomy/src/obj.h</title>
<polygon fill="white" stroke="transparent" points="-4,4 -4,-147 451,-147 451,4 -4,4"/>
<!-- Node1 -->
<g id="node1" class="node">
<title>Node1</title>
<g id="a_node1"><a xlink:title=" ">
<polygon fill="#bfbfbf" stroke="black" points="178,-112.5 178,-142.5 329,-142.5 329,-112.5 178,-112.5"/>
<text text-anchor="start" x="186" y="-130.5" font-family="Helvetica,sans-Serif" font-size="10.00">/home/bugy/projs/lobotomy</text>
<text text-anchor="middle" x="253.5" y="-119.5" font-family="Helvetica,sans-Serif" font-size="10.00">/src/obj.h</text>
</a>
</g>
</g>
<!-- Node2 -->
<g id="node2" class="node">
<title>Node2</title>
<g id="a_node2"><a xlink:title=" ">
<polygon fill="white" stroke="#bfbfbf" points="0,-0.5 0,-19.5 53,-19.5 53,-0.5 0,-0.5"/>
<text text-anchor="middle" x="26.5" y="-7.5" font-family="Helvetica,sans-Serif" font-size="10.00">stdlib.h</text>
</a>
</g>
</g>
<!-- Node1&#45;&gt;Node2 -->
<g id="edge1" class="edge">
<title>Node1&#45;&gt;Node2</title>
<path fill="none" stroke="midnightblue" d="M182.08,-112.49C152.35,-104.65 118.34,-92.94 90.5,-76 69.89,-63.45 51.14,-42.81 39.34,-28.16"/>
<polygon fill="midnightblue" stroke="midnightblue" points="41.84,-25.68 32.93,-19.94 36.32,-29.98 41.84,-25.68"/>
</g>
<!-- Node3 -->
<g id="node3" class="node">
<title>Node3</title>
<g id="a_node3"><a xlink:title=" ">
<polygon fill="white" stroke="#bfbfbf" points="71,-0.5 71,-19.5 124,-19.5 124,-0.5 71,-0.5"/>
<text text-anchor="middle" x="97.5" y="-7.5" font-family="Helvetica,sans-Serif" font-size="10.00">stdint.h</text>
</a>
</g>
</g>
<!-- Node1&#45;&gt;Node3 -->
<g id="edge2" class="edge">
<title>Node1&#45;&gt;Node3</title>
<path fill="none" stroke="midnightblue" d="M177.8,-119.15C149.45,-112.39 119.73,-99.69 101.5,-76 91.49,-62.99 91.55,-43.83 93.47,-29.68"/>
<polygon fill="midnightblue" stroke="midnightblue" points="96.96,-30.08 95.26,-19.62 90.07,-28.85 96.96,-30.08"/>
</g>
<!-- Node4 -->
<g id="node4" class="node">
<title>Node4</title>
<g id="a_node4"><a xlink:title=" ">
<polygon fill="white" stroke="#bfbfbf" points="142.5,-0.5 142.5,-19.5 204.5,-19.5 204.5,-0.5 142.5,-0.5"/>
<text text-anchor="middle" x="173.5" y="-7.5" font-family="Helvetica,sans-Serif" font-size="10.00">stdbool.h</text>
</a>
</g>
</g>
<!-- Node1&#45;&gt;Node4 -->
<g id="edge3" class="edge">
<title>Node1&#45;&gt;Node4</title>
<path fill="none" stroke="midnightblue" d="M247.21,-112.37C240.36,-97.67 228.64,-74.3 215.5,-56 208.04,-45.61 198.37,-35.09 190.19,-26.84"/>
<polygon fill="midnightblue" stroke="midnightblue" points="192.51,-24.22 182.92,-19.7 187.6,-29.21 192.51,-24.22"/>
</g>
<!-- Node5 -->
<g id="node5" class="node">
<title>Node5</title>
<g id="a_node5"><a xlink:title=" ">
<polygon fill="white" stroke="#bfbfbf" points="222.5,-0.5 222.5,-19.5 272.5,-19.5 272.5,-0.5 222.5,-0.5"/>
<text text-anchor="middle" x="247.5" y="-7.5" font-family="Helvetica,sans-Serif" font-size="10.00">stdio.h</text>
</a>
</g>
</g>
<!-- Node1&#45;&gt;Node5 -->
<g id="edge4" class="edge">
<title>Node1&#45;&gt;Node5</title>
<path fill="none" stroke="midnightblue" d="M252.76,-112.34C251.69,-91.62 249.68,-53.02 248.48,-29.9"/>
<polygon fill="midnightblue" stroke="midnightblue" points="251.96,-29.47 247.95,-19.67 244.97,-29.84 251.96,-29.47"/>
</g>
<!-- Node6 -->
<g id="node6" class="node">
<title>Node6</title>
<g id="a_node6"><a xlink:title=" ">
<polygon fill="white" stroke="#bfbfbf" points="291,-0.5 291,-19.5 344,-19.5 344,-0.5 291,-0.5"/>
<text text-anchor="middle" x="317.5" y="-7.5" font-family="Helvetica,sans-Serif" font-size="10.00">string.h</text>
</a>
</g>
</g>
<!-- Node1&#45;&gt;Node6 -->
<g id="edge5" class="edge">
<title>Node1&#45;&gt;Node6</title>
<path fill="none" stroke="midnightblue" d="M261.35,-112.34C273.04,-91.24 295,-51.6 307.72,-28.65"/>
<polygon fill="midnightblue" stroke="midnightblue" points="310.91,-30.11 312.7,-19.67 304.79,-26.72 310.91,-30.11"/>
</g>
<!-- Node7 -->
<g id="node7" class="node">
<title>Node7</title>
<g id="a_node7"><a xlink:title=" ">
<polygon fill="white" stroke="#bfbfbf" points="339,-56.5 339,-75.5 394,-75.5 394,-56.5 339,-56.5"/>
<text text-anchor="middle" x="366.5" y="-63.5" font-family="Helvetica,sans-Serif" font-size="10.00">wchar.h</text>
</a>
</g>
</g>
<!-- Node1&#45;&gt;Node7 -->
<g id="edge6" class="edge">
<title>Node1&#45;&gt;Node7</title>
<path fill="none" stroke="midnightblue" d="M280.28,-112.4C298.56,-102.77 322.65,-90.09 340.71,-80.58"/>
<polygon fill="midnightblue" stroke="midnightblue" points="342.84,-83.41 350.06,-75.66 339.58,-77.22 342.84,-83.41"/>
</g>
<!-- Node8 -->
<g id="node8" class="node">
<title>Node8</title>
<g id="a_node8"><a xlink:href="SHM_2hashmap_8h.html" target="_top" xlink:title=" ">
<polygon fill="white" stroke="black" points="110.5,-56.5 110.5,-75.5 206.5,-75.5 206.5,-56.5 110.5,-56.5"/>
<text text-anchor="middle" x="158.5" y="-63.5" font-family="Helvetica,sans-Serif" font-size="10.00">SHM/hashmap.h</text>
</a>
</g>
</g>
<!-- Node1&#45;&gt;Node8 -->
<g id="edge7" class="edge">
<title>Node1&#45;&gt;Node8</title>
<path fill="none" stroke="midnightblue" d="M230.99,-112.4C215.9,-102.95 196.11,-90.56 181.03,-81.11"/>
<polygon fill="midnightblue" stroke="midnightblue" points="182.66,-78 172.32,-75.66 178.94,-83.93 182.66,-78"/>
</g>
<!-- Node9 -->
<g id="node9" class="node">
<title>Node9</title>
<g id="a_node9"><a xlink:href="io_8h.html" target="_top" xlink:title=" ">
<polygon fill="white" stroke="black" points="412,-56.5 412,-75.5 447,-75.5 447,-56.5 412,-56.5"/>
<text text-anchor="middle" x="429.5" y="-63.5" font-family="Helvetica,sans-Serif" font-size="10.00">io.h</text>
</a>
</g>
</g>
<!-- Node1&#45;&gt;Node9 -->
<g id="edge13" class="edge">
<title>Node1&#45;&gt;Node9</title>
<path fill="none" stroke="midnightblue" d="M295.56,-112.45C323.47,-103.1 361.16,-90.42 402.23,-76.42"/>
<polygon fill="midnightblue" stroke="midnightblue" points="403.55,-79.66 411.88,-73.12 401.29,-73.04 403.55,-79.66"/>
</g>
<!-- Node8&#45;&gt;Node2 -->
<g id="edge8" class="edge">
<title>Node8&#45;&gt;Node2</title>
<path fill="none" stroke="midnightblue" d="M137.58,-56.44C115.76,-47.52 81.35,-33.44 56.61,-23.32"/>
<polygon fill="midnightblue" stroke="midnightblue" points="57.9,-20.06 47.32,-19.52 55.25,-26.54 57.9,-20.06"/>
</g>
<!-- Node8&#45;&gt;Node3 -->
<g id="edge10" class="edge">
<title>Node8&#45;&gt;Node3</title>
<path fill="none" stroke="midnightblue" d="M148.7,-56.32C139.68,-48.34 126.09,-36.31 115.18,-26.65"/>
<polygon fill="midnightblue" stroke="midnightblue" points="117.29,-23.84 107.48,-19.83 112.65,-29.08 117.29,-23.84"/>
</g>
<!-- Node8&#45;&gt;Node4 -->
<g id="edge11" class="edge">
<title>Node8&#45;&gt;Node4</title>
<path fill="none" stroke="midnightblue" d="M160.98,-56.08C162.99,-48.85 165.89,-38.41 168.39,-29.4"/>
<polygon fill="midnightblue" stroke="midnightblue" points="171.76,-30.32 171.07,-19.75 165.02,-28.45 171.76,-30.32"/>
</g>
<!-- Node8&#45;&gt;Node5 -->
<g id="edge9" class="edge">
<title>Node8&#45;&gt;Node5</title>
<path fill="none" stroke="midnightblue" d="M172.8,-56.32C186.68,-47.9 207.99,-34.97 224.3,-25.07"/>
<polygon fill="midnightblue" stroke="midnightblue" points="226.5,-27.83 233.24,-19.65 222.87,-21.85 226.5,-27.83"/>
</g>
<!-- Node8&#45;&gt;Node6 -->
<g id="edge12" class="edge">
<title>Node8&#45;&gt;Node6</title>
<path fill="none" stroke="midnightblue" d="M183.69,-56.44C210.44,-47.36 252.9,-32.94 282.81,-22.78"/>
<polygon fill="midnightblue" stroke="midnightblue" points="284.08,-26.05 292.42,-19.52 281.83,-19.42 284.08,-26.05"/>
</g>
</g>
</svg>
