<?xml version="1.0" encoding="UTF-8" standalone="no"?>
<!DOCTYPE svg PUBLIC "-//W3C//DTD SVG 1.1//EN"
 "http://www.w3.org/Graphics/SVG/1.1/DTD/svg11.dtd">
<!-- Generated by graphviz version 2.43.0 (0)
 -->
<!-- Title: /home/bugy/projs/lobotomy/src/obj.h Pages: 1 -->
<svg width="1226pt" height="441pt"
 viewBox="0.00 0.00 1225.50 441.00" xmlns="http://www.w3.org/2000/svg" xmlns:xlink="http://www.w3.org/1999/xlink">
<g id="graph0" class="graph" transform="scale(1 1) rotate(0) translate(4 437)">
<title>/home/bugy/projs/lobotomy/src/obj.h</title>
<polygon fill="white" stroke="transparent" points="-4,4 -4,-437 1221.5,-437 1221.5,4 -4,4"/>
<!-- Node1 -->
<g id="node1" class="node">
<title>Node1</title>
<g id="a_node1"><a xlink:title=" ">
<polygon fill="#bfbfbf" stroke="black" points="533.5,-402.5 533.5,-432.5 684.5,-432.5 684.5,-402.5 533.5,-402.5"/>
<text text-anchor="start" x="541.5" y="-420.5" font-family="Helvetica,sans-Serif" font-size="10.00">/home/bugy/projs/lobotomy</text>
<text text-anchor="middle" x="609" y="-409.5" font-family="Helvetica,sans-Serif" font-size="10.00">/src/obj.h</text>
</a>
</g>
</g>
<!-- Node2 -->
<g id="node2" class="node">
<title>Node2</title>
<g id="a_node2"><a xlink:href="cgc_8h.html" target="_top" xlink:title=" ">
<polygon fill="white" stroke="black" points="339.5,-335.5 339.5,-365.5 490.5,-365.5 490.5,-335.5 339.5,-335.5"/>
<text text-anchor="start" x="347.5" y="-353.5" font-family="Helvetica,sans-Serif" font-size="10.00">/home/bugy/projs/lobotomy</text>
<text text-anchor="middle" x="415" y="-342.5" font-family="Helvetica,sans-Serif" font-size="10.00">/src/cgc.h</text>
</a>
</g>
</g>
<!-- Node1&#45;&gt;Node2 -->
<g id="edge1" class="edge">
<title>Node1&#45;&gt;Node2</title>
<path fill="none" stroke="midnightblue" d="M557.04,-399.09C525.73,-388.6 486.36,-375.41 457.01,-365.58"/>
<polygon fill="midnightblue" stroke="midnightblue" points="556.31,-402.54 566.9,-402.4 558.53,-395.9 556.31,-402.54"/>
</g>
<!-- Node3 -->
<g id="node3" class="node">
<title>Node3</title>
<g id="a_node3"><a xlink:href="gc_8h.html" target="_top" xlink:title=" ">
<polygon fill="white" stroke="black" points="339.5,-268.5 339.5,-298.5 490.5,-298.5 490.5,-268.5 339.5,-268.5"/>
<text text-anchor="start" x="347.5" y="-286.5" font-family="Helvetica,sans-Serif" font-size="10.00">/home/bugy/projs/lobotomy</text>
<text text-anchor="middle" x="415" y="-275.5" font-family="Helvetica,sans-Serif" font-size="10.00">/src/gc.h</text>
</a>
</g>
</g>
<!-- Node1&#45;&gt;Node3 -->
<g id="edge19" class="edge">
<title>Node1&#45;&gt;Node3</title>
<path fill="none" stroke="midnightblue" d="M582.93,-396.07C560.96,-379.13 528.48,-354.71 499,-335 479.62,-322.04 456.93,-308.49 440.02,-298.69"/>
<polygon fill="midnightblue" stroke="midnightblue" points="581.04,-399.04 591.09,-402.4 585.33,-393.51 581.04,-399.04"/>
</g>
<!-- Node4 -->
<g id="node4" class="node">
<title>Node4</title>
<g id="a_node4"><a xlink:href="obj_8c.html" target="_top" xlink:title=" ">
<polygon fill="white" stroke="black" points="197.5,-201.5 197.5,-231.5 348.5,-231.5 348.5,-201.5 197.5,-201.5"/>
<text text-anchor="start" x="205.5" y="-219.5" font-family="Helvetica,sans-Serif" font-size="10.00">/home/bugy/projs/lobotomy</text>
<text text-anchor="middle" x="273" y="-208.5" font-family="Helvetica,sans-Serif" font-size="10.00">/src/obj.c</text>
</a>
</g>
</g>
<!-- Node1&#45;&gt;Node4 -->
<g id="edge18" class="edge">
<title>Node1&#45;&gt;Node4</title>
<path fill="none" stroke="midnightblue" d="M522.91,-410.12C452.09,-403.24 358.86,-389.9 330,-366 287.89,-331.12 276.82,-261.36 273.97,-231.54"/>
<polygon fill="midnightblue" stroke="midnightblue" points="522.9,-413.63 533.18,-411.09 523.55,-406.66 522.9,-413.63"/>
</g>
<!-- Node7 -->
<g id="node7" class="node">
<title>Node7</title>
<g id="a_node7"><a xlink:href="l__sdl_8c.html" target="_top" xlink:title=" ">
<polygon fill="white" stroke="black" points="689.5,-0.5 689.5,-30.5 840.5,-30.5 840.5,-0.5 689.5,-0.5"/>
<text text-anchor="start" x="697.5" y="-18.5" font-family="Helvetica,sans-Serif" font-size="10.00">/home/bugy/projs/lobotomy</text>
<text text-anchor="middle" x="765" y="-7.5" font-family="Helvetica,sans-Serif" font-size="10.00">/src/l_sdl.c</text>
</a>
</g>
</g>
<!-- Node1&#45;&gt;Node7 -->
<g id="edge28" class="edge">
<title>Node1&#45;&gt;Node7</title>
<path fill="none" stroke="midnightblue" d="M694.67,-407.7C819.84,-392.44 1038,-355.63 1038,-284.5 1038,-284.5 1038,-284.5 1038,-148.5 1038,-60.45 921.48,-31.11 840.68,-21.35"/>
<polygon fill="midnightblue" stroke="midnightblue" points="694.22,-404.23 684.71,-408.9 695.05,-411.18 694.22,-404.23"/>
</g>
<!-- Node8 -->
<g id="node8" class="node">
<title>Node8</title>
<g id="a_node8"><a xlink:href="main_8c.html" target="_top" xlink:title=" ">
<polygon fill="white" stroke="black" points="411.5,-0.5 411.5,-30.5 562.5,-30.5 562.5,-0.5 411.5,-0.5"/>
<text text-anchor="start" x="419.5" y="-18.5" font-family="Helvetica,sans-Serif" font-size="10.00">/home/bugy/projs/lobotomy</text>
<text text-anchor="middle" x="487" y="-7.5" font-family="Helvetica,sans-Serif" font-size="10.00">/src/main.c</text>
</a>
</g>
</g>
<!-- Node1&#45;&gt;Node8 -->
<g id="edge29" class="edge">
<title>Node1&#45;&gt;Node8</title>
<path fill="none" stroke="midnightblue" d="M523.37,-415.59C355.63,-411.49 0,-390.32 0,-284.5 0,-284.5 0,-284.5 0,-148.5 0,-64.3 274.65,-32.12 411.44,-21.31"/>
<polygon fill="midnightblue" stroke="midnightblue" points="523.33,-419.09 533.41,-415.82 523.49,-412.1 523.33,-419.09"/>
</g>
<!-- Node12 -->
<g id="node12" class="node">
<title>Node12</title>
<g id="a_node12"><a xlink:href="tgc_8c.html" target="_top" xlink:title=" ">
<polygon fill="white" stroke="black" points="481.5,-201.5 481.5,-231.5 632.5,-231.5 632.5,-201.5 481.5,-201.5"/>
<text text-anchor="start" x="489.5" y="-219.5" font-family="Helvetica,sans-Serif" font-size="10.00">/home/bugy/projs/lobotomy</text>
<text text-anchor="middle" x="557" y="-208.5" font-family="Helvetica,sans-Serif" font-size="10.00">/src/tgc.c</text>
</a>
</g>
</g>
<!-- Node1&#45;&gt;Node12 -->
<g id="edge30" class="edge">
<title>Node1&#45;&gt;Node12</title>
<path fill="none" stroke="midnightblue" d="M602.29,-392.56C595.69,-368.85 585.41,-331.48 577,-299 570.9,-275.45 564.25,-247.94 560.36,-231.66"/>
<polygon fill="midnightblue" stroke="midnightblue" points="598.98,-393.73 605.04,-402.42 605.73,-391.85 598.98,-393.73"/>
</g>
<!-- Node13 -->
<g id="node13" class="node">
<title>Node13</title>
<g id="a_node13"><a xlink:href="l__std_8h.html" target="_top" xlink:title=" ">
<polygon fill="white" stroke="black" points="858.5,-201.5 858.5,-231.5 1009.5,-231.5 1009.5,-201.5 858.5,-201.5"/>
<text text-anchor="start" x="866.5" y="-219.5" font-family="Helvetica,sans-Serif" font-size="10.00">/home/bugy/projs/lobotomy</text>
<text text-anchor="middle" x="934" y="-208.5" font-family="Helvetica,sans-Serif" font-size="10.00">/src/l_std.h</text>
</a>
</g>
</g>
<!-- Node1&#45;&gt;Node13 -->
<g id="edge20" class="edge">
<title>Node1&#45;&gt;Node13</title>
<path fill="none" stroke="midnightblue" d="M653.25,-398.54C673.95,-389.6 698.69,-378.11 720,-366 796.47,-322.54 880.27,-259.4 916.12,-231.57"/>
<polygon fill="midnightblue" stroke="midnightblue" points="651.87,-395.33 644.05,-402.47 654.62,-401.77 651.87,-395.33"/>
</g>
<!-- Node14 -->
<g id="node14" class="node">
<title>Node14</title>
<g id="a_node14"><a xlink:href="eval_8h.html" target="_top" xlink:title=" ">
<polygon fill="white" stroke="black" points="650.5,-201.5 650.5,-231.5 801.5,-231.5 801.5,-201.5 650.5,-201.5"/>
<text text-anchor="start" x="658.5" y="-219.5" font-family="Helvetica,sans-Serif" font-size="10.00">/home/bugy/projs/lobotomy</text>
<text text-anchor="middle" x="726" y="-208.5" font-family="Helvetica,sans-Serif" font-size="10.00">/src/eval.h</text>
</a>
</g>
</g>
<!-- Node1&#45;&gt;Node14 -->
<g id="edge23" class="edge">
<title>Node1&#45;&gt;Node14</title>
<path fill="none" stroke="midnightblue" d="M645.84,-397.17C678.99,-377.46 725.54,-343.5 746,-299 756.29,-276.63 744.27,-248.28 734.92,-231.59"/>
<polygon fill="midnightblue" stroke="midnightblue" points="643.79,-394.31 636.88,-402.34 647.29,-400.37 643.79,-394.31"/>
</g>
<!-- Node15 -->
<g id="node15" class="node">
<title>Node15</title>
<g id="a_node15"><a xlink:href="io_8c.html" target="_top" xlink:title=" ">
<polygon fill="white" stroke="black" points="585.5,-268.5 585.5,-298.5 736.5,-298.5 736.5,-268.5 585.5,-268.5"/>
<text text-anchor="start" x="593.5" y="-286.5" font-family="Helvetica,sans-Serif" font-size="10.00">/home/bugy/projs/lobotomy</text>
<text text-anchor="middle" x="661" y="-275.5" font-family="Helvetica,sans-Serif" font-size="10.00">/src/io.c</text>
</a>
</g>
</g>
<!-- Node1&#45;&gt;Node15 -->
<g id="edge26" class="edge">
<title>Node1&#45;&gt;Node15</title>
<path fill="none" stroke="midnightblue" d="M618.35,-392.75C629.17,-365.29 646.63,-320.99 655.48,-298.52"/>
<polygon fill="midnightblue" stroke="midnightblue" points="614.97,-391.79 614.56,-402.37 621.49,-394.35 614.97,-391.79"/>
</g>
<!-- Node16 -->
<g id="node16" class="node">
<title>Node16</title>
<g id="a_node16"><a xlink:href="vm_8h.html" target="_top" xlink:title=" ">
<polygon fill="white" stroke="black" points="1066.5,-335.5 1066.5,-365.5 1217.5,-365.5 1217.5,-335.5 1066.5,-335.5"/>
<text text-anchor="start" x="1074.5" y="-353.5" font-family="Helvetica,sans-Serif" font-size="10.00">/home/bugy/projs/lobotomy</text>
<text text-anchor="middle" x="1142" y="-342.5" font-family="Helvetica,sans-Serif" font-size="10.00">/src/vm.h</text>
</a>
</g>
</g>
<!-- Node1&#45;&gt;Node16 -->
<g id="edge31" class="edge">
<title>Node1&#45;&gt;Node16</title>
<path fill="none" stroke="midnightblue" d="M694.86,-407.9C784.21,-398.67 928.13,-383.03 1052,-366 1056.7,-365.35 1061.54,-364.66 1066.42,-363.94"/>
<polygon fill="midnightblue" stroke="midnightblue" points="694.36,-404.43 684.78,-408.94 695.08,-411.4 694.36,-404.43"/>
</g>
<!-- Node2&#45;&gt;Node3 -->
<g id="edge2" class="edge">
<title>Node2&#45;&gt;Node3</title>
<path fill="none" stroke="midnightblue" d="M415,-325.11C415,-316.15 415,-306.32 415,-298.58"/>
<polygon fill="midnightblue" stroke="midnightblue" points="411.5,-325.4 415,-335.4 418.5,-325.4 411.5,-325.4"/>
</g>
<!-- Node3&#45;&gt;Node4 -->
<g id="edge3" class="edge">
<title>Node3&#45;&gt;Node4</title>
<path fill="none" stroke="midnightblue" d="M374.87,-264.13C352.31,-253.8 324.58,-241.11 303.75,-231.58"/>
<polygon fill="midnightblue" stroke="midnightblue" points="373.64,-267.42 384.19,-268.4 376.55,-261.05 373.64,-267.42"/>
</g>
<!-- Node6 -->
<g id="node6" class="node">
<title>Node6</title>
<g id="a_node6"><a xlink:href="eval_8c.html" target="_top" xlink:title=" ">
<polygon fill="white" stroke="black" points="547.5,-67.5 547.5,-97.5 698.5,-97.5 698.5,-67.5 547.5,-67.5"/>
<text text-anchor="start" x="555.5" y="-85.5" font-family="Helvetica,sans-Serif" font-size="10.00">/home/bugy/projs/lobotomy</text>
<text text-anchor="middle" x="623" y="-74.5" font-family="Helvetica,sans-Serif" font-size="10.00">/src/eval.c</text>
</a>
</g>
</g>
<!-- Node3&#45;&gt;Node6 -->
<g id="edge14" class="edge">
<title>Node3&#45;&gt;Node6</title>
<path fill="none" stroke="midnightblue" d="M415.44,-258.29C417.11,-240.01 422.4,-215.66 438,-201 493,-149.28 550.21,-217.97 604,-165 622.01,-147.26 624.32,-115.99 623.95,-97.77"/>
<polygon fill="midnightblue" stroke="midnightblue" points="411.94,-258.28 414.82,-268.48 418.92,-258.71 411.94,-258.28"/>
</g>
<!-- Node3&#45;&gt;Node8 -->
<g id="edge16" class="edge">
<title>Node3&#45;&gt;Node8</title>
<path fill="none" stroke="midnightblue" d="M414.18,-258.02C413.98,-241.78 414.39,-220.03 417,-201 426.18,-134.14 462.69,-60.92 479.02,-30.73"/>
<polygon fill="midnightblue" stroke="midnightblue" points="410.68,-258.36 414.39,-268.29 417.68,-258.22 410.68,-258.36"/>
</g>
<!-- Node9 -->
<g id="node9" class="node">
<title>Node9</title>
<g id="a_node9"><a xlink:href="l__std_8c.html" target="_top" xlink:title=" ">
<polygon fill="white" stroke="black" points="689.5,-134.5 689.5,-164.5 840.5,-164.5 840.5,-134.5 689.5,-134.5"/>
<text text-anchor="start" x="697.5" y="-152.5" font-family="Helvetica,sans-Serif" font-size="10.00">/home/bugy/projs/lobotomy</text>
<text text-anchor="middle" x="765" y="-141.5" font-family="Helvetica,sans-Serif" font-size="10.00">/src/l_std.c</text>
</a>
</g>
</g>
<!-- Node3&#45;&gt;Node9 -->
<g id="edge15" class="edge">
<title>Node3&#45;&gt;Node9</title>
<path fill="none" stroke="midnightblue" d="M425,-259.24C434.35,-240.43 450.15,-214.87 472,-201 490.14,-189.49 608.63,-171.59 689.26,-160.48"/>
<polygon fill="midnightblue" stroke="midnightblue" points="421.8,-257.83 420.7,-268.37 428.13,-260.81 421.8,-257.83"/>
</g>
<!-- Node3&#45;&gt;Node12 -->
<g id="edge17" class="edge">
<title>Node3&#45;&gt;Node12</title>
<path fill="none" stroke="midnightblue" d="M455.13,-264.13C477.69,-253.8 505.42,-241.11 526.25,-231.58"/>
<polygon fill="midnightblue" stroke="midnightblue" points="453.45,-261.05 445.81,-268.4 456.36,-267.42 453.45,-261.05"/>
</g>
<!-- Node5 -->
<g id="node5" class="node">
<title>Node5</title>
<g id="a_node5"><a xlink:href="parse_8h.html" target="_top" xlink:title=" ">
<polygon fill="white" stroke="black" points="443.5,-134.5 443.5,-164.5 594.5,-164.5 594.5,-134.5 443.5,-134.5"/>
<text text-anchor="start" x="451.5" y="-152.5" font-family="Helvetica,sans-Serif" font-size="10.00">/home/bugy/projs/lobotomy</text>
<text text-anchor="middle" x="519" y="-141.5" font-family="Helvetica,sans-Serif" font-size="10.00">/src/parse.h</text>
</a>
</g>
</g>
<!-- Node4&#45;&gt;Node5 -->
<g id="edge4" class="edge">
<title>Node4&#45;&gt;Node5</title>
<path fill="none" stroke="midnightblue" d="M335.76,-198.92C375.9,-188.31 427.42,-174.7 465.6,-164.61"/>
<polygon fill="midnightblue" stroke="midnightblue" points="334.85,-195.54 326.08,-201.48 336.64,-202.31 334.85,-195.54"/>
</g>
<!-- Node4&#45;&gt;Node6 -->
<g id="edge8" class="edge">
<title>Node4&#45;&gt;Node6</title>
<path fill="none" stroke="midnightblue" d="M305.72,-196.39C337.62,-178.38 387.92,-151.6 434,-134 473.98,-118.73 520.39,-106.26 557.21,-97.53"/>
<polygon fill="midnightblue" stroke="midnightblue" points="303.79,-193.46 296.83,-201.45 307.25,-199.55 303.79,-193.46"/>
</g>
<!-- Node4&#45;&gt;Node9 -->
<g id="edge9" class="edge">
<title>Node4&#45;&gt;Node9</title>
<path fill="none" stroke="midnightblue" d="M358.52,-204.2C451.94,-191.86 600.14,-172.28 689.43,-160.48"/>
<polygon fill="midnightblue" stroke="midnightblue" points="357.98,-200.74 348.53,-205.52 358.9,-207.68 357.98,-200.74"/>
</g>
<!-- Node10 -->
<g id="node10" class="node">
<title>Node10</title>
<g id="a_node10"><a xlink:href="lsdl_8c.html" target="_top" xlink:title=" ">
<polygon fill="white" stroke="black" points="197.5,-134.5 197.5,-164.5 348.5,-164.5 348.5,-134.5 197.5,-134.5"/>
<text text-anchor="start" x="205.5" y="-152.5" font-family="Helvetica,sans-Serif" font-size="10.00">/home/bugy/projs/lobotomy</text>
<text text-anchor="middle" x="273" y="-141.5" font-family="Helvetica,sans-Serif" font-size="10.00">/src/lsdl.c</text>
</a>
</g>
</g>
<!-- Node4&#45;&gt;Node10 -->
<g id="edge12" class="edge">
<title>Node4&#45;&gt;Node10</title>
<path fill="none" stroke="midnightblue" d="M273,-191.11C273,-182.15 273,-172.32 273,-164.58"/>
<polygon fill="midnightblue" stroke="midnightblue" points="269.5,-191.4 273,-201.4 276.5,-191.4 269.5,-191.4"/>
</g>
<!-- Node11 -->
<g id="node11" class="node">
<title>Node11</title>
<g id="a_node11"><a xlink:href="sample__module_8c.html" target="_top" xlink:title=" ">
<polygon fill="white" stroke="black" points="28.5,-134.5 28.5,-164.5 179.5,-164.5 179.5,-134.5 28.5,-134.5"/>
<text text-anchor="start" x="36.5" y="-152.5" font-family="Helvetica,sans-Serif" font-size="10.00">/home/bugy/projs/lobotomy</text>
<text text-anchor="middle" x="104" y="-141.5" font-family="Helvetica,sans-Serif" font-size="10.00">/src/sample_module.c</text>
</a>
</g>
</g>
<!-- Node4&#45;&gt;Node11 -->
<g id="edge13" class="edge">
<title>Node4&#45;&gt;Node11</title>
<path fill="none" stroke="midnightblue" d="M226.67,-197.68C199.57,-187.26 165.83,-174.28 140.6,-164.58"/>
<polygon fill="midnightblue" stroke="midnightblue" points="225.74,-201.07 236.33,-201.4 228.25,-194.54 225.74,-201.07"/>
</g>
<!-- Node5&#45;&gt;Node6 -->
<g id="edge5" class="edge">
<title>Node5&#45;&gt;Node6</title>
<path fill="none" stroke="midnightblue" d="M550.18,-129.02C566.36,-118.9 585.77,-106.77 600.48,-97.58"/>
<polygon fill="midnightblue" stroke="midnightblue" points="548.19,-126.13 541.57,-134.4 551.9,-132.06 548.19,-126.13"/>
</g>
<!-- Node6&#45;&gt;Node7 -->
<g id="edge6" class="edge">
<title>Node6&#45;&gt;Node7</title>
<path fill="none" stroke="midnightblue" d="M663.13,-63.13C685.69,-52.8 713.42,-40.11 734.25,-30.58"/>
<polygon fill="midnightblue" stroke="midnightblue" points="661.45,-60.05 653.81,-67.4 664.36,-66.42 661.45,-60.05"/>
</g>
<!-- Node6&#45;&gt;Node8 -->
<g id="edge7" class="edge">
<title>Node6&#45;&gt;Node8</title>
<path fill="none" stroke="midnightblue" d="M584.28,-62.99C562.72,-52.69 536.31,-40.07 516.45,-30.58"/>
<polygon fill="midnightblue" stroke="midnightblue" points="582.96,-66.24 593.49,-67.4 585.98,-59.93 582.96,-66.24"/>
</g>
<!-- Node9&#45;&gt;Node7 -->
<g id="edge10" class="edge">
<title>Node9&#45;&gt;Node7</title>
<path fill="none" stroke="midnightblue" d="M765,-124.02C765,-96.51 765,-52.79 765,-30.52"/>
<polygon fill="midnightblue" stroke="midnightblue" points="761.5,-124.37 765,-134.37 768.5,-124.37 761.5,-124.37"/>
</g>
<!-- Node9&#45;&gt;Node8 -->
<g id="edge11" class="edge">
<title>Node9&#45;&gt;Node8</title>
<path fill="none" stroke="midnightblue" d="M754.64,-125.23C745.15,-106.63 729.34,-81.37 708,-67 665.07,-38.1 607.93,-25.56 562.51,-20.21"/>
<polygon fill="midnightblue" stroke="midnightblue" points="751.51,-126.79 759.02,-134.25 757.8,-123.73 751.51,-126.79"/>
</g>
<!-- Node13&#45;&gt;Node6 -->
<g id="edge21" class="edge">
<title>Node13&#45;&gt;Node6</title>
<path fill="none" stroke="midnightblue" d="M917.06,-193.25C901.62,-174.56 877.14,-148.64 850,-134 803.27,-108.8 744.65,-96.16 698.69,-89.83"/>
<polygon fill="midnightblue" stroke="midnightblue" points="914.5,-195.65 923.49,-201.26 919.96,-191.27 914.5,-195.65"/>
</g>
<!-- Node13&#45;&gt;Node9 -->
<g id="edge22" class="edge">
<title>Node13&#45;&gt;Node9</title>
<path fill="none" stroke="midnightblue" d="M887.67,-197.68C860.57,-187.26 826.83,-174.28 801.6,-164.58"/>
<polygon fill="midnightblue" stroke="midnightblue" points="886.74,-201.07 897.33,-201.4 889.25,-194.54 886.74,-201.07"/>
</g>
<!-- Node14&#45;&gt;Node6 -->
<g id="edge24" class="edge">
<title>Node14&#45;&gt;Node6</title>
<path fill="none" stroke="midnightblue" d="M705.67,-193.74C697.75,-185 688.74,-174.7 681,-165 662.81,-142.19 643.52,-114.22 632.4,-97.68"/>
<polygon fill="midnightblue" stroke="midnightblue" points="703.24,-196.27 712.57,-201.28 708.4,-191.54 703.24,-196.27"/>
</g>
<!-- Node14&#45;&gt;Node9 -->
<g id="edge25" class="edge">
<title>Node14&#45;&gt;Node9</title>
<path fill="none" stroke="midnightblue" d="M739.75,-192.58C745.36,-183.24 751.65,-172.75 756.55,-164.58"/>
<polygon fill="midnightblue" stroke="midnightblue" points="736.61,-191.02 734.46,-201.4 742.61,-194.62 736.61,-191.02"/>
</g>
<!-- Node15&#45;&gt;Node9 -->
<g id="edge27" class="edge">
<title>Node15&#45;&gt;Node9</title>
<path fill="none" stroke="midnightblue" d="M746.71,-272.73C771.46,-265.48 795.85,-253.08 811,-232 827.02,-209.7 801.84,-181.33 782.88,-164.61"/>
<polygon fill="midnightblue" stroke="midnightblue" points="745.62,-269.4 736.86,-275.36 747.42,-276.17 745.62,-269.4"/>
</g>
</g>
</svg>
