<?xml version="1.0" encoding="UTF-8" standalone="no"?>
<!DOCTYPE svg PUBLIC "-//W3C//DTD SVG 1.1//EN"
 "http://www.w3.org/Graphics/SVG/1.1/DTD/svg11.dtd">
<!-- Generated by graphviz version 2.43.0 (0)
 -->
<!-- Title: /home/bugy/projs/lobotomy/src/os.h Pages: 1 -->
<svg width="1050pt" height="374pt"
 viewBox="0.00 0.00 1049.75 374.00" xmlns="http://www.w3.org/2000/svg" xmlns:xlink="http://www.w3.org/1999/xlink">
<g id="graph0" class="graph" transform="scale(1 1) rotate(0) translate(4 370)">
<title>/home/bugy/projs/lobotomy/src/os.h</title>
<polygon fill="white" stroke="transparent" points="-4,4 -4,-370 1045.75,-370 1045.75,4 -4,4"/>
<!-- Node1 -->
<g id="node1" class="node">
<title>Node1</title>
<g id="a_node1"><a xlink:title=" ">
<polygon fill="#bfbfbf" stroke="black" points="260.75,-335.5 260.75,-365.5 411.75,-365.5 411.75,-335.5 260.75,-335.5"/>
<text text-anchor="start" x="268.75" y="-353.5" font-family="Helvetica,sans-Serif" font-size="10.00">/home/bugy/projs/lobotomy</text>
<text text-anchor="middle" x="336.25" y="-342.5" font-family="Helvetica,sans-Serif" font-size="10.00">/src/os.h</text>
</a>
</g>
</g>
<!-- Node2 -->
<g id="node2" class="node">
<title>Node2</title>
<g id="a_node2"><a xlink:href="util_8h.html" target="_top" xlink:title=" ">
<polygon fill="white" stroke="black" points="260.75,-268.5 260.75,-298.5 411.75,-298.5 411.75,-268.5 260.75,-268.5"/>
<text text-anchor="start" x="268.75" y="-286.5" font-family="Helvetica,sans-Serif" font-size="10.00">/home/bugy/projs/lobotomy</text>
<text text-anchor="middle" x="336.25" y="-275.5" font-family="Helvetica,sans-Serif" font-size="10.00">/src/util.h</text>
</a>
</g>
</g>
<!-- Node1&#45;&gt;Node2 -->
<g id="edge1" class="edge">
<title>Node1&#45;&gt;Node2</title>
<path fill="none" stroke="midnightblue" d="M336.25,-325.11C336.25,-316.15 336.25,-306.32 336.25,-298.58"/>
<polygon fill="midnightblue" stroke="midnightblue" points="332.75,-325.4 336.25,-335.4 339.75,-325.4 332.75,-325.4"/>
</g>
<!-- Node3 -->
<g id="node3" class="node">
<title>Node3</title>
<g id="a_node3"><a xlink:href="eval_8c.html" target="_top" xlink:title=" ">
<polygon fill="white" stroke="black" points="34.75,-67.5 34.75,-97.5 185.75,-97.5 185.75,-67.5 34.75,-67.5"/>
<text text-anchor="start" x="42.75" y="-85.5" font-family="Helvetica,sans-Serif" font-size="10.00">/home/bugy/projs/lobotomy</text>
<text text-anchor="middle" x="110.25" y="-74.5" font-family="Helvetica,sans-Serif" font-size="10.00">/src/eval.c</text>
</a>
</g>
</g>
<!-- Node2&#45;&gt;Node3 -->
<g id="edge2" class="edge">
<title>Node2&#45;&gt;Node3</title>
<path fill="none" stroke="midnightblue" d="M250.37,-277.62C180.01,-271.71 88.16,-258.95 63.25,-232 33.62,-199.93 38.87,-174.06 56.25,-134 62.74,-119.05 76.08,-106.5 87.88,-97.65"/>
<polygon fill="midnightblue" stroke="midnightblue" points="250.33,-281.13 260.58,-278.44 250.89,-274.15 250.33,-281.13"/>
</g>
<!-- Node4 -->
<g id="node4" class="node">
<title>Node4</title>
<g id="a_node4"><a xlink:href="l__sdl_8c.html" target="_top" xlink:title=" ">
<polygon fill="white" stroke="black" points="34.75,-0.5 34.75,-30.5 185.75,-30.5 185.75,-0.5 34.75,-0.5"/>
<text text-anchor="start" x="42.75" y="-18.5" font-family="Helvetica,sans-Serif" font-size="10.00">/home/bugy/projs/lobotomy</text>
<text text-anchor="middle" x="110.25" y="-7.5" font-family="Helvetica,sans-Serif" font-size="10.00">/src/l_sdl.c</text>
</a>
</g>
</g>
<!-- Node2&#45;&gt;Node4 -->
<g id="edge15" class="edge">
<title>Node2&#45;&gt;Node4</title>
<path fill="none" stroke="midnightblue" d="M250.56,-278.94C173.88,-273.85 69.35,-261.56 41.25,-232 -9.51,-178.6 -11.19,-131.04 25.25,-67 34.76,-50.29 52.22,-38.54 68.85,-30.6"/>
<polygon fill="midnightblue" stroke="midnightblue" points="250.51,-282.45 260.71,-279.59 250.95,-275.46 250.51,-282.45"/>
</g>
<!-- Node5 -->
<g id="node5" class="node">
<title>Node5</title>
<g id="a_node5"><a xlink:href="main_8c.html" target="_top" xlink:title=" ">
<polygon fill="white" stroke="black" points="222.75,-0.5 222.75,-30.5 373.75,-30.5 373.75,-0.5 222.75,-0.5"/>
<text text-anchor="start" x="230.75" y="-18.5" font-family="Helvetica,sans-Serif" font-size="10.00">/home/bugy/projs/lobotomy</text>
<text text-anchor="middle" x="298.25" y="-7.5" font-family="Helvetica,sans-Serif" font-size="10.00">/src/main.c</text>
</a>
</g>
</g>
<!-- Node2&#45;&gt;Node5 -->
<g id="edge17" class="edge">
<title>Node2&#45;&gt;Node5</title>
<path fill="none" stroke="midnightblue" d="M346.14,-258.72C353.41,-242.11 363.94,-219.66 375.25,-201 385.62,-183.9 395.93,-183.97 402.25,-165 406.61,-151.93 404.15,-147.65 402.25,-134 397.99,-103.34 402.12,-91.54 383.25,-67 370.91,-50.94 351.88,-38.96 334.96,-30.71"/>
<polygon fill="midnightblue" stroke="midnightblue" points="342.79,-257.65 342.07,-268.22 349.23,-260.41 342.79,-257.65"/>
</g>
<!-- Node6 -->
<g id="node6" class="node">
<title>Node6</title>
<g id="a_node6"><a xlink:href="lexer_8h.html" target="_top" xlink:title=" ">
<polygon fill="white" stroke="black" points="72.75,-201.5 72.75,-231.5 223.75,-231.5 223.75,-201.5 72.75,-201.5"/>
<text text-anchor="start" x="80.75" y="-219.5" font-family="Helvetica,sans-Serif" font-size="10.00">/home/bugy/projs/lobotomy</text>
<text text-anchor="middle" x="148.25" y="-208.5" font-family="Helvetica,sans-Serif" font-size="10.00">/src/lexer.h</text>
</a>
</g>
</g>
<!-- Node2&#45;&gt;Node6 -->
<g id="edge5" class="edge">
<title>Node2&#45;&gt;Node6</title>
<path fill="none" stroke="midnightblue" d="M285.9,-265.09C255.55,-254.6 217.4,-241.41 188.97,-231.58"/>
<polygon fill="midnightblue" stroke="midnightblue" points="284.86,-268.44 295.46,-268.4 287.15,-261.82 284.86,-268.44"/>
</g>
<!-- Node7 -->
<g id="node7" class="node">
<title>Node7</title>
<g id="a_node7"><a xlink:href="parse_8h.html" target="_top" xlink:title=" ">
<polygon fill="white" stroke="black" points="72.75,-134.5 72.75,-164.5 223.75,-164.5 223.75,-134.5 72.75,-134.5"/>
<text text-anchor="start" x="80.75" y="-152.5" font-family="Helvetica,sans-Serif" font-size="10.00">/home/bugy/projs/lobotomy</text>
<text text-anchor="middle" x="148.25" y="-141.5" font-family="Helvetica,sans-Serif" font-size="10.00">/src/parse.h</text>
</a>
</g>
</g>
<!-- Node2&#45;&gt;Node7 -->
<g id="edge9" class="edge">
<title>Node2&#45;&gt;Node7</title>
<path fill="none" stroke="midnightblue" d="M311.79,-261.62C291.35,-244.56 261.15,-220.2 233.25,-201 214.02,-187.77 191.23,-174.34 174.1,-164.66"/>
<polygon fill="midnightblue" stroke="midnightblue" points="309.74,-264.47 319.65,-268.23 314.25,-259.12 309.74,-264.47"/>
</g>
<!-- Node8 -->
<g id="node8" class="node">
<title>Node8</title>
<g id="a_node8"><a xlink:href="hashmap_8h.html" target="_top" xlink:title=" ">
<polygon fill="white" stroke="black" points="383.75,-201.5 383.75,-231.5 534.75,-231.5 534.75,-201.5 383.75,-201.5"/>
<text text-anchor="start" x="391.75" y="-219.5" font-family="Helvetica,sans-Serif" font-size="10.00">/home/bugy/projs/lobotomy</text>
<text text-anchor="middle" x="459.25" y="-208.5" font-family="Helvetica,sans-Serif" font-size="10.00">/src/hashmap.h</text>
</a>
</g>
</g>
<!-- Node2&#45;&gt;Node8 -->
<g id="edge10" class="edge">
<title>Node2&#45;&gt;Node8</title>
<path fill="none" stroke="midnightblue" d="M371.8,-263.71C391.2,-253.46 414.82,-240.98 432.62,-231.58"/>
<polygon fill="midnightblue" stroke="midnightblue" points="370.15,-260.63 362.94,-268.4 373.42,-266.82 370.15,-260.63"/>
</g>
<!-- Node9 -->
<g id="node9" class="node">
<title>Node9</title>
<g id="a_node9"><a xlink:href="io_8c.html" target="_top" xlink:title=" ">
<polygon fill="white" stroke="black" points="241.75,-134.5 241.75,-164.5 392.75,-164.5 392.75,-134.5 241.75,-134.5"/>
<text text-anchor="start" x="249.75" y="-152.5" font-family="Helvetica,sans-Serif" font-size="10.00">/home/bugy/projs/lobotomy</text>
<text text-anchor="middle" x="317.25" y="-141.5" font-family="Helvetica,sans-Serif" font-size="10.00">/src/io.c</text>
</a>
</g>
</g>
<!-- Node2&#45;&gt;Node9 -->
<g id="edge11" class="edge">
<title>Node2&#45;&gt;Node9</title>
<path fill="none" stroke="midnightblue" d="M332.78,-258.39C328.83,-230.9 322.49,-186.89 319.27,-164.52"/>
<polygon fill="midnightblue" stroke="midnightblue" points="329.33,-258.97 334.22,-268.37 336.26,-257.98 329.33,-258.97"/>
</g>
<!-- Node11 -->
<g id="node11" class="node">
<title>Node11</title>
<g id="a_node11"><a xlink:href="lsdl_8c.html" target="_top" xlink:title=" ">
<polygon fill="white" stroke="black" points="552.75,-201.5 552.75,-231.5 703.75,-231.5 703.75,-201.5 552.75,-201.5"/>
<text text-anchor="start" x="560.75" y="-219.5" font-family="Helvetica,sans-Serif" font-size="10.00">/home/bugy/projs/lobotomy</text>
<text text-anchor="middle" x="628.25" y="-208.5" font-family="Helvetica,sans-Serif" font-size="10.00">/src/lsdl.c</text>
</a>
</g>
</g>
<!-- Node2&#45;&gt;Node11 -->
<g id="edge16" class="edge">
<title>Node2&#45;&gt;Node11</title>
<path fill="none" stroke="midnightblue" d="M409.26,-266.25C457.21,-255.58 519.3,-241.75 565.11,-231.55"/>
<polygon fill="midnightblue" stroke="midnightblue" points="408.25,-262.89 399.25,-268.48 409.77,-269.72 408.25,-262.89"/>
</g>
<!-- Node12 -->
<g id="node12" class="node">
<title>Node12</title>
<g id="a_node12"><a xlink:href="tui_8h.html" target="_top" xlink:title=" ">
<polygon fill="white" stroke="black" points="721.75,-201.5 721.75,-231.5 872.75,-231.5 872.75,-201.5 721.75,-201.5"/>
<text text-anchor="start" x="729.75" y="-219.5" font-family="Helvetica,sans-Serif" font-size="10.00">/home/bugy/projs/lobotomy</text>
<text text-anchor="middle" x="797.25" y="-208.5" font-family="Helvetica,sans-Serif" font-size="10.00">/src/tui.h</text>
</a>
</g>
</g>
<!-- Node2&#45;&gt;Node12 -->
<g id="edge18" class="edge">
<title>Node2&#45;&gt;Node12</title>
<path fill="none" stroke="midnightblue" d="M421.9,-271.96C498.4,-262.33 613.46,-247.29 713.25,-232 716.03,-231.57 718.86,-231.13 721.72,-230.68"/>
<polygon fill="midnightblue" stroke="midnightblue" points="421.32,-268.51 411.84,-273.23 422.19,-275.45 421.32,-268.51"/>
</g>
<!-- Node13 -->
<g id="node13" class="node">
<title>Node13</title>
<g id="a_node13"><a xlink:href="vm_8h.html" target="_top" xlink:title=" ">
<polygon fill="white" stroke="black" points="890.75,-201.5 890.75,-231.5 1041.75,-231.5 1041.75,-201.5 890.75,-201.5"/>
<text text-anchor="start" x="898.75" y="-219.5" font-family="Helvetica,sans-Serif" font-size="10.00">/home/bugy/projs/lobotomy</text>
<text text-anchor="middle" x="966.25" y="-208.5" font-family="Helvetica,sans-Serif" font-size="10.00">/src/vm.h</text>
</a>
</g>
</g>
<!-- Node2&#45;&gt;Node13 -->
<g id="edge19" class="edge">
<title>Node2&#45;&gt;Node13</title>
<path fill="none" stroke="midnightblue" d="M422.15,-276.66C529.9,-268.84 720.2,-253.45 882.25,-232 885.04,-231.63 887.88,-231.24 890.74,-230.82"/>
<polygon fill="midnightblue" stroke="midnightblue" points="421.7,-273.18 411.98,-277.39 422.2,-280.16 421.7,-273.18"/>
</g>
<!-- Node3&#45;&gt;Node4 -->
<g id="edge3" class="edge">
<title>Node3&#45;&gt;Node4</title>
<path fill="none" stroke="midnightblue" d="M110.25,-57.11C110.25,-48.15 110.25,-38.32 110.25,-30.58"/>
<polygon fill="midnightblue" stroke="midnightblue" points="106.75,-57.4 110.25,-67.4 113.75,-57.4 106.75,-57.4"/>
</g>
<!-- Node3&#45;&gt;Node5 -->
<g id="edge4" class="edge">
<title>Node3&#45;&gt;Node5</title>
<path fill="none" stroke="midnightblue" d="M160.6,-64.09C190.95,-53.6 229.1,-40.41 257.54,-30.58"/>
<polygon fill="midnightblue" stroke="midnightblue" points="159.35,-60.82 151.05,-67.4 161.64,-67.44 159.35,-60.82"/>
</g>
<!-- Node6&#45;&gt;Node3 -->
<g id="edge6" class="edge">
<title>Node6&#45;&gt;Node3</title>
<path fill="none" stroke="midnightblue" d="M97.86,-196.75C84.2,-189.08 71.05,-178.71 63.25,-165 49.76,-141.29 73.87,-113.83 92.27,-97.61"/>
<polygon fill="midnightblue" stroke="midnightblue" points="96.36,-199.91 106.85,-201.4 99.58,-193.7 96.36,-199.91"/>
</g>
<!-- Node6&#45;&gt;Node7 -->
<g id="edge7" class="edge">
<title>Node6&#45;&gt;Node7</title>
<path fill="none" stroke="midnightblue" d="M148.25,-191.11C148.25,-182.15 148.25,-172.32 148.25,-164.58"/>
<polygon fill="midnightblue" stroke="midnightblue" points="144.75,-191.4 148.25,-201.4 151.75,-191.4 144.75,-191.4"/>
</g>
<!-- Node7&#45;&gt;Node3 -->
<g id="edge8" class="edge">
<title>Node7&#45;&gt;Node3</title>
<path fill="none" stroke="midnightblue" d="M134.85,-125.58C129.39,-116.24 123.26,-105.75 118.48,-97.58"/>
<polygon fill="midnightblue" stroke="midnightblue" points="131.94,-127.53 140.01,-134.4 137.98,-124 131.94,-127.53"/>
</g>
<!-- Node10 -->
<g id="node10" class="node">
<title>Node10</title>
<g id="a_node10"><a xlink:href="l__std_8c.html" target="_top" xlink:title=" ">
<polygon fill="white" stroke="black" points="222.75,-67.5 222.75,-97.5 373.75,-97.5 373.75,-67.5 222.75,-67.5"/>
<text text-anchor="start" x="230.75" y="-85.5" font-family="Helvetica,sans-Serif" font-size="10.00">/home/bugy/projs/lobotomy</text>
<text text-anchor="middle" x="298.25" y="-74.5" font-family="Helvetica,sans-Serif" font-size="10.00">/src/l_std.c</text>
</a>
</g>
</g>
<!-- Node9&#45;&gt;Node10 -->
<g id="edge12" class="edge">
<title>Node9&#45;&gt;Node10</title>
<path fill="none" stroke="midnightblue" d="M310.29,-124.7C307.63,-115.59 304.68,-105.49 302.37,-97.58"/>
<polygon fill="midnightblue" stroke="midnightblue" points="306.96,-125.78 313.13,-134.4 313.68,-123.82 306.96,-125.78"/>
</g>
<!-- Node10&#45;&gt;Node4 -->
<g id="edge13" class="edge">
<title>Node10&#45;&gt;Node4</title>
<path fill="none" stroke="midnightblue" d="M247.9,-64.09C217.55,-53.6 179.4,-40.41 150.97,-30.58"/>
<polygon fill="midnightblue" stroke="midnightblue" points="246.86,-67.44 257.46,-67.4 249.15,-60.82 246.86,-67.44"/>
</g>
<!-- Node10&#45;&gt;Node5 -->
<g id="edge14" class="edge">
<title>Node10&#45;&gt;Node5</title>
<path fill="none" stroke="midnightblue" d="M298.25,-57.11C298.25,-48.15 298.25,-38.32 298.25,-30.58"/>
<polygon fill="midnightblue" stroke="midnightblue" points="294.75,-57.4 298.25,-67.4 301.75,-57.4 294.75,-57.4"/>
</g>
</g>
</svg>
