<?xml version="1.0" encoding="UTF-8" standalone="no"?>
<!DOCTYPE svg PUBLIC "-//W3C//DTD SVG 1.1//EN"
 "http://www.w3.org/Graphics/SVG/1.1/DTD/svg11.dtd">
<!-- Generated by graphviz version 2.43.0 (0)
 -->
<!-- Title: /home/bugy/projs/lobotomy/src/parse.h Pages: 1 -->
<svg width="1564pt" height="375pt"
 viewBox="0.00 0.00 1564.00 375.00" xmlns="http://www.w3.org/2000/svg" xmlns:xlink="http://www.w3.org/1999/xlink">
<g id="graph0" class="graph" transform="scale(1 1) rotate(0) translate(4 371)">
<title>/home/bugy/projs/lobotomy/src/parse.h</title>
<polygon fill="white" stroke="transparent" points="-4,4 -4,-371 1560,-371 1560,4 -4,4"/>
<!-- Node1 -->
<g id="node1" class="node">
<title>Node1</title>
<g id="a_node1"><a xlink:title=" ">
<polygon fill="#bfbfbf" stroke="black" points="76.5,-336.5 76.5,-366.5 227.5,-366.5 227.5,-336.5 76.5,-336.5"/>
<text text-anchor="start" x="84.5" y="-354.5" font-family="Helvetica,sans-Serif" font-size="10.00">/home/bugy/projs/lobotomy</text>
<text text-anchor="middle" x="152" y="-343.5" font-family="Helvetica,sans-Serif" font-size="10.00">/src/parse.h</text>
</a>
</g>
</g>
<!-- Node2 -->
<g id="node2" class="node">
<title>Node2</title>
<g id="a_node2"><a xlink:title=" ">
<polygon fill="white" stroke="#bfbfbf" points="154.5,-0.5 154.5,-19.5 209.5,-19.5 209.5,-0.5 154.5,-0.5"/>
<text text-anchor="middle" x="182" y="-7.5" font-family="Helvetica,sans-Serif" font-size="10.00">wchar.h</text>
</a>
</g>
</g>
<!-- Node1&#45;&gt;Node2 -->
<g id="edge1" class="edge">
<title>Node1&#45;&gt;Node2</title>
<path fill="none" stroke="midnightblue" d="M104.32,-336.48C59.75,-320.09 0,-288.19 0,-235 0,-235 0,-235 0,-121 0,-54.2 90.92,-26.88 144.23,-16.6"/>
<polygon fill="midnightblue" stroke="midnightblue" points="145.14,-19.99 154.36,-14.76 143.89,-13.1 145.14,-19.99"/>
</g>
<!-- Node3 -->
<g id="node3" class="node">
<title>Node3</title>
<g id="a_node3"><a xlink:href="lexer_8h.html" target="_top" xlink:title=" ">
<polygon fill="white" stroke="black" points="463,-168.5 463,-187.5 513,-187.5 513,-168.5 463,-168.5"/>
<text text-anchor="middle" x="488" y="-175.5" font-family="Helvetica,sans-Serif" font-size="10.00">lexer.h</text>
</a>
</g>
</g>
<!-- Node1&#45;&gt;Node3 -->
<g id="edge2" class="edge">
<title>Node1&#45;&gt;Node3</title>
<path fill="none" stroke="midnightblue" d="M149.42,-336.35C145.54,-310.13 141.58,-253.95 172,-224 211.04,-185.55 378.36,-179.65 452.45,-178.96"/>
<polygon fill="midnightblue" stroke="midnightblue" points="452.71,-182.46 462.68,-178.89 452.66,-175.46 452.71,-182.46"/>
</g>
<!-- Node10 -->
<g id="node10" class="node">
<title>Node10</title>
<g id="a_node10"><a xlink:href="util_8h.html" target="_top" xlink:title=" ">
<polygon fill="white" stroke="black" points="467.5,-112.5 467.5,-131.5 508.5,-131.5 508.5,-112.5 467.5,-112.5"/>
<text text-anchor="middle" x="488" y="-119.5" font-family="Helvetica,sans-Serif" font-size="10.00">util.h</text>
</a>
</g>
</g>
<!-- Node1&#45;&gt;Node10 -->
<g id="edge29" class="edge">
<title>Node1&#45;&gt;Node10</title>
<path fill="none" stroke="midnightblue" d="M146.99,-336.15C138.9,-310.1 126.59,-254.88 155,-224 235.97,-135.97 390.86,-123.69 456.92,-122.65"/>
<polygon fill="midnightblue" stroke="midnightblue" points="457.12,-126.15 467.09,-122.57 457.06,-119.15 457.12,-126.15"/>
</g>
<!-- Node16 -->
<g id="node16" class="node">
<title>Node16</title>
<g id="a_node16"><a xlink:href="obj_8c.html" target="_top" xlink:title=" ">
<polygon fill="white" stroke="black" points="950,-280.5 950,-299.5 990,-299.5 990,-280.5 950,-280.5"/>
<text text-anchor="middle" x="970" y="-287.5" font-family="Helvetica,sans-Serif" font-size="10.00">obj.c</text>
</a>
</g>
</g>
<!-- Node1&#45;&gt;Node16 -->
<g id="edge30" class="edge">
<title>Node1&#45;&gt;Node16</title>
<path fill="none" stroke="midnightblue" d="M227.85,-344.98C401.84,-332.33 823.59,-301.65 939.87,-293.19"/>
<polygon fill="midnightblue" stroke="midnightblue" points="940.13,-296.68 949.85,-292.47 939.63,-289.7 940.13,-296.68"/>
</g>
<!-- Node22 -->
<g id="node22" class="node">
<title>Node22</title>
<g id="a_node22"><a xlink:href="linked__list_8h.html" target="_top" xlink:title=" ">
<polygon fill="white" stroke="black" points="180.5,-224.5 180.5,-243.5 255.5,-243.5 255.5,-224.5 180.5,-224.5"/>
<text text-anchor="middle" x="218" y="-231.5" font-family="Helvetica,sans-Serif" font-size="10.00">linked_list.h</text>
</a>
</g>
</g>
<!-- Node1&#45;&gt;Node22 -->
<g id="edge57" class="edge">
<title>Node1&#45;&gt;Node22</title>
<path fill="none" stroke="midnightblue" d="M160.09,-336.34C172.15,-315.24 194.8,-275.6 207.92,-252.65"/>
<polygon fill="midnightblue" stroke="midnightblue" points="211.12,-254.09 213.05,-243.67 205.05,-250.62 211.12,-254.09"/>
</g>
<!-- Node3&#45;&gt;Node2 -->
<g id="edge8" class="edge">
<title>Node3&#45;&gt;Node2</title>
<path fill="none" stroke="midnightblue" d="M462.88,-177.58C393.11,-178.61 199.48,-177.27 160,-132 134.49,-102.75 156.3,-54.03 171.09,-28.24"/>
<polygon fill="midnightblue" stroke="midnightblue" points="174.15,-29.94 176.3,-19.57 168.15,-26.33 174.15,-29.94"/>
</g>
<!-- Node4 -->
<g id="node4" class="node">
<title>Node4</title>
<g id="a_node4"><a xlink:title=" ">
<polygon fill="white" stroke="#bfbfbf" points="905.5,-0.5 905.5,-19.5 958.5,-19.5 958.5,-0.5 905.5,-0.5"/>
<text text-anchor="middle" x="932" y="-7.5" font-family="Helvetica,sans-Serif" font-size="10.00">stdlib.h</text>
</a>
</g>
</g>
<!-- Node3&#45;&gt;Node4 -->
<g id="edge3" class="edge">
<title>Node3&#45;&gt;Node4</title>
<path fill="none" stroke="midnightblue" d="M513.18,-172.77C572.11,-162.23 722.69,-131.56 837,-76 865.55,-62.12 895.25,-40.44 913.67,-25.98"/>
<polygon fill="midnightblue" stroke="midnightblue" points="915.89,-28.69 921.53,-19.72 911.53,-23.22 915.89,-28.69"/>
</g>
<!-- Node5 -->
<g id="node5" class="node">
<title>Node5</title>
<g id="a_node5"><a xlink:title=" ">
<polygon fill="white" stroke="#bfbfbf" points="1152.5,-0.5 1152.5,-19.5 1205.5,-19.5 1205.5,-0.5 1152.5,-0.5"/>
<text text-anchor="middle" x="1179" y="-7.5" font-family="Helvetica,sans-Serif" font-size="10.00">stdint.h</text>
</a>
</g>
</g>
<!-- Node3&#45;&gt;Node5 -->
<g id="edge4" class="edge">
<title>Node3&#45;&gt;Node5</title>
<path fill="none" stroke="midnightblue" d="M513.09,-175.66C618.63,-169.63 1025.96,-142.38 1133,-76 1150.76,-64.99 1163.58,-44.33 1171.1,-29.24"/>
<polygon fill="midnightblue" stroke="midnightblue" points="1174.42,-30.42 1175.46,-19.88 1168.07,-27.47 1174.42,-30.42"/>
</g>
<!-- Node6 -->
<g id="node6" class="node">
<title>Node6</title>
<g id="a_node6"><a xlink:title=" ">
<polygon fill="white" stroke="#bfbfbf" points="1392,-0.5 1392,-19.5 1454,-19.5 1454,-0.5 1392,-0.5"/>
<text text-anchor="middle" x="1423" y="-7.5" font-family="Helvetica,sans-Serif" font-size="10.00">stdbool.h</text>
</a>
</g>
</g>
<!-- Node3&#45;&gt;Node6 -->
<g id="edge5" class="edge">
<title>Node3&#45;&gt;Node6</title>
<path fill="none" stroke="midnightblue" d="M513.19,-176.5C626.22,-174.09 1087.12,-162.54 1228,-132 1295.92,-117.27 1318.49,-117.81 1374,-76 1390.88,-63.29 1404.75,-43.26 1413.38,-28.79"/>
<polygon fill="midnightblue" stroke="midnightblue" points="1416.58,-30.24 1418.48,-19.82 1410.49,-26.78 1416.58,-30.24"/>
</g>
<!-- Node7 -->
<g id="node7" class="node">
<title>Node7</title>
<g id="a_node7"><a xlink:title=" ">
<polygon fill="white" stroke="#bfbfbf" points="287,-0.5 287,-19.5 337,-19.5 337,-0.5 287,-0.5"/>
<text text-anchor="middle" x="312" y="-7.5" font-family="Helvetica,sans-Serif" font-size="10.00">stdio.h</text>
</a>
</g>
</g>
<!-- Node3&#45;&gt;Node7 -->
<g id="edge6" class="edge">
<title>Node3&#45;&gt;Node7</title>
<path fill="none" stroke="midnightblue" d="M462.65,-177.39C395.06,-177.83 213.17,-174.92 176,-132 153.89,-106.47 156.22,-83.38 176,-56 198.77,-24.48 244.44,-14.68 276.56,-11.82"/>
<polygon fill="midnightblue" stroke="midnightblue" points="277.15,-15.29 286.88,-11.1 276.66,-8.31 277.15,-15.29"/>
</g>
<!-- Node8 -->
<g id="node8" class="node">
<title>Node8</title>
<g id="a_node8"><a xlink:title=" ">
<polygon fill="white" stroke="#bfbfbf" points="802.5,-0.5 802.5,-19.5 855.5,-19.5 855.5,-0.5 802.5,-0.5"/>
<text text-anchor="middle" x="829" y="-7.5" font-family="Helvetica,sans-Serif" font-size="10.00">string.h</text>
</a>
</g>
</g>
<!-- Node3&#45;&gt;Node8 -->
<g id="edge7" class="edge">
<title>Node3&#45;&gt;Node8</title>
<path fill="none" stroke="midnightblue" d="M462.81,-172.34C396.94,-159.14 228.55,-118.41 286,-56 320.21,-18.84 675.3,-12.36 792.03,-11.24"/>
<polygon fill="midnightblue" stroke="midnightblue" points="792.28,-14.73 802.25,-11.15 792.22,-7.73 792.28,-14.73"/>
</g>
<!-- Node9 -->
<g id="node9" class="node">
<title>Node9</title>
<g id="a_node9"><a xlink:href="error_8h.html" target="_top" xlink:title=" ">
<polygon fill="white" stroke="black" points="778.5,-56.5 778.5,-75.5 827.5,-75.5 827.5,-56.5 778.5,-56.5"/>
<text text-anchor="middle" x="803" y="-63.5" font-family="Helvetica,sans-Serif" font-size="10.00">error.h</text>
</a>
</g>
</g>
<!-- Node3&#45;&gt;Node9 -->
<g id="edge9" class="edge">
<title>Node3&#45;&gt;Node9</title>
<path fill="none" stroke="midnightblue" d="M512.46,-168.46C568.16,-149.01 704.62,-101.36 768.7,-78.98"/>
<polygon fill="midnightblue" stroke="midnightblue" points="770.06,-82.21 778.34,-75.61 767.75,-75.6 770.06,-82.21"/>
</g>
<!-- Node3&#45;&gt;Node10 -->
<g id="edge16" class="edge">
<title>Node3&#45;&gt;Node10</title>
<path fill="none" stroke="midnightblue" d="M488,-168.08C488,-161.01 488,-150.86 488,-141.99"/>
<polygon fill="midnightblue" stroke="midnightblue" points="491.5,-141.75 488,-131.75 484.5,-141.75 491.5,-141.75"/>
</g>
<!-- Node9&#45;&gt;Node2 -->
<g id="edge15" class="edge">
<title>Node9&#45;&gt;Node2</title>
<path fill="none" stroke="midnightblue" d="M778.4,-61.9C763.3,-60.05 743.55,-57.73 726,-56 527.21,-36.4 477,-37.32 278,-20 258.94,-18.34 237.77,-16.37 220.17,-14.7"/>
<polygon fill="midnightblue" stroke="midnightblue" points="220.01,-11.16 209.72,-13.7 219.34,-18.13 220.01,-11.16"/>
</g>
<!-- Node9&#45;&gt;Node4 -->
<g id="edge10" class="edge">
<title>Node9&#45;&gt;Node4</title>
<path fill="none" stroke="midnightblue" d="M823.44,-56.44C844.67,-47.56 878.1,-33.56 902.25,-23.45"/>
<polygon fill="midnightblue" stroke="midnightblue" points="903.78,-26.61 911.66,-19.52 901.08,-20.15 903.78,-26.61"/>
</g>
<!-- Node9&#45;&gt;Node5 -->
<g id="edge11" class="edge">
<title>Node9&#45;&gt;Node5</title>
<path fill="none" stroke="midnightblue" d="M827.67,-61.46C892.19,-52.19 1066.21,-27.2 1142.41,-16.25"/>
<polygon fill="midnightblue" stroke="midnightblue" points="1143.09,-19.69 1152.49,-14.81 1142.1,-12.76 1143.09,-19.69"/>
</g>
<!-- Node9&#45;&gt;Node6 -->
<g id="edge12" class="edge">
<title>Node9&#45;&gt;Node6</title>
<path fill="none" stroke="midnightblue" d="M827.69,-62.85C922.35,-54.6 1262.78,-24.95 1381.67,-14.6"/>
<polygon fill="midnightblue" stroke="midnightblue" points="1382.16,-18.07 1391.82,-13.72 1381.55,-11.1 1382.16,-18.07"/>
</g>
<!-- Node9&#45;&gt;Node7 -->
<g id="edge13" class="edge">
<title>Node9&#45;&gt;Node7</title>
<path fill="none" stroke="midnightblue" d="M778.34,-58.81C773.6,-57.76 768.66,-56.77 764,-56 609.79,-30.64 423.46,-17.57 347.16,-12.97"/>
<polygon fill="midnightblue" stroke="midnightblue" points="347.33,-9.47 337.14,-12.37 346.91,-16.46 347.33,-9.47"/>
</g>
<!-- Node9&#45;&gt;Node8 -->
<g id="edge14" class="edge">
<title>Node9&#45;&gt;Node8</title>
<path fill="none" stroke="midnightblue" d="M807.29,-56.08C810.85,-48.69 816.02,-37.95 820.42,-28.81"/>
<polygon fill="midnightblue" stroke="midnightblue" points="823.6,-30.28 824.79,-19.75 817.29,-27.24 823.6,-30.28"/>
</g>
<!-- Node10&#45;&gt;Node2 -->
<g id="edge26" class="edge">
<title>Node10&#45;&gt;Node2</title>
<path fill="none" stroke="midnightblue" d="M467.42,-119.28C428.73,-115.48 343.09,-104.34 277,-76 247.64,-63.41 217.91,-41.2 199.71,-26.29"/>
<polygon fill="midnightblue" stroke="midnightblue" points="201.68,-23.37 191.76,-19.64 197.18,-28.74 201.68,-23.37"/>
</g>
<!-- Node10&#45;&gt;Node4 -->
<g id="edge17" class="edge">
<title>Node10&#45;&gt;Node4</title>
<path fill="none" stroke="midnightblue" d="M508.52,-115.92C578.17,-98.66 806.08,-42.2 895.51,-20.04"/>
<polygon fill="midnightblue" stroke="midnightblue" points="896.6,-23.38 905.47,-17.57 894.92,-16.58 896.6,-23.38"/>
</g>
<!-- Node10&#45;&gt;Node5 -->
<g id="edge24" class="edge">
<title>Node10&#45;&gt;Node5</title>
<path fill="none" stroke="midnightblue" d="M508.59,-121.2C602.69,-121.86 991.87,-121.72 1103,-76 1128.47,-65.52 1151.56,-43.07 1165.43,-27.51"/>
<polygon fill="midnightblue" stroke="midnightblue" points="1168.29,-29.56 1172.15,-19.69 1162.98,-25 1168.29,-29.56"/>
</g>
<!-- Node10&#45;&gt;Node6 -->
<g id="edge19" class="edge">
<title>Node10&#45;&gt;Node6</title>
<path fill="none" stroke="midnightblue" d="M508.73,-120.69C589.29,-119.24 889.2,-111.62 1133,-76 1222.88,-62.87 1326.28,-37.06 1382.11,-22.22"/>
<polygon fill="midnightblue" stroke="midnightblue" points="1383.21,-25.55 1391.96,-19.58 1381.4,-18.79 1383.21,-25.55"/>
</g>
<!-- Node10&#45;&gt;Node7 -->
<g id="edge18" class="edge">
<title>Node10&#45;&gt;Node7</title>
<path fill="none" stroke="midnightblue" d="M467.16,-119.56C420.23,-115.85 308.59,-104.17 286,-76 274.54,-61.71 285.59,-41.71 296.61,-27.69"/>
<polygon fill="midnightblue" stroke="midnightblue" points="299.48,-29.72 303.27,-19.83 294.13,-25.19 299.48,-29.72"/>
</g>
<!-- Node10&#45;&gt;Node8 -->
<g id="edge21" class="edge">
<title>Node10&#45;&gt;Node8</title>
<path fill="none" stroke="midnightblue" d="M467.47,-117.11C428.5,-108.9 350.17,-87.86 379,-56 406.54,-25.57 689.31,-14.83 792,-11.91"/>
<polygon fill="midnightblue" stroke="midnightblue" points="792.3,-15.41 802.2,-11.63 792.11,-8.41 792.3,-15.41"/>
</g>
<!-- Node10&#45;&gt;Node9 -->
<g id="edge28" class="edge">
<title>Node10&#45;&gt;Node9</title>
<path fill="none" stroke="midnightblue" d="M508.67,-117.46C561.68,-108.37 702.9,-84.16 768.55,-72.91"/>
<polygon fill="midnightblue" stroke="midnightblue" points="769.15,-76.35 778.41,-71.21 767.97,-69.45 769.15,-76.35"/>
</g>
<!-- Node11 -->
<g id="node11" class="node">
<title>Node11</title>
<g id="a_node11"><a xlink:title=" ">
<polygon fill="white" stroke="#bfbfbf" points="388,-56.5 388,-75.5 444,-75.5 444,-56.5 388,-56.5"/>
<text text-anchor="middle" x="416" y="-63.5" font-family="Helvetica,sans-Serif" font-size="10.00">assert.h</text>
</a>
</g>
</g>
<!-- Node10&#45;&gt;Node11 -->
<g id="edge20" class="edge">
<title>Node10&#45;&gt;Node11</title>
<path fill="none" stroke="midnightblue" d="M476.43,-112.32C465.58,-104.18 449.12,-91.84 436.12,-82.09"/>
<polygon fill="midnightblue" stroke="midnightblue" points="437.88,-79.03 427.78,-75.83 433.68,-84.63 437.88,-79.03"/>
</g>
<!-- Node12 -->
<g id="node12" class="node">
<title>Node12</title>
<g id="a_node12"><a xlink:title=" ">
<polygon fill="white" stroke="#bfbfbf" points="462.5,-56.5 462.5,-75.5 513.5,-75.5 513.5,-56.5 462.5,-56.5"/>
<text text-anchor="middle" x="488" y="-63.5" font-family="Helvetica,sans-Serif" font-size="10.00">math.h</text>
</a>
</g>
</g>
<!-- Node10&#45;&gt;Node12 -->
<g id="edge22" class="edge">
<title>Node10&#45;&gt;Node12</title>
<path fill="none" stroke="midnightblue" d="M488,-112.08C488,-105.01 488,-94.86 488,-85.99"/>
<polygon fill="midnightblue" stroke="midnightblue" points="491.5,-85.75 488,-75.75 484.5,-85.75 491.5,-85.75"/>
</g>
<!-- Node13 -->
<g id="node13" class="node">
<title>Node13</title>
<g id="a_node13"><a xlink:title=" ">
<polygon fill="white" stroke="#bfbfbf" points="532,-56.5 532,-75.5 580,-75.5 580,-56.5 532,-56.5"/>
<text text-anchor="middle" x="556" y="-63.5" font-family="Helvetica,sans-Serif" font-size="10.00">float.h</text>
</a>
</g>
</g>
<!-- Node10&#45;&gt;Node13 -->
<g id="edge23" class="edge">
<title>Node10&#45;&gt;Node13</title>
<path fill="none" stroke="midnightblue" d="M498.93,-112.32C509.17,-104.18 524.72,-91.84 537,-82.09"/>
<polygon fill="midnightblue" stroke="midnightblue" points="539.22,-84.79 544.88,-75.83 534.87,-79.31 539.22,-84.79"/>
</g>
<!-- Node14 -->
<g id="node14" class="node">
<title>Node14</title>
<g id="a_node14"><a xlink:title=" ">
<polygon fill="white" stroke="#bfbfbf" points="598,-56.5 598,-75.5 646,-75.5 646,-56.5 598,-56.5"/>
<text text-anchor="middle" x="622" y="-63.5" font-family="Helvetica,sans-Serif" font-size="10.00">time.h</text>
</a>
</g>
</g>
<!-- Node10&#45;&gt;Node14 -->
<g id="edge25" class="edge">
<title>Node10&#45;&gt;Node14</title>
<path fill="none" stroke="midnightblue" d="M508.64,-112.68C530.68,-103.8 565.84,-89.63 591.16,-79.43"/>
<polygon fill="midnightblue" stroke="midnightblue" points="592.7,-82.58 600.67,-75.6 590.08,-76.09 592.7,-82.58"/>
</g>
<!-- Node15 -->
<g id="node15" class="node">
<title>Node15</title>
<g id="a_node15"><a xlink:href="os_8h.html" target="_top" xlink:title=" ">
<polygon fill="white" stroke="black" points="294.5,-56.5 294.5,-75.5 331.5,-75.5 331.5,-56.5 294.5,-56.5"/>
<text text-anchor="middle" x="313" y="-63.5" font-family="Helvetica,sans-Serif" font-size="10.00">os.h</text>
</a>
</g>
</g>
<!-- Node10&#45;&gt;Node15 -->
<g id="edge27" class="edge">
<title>Node10&#45;&gt;Node15</title>
<path fill="none" stroke="midnightblue" d="M467.24,-114.59C435.92,-104.93 376.54,-86.61 341.29,-75.73"/>
<polygon fill="midnightblue" stroke="midnightblue" points="342.2,-72.35 331.61,-72.74 340.13,-79.04 342.2,-72.35"/>
</g>
<!-- Node16&#45;&gt;Node2 -->
<g id="edge36" class="edge">
<title>Node16&#45;&gt;Node2</title>
<path fill="none" stroke="midnightblue" d="M949.92,-288.55C829.07,-285.74 202.58,-269.96 172,-244 107.78,-189.49 120.51,-135.62 148,-56 151.7,-45.28 159.01,-35.06 165.9,-27.07"/>
<polygon fill="midnightblue" stroke="midnightblue" points="168.56,-29.35 172.77,-19.63 163.42,-24.6 168.56,-29.35"/>
</g>
<!-- Node16&#45;&gt;Node4 -->
<g id="edge31" class="edge">
<title>Node16&#45;&gt;Node4</title>
<path fill="none" stroke="midnightblue" d="M970,-280.44C970,-261.94 970,-216.81 970,-179 970,-179 970,-179 970,-121 970,-86.81 953.4,-49.76 942.14,-28.57"/>
<polygon fill="midnightblue" stroke="midnightblue" points="945.18,-26.83 937.28,-19.77 939.05,-30.22 945.18,-26.83"/>
</g>
<!-- Node16&#45;&gt;Node5 -->
<g id="edge32" class="edge">
<title>Node16&#45;&gt;Node5</title>
<path fill="none" stroke="midnightblue" d="M990.18,-287.82C1070.88,-282.54 1366,-257.85 1366,-179 1366,-179 1366,-179 1366,-121 1366,-90.9 1368.52,-77.04 1347,-56 1311.87,-21.66 1253.53,-12.79 1215.68,-10.89"/>
<polygon fill="midnightblue" stroke="midnightblue" points="1215.7,-7.39 1205.58,-10.52 1215.45,-14.38 1215.7,-7.39"/>
</g>
<!-- Node16&#45;&gt;Node6 -->
<g id="edge33" class="edge">
<title>Node16&#45;&gt;Node6</title>
<path fill="none" stroke="midnightblue" d="M990.26,-288.2C1069.14,-284.92 1355.68,-271.33 1442,-244 1497.6,-226.4 1556,-237.32 1556,-179 1556,-179 1556,-179 1556,-121 1556,-70.73 1498.87,-39.1 1459.5,-23.27"/>
<polygon fill="midnightblue" stroke="midnightblue" points="1460.5,-19.91 1449.91,-19.59 1457.99,-26.45 1460.5,-19.91"/>
</g>
<!-- Node16&#45;&gt;Node7 -->
<g id="edge34" class="edge">
<title>Node16&#45;&gt;Node7</title>
<path fill="none" stroke="midnightblue" d="M949.88,-288.4C835.11,-284.54 264.81,-259.08 160,-132 151.13,-121.25 137.66,-86.73 161,-56 175.04,-37.51 236.84,-23.76 276.89,-16.59"/>
<polygon fill="midnightblue" stroke="midnightblue" points="277.56,-20.03 286.81,-14.87 276.36,-13.13 277.56,-20.03"/>
</g>
<!-- Node16&#45;&gt;Node8 -->
<g id="edge35" class="edge">
<title>Node16&#45;&gt;Node8</title>
<path fill="none" stroke="midnightblue" d="M965.63,-280.38C945.89,-241.46 864.91,-81.81 837.85,-28.45"/>
<polygon fill="midnightblue" stroke="midnightblue" points="840.97,-26.86 833.32,-19.52 834.73,-30.03 840.97,-26.86"/>
</g>
<!-- Node17 -->
<g id="node17" class="node">
<title>Node17</title>
<g id="a_node17"><a xlink:href="obj_8h.html" target="_top" xlink:title=" ">
<polygon fill="white" stroke="black" points="1177.5,-112.5 1177.5,-131.5 1218.5,-131.5 1218.5,-112.5 1177.5,-112.5"/>
<text text-anchor="middle" x="1198" y="-119.5" font-family="Helvetica,sans-Serif" font-size="10.00">obj.h</text>
</a>
</g>
</g>
<!-- Node16&#45;&gt;Node17 -->
<g id="edge37" class="edge">
<title>Node16&#45;&gt;Node17</title>
<path fill="none" stroke="midnightblue" d="M981.94,-280.31C1018.87,-253.42 1131.59,-171.35 1177.86,-137.67"/>
<polygon fill="midnightblue" stroke="midnightblue" points="1180.16,-140.32 1186.18,-131.61 1176.04,-134.66 1180.16,-140.32"/>
</g>
<!-- Node20 -->
<g id="node20" class="node">
<title>Node20</title>
<g id="a_node20"><a xlink:href="gc_8h.html" target="_top" xlink:title=" ">
<polygon fill="white" stroke="black" points="1395.5,-224.5 1395.5,-243.5 1432.5,-243.5 1432.5,-224.5 1395.5,-224.5"/>
<text text-anchor="middle" x="1414" y="-231.5" font-family="Helvetica,sans-Serif" font-size="10.00">gc.h</text>
</a>
</g>
</g>
<!-- Node16&#45;&gt;Node20 -->
<g id="edge51" class="edge">
<title>Node16&#45;&gt;Node20</title>
<path fill="none" stroke="midnightblue" d="M990.21,-287.85C1050.11,-284.23 1231.81,-271.59 1380,-244 1381.73,-243.68 1383.51,-243.31 1385.29,-242.92"/>
<polygon fill="midnightblue" stroke="midnightblue" points="1386.52,-246.22 1395.41,-240.46 1384.86,-239.42 1386.52,-246.22"/>
</g>
<!-- Node17&#45;&gt;Node2 -->
<g id="edge43" class="edge">
<title>Node17&#45;&gt;Node2</title>
<path fill="none" stroke="midnightblue" d="M1177.11,-120.34C1110.65,-117.98 898.35,-108.22 726,-76 693.77,-69.98 687.23,-62.02 655,-56 649.65,-55 331.23,-25.03 219.91,-14.56"/>
<polygon fill="midnightblue" stroke="midnightblue" points="220.09,-11.06 209.81,-13.61 219.44,-18.03 220.09,-11.06"/>
</g>
<!-- Node17&#45;&gt;Node4 -->
<g id="edge38" class="edge">
<title>Node17&#45;&gt;Node4</title>
<path fill="none" stroke="midnightblue" d="M1187.89,-112.32C1171.26,-98.47 1136.63,-71.37 1103,-56 1058.91,-35.85 1004.15,-23.44 968.66,-16.88"/>
<polygon fill="midnightblue" stroke="midnightblue" points="969.2,-13.42 958.74,-15.11 967.97,-20.31 969.2,-13.42"/>
</g>
<!-- Node17&#45;&gt;Node5 -->
<g id="edge39" class="edge">
<title>Node17&#45;&gt;Node5</title>
<path fill="none" stroke="midnightblue" d="M1213.65,-112.45C1233.08,-100.65 1262.26,-78.28 1250,-56 1242.11,-41.66 1227.51,-31.25 1213.6,-24.08"/>
<polygon fill="midnightblue" stroke="midnightblue" points="1214.7,-20.73 1204.16,-19.62 1211.71,-27.06 1214.7,-20.73"/>
</g>
<!-- Node17&#45;&gt;Node6 -->
<g id="edge40" class="edge">
<title>Node17&#45;&gt;Node6</title>
<path fill="none" stroke="midnightblue" d="M1218.56,-117.58C1248.31,-112.03 1304.44,-99.27 1347,-76 1370.65,-63.07 1393.57,-41.92 1407.94,-27.27"/>
<polygon fill="midnightblue" stroke="midnightblue" points="1410.61,-29.54 1415,-19.9 1405.55,-24.7 1410.61,-29.54"/>
</g>
<!-- Node17&#45;&gt;Node7 -->
<g id="edge41" class="edge">
<title>Node17&#45;&gt;Node7</title>
<path fill="none" stroke="midnightblue" d="M1177.08,-121.15C1114.23,-121.12 922.12,-117.39 770,-76 749.27,-70.36 746.72,-61.68 726,-56 589.71,-18.65 420.18,-12.1 347.64,-11.09"/>
<polygon fill="midnightblue" stroke="midnightblue" points="347.29,-7.59 337.25,-10.98 347.21,-14.59 347.29,-7.59"/>
</g>
<!-- Node17&#45;&gt;Node8 -->
<g id="edge42" class="edge">
<title>Node17&#45;&gt;Node8</title>
<path fill="none" stroke="midnightblue" d="M1177.23,-117.76C1139.31,-111.58 1056.57,-96.83 989,-76 941.43,-61.34 888.26,-38.35 856.77,-24.01"/>
<polygon fill="midnightblue" stroke="midnightblue" points="857.89,-20.67 847.34,-19.68 854.96,-27.03 857.89,-20.67"/>
</g>
<!-- Node18 -->
<g id="node18" class="node">
<title>Node18</title>
<g id="a_node18"><a xlink:href="SHM_2hashmap_8h.html" target="_top" xlink:title=" ">
<polygon fill="white" stroke="black" points="998,-56.5 998,-75.5 1094,-75.5 1094,-56.5 998,-56.5"/>
<text text-anchor="middle" x="1046" y="-63.5" font-family="Helvetica,sans-Serif" font-size="10.00">SHM/hashmap.h</text>
</a>
</g>
</g>
<!-- Node17&#45;&gt;Node18 -->
<g id="edge44" class="edge">
<title>Node17&#45;&gt;Node18</title>
<path fill="none" stroke="midnightblue" d="M1177.18,-113.6C1152.05,-104.68 1109.46,-89.55 1079.65,-78.95"/>
<polygon fill="midnightblue" stroke="midnightblue" points="1080.66,-75.6 1070.07,-75.55 1078.32,-82.2 1080.66,-75.6"/>
</g>
<!-- Node19 -->
<g id="node19" class="node">
<title>Node19</title>
<g id="a_node19"><a xlink:href="io_8h.html" target="_top" xlink:title=" ">
<polygon fill="white" stroke="black" points="1302.5,-56.5 1302.5,-75.5 1337.5,-75.5 1337.5,-56.5 1302.5,-56.5"/>
<text text-anchor="middle" x="1320" y="-63.5" font-family="Helvetica,sans-Serif" font-size="10.00">io.h</text>
</a>
</g>
</g>
<!-- Node17&#45;&gt;Node19 -->
<g id="edge50" class="edge">
<title>Node17&#45;&gt;Node19</title>
<path fill="none" stroke="midnightblue" d="M1217.33,-112.44C1237.79,-103.39 1270.23,-89.03 1293.16,-78.88"/>
<polygon fill="midnightblue" stroke="midnightblue" points="1294.62,-82.06 1302.34,-74.82 1291.78,-75.66 1294.62,-82.06"/>
</g>
<!-- Node18&#45;&gt;Node4 -->
<g id="edge45" class="edge">
<title>Node18&#45;&gt;Node4</title>
<path fill="none" stroke="midnightblue" d="M1027.94,-56.44C1009.43,-47.68 980.42,-33.94 959.14,-23.86"/>
<polygon fill="midnightblue" stroke="midnightblue" points="960.51,-20.63 949.98,-19.52 957.52,-26.96 960.51,-20.63"/>
</g>
<!-- Node18&#45;&gt;Node5 -->
<g id="edge47" class="edge">
<title>Node18&#45;&gt;Node5</title>
<path fill="none" stroke="midnightblue" d="M1067.07,-56.44C1089.06,-47.52 1123.73,-33.44 1148.66,-23.32"/>
<polygon fill="midnightblue" stroke="midnightblue" points="1150.08,-26.52 1158.02,-19.52 1147.44,-20.04 1150.08,-26.52"/>
</g>
<!-- Node18&#45;&gt;Node6 -->
<g id="edge48" class="edge">
<title>Node18&#45;&gt;Node6</title>
<path fill="none" stroke="midnightblue" d="M1094.13,-58.11C1168.81,-47.41 1311.29,-27 1381.62,-16.93"/>
<polygon fill="midnightblue" stroke="midnightblue" points="1382.46,-20.34 1391.86,-15.46 1381.47,-13.41 1382.46,-20.34"/>
</g>
<!-- Node18&#45;&gt;Node7 -->
<g id="edge46" class="edge">
<title>Node18&#45;&gt;Node7</title>
<path fill="none" stroke="midnightblue" d="M997.84,-61.46C860.23,-51.33 467.48,-22.44 347.34,-13.6"/>
<polygon fill="midnightblue" stroke="midnightblue" points="347.46,-10.1 337.23,-12.86 346.94,-17.08 347.46,-10.1"/>
</g>
<!-- Node18&#45;&gt;Node8 -->
<g id="edge49" class="edge">
<title>Node18&#45;&gt;Node8</title>
<path fill="none" stroke="midnightblue" d="M1011.62,-56.44C971.73,-46.52 906.26,-30.23 865.5,-20.08"/>
<polygon fill="midnightblue" stroke="midnightblue" points="866.25,-16.66 855.7,-17.64 864.56,-23.46 866.25,-16.66"/>
</g>
<!-- Node20&#45;&gt;Node6 -->
<g id="edge52" class="edge">
<title>Node20&#45;&gt;Node6</title>
<path fill="none" stroke="midnightblue" d="M1421.52,-224.31C1428.6,-215.66 1439.01,-201.74 1445,-188 1465.4,-141.25 1464.41,-126.7 1470,-76 1470.97,-67.16 1473.49,-64.17 1470,-56 1464.85,-43.95 1454.72,-33.58 1445.17,-25.84"/>
<polygon fill="midnightblue" stroke="midnightblue" points="1447.17,-22.96 1437.08,-19.74 1442.96,-28.55 1447.17,-22.96"/>
</g>
<!-- Node20&#45;&gt;Node17 -->
<g id="edge53" class="edge">
<title>Node20&#45;&gt;Node17</title>
<path fill="none" stroke="midnightblue" d="M1397.05,-224.37C1359.43,-205.21 1268.76,-159.04 1223.95,-136.22"/>
<polygon fill="midnightblue" stroke="midnightblue" points="1225.37,-133.01 1214.87,-131.59 1222.19,-139.25 1225.37,-133.01"/>
</g>
<!-- Node21 -->
<g id="node21" class="node">
<title>Node21</title>
<g id="a_node21"><a xlink:href="cgc_8h.html" target="_top" xlink:title=" ">
<polygon fill="white" stroke="black" points="1394,-168.5 1394,-187.5 1436,-187.5 1436,-168.5 1394,-168.5"/>
<text text-anchor="middle" x="1415" y="-175.5" font-family="Helvetica,sans-Serif" font-size="10.00">cgc.h</text>
</a>
</g>
</g>
<!-- Node20&#45;&gt;Node21 -->
<g id="edge54" class="edge">
<title>Node20&#45;&gt;Node21</title>
<path fill="none" stroke="midnightblue" d="M1414.17,-224.08C1414.3,-217.01 1414.48,-206.86 1414.65,-197.99"/>
<polygon fill="midnightblue" stroke="midnightblue" points="1418.15,-197.81 1414.84,-187.75 1411.15,-197.68 1418.15,-197.81"/>
</g>
<!-- Node21&#45;&gt;Node6 -->
<g id="edge55" class="edge">
<title>Node21&#45;&gt;Node6</title>
<path fill="none" stroke="midnightblue" d="M1419.81,-168.44C1429.05,-151.46 1448.97,-112.03 1456,-76 1457.7,-67.28 1458.77,-64.45 1456,-56 1452.51,-45.34 1445.43,-35.12 1438.71,-27.12"/>
<polygon fill="midnightblue" stroke="midnightblue" points="1441.3,-24.76 1432.02,-19.66 1436.1,-29.44 1441.3,-24.76"/>
</g>
<!-- Node21&#45;&gt;Node17 -->
<g id="edge56" class="edge">
<title>Node21&#45;&gt;Node17</title>
<path fill="none" stroke="midnightblue" d="M1393.8,-171.72C1355.19,-162.12 1273.31,-141.74 1228.64,-130.62"/>
<polygon fill="midnightblue" stroke="midnightblue" points="1229.2,-127.16 1218.65,-128.14 1227.51,-133.95 1229.2,-127.16"/>
</g>
<!-- Node22&#45;&gt;Node9 -->
<g id="edge58" class="edge">
<title>Node22&#45;&gt;Node9</title>
<path fill="none" stroke="midnightblue" d="M255.57,-230.37C313.58,-225.65 428.09,-213.74 522,-188 585.44,-170.61 598.57,-157.98 659,-132 699.75,-114.48 746.48,-93.16 775.37,-79.83"/>
<polygon fill="midnightblue" stroke="midnightblue" points="776.85,-83 784.45,-75.63 773.91,-76.65 776.85,-83"/>
</g>
</g>
</svg>
