<?xml version="1.0" encoding="UTF-8" standalone="no"?>
<!DOCTYPE svg PUBLIC "-//W3C//DTD SVG 1.1//EN"
 "http://www.w3.org/Graphics/SVG/1.1/DTD/svg11.dtd">
<!-- Generated by graphviz version 2.43.0 (0)
 -->
<!-- Title: /home/bugy/projs/lobotomy/src/sample_module.c Pages: 1 -->
<svg width="706pt" height="375pt"
 viewBox="0.00 0.00 706.00 375.00" xmlns="http://www.w3.org/2000/svg" xmlns:xlink="http://www.w3.org/1999/xlink">
<g id="graph0" class="graph" transform="scale(1 1) rotate(0) translate(4 371)">
<title>/home/bugy/projs/lobotomy/src/sample_module.c</title>
<polygon fill="white" stroke="transparent" points="-4,4 -4,-371 702,-371 702,4 -4,4"/>
<!-- Node1 -->
<g id="node1" class="node">
<title>Node1</title>
<g id="a_node1"><a xlink:title=" ">
<polygon fill="#bfbfbf" stroke="black" points="122.5,-336.5 122.5,-366.5 273.5,-366.5 273.5,-336.5 122.5,-336.5"/>
<text text-anchor="start" x="130.5" y="-354.5" font-family="Helvetica,sans-Serif" font-size="10.00">/home/bugy/projs/lobotomy</text>
<text text-anchor="middle" x="198" y="-343.5" font-family="Helvetica,sans-Serif" font-size="10.00">/src/sample_module.c</text>
</a>
</g>
</g>
<!-- Node2 -->
<g id="node2" class="node">
<title>Node2</title>
<g id="a_node2"><a xlink:title=" ">
<polygon fill="white" stroke="#bfbfbf" points="32,-0.5 32,-19.5 82,-19.5 82,-0.5 32,-0.5"/>
<text text-anchor="middle" x="57" y="-7.5" font-family="Helvetica,sans-Serif" font-size="10.00">stdio.h</text>
</a>
</g>
</g>
<!-- Node1&#45;&gt;Node2 -->
<g id="edge1" class="edge">
<title>Node1&#45;&gt;Node2</title>
<path fill="none" stroke="midnightblue" d="M122.3,-337.7C66.4,-323.4 0,-294 0,-235 0,-235 0,-235 0,-121 0,-84.3 25.32,-47.66 42.21,-27.3"/>
<polygon fill="midnightblue" stroke="midnightblue" points="44.95,-29.48 48.83,-19.62 39.65,-24.9 44.95,-29.48"/>
</g>
<!-- Node3 -->
<g id="node3" class="node">
<title>Node3</title>
<g id="a_node3"><a xlink:href="obj_8c.html" target="_top" xlink:title=" ">
<polygon fill="white" stroke="black" points="389,-280.5 389,-299.5 429,-299.5 429,-280.5 389,-280.5"/>
<text text-anchor="middle" x="409" y="-287.5" font-family="Helvetica,sans-Serif" font-size="10.00">obj.c</text>
</a>
</g>
</g>
<!-- Node1&#45;&gt;Node3 -->
<g id="edge2" class="edge">
<title>Node1&#45;&gt;Node3</title>
<path fill="none" stroke="midnightblue" d="M247.74,-336.47C288.48,-324.99 344.79,-309.11 378.96,-299.47"/>
<polygon fill="midnightblue" stroke="midnightblue" points="380.13,-302.78 388.81,-296.69 378.23,-296.04 380.13,-302.78"/>
</g>
<!-- Node3&#45;&gt;Node2 -->
<g id="edge6" class="edge">
<title>Node3&#45;&gt;Node2</title>
<path fill="none" stroke="midnightblue" d="M388.79,-287.45C311.37,-280.96 38,-252.82 38,-179 38,-179 38,-179 38,-121 38,-88.49 46.16,-51.35 51.78,-29.61"/>
<polygon fill="midnightblue" stroke="midnightblue" points="55.22,-30.32 54.44,-19.75 48.46,-28.5 55.22,-30.32"/>
</g>
<!-- Node4 -->
<g id="node4" class="node">
<title>Node4</title>
<g id="a_node4"><a xlink:title=" ">
<polygon fill="white" stroke="#bfbfbf" points="125.5,-0.5 125.5,-19.5 178.5,-19.5 178.5,-0.5 125.5,-0.5"/>
<text text-anchor="middle" x="152" y="-7.5" font-family="Helvetica,sans-Serif" font-size="10.00">stdlib.h</text>
</a>
</g>
</g>
<!-- Node3&#45;&gt;Node4 -->
<g id="edge3" class="edge">
<title>Node3&#45;&gt;Node4</title>
<path fill="none" stroke="midnightblue" d="M388.76,-287.25C351.13,-283.41 268.45,-272.24 205,-244 159.59,-223.79 114,-228.7 114,-179 114,-179 114,-179 114,-121 114,-86.81 130.6,-49.76 141.86,-28.57"/>
<polygon fill="midnightblue" stroke="midnightblue" points="144.95,-30.22 146.72,-19.77 138.82,-26.83 144.95,-30.22"/>
</g>
<!-- Node5 -->
<g id="node5" class="node">
<title>Node5</title>
<g id="a_node5"><a xlink:title=" ">
<polygon fill="white" stroke="#bfbfbf" points="407.5,-0.5 407.5,-19.5 460.5,-19.5 460.5,-0.5 407.5,-0.5"/>
<text text-anchor="middle" x="434" y="-7.5" font-family="Helvetica,sans-Serif" font-size="10.00">stdint.h</text>
</a>
</g>
</g>
<!-- Node3&#45;&gt;Node5 -->
<g id="edge4" class="edge">
<title>Node3&#45;&gt;Node5</title>
<path fill="none" stroke="midnightblue" d="M412.1,-280.48C415.25,-271.52 420.08,-256.93 423,-244 436,-186.35 440.46,-171.08 439,-112 438.29,-83.26 436.44,-49.96 435.2,-29.69"/>
<polygon fill="midnightblue" stroke="midnightblue" points="438.69,-29.4 434.57,-19.64 431.71,-29.84 438.69,-29.4"/>
</g>
<!-- Node6 -->
<g id="node6" class="node">
<title>Node6</title>
<g id="a_node6"><a xlink:title=" ">
<polygon fill="white" stroke="#bfbfbf" points="517,-0.5 517,-19.5 579,-19.5 579,-0.5 517,-0.5"/>
<text text-anchor="middle" x="548" y="-7.5" font-family="Helvetica,sans-Serif" font-size="10.00">stdbool.h</text>
</a>
</g>
</g>
<!-- Node3&#45;&gt;Node6 -->
<g id="edge5" class="edge">
<title>Node3&#45;&gt;Node6</title>
<path fill="none" stroke="midnightblue" d="M429.32,-285.8C495.1,-274.89 698,-236.58 698,-179 698,-179 698,-179 698,-121 698,-66.66 633.19,-36.23 588.77,-21.75"/>
<polygon fill="midnightblue" stroke="midnightblue" points="589.67,-18.37 579.08,-18.74 587.59,-25.05 589.67,-18.37"/>
</g>
<!-- Node7 -->
<g id="node7" class="node">
<title>Node7</title>
<g id="a_node7"><a xlink:title=" ">
<polygon fill="white" stroke="#bfbfbf" points="293.5,-0.5 293.5,-19.5 346.5,-19.5 346.5,-0.5 293.5,-0.5"/>
<text text-anchor="middle" x="320" y="-7.5" font-family="Helvetica,sans-Serif" font-size="10.00">string.h</text>
</a>
</g>
</g>
<!-- Node3&#45;&gt;Node7 -->
<g id="edge7" class="edge">
<title>Node3&#45;&gt;Node7</title>
<path fill="none" stroke="midnightblue" d="M388.79,-288.18C334.57,-284.8 190,-267.5 190,-179 190,-179 190,-179 190,-121 190,-90.9 188.82,-78.33 209,-56 228.28,-34.67 259.11,-23.26 283.39,-17.27"/>
<polygon fill="midnightblue" stroke="midnightblue" points="284.36,-20.64 293.34,-15.02 282.82,-13.81 284.36,-20.64"/>
</g>
<!-- Node8 -->
<g id="node8" class="node">
<title>Node8</title>
<g id="a_node8"><a xlink:title=" ">
<polygon fill="white" stroke="#bfbfbf" points="576.5,-56.5 576.5,-75.5 631.5,-75.5 631.5,-56.5 576.5,-56.5"/>
<text text-anchor="middle" x="604" y="-63.5" font-family="Helvetica,sans-Serif" font-size="10.00">wchar.h</text>
</a>
</g>
</g>
<!-- Node3&#45;&gt;Node8 -->
<g id="edge8" class="edge">
<title>Node3&#45;&gt;Node8</title>
<path fill="none" stroke="midnightblue" d="M429.24,-289.79C463.94,-289.95 534.68,-284.86 572,-244 612.67,-199.48 610.19,-121.41 606.52,-85.74"/>
<polygon fill="midnightblue" stroke="midnightblue" points="609.99,-85.27 605.34,-75.75 603.04,-86.09 609.99,-85.27"/>
</g>
<!-- Node9 -->
<g id="node9" class="node">
<title>Node9</title>
<g id="a_node9"><a xlink:href="obj_8h.html" target="_top" xlink:title=" ">
<polygon fill="white" stroke="black" points="388.5,-112.5 388.5,-131.5 429.5,-131.5 429.5,-112.5 388.5,-112.5"/>
<text text-anchor="middle" x="409" y="-119.5" font-family="Helvetica,sans-Serif" font-size="10.00">obj.h</text>
</a>
</g>
</g>
<!-- Node3&#45;&gt;Node9 -->
<g id="edge9" class="edge">
<title>Node3&#45;&gt;Node9</title>
<path fill="none" stroke="midnightblue" d="M409,-280.08C409,-253.95 409,-177.21 409,-141.58"/>
<polygon fill="midnightblue" stroke="midnightblue" points="412.5,-141.57 409,-131.57 405.5,-141.57 412.5,-141.57"/>
</g>
<!-- Node12 -->
<g id="node12" class="node">
<title>Node12</title>
<g id="a_node12"><a xlink:href="gc_8h.html" target="_top" xlink:title=" ">
<polygon fill="white" stroke="black" points="525.5,-224.5 525.5,-243.5 562.5,-243.5 562.5,-224.5 525.5,-224.5"/>
<text text-anchor="middle" x="544" y="-231.5" font-family="Helvetica,sans-Serif" font-size="10.00">gc.h</text>
</a>
</g>
</g>
<!-- Node3&#45;&gt;Node12 -->
<g id="edge23" class="edge">
<title>Node3&#45;&gt;Node12</title>
<path fill="none" stroke="midnightblue" d="M429.21,-280.92C452.2,-271.72 489.89,-256.64 515.77,-246.29"/>
<polygon fill="midnightblue" stroke="midnightblue" points="517.41,-249.41 525.39,-242.44 514.81,-242.91 517.41,-249.41"/>
</g>
<!-- Node9&#45;&gt;Node2 -->
<g id="edge13" class="edge">
<title>Node9&#45;&gt;Node2</title>
<path fill="none" stroke="midnightblue" d="M388.45,-118.9C347.98,-114.35 255.54,-101.82 182,-76 144.1,-62.7 103.39,-39.72 79.07,-24.95"/>
<polygon fill="midnightblue" stroke="midnightblue" points="80.65,-21.81 70.3,-19.54 76.98,-27.77 80.65,-21.81"/>
</g>
<!-- Node9&#45;&gt;Node4 -->
<g id="edge10" class="edge">
<title>Node9&#45;&gt;Node4</title>
<path fill="none" stroke="midnightblue" d="M388.47,-120.5C350.44,-118.72 267.59,-110.81 209,-76 189.31,-64.3 172.84,-43.46 162.75,-28.53"/>
<polygon fill="midnightblue" stroke="midnightblue" points="165.43,-26.23 157.07,-19.72 159.55,-30.02 165.43,-26.23"/>
</g>
<!-- Node9&#45;&gt;Node5 -->
<g id="edge11" class="edge">
<title>Node9&#45;&gt;Node5</title>
<path fill="none" stroke="midnightblue" d="M410.96,-112.37C415,-94.62 424.3,-53.67 429.77,-29.6"/>
<polygon fill="midnightblue" stroke="midnightblue" points="433.24,-30.12 432.05,-19.59 426.42,-28.57 433.24,-30.12"/>
</g>
<!-- Node9&#45;&gt;Node6 -->
<g id="edge12" class="edge">
<title>Node9&#45;&gt;Node6</title>
<path fill="none" stroke="midnightblue" d="M419.91,-112.37C443.56,-93.65 499.79,-49.15 529.26,-25.83"/>
<polygon fill="midnightblue" stroke="midnightblue" points="531.47,-28.54 537.14,-19.59 527.13,-23.05 531.47,-28.54"/>
</g>
<!-- Node9&#45;&gt;Node7 -->
<g id="edge14" class="edge">
<title>Node9&#45;&gt;Node7</title>
<path fill="none" stroke="midnightblue" d="M406.13,-112.31C401.5,-99.14 391.39,-73.8 377,-56 367.37,-44.09 354.04,-33.34 342.69,-25.35"/>
<polygon fill="midnightblue" stroke="midnightblue" points="344.36,-22.25 334.12,-19.55 340.44,-28.05 344.36,-22.25"/>
</g>
<!-- Node9&#45;&gt;Node8 -->
<g id="edge15" class="edge">
<title>Node9&#45;&gt;Node8</title>
<path fill="none" stroke="midnightblue" d="M429.87,-115.22C462.48,-106.19 525.97,-88.61 566.62,-77.35"/>
<polygon fill="midnightblue" stroke="midnightblue" points="567.72,-80.68 576.42,-74.64 565.85,-73.93 567.72,-80.68"/>
</g>
<!-- Node10 -->
<g id="node10" class="node">
<title>Node10</title>
<g id="a_node10"><a xlink:href="SHM_2hashmap_8h.html" target="_top" xlink:title=" ">
<polygon fill="white" stroke="black" points="272,-56.5 272,-75.5 368,-75.5 368,-56.5 272,-56.5"/>
<text text-anchor="middle" x="320" y="-63.5" font-family="Helvetica,sans-Serif" font-size="10.00">SHM/hashmap.h</text>
</a>
</g>
</g>
<!-- Node9&#45;&gt;Node10 -->
<g id="edge16" class="edge">
<title>Node9&#45;&gt;Node10</title>
<path fill="none" stroke="midnightblue" d="M394.7,-112.32C380.82,-103.9 359.51,-90.97 343.2,-81.07"/>
<polygon fill="midnightblue" stroke="midnightblue" points="344.63,-77.85 334.26,-75.65 341,-83.83 344.63,-77.85"/>
</g>
<!-- Node11 -->
<g id="node11" class="node">
<title>Node11</title>
<g id="a_node11"><a xlink:href="io_8h.html" target="_top" xlink:title=" ">
<polygon fill="white" stroke="black" points="218.5,-56.5 218.5,-75.5 253.5,-75.5 253.5,-56.5 218.5,-56.5"/>
<text text-anchor="middle" x="236" y="-63.5" font-family="Helvetica,sans-Serif" font-size="10.00">io.h</text>
</a>
</g>
</g>
<!-- Node9&#45;&gt;Node11 -->
<g id="edge22" class="edge">
<title>Node9&#45;&gt;Node11</title>
<path fill="none" stroke="midnightblue" d="M388.16,-114.74C361.51,-106.7 313.7,-92.16 263.44,-76.09"/>
<polygon fill="midnightblue" stroke="midnightblue" points="264.29,-72.69 253.7,-72.96 262.15,-79.35 264.29,-72.69"/>
</g>
<!-- Node10&#45;&gt;Node2 -->
<g id="edge18" class="edge">
<title>Node10&#45;&gt;Node2</title>
<path fill="none" stroke="midnightblue" d="M278.33,-56.44C226.91,-45.89 140.41,-28.13 92.18,-18.22"/>
<polygon fill="midnightblue" stroke="midnightblue" points="92.71,-14.76 82.21,-16.18 91.31,-21.62 92.71,-14.76"/>
</g>
<!-- Node10&#45;&gt;Node4 -->
<g id="edge17" class="edge">
<title>Node10&#45;&gt;Node4</title>
<path fill="none" stroke="midnightblue" d="M293.38,-56.44C264.99,-47.32 219.86,-32.81 188.25,-22.65"/>
<polygon fill="midnightblue" stroke="midnightblue" points="189.09,-19.24 178.5,-19.52 186.94,-25.91 189.09,-19.24"/>
</g>
<!-- Node10&#45;&gt;Node5 -->
<g id="edge19" class="edge">
<title>Node10&#45;&gt;Node5</title>
<path fill="none" stroke="midnightblue" d="M338.06,-56.44C356.57,-47.68 385.58,-33.94 406.86,-23.86"/>
<polygon fill="midnightblue" stroke="midnightblue" points="408.48,-26.96 416.02,-19.52 405.49,-20.63 408.48,-26.96"/>
</g>
<!-- Node10&#45;&gt;Node6 -->
<g id="edge20" class="edge">
<title>Node10&#45;&gt;Node6</title>
<path fill="none" stroke="midnightblue" d="M356.13,-56.44C397.16,-46.72 463.98,-30.9 506.95,-20.72"/>
<polygon fill="midnightblue" stroke="midnightblue" points="507.88,-24.1 516.8,-18.39 506.27,-17.29 507.88,-24.1"/>
</g>
<!-- Node10&#45;&gt;Node7 -->
<g id="edge21" class="edge">
<title>Node10&#45;&gt;Node7</title>
<path fill="none" stroke="midnightblue" d="M320,-56.08C320,-49.01 320,-38.86 320,-29.99"/>
<polygon fill="midnightblue" stroke="midnightblue" points="323.5,-29.75 320,-19.75 316.5,-29.75 323.5,-29.75"/>
</g>
<!-- Node12&#45;&gt;Node6 -->
<g id="edge24" class="edge">
<title>Node12&#45;&gt;Node6</title>
<path fill="none" stroke="midnightblue" d="M551.96,-224.33C571.91,-201.92 623.72,-139.37 641,-76 643.34,-67.42 645.72,-63.53 641,-56 629.51,-37.67 608.2,-26.62 588.87,-20.07"/>
<polygon fill="midnightblue" stroke="midnightblue" points="589.89,-16.72 579.31,-17.11 587.83,-23.41 589.89,-16.72"/>
</g>
<!-- Node12&#45;&gt;Node9 -->
<g id="edge25" class="edge">
<title>Node12&#45;&gt;Node9</title>
<path fill="none" stroke="midnightblue" d="M533.41,-224.37C510.54,-205.73 456.29,-161.53 427.57,-138.13"/>
<polygon fill="midnightblue" stroke="midnightblue" points="429.51,-135.19 419.54,-131.59 425.09,-140.62 429.51,-135.19"/>
</g>
<!-- Node13 -->
<g id="node13" class="node">
<title>Node13</title>
<g id="a_node13"><a xlink:href="cgc_8h.html" target="_top" xlink:title=" ">
<polygon fill="white" stroke="black" points="524,-168.5 524,-187.5 566,-187.5 566,-168.5 524,-168.5"/>
<text text-anchor="middle" x="545" y="-175.5" font-family="Helvetica,sans-Serif" font-size="10.00">cgc.h</text>
</a>
</g>
</g>
<!-- Node12&#45;&gt;Node13 -->
<g id="edge26" class="edge">
<title>Node12&#45;&gt;Node13</title>
<path fill="none" stroke="midnightblue" d="M544.17,-224.08C544.3,-217.01 544.48,-206.86 544.65,-197.99"/>
<polygon fill="midnightblue" stroke="midnightblue" points="548.15,-197.81 544.84,-187.75 541.15,-197.68 548.15,-197.81"/>
</g>
<!-- Node13&#45;&gt;Node6 -->
<g id="edge27" class="edge">
<title>Node13&#45;&gt;Node6</title>
<path fill="none" stroke="midnightblue" d="M545.16,-168.08C545.63,-141.95 547.02,-65.21 547.66,-29.58"/>
<polygon fill="midnightblue" stroke="midnightblue" points="551.16,-29.63 547.85,-19.57 544.16,-29.5 551.16,-29.63"/>
</g>
<!-- Node13&#45;&gt;Node9 -->
<g id="edge28" class="edge">
<title>Node13&#45;&gt;Node9</title>
<path fill="none" stroke="midnightblue" d="M523.75,-168.56C501.06,-159.55 464.92,-145.2 439.26,-135.02"/>
<polygon fill="midnightblue" stroke="midnightblue" points="440.24,-131.64 429.66,-131.2 437.66,-138.14 440.24,-131.64"/>
</g>
</g>
</svg>
