<?xml version="1.0" encoding="UTF-8" standalone="no"?>
<!DOCTYPE svg PUBLIC "-//W3C//DTD SVG 1.1//EN"
 "http://www.w3.org/Graphics/SVG/1.1/DTD/svg11.dtd">
<!-- Generated by graphviz version 2.43.0 (0)
 -->
<!-- Title: ENV_BUCKET Pages: 1 -->
<svg width="312pt" height="221pt"
 viewBox="0.00 0.00 311.50 221.00" xmlns="http://www.w3.org/2000/svg" xmlns:xlink="http://www.w3.org/1999/xlink">
<g id="graph0" class="graph" transform="scale(1 1) rotate(0) translate(4 217)">
<title>ENV_BUCKET</title>
<polygon fill="white" stroke="transparent" points="-4,4 -4,-217 307.5,-217 307.5,4 -4,4"/>
<!-- Node1 -->
<g id="node1" class="node">
<title>Node1</title>
<g id="a_node1"><a xlink:title=" ">
<polygon fill="#bfbfbf" stroke="black" points="31.5,-193.5 31.5,-212.5 113.5,-212.5 113.5,-193.5 31.5,-193.5"/>
<text text-anchor="middle" x="72.5" y="-200.5" font-family="Helvetica,sans-Serif" font-size="10.00">ENV_BUCKET</text>
</a>
</g>
</g>
<!-- Node1&#45;&gt;Node1 -->
<g id="edge8" class="edge">
<title>Node1&#45;&gt;Node1</title>
<path fill="none" stroke="#9a32cd" stroke-dasharray="5,2" d="M123.76,-207.79C128.51,-206.81 131.5,-205.21 131.5,-203 131.5,-199.47 123.84,-197.5 113.58,-197.08"/>
<polygon fill="#9a32cd" stroke="#9a32cd" points="123.14,-204.34 113.58,-208.92 123.91,-211.3 123.14,-204.34"/>
<text text-anchor="middle" x="144" y="-200.5" font-family="Helvetica,sans-Serif" font-size="10.00"> next</text>
</g>
<!-- Node3 -->
<g id="node3" class="node">
<title>Node3</title>
<g id="a_node3"><a xlink:href="structENV.html" target="_top" xlink:title=" ">
<polygon fill="white" stroke="black" points="0,-125.5 0,-144.5 37,-144.5 37,-125.5 0,-125.5"/>
<text text-anchor="middle" x="18.5" y="-132.5" font-family="Helvetica,sans-Serif" font-size="10.00">ENV</text>
</a>
</g>
</g>
<!-- Node1&#45;&gt;Node3 -->
<g id="edge4" class="edge">
<title>Node1&#45;&gt;Node3</title>
<path fill="none" stroke="#9a32cd" stroke-dasharray="5,2" d="M58.84,-185.31C48.32,-172.44 34.17,-155.16 25.73,-144.84"/>
<polygon fill="#9a32cd" stroke="#9a32cd" points="56.4,-187.85 65.44,-193.37 61.82,-183.42 56.4,-187.85"/>
<text text-anchor="middle" x="60" y="-167" font-family="Helvetica,sans-Serif" font-size="10.00"> list</text>
</g>
<!-- Node2 -->
<g id="node2" class="node">
<title>Node2</title>
<g id="a_node2"><a xlink:href="structOBJ.html" target="_top" xlink:title=" ">
<polygon fill="white" stroke="black" points="109.5,-23.5 109.5,-42.5 143.5,-42.5 143.5,-23.5 109.5,-23.5"/>
<text text-anchor="middle" x="126.5" y="-30.5" font-family="Helvetica,sans-Serif" font-size="10.00">OBJ</text>
</a>
</g>
</g>
<!-- Node2&#45;&gt;Node1 -->
<g id="edge1" class="edge">
<title>Node2&#45;&gt;Node1</title>
<path fill="none" stroke="#9a32cd" stroke-dasharray="5,2" d="M123.01,-52.46C118.5,-74.92 109.87,-113.83 98.5,-146 92.35,-163.38 82.73,-182.69 77.08,-193.48"/>
<polygon fill="#9a32cd" stroke="#9a32cd" points="126.45,-53.08 124.93,-42.59 119.58,-51.74 126.45,-53.08"/>
<text text-anchor="middle" x="115" y="-132.5" font-family="Helvetica,sans-Serif" font-size="10.00"> val</text>
</g>
<!-- Node2&#45;&gt;Node2 -->
<g id="edge2" class="edge">
<title>Node2&#45;&gt;Node2</title>
<path fill="none" stroke="#9a32cd" stroke-dasharray="5,2" d="M148.86,-44.62C155.93,-44.45 161.5,-40.58 161.5,-33 161.5,-21.98 149.71,-18.8 138.7,-23.44"/>
<polygon fill="#9a32cd" stroke="#9a32cd" points="149.19,-41.11 138.7,-42.56 147.8,-47.97 149.19,-41.11"/>
<text text-anchor="middle" x="178.5" y="-58" font-family="Helvetica,sans-Serif" font-size="10.00"> body</text>
<text text-anchor="middle" x="178.5" y="-47" font-family="Helvetica,sans-Serif" font-size="10.00">c_fn</text>
<text text-anchor="middle" x="178.5" y="-36" font-family="Helvetica,sans-Serif" font-size="10.00">cdr</text>
<text text-anchor="middle" x="178.5" y="-25" font-family="Helvetica,sans-Serif" font-size="10.00">args</text>
<text text-anchor="middle" x="178.5" y="-14" font-family="Helvetica,sans-Serif" font-size="10.00">moved</text>
<text text-anchor="middle" x="178.5" y="-3" font-family="Helvetica,sans-Serif" font-size="10.00">car</text>
</g>
<!-- Node3&#45;&gt;Node2 -->
<g id="edge3" class="edge">
<title>Node3&#45;&gt;Node2</title>
<path fill="none" stroke="#9a32cd" stroke-dasharray="5,2" d="M35.35,-118.4C58.45,-97.01 99.16,-59.31 117.32,-42.5"/>
<polygon fill="#9a32cd" stroke="#9a32cd" points="32.67,-116.11 27.71,-125.47 37.42,-121.25 32.67,-116.11"/>
<text text-anchor="middle" x="85" y="-98" font-family="Helvetica,sans-Serif" font-size="10.00"> map</text>
<text text-anchor="middle" x="85" y="-87" font-family="Helvetica,sans-Serif" font-size="10.00">env</text>
</g>
<!-- Node3&#45;&gt;Node3 -->
<g id="edge5" class="edge">
<title>Node3&#45;&gt;Node3</title>
<path fill="none" stroke="#9a32cd" stroke-dasharray="5,2" d="M47.35,-140.85C51.9,-139.99 55,-138.03 55,-135 55,-130.02 46.65,-127.96 37.28,-128.81"/>
<polygon fill="#9a32cd" stroke="#9a32cd" points="47.16,-137.36 37.28,-141.19 47.39,-144.35 47.16,-137.36"/>
<text text-anchor="middle" x="72.5" y="-132.5" font-family="Helvetica,sans-Serif" font-size="10.00"> parent</text>
</g>
<!-- Node4 -->
<g id="node4" class="node">
<title>Node4</title>
<g id="a_node4"><a xlink:href="struct__IO__FILE.html" target="_top" xlink:title=" ">
<polygon fill="white" stroke="black" points="163.5,-125.5 163.5,-144.5 221.5,-144.5 221.5,-125.5 163.5,-125.5"/>
<text text-anchor="middle" x="192.5" y="-132.5" font-family="Helvetica,sans-Serif" font-size="10.00">_IO_FILE</text>
</a>
</g>
</g>
<!-- Node4&#45;&gt;Node2 -->
<g id="edge6" class="edge">
<title>Node4&#45;&gt;Node2</title>
<path fill="none" stroke="#9a32cd" stroke-dasharray="5,2" d="M181.26,-116.97C167,-95.36 142.96,-58.94 132.11,-42.5"/>
<polygon fill="#9a32cd" stroke="#9a32cd" points="178.44,-119.06 186.87,-125.47 184.29,-115.2 178.44,-119.06"/>
<text text-anchor="middle" x="182" y="-92.5" font-family="Helvetica,sans-Serif" font-size="10.00"> file</text>
</g>
<!-- Node4&#45;&gt;Node4 -->
<g id="edge7" class="edge">
<title>Node4&#45;&gt;Node4</title>
<path fill="none" stroke="#9a32cd" stroke-dasharray="5,2" d="M232.1,-140.4C236.59,-139.39 239.5,-137.59 239.5,-135 239.5,-130.75 231.67,-128.62 221.88,-128.62"/>
<polygon fill="#9a32cd" stroke="#9a32cd" points="231.5,-136.94 221.88,-141.38 232.16,-143.91 231.5,-136.94"/>
<text text-anchor="middle" x="271.5" y="-138" font-family="Helvetica,sans-Serif" font-size="10.00"> _freeres_list</text>
<text text-anchor="middle" x="271.5" y="-127" font-family="Helvetica,sans-Serif" font-size="10.00">_chain</text>
</g>
</g>
</svg>
