<?xml version="1.0" encoding="UTF-8" standalone="no"?>
<!DOCTYPE svg PUBLIC "-//W3C//DTD SVG 1.1//EN"
 "http://www.w3.org/Graphics/SVG/1.1/DTD/svg11.dtd">
<!-- Generated by graphviz version 2.43.0 (0)
 -->
<!-- Title: __pthread_mutex_s Pages: 1 -->
<svg width="190pt" height="97pt"
 viewBox="0.00 0.00 190.00 97.00" xmlns="http://www.w3.org/2000/svg" xmlns:xlink="http://www.w3.org/1999/xlink">
<g id="graph0" class="graph" transform="scale(1 1) rotate(0) translate(4 93)">
<title>__pthread_mutex_s</title>
<polygon fill="white" stroke="transparent" points="-4,4 -4,-93 186,-93 186,4 -4,4"/>
<!-- Node1 -->
<g id="node1" class="node">
<title>Node1</title>
<g id="a_node1"><a xlink:title=" ">
<polygon fill="#bfbfbf" stroke="black" points="8,-0.5 8,-19.5 120,-19.5 120,-0.5 8,-0.5"/>
<text text-anchor="middle" x="64" y="-7.5" font-family="Helvetica,sans-Serif" font-size="10.00">__pthread_mutex_s</text>
</a>
</g>
</g>
<!-- Node2 -->
<g id="node2" class="node">
<title>Node2</title>
<g id="a_node2"><a xlink:href="struct____pthread__internal__list.html" target="_top" xlink:title=" ">
<polygon fill="white" stroke="black" points="0,-68.5 0,-87.5 128,-87.5 128,-68.5 0,-68.5"/>
<text text-anchor="middle" x="64" y="-75.5" font-family="Helvetica,sans-Serif" font-size="10.00">__pthread_internal_list</text>
</a>
</g>
</g>
<!-- Node2&#45;&gt;Node1 -->
<g id="edge1" class="edge">
<title>Node2&#45;&gt;Node1</title>
<path fill="none" stroke="#9a32cd" stroke-dasharray="5,2" d="M64,-58.04C64,-45.47 64,-29.56 64,-19.84"/>
<polygon fill="#9a32cd" stroke="#9a32cd" points="60.5,-58.37 64,-68.37 67.5,-58.37 60.5,-58.37"/>
<text text-anchor="middle" x="78.5" y="-41" font-family="Helvetica,sans-Serif" font-size="10.00"> __list</text>
</g>
<!-- Node2&#45;&gt;Node2 -->
<g id="edge2" class="edge">
<title>Node2&#45;&gt;Node2</title>
<path fill="none" stroke="#9a32cd" stroke-dasharray="5,2" d="M138.51,-82.48C143.18,-81.42 146,-79.93 146,-78 146,-74.91 138.79,-72.95 128.29,-72.1"/>
<polygon fill="#9a32cd" stroke="#9a32cd" points="137.71,-79.05 128.29,-83.9 138.67,-85.99 137.71,-79.05"/>
<text text-anchor="middle" x="164" y="-81" font-family="Helvetica,sans-Serif" font-size="10.00"> __prev</text>
<text text-anchor="middle" x="164" y="-70" font-family="Helvetica,sans-Serif" font-size="10.00">__next</text>
</g>
</g>
</svg>
