<?xml version="1.0" encoding="UTF-8" standalone="no"?>
<!DOCTYPE svg PUBLIC "-//W3C//DTD SVG 1.1//EN"
 "http://www.w3.org/Graphics/SVG/1.1/DTD/svg11.dtd">
<!-- Generated by graphviz version 2.43.0 (0)
 -->
<!-- Title: OBJ_PAIR Pages: 1 -->
<svg width="282pt" height="290pt"
 viewBox="0.00 0.00 281.50 290.00" xmlns="http://www.w3.org/2000/svg" xmlns:xlink="http://www.w3.org/1999/xlink">
<g id="graph0" class="graph" transform="scale(1 1) rotate(0) translate(4 286)">
<title>OBJ_PAIR</title>
<polygon fill="white" stroke="transparent" points="-4,4 -4,-286 277.5,-286 277.5,4 -4,4"/>
<!-- Node1 -->
<g id="node1" class="node">
<title>Node1</title>
<g id="a_node1"><a xlink:title=" ">
<polygon fill="#bfbfbf" stroke="black" points="0,-68.5 0,-87.5 62,-87.5 62,-68.5 0,-68.5"/>
<text text-anchor="middle" x="31" y="-75.5" font-family="Helvetica,sans-Serif" font-size="10.00">OBJ_PAIR</text>
</a>
</g>
</g>
<!-- Node2 -->
<g id="node2" class="node">
<title>Node2</title>
<g id="a_node2"><a xlink:href="structOBJ.html" target="_top" xlink:title=" ">
<polygon fill="white" stroke="black" points="104,-170.5 104,-189.5 138,-189.5 138,-170.5 104,-170.5"/>
<text text-anchor="middle" x="121" y="-177.5" font-family="Helvetica,sans-Serif" font-size="10.00">OBJ</text>
</a>
</g>
</g>
<!-- Node2&#45;&gt;Node1 -->
<g id="edge1" class="edge">
<title>Node2&#45;&gt;Node1</title>
<path fill="none" stroke="#9a32cd" stroke-dasharray="5,2" d="M106.45,-162.83C87.11,-141.35 53.65,-104.17 38.65,-87.5"/>
<polygon fill="#9a32cd" stroke="#9a32cd" points="104.04,-165.38 113.33,-170.47 109.24,-160.7 104.04,-165.38"/>
<text text-anchor="middle" x="90" y="-121" font-family="Helvetica,sans-Serif" font-size="10.00"> head</text>
<text text-anchor="middle" x="90" y="-110" font-family="Helvetica,sans-Serif" font-size="10.00">tail</text>
</g>
<!-- Node2&#45;&gt;Node2 -->
<g id="edge2" class="edge">
<title>Node2&#45;&gt;Node2</title>
<path fill="none" stroke="#9a32cd" stroke-dasharray="5,2" d="M146.43,-190.2C151.97,-189.22 156,-185.82 156,-180 156,-170.92 146.19,-167.73 136.11,-170.43"/>
<polygon fill="#9a32cd" stroke="#9a32cd" points="146.3,-186.69 136.11,-189.57 145.88,-193.67 146.3,-186.69"/>
<text text-anchor="middle" x="173" y="-205" font-family="Helvetica,sans-Serif" font-size="10.00"> body</text>
<text text-anchor="middle" x="173" y="-194" font-family="Helvetica,sans-Serif" font-size="10.00">c_fn</text>
<text text-anchor="middle" x="173" y="-183" font-family="Helvetica,sans-Serif" font-size="10.00">cdr</text>
<text text-anchor="middle" x="173" y="-172" font-family="Helvetica,sans-Serif" font-size="10.00">args</text>
<text text-anchor="middle" x="173" y="-161" font-family="Helvetica,sans-Serif" font-size="10.00">moved</text>
<text text-anchor="middle" x="173" y="-150" font-family="Helvetica,sans-Serif" font-size="10.00">car</text>
</g>
<!-- Node4 -->
<g id="node4" class="node">
<title>Node4</title>
<g id="a_node4"><a xlink:href="structENV__BUCKET.html" target="_top" xlink:title=" ">
<polygon fill="white" stroke="black" points="80,-68.5 80,-87.5 162,-87.5 162,-68.5 80,-68.5"/>
<text text-anchor="middle" x="121" y="-75.5" font-family="Helvetica,sans-Serif" font-size="10.00">ENV_BUCKET</text>
</a>
</g>
</g>
<!-- Node2&#45;&gt;Node4 -->
<g id="edge5" class="edge">
<title>Node2&#45;&gt;Node4</title>
<path fill="none" stroke="#9a32cd" stroke-dasharray="5,2" d="M121,-160.19C121,-138.42 121,-103.5 121,-87.5"/>
<polygon fill="#9a32cd" stroke="#9a32cd" points="117.5,-160.47 121,-170.47 124.5,-160.47 117.5,-160.47"/>
<text text-anchor="middle" x="130.5" y="-115.5" font-family="Helvetica,sans-Serif" font-size="10.00"> val</text>
</g>
<!-- Node3 -->
<g id="node3" class="node">
<title>Node3</title>
<g id="a_node3"><a xlink:href="structENV.html" target="_top" xlink:title=" ">
<polygon fill="white" stroke="black" points="183.5,-0.5 183.5,-19.5 220.5,-19.5 220.5,-0.5 183.5,-0.5"/>
<text text-anchor="middle" x="202" y="-7.5" font-family="Helvetica,sans-Serif" font-size="10.00">ENV</text>
</a>
</g>
</g>
<!-- Node3&#45;&gt;Node2 -->
<g id="edge3" class="edge">
<title>Node3&#45;&gt;Node2</title>
<path fill="none" stroke="#9a32cd" stroke-dasharray="5,2" d="M210.09,-28.96C216.2,-45.22 222.25,-69.55 214,-89 197.95,-126.86 157.33,-156.58 135.46,-170.45"/>
<polygon fill="#9a32cd" stroke="#9a32cd" points="213.27,-27.48 206.22,-19.57 206.8,-30.15 213.27,-27.48"/>
<text text-anchor="middle" x="230.5" y="-81" font-family="Helvetica,sans-Serif" font-size="10.00"> map</text>
<text text-anchor="middle" x="230.5" y="-70" font-family="Helvetica,sans-Serif" font-size="10.00">env</text>
</g>
<!-- Node3&#45;&gt;Node3 -->
<g id="edge7" class="edge">
<title>Node3&#45;&gt;Node3</title>
<path fill="none" stroke="#9a32cd" stroke-dasharray="5,2" d="M230.85,-15.51C235.4,-14.69 238.5,-12.86 238.5,-10 238.5,-5.31 230.15,-3.37 220.78,-4.18"/>
<polygon fill="#9a32cd" stroke="#9a32cd" points="230.67,-12.01 220.78,-15.82 230.88,-19.01 230.67,-12.01"/>
<text text-anchor="middle" x="256" y="-7.5" font-family="Helvetica,sans-Serif" font-size="10.00"> parent</text>
</g>
<!-- Node4&#45;&gt;Node3 -->
<g id="edge4" class="edge">
<title>Node4&#45;&gt;Node3</title>
<path fill="none" stroke="#9a32cd" stroke-dasharray="5,2" d="M139.74,-61.73C155.78,-48.66 178.31,-30.3 191.41,-19.63"/>
<polygon fill="#9a32cd" stroke="#9a32cd" points="137.13,-59.34 131.59,-68.37 141.55,-64.77 137.13,-59.34"/>
<text text-anchor="middle" x="178.5" y="-41" font-family="Helvetica,sans-Serif" font-size="10.00"> list</text>
</g>
<!-- Node4&#45;&gt;Node4 -->
<g id="edge6" class="edge">
<title>Node4&#45;&gt;Node4</title>
<path fill="none" stroke="#9a32cd" stroke-dasharray="5,2" d="M172.26,-83.09C177.01,-82.04 180,-80.34 180,-78 180,-74.25 172.34,-72.15 162.08,-71.71"/>
<polygon fill="#9a32cd" stroke="#9a32cd" points="171.61,-79.65 162.08,-84.29 172.42,-86.6 171.61,-79.65"/>
<text text-anchor="middle" x="192.5" y="-75.5" font-family="Helvetica,sans-Serif" font-size="10.00"> next</text>
</g>
<!-- Node5 -->
<g id="node5" class="node">
<title>Node5</title>
<g id="a_node5"><a xlink:href="struct__IO__FILE.html" target="_top" xlink:title=" ">
<polygon fill="white" stroke="black" points="92,-261.5 92,-280.5 150,-280.5 150,-261.5 92,-261.5"/>
<text text-anchor="middle" x="121" y="-268.5" font-family="Helvetica,sans-Serif" font-size="10.00">_IO_FILE</text>
</a>
</g>
</g>
<!-- Node5&#45;&gt;Node2 -->
<g id="edge8" class="edge">
<title>Node5&#45;&gt;Node2</title>
<path fill="none" stroke="#9a32cd" stroke-dasharray="5,2" d="M121,-251.35C121,-232.38 121,-203.83 121,-189.64"/>
<polygon fill="#9a32cd" stroke="#9a32cd" points="117.5,-251.47 121,-261.47 124.5,-251.47 117.5,-251.47"/>
<text text-anchor="middle" x="130.5" y="-234" font-family="Helvetica,sans-Serif" font-size="10.00"> file</text>
</g>
<!-- Node5&#45;&gt;Node5 -->
<g id="edge9" class="edge">
<title>Node5&#45;&gt;Node5</title>
<path fill="none" stroke="#9a32cd" stroke-dasharray="5,2" d="M160.6,-276.4C165.09,-275.39 168,-273.59 168,-271 168,-266.75 160.17,-264.62 150.38,-264.62"/>
<polygon fill="#9a32cd" stroke="#9a32cd" points="160,-272.94 150.38,-277.38 160.66,-279.91 160,-272.94"/>
<text text-anchor="middle" x="200" y="-274" font-family="Helvetica,sans-Serif" font-size="10.00"> _freeres_list</text>
<text text-anchor="middle" x="200" y="-263" font-family="Helvetica,sans-Serif" font-size="10.00">_chain</text>
</g>
</g>
</svg>
