<?xml version="1.0" encoding="UTF-8" standalone="no"?>
<!DOCTYPE svg PUBLIC "-//W3C//DTD SVG 1.1//EN"
 "http://www.w3.org/Graphics/SVG/1.1/DTD/svg11.dtd">
<!-- Generated by graphviz version 2.43.0 (0)
 -->
<!-- Title: ENV Pages: 1 -->
<svg width="263pt" height="221pt"
 viewBox="0.00 0.00 263.00 221.00" xmlns="http://www.w3.org/2000/svg" xmlns:xlink="http://www.w3.org/1999/xlink">
<g id="graph0" class="graph" transform="scale(1 1) rotate(0) translate(4 217)">
<title>ENV</title>
<polygon fill="white" stroke="transparent" points="-4,4 -4,-217 259,-217 259,4 -4,4"/>
<!-- Node1 -->
<g id="node1" class="node">
<title>Node1</title>
<g id="a_node1"><a xlink:title=" ">
<polygon fill="#bfbfbf" stroke="black" points="6.5,-192.5 6.5,-211.5 43.5,-211.5 43.5,-192.5 6.5,-192.5"/>
<text text-anchor="middle" x="25" y="-199.5" font-family="Helvetica,sans-Serif" font-size="10.00">ENV</text>
</a>
</g>
</g>
<!-- Node1&#45;&gt;Node1 -->
<g id="edge8" class="edge">
<title>Node1&#45;&gt;Node1</title>
<path fill="none" stroke="#9a32cd" stroke-dasharray="5,2" d="M53.85,-208.89C58.4,-207.87 61.5,-205.57 61.5,-202 61.5,-196.14 53.15,-193.71 43.78,-194.72"/>
<polygon fill="#9a32cd" stroke="#9a32cd" points="53.64,-205.39 43.78,-209.28 53.91,-212.39 53.64,-205.39"/>
<text text-anchor="middle" x="79" y="-199.5" font-family="Helvetica,sans-Serif" font-size="10.00"> parent</text>
</g>
<!-- Node3 -->
<g id="node3" class="node">
<title>Node3</title>
<g id="a_node3"><a xlink:href="structOBJ.html" target="_top" xlink:title=" ">
<polygon fill="white" stroke="black" points="62,-90.5 62,-109.5 96,-109.5 96,-90.5 62,-90.5"/>
<text text-anchor="middle" x="79" y="-97.5" font-family="Helvetica,sans-Serif" font-size="10.00">OBJ</text>
</a>
</g>
</g>
<!-- Node1&#45;&gt;Node3 -->
<g id="edge4" class="edge">
<title>Node1&#45;&gt;Node3</title>
<path fill="none" stroke="#9a32cd" stroke-dasharray="5,2" d="M34.51,-183.38C46.22,-161.71 65.61,-125.8 74.41,-109.5"/>
<polygon fill="#9a32cd" stroke="#9a32cd" points="31.28,-182.01 29.6,-192.47 37.44,-185.34 31.28,-182.01"/>
<text text-anchor="middle" x="64.5" y="-165" font-family="Helvetica,sans-Serif" font-size="10.00"> map</text>
<text text-anchor="middle" x="64.5" y="-154" font-family="Helvetica,sans-Serif" font-size="10.00">env</text>
</g>
<!-- Node2 -->
<g id="node2" class="node">
<title>Node2</title>
<g id="a_node2"><a xlink:href="structENV__BUCKET.html" target="_top" xlink:title=" ">
<polygon fill="white" stroke="black" points="0,-0.5 0,-19.5 82,-19.5 82,-0.5 0,-0.5"/>
<text text-anchor="middle" x="41" y="-7.5" font-family="Helvetica,sans-Serif" font-size="10.00">ENV_BUCKET</text>
</a>
</g>
</g>
<!-- Node2&#45;&gt;Node1 -->
<g id="edge1" class="edge">
<title>Node2&#45;&gt;Node1</title>
<path fill="none" stroke="#9a32cd" stroke-dasharray="5,2" d="M38.39,-29.72C36.94,-40.59 35.2,-54.55 34,-67 29.48,-114.12 26.47,-170.77 25.42,-192.21"/>
<polygon fill="#9a32cd" stroke="#9a32cd" points="41.87,-30.09 39.75,-19.71 34.93,-29.15 41.87,-30.09"/>
<text text-anchor="middle" x="43.5" y="-97.5" font-family="Helvetica,sans-Serif" font-size="10.00"> list</text>
</g>
<!-- Node2&#45;&gt;Node2 -->
<g id="edge7" class="edge">
<title>Node2&#45;&gt;Node2</title>
<path fill="none" stroke="#9a32cd" stroke-dasharray="5,2" d="M92.26,-14.79C97.01,-13.81 100,-12.21 100,-10 100,-6.47 92.34,-4.5 82.08,-4.08"/>
<polygon fill="#9a32cd" stroke="#9a32cd" points="91.64,-11.34 82.08,-15.92 92.41,-18.3 91.64,-11.34"/>
<text text-anchor="middle" x="112.5" y="-7.5" font-family="Helvetica,sans-Serif" font-size="10.00"> next</text>
</g>
<!-- Node3&#45;&gt;Node2 -->
<g id="edge2" class="edge">
<title>Node3&#45;&gt;Node2</title>
<path fill="none" stroke="#9a32cd" stroke-dasharray="5,2" d="M71.24,-81.03C63.18,-62.36 50.9,-33.93 44.77,-19.72"/>
<polygon fill="#9a32cd" stroke="#9a32cd" points="68.04,-82.45 75.22,-90.24 74.47,-79.67 68.04,-82.45"/>
<text text-anchor="middle" x="66.5" y="-41" font-family="Helvetica,sans-Serif" font-size="10.00"> val</text>
</g>
<!-- Node3&#45;&gt;Node3 -->
<g id="edge3" class="edge">
<title>Node3&#45;&gt;Node3</title>
<path fill="none" stroke="#9a32cd" stroke-dasharray="5,2" d="M104.43,-110.2C109.97,-109.22 114,-105.82 114,-100 114,-90.92 104.19,-87.73 94.11,-90.43"/>
<polygon fill="#9a32cd" stroke="#9a32cd" points="104.3,-106.69 94.11,-109.57 103.88,-113.67 104.3,-106.69"/>
<text text-anchor="middle" x="131" y="-125" font-family="Helvetica,sans-Serif" font-size="10.00"> body</text>
<text text-anchor="middle" x="131" y="-114" font-family="Helvetica,sans-Serif" font-size="10.00">c_fn</text>
<text text-anchor="middle" x="131" y="-103" font-family="Helvetica,sans-Serif" font-size="10.00">cdr</text>
<text text-anchor="middle" x="131" y="-92" font-family="Helvetica,sans-Serif" font-size="10.00">args</text>
<text text-anchor="middle" x="131" y="-81" font-family="Helvetica,sans-Serif" font-size="10.00">moved</text>
<text text-anchor="middle" x="131" y="-70" font-family="Helvetica,sans-Serif" font-size="10.00">car</text>
</g>
<!-- Node4 -->
<g id="node4" class="node">
<title>Node4</title>
<g id="a_node4"><a xlink:href="struct__IO__FILE.html" target="_top" xlink:title=" ">
<polygon fill="white" stroke="black" points="115,-192.5 115,-211.5 173,-211.5 173,-192.5 115,-192.5"/>
<text text-anchor="middle" x="144" y="-199.5" font-family="Helvetica,sans-Serif" font-size="10.00">_IO_FILE</text>
</a>
</g>
</g>
<!-- Node4&#45;&gt;Node3 -->
<g id="edge5" class="edge">
<title>Node4&#45;&gt;Node3</title>
<path fill="none" stroke="#9a32cd" stroke-dasharray="5,2" d="M132.93,-183.97C118.89,-162.36 95.21,-125.94 84.53,-109.5"/>
<polygon fill="#9a32cd" stroke="#9a32cd" points="130.07,-186 138.46,-192.47 135.94,-182.18 130.07,-186"/>
<text text-anchor="middle" x="133.5" y="-159.5" font-family="Helvetica,sans-Serif" font-size="10.00"> file</text>
</g>
<!-- Node4&#45;&gt;Node4 -->
<g id="edge6" class="edge">
<title>Node4&#45;&gt;Node4</title>
<path fill="none" stroke="#9a32cd" stroke-dasharray="5,2" d="M183.6,-208.36C188.09,-207.17 191,-205.05 191,-202 191,-197 183.17,-194.5 173.38,-194.5"/>
<polygon fill="#9a32cd" stroke="#9a32cd" points="182.92,-204.91 173.38,-209.5 183.7,-211.87 182.92,-204.91"/>
<text text-anchor="middle" x="223" y="-205" font-family="Helvetica,sans-Serif" font-size="10.00"> _freeres_list</text>
<text text-anchor="middle" x="223" y="-194" font-family="Helvetica,sans-Serif" font-size="10.00">_chain</text>
</g>
</g>
</svg>
