<?xml version="1.0" encoding="UTF-8" standalone="no"?>
<!DOCTYPE svg PUBLIC "-//W3C//DTD SVG 1.1//EN"
 "http://www.w3.org/Graphics/SVG/1.1/DTD/svg11.dtd">
<!-- Generated by graphviz version 2.43.0 (0)
 -->
<!-- Title: LEXER Pages: 1 -->
<svg width="104pt" height="173pt"
 viewBox="0.00 0.00 104.00 173.00" xmlns="http://www.w3.org/2000/svg" xmlns:xlink="http://www.w3.org/1999/xlink">
<g id="graph0" class="graph" transform="scale(1 1) rotate(0) translate(4 169)">
<title>LEXER</title>
<polygon fill="white" stroke="transparent" points="-4,4 -4,-169 100,-169 100,4 -4,4"/>
<!-- Node1 -->
<g id="node1" class="node">
<title>Node1</title>
<g id="a_node1"><a xlink:title=" ">
<polygon fill="#bfbfbf" stroke="black" points="7.5,-0.5 7.5,-19.5 54.5,-19.5 54.5,-0.5 7.5,-0.5"/>
<text text-anchor="middle" x="31" y="-7.5" font-family="Helvetica,sans-Serif" font-size="10.00">LEXER</text>
</a>
</g>
</g>
<!-- Node2 -->
<g id="node2" class="node">
<title>Node2</title>
<g id="a_node2"><a xlink:href="structTOKEN.html" target="_top" xlink:title=" ">
<polygon fill="white" stroke="black" points="46,-67.5 46,-86.5 96,-86.5 96,-67.5 46,-67.5"/>
<text text-anchor="middle" x="71" y="-74.5" font-family="Helvetica,sans-Serif" font-size="10.00">TOKEN</text>
</a>
</g>
</g>
<!-- Node2&#45;&gt;Node1 -->
<g id="edge1" class="edge">
<title>Node2&#45;&gt;Node1</title>
<path fill="none" stroke="#9a32cd" stroke-dasharray="5,2" d="M60.25,-58.53C52.51,-45.95 42.39,-29.51 36.31,-19.63"/>
<polygon fill="#9a32cd" stroke="#9a32cd" points="57.38,-60.55 65.61,-67.23 63.35,-56.88 57.38,-60.55"/>
<text text-anchor="middle" x="71" y="-41" font-family="Helvetica,sans-Serif" font-size="10.00"> tokens</text>
</g>
<!-- Node3 -->
<g id="node3" class="node">
<title>Node3</title>
<g id="a_node3"><a xlink:href="structMARK.html" target="_top" xlink:title=" ">
<polygon fill="white" stroke="black" points="0,-145.5 0,-164.5 46,-164.5 46,-145.5 0,-145.5"/>
<text text-anchor="middle" x="23" y="-152.5" font-family="Helvetica,sans-Serif" font-size="10.00">MARK</text>
</a>
</g>
</g>
<!-- Node3&#45;&gt;Node1 -->
<g id="edge3" class="edge">
<title>Node3&#45;&gt;Node1</title>
<path fill="none" stroke="#9a32cd" stroke-dasharray="5,2" d="M19.25,-135.48C16.21,-117.83 12.9,-90.53 16,-67 18.26,-49.84 24.25,-30.46 27.94,-19.59"/>
<polygon fill="#9a32cd" stroke="#9a32cd" points="15.82,-136.14 21.09,-145.33 22.7,-134.85 15.82,-136.14"/>
<text text-anchor="middle" x="26.5" y="-74.5" font-family="Helvetica,sans-Serif" font-size="10.00"> pos</text>
</g>
<!-- Node3&#45;&gt;Node2 -->
<g id="edge2" class="edge">
<title>Node3&#45;&gt;Node2</title>
<path fill="none" stroke="#9a32cd" stroke-dasharray="5,2" d="M34.01,-136.57C43.87,-120.95 57.93,-98.7 65.56,-86.62"/>
<polygon fill="#9a32cd" stroke="#9a32cd" points="30.89,-134.96 28.51,-145.28 36.81,-138.7 30.89,-134.96"/>
<text text-anchor="middle" x="64.5" y="-119" font-family="Helvetica,sans-Serif" font-size="10.00"> stop</text>
<text text-anchor="middle" x="64.5" y="-108" font-family="Helvetica,sans-Serif" font-size="10.00">start</text>
</g>
</g>
</svg>
