<?xml version="1.0" encoding="UTF-8" standalone="no"?>
<!DOCTYPE svg PUBLIC "-//W3C//DTD SVG 1.1//EN"
 "http://www.w3.org/Graphics/SVG/1.1/DTD/svg11.dtd">
<!-- Generated by graphviz version 2.43.0 (0)
 -->
<!-- Title: GC Pages: 1 -->
<svg width="199pt" height="379pt"
 viewBox="0.00 0.00 198.50 379.00" xmlns="http://www.w3.org/2000/svg" xmlns:xlink="http://www.w3.org/1999/xlink">
<g id="graph0" class="graph" transform="scale(1 1) rotate(0) translate(4 375)">
<title>GC</title>
<polygon fill="white" stroke="transparent" points="-4,4 -4,-375 194.5,-375 194.5,4 -4,4"/>
<!-- Node1 -->
<g id="node1" class="node">
<title>Node1</title>
<g id="a_node1"><a xlink:title=" ">
<polygon fill="#bfbfbf" stroke="black" points="0,-0.5 0,-19.5 31,-19.5 31,-0.5 0,-0.5"/>
<text text-anchor="middle" x="15.5" y="-7.5" font-family="Helvetica,sans-Serif" font-size="10.00">GC</text>
</a>
</g>
</g>
<!-- Node2 -->
<g id="node2" class="node">
<title>Node2</title>
<g id="a_node2"><a xlink:href="structOBJ.html" target="_top" xlink:title=" ">
<polygon fill="white" stroke="black" points="51.5,-259.5 51.5,-278.5 85.5,-278.5 85.5,-259.5 51.5,-259.5"/>
<text text-anchor="middle" x="68.5" y="-266.5" font-family="Helvetica,sans-Serif" font-size="10.00">OBJ</text>
</a>
</g>
</g>
<!-- Node2&#45;&gt;Node1 -->
<g id="edge1" class="edge">
<title>Node2&#45;&gt;Node1</title>
<path fill="none" stroke="#9a32cd" stroke-dasharray="5,2" d="M54.77,-251.28C37.94,-229.4 10.77,-189.11 3.5,-149 -5.25,-100.73 7.56,-41.76 13.13,-19.79"/>
<polygon fill="#9a32cd" stroke="#9a32cd" points="52.1,-253.55 61.05,-259.22 57.59,-249.21 52.1,-253.55"/>
<text text-anchor="middle" x="37.5" y="-141" font-family="Helvetica,sans-Serif" font-size="10.00"> from_space</text>
<text text-anchor="middle" x="37.5" y="-130" font-family="Helvetica,sans-Serif" font-size="10.00">memory_pool</text>
<text text-anchor="middle" x="37.5" y="-119" font-family="Helvetica,sans-Serif" font-size="10.00">to_space</text>
<text text-anchor="middle" x="37.5" y="-108" font-family="Helvetica,sans-Serif" font-size="10.00">ptr</text>
</g>
<!-- Node2&#45;&gt;Node2 -->
<g id="edge2" class="edge">
<title>Node2&#45;&gt;Node2</title>
<path fill="none" stroke="#9a32cd" stroke-dasharray="5,2" d="M93.93,-279.2C99.47,-278.22 103.5,-274.82 103.5,-269 103.5,-259.92 93.69,-256.73 83.61,-259.43"/>
<polygon fill="#9a32cd" stroke="#9a32cd" points="93.8,-275.69 83.61,-278.57 93.38,-282.67 93.8,-275.69"/>
<text text-anchor="middle" x="120.5" y="-294" font-family="Helvetica,sans-Serif" font-size="10.00"> body</text>
<text text-anchor="middle" x="120.5" y="-283" font-family="Helvetica,sans-Serif" font-size="10.00">c_fn</text>
<text text-anchor="middle" x="120.5" y="-272" font-family="Helvetica,sans-Serif" font-size="10.00">cdr</text>
<text text-anchor="middle" x="120.5" y="-261" font-family="Helvetica,sans-Serif" font-size="10.00">args</text>
<text text-anchor="middle" x="120.5" y="-250" font-family="Helvetica,sans-Serif" font-size="10.00">moved</text>
<text text-anchor="middle" x="120.5" y="-239" font-family="Helvetica,sans-Serif" font-size="10.00">car</text>
</g>
<!-- Node4 -->
<g id="node4" class="node">
<title>Node4</title>
<g id="a_node4"><a xlink:href="structENV__BUCKET.html" target="_top" xlink:title=" ">
<polygon fill="white" stroke="black" points="27.5,-168.5 27.5,-187.5 109.5,-187.5 109.5,-168.5 27.5,-168.5"/>
<text text-anchor="middle" x="68.5" y="-175.5" font-family="Helvetica,sans-Serif" font-size="10.00">ENV_BUCKET</text>
</a>
</g>
</g>
<!-- Node2&#45;&gt;Node4 -->
<g id="edge5" class="edge">
<title>Node2&#45;&gt;Node4</title>
<path fill="none" stroke="#9a32cd" stroke-dasharray="5,2" d="M68.5,-249.35C68.5,-230.38 68.5,-201.83 68.5,-187.64"/>
<polygon fill="#9a32cd" stroke="#9a32cd" points="65,-249.47 68.5,-259.47 72,-249.47 65,-249.47"/>
<text text-anchor="middle" x="78" y="-210" font-family="Helvetica,sans-Serif" font-size="10.00"> val</text>
</g>
<!-- Node3 -->
<g id="node3" class="node">
<title>Node3</title>
<g id="a_node3"><a xlink:href="structENV.html" target="_top" xlink:title=" ">
<polygon fill="white" stroke="black" points="72,-67.5 72,-86.5 109,-86.5 109,-67.5 72,-67.5"/>
<text text-anchor="middle" x="90.5" y="-74.5" font-family="Helvetica,sans-Serif" font-size="10.00">ENV</text>
</a>
</g>
</g>
<!-- Node3&#45;&gt;Node1 -->
<g id="edge10" class="edge">
<title>Node3&#45;&gt;Node1</title>
<path fill="none" stroke="#9a32cd" stroke-dasharray="5,2" d="M72.45,-60.36C57.71,-47.58 37.41,-29.99 25.45,-19.63"/>
<polygon fill="#9a32cd" stroke="#9a32cd" points="70.54,-63.33 80.39,-67.23 75.12,-58.04 70.54,-63.33"/>
<text text-anchor="middle" x="68.5" y="-41" font-family="Helvetica,sans-Serif" font-size="10.00"> env</text>
</g>
<!-- Node3&#45;&gt;Node2 -->
<g id="edge3" class="edge">
<title>Node3&#45;&gt;Node2</title>
<path fill="none" stroke="#9a32cd" stroke-dasharray="5,2" d="M111.53,-92.74C138.12,-113.32 178.49,-152.28 161.5,-189 145.93,-222.65 108.19,-247.21 85.86,-259.38"/>
<polygon fill="#9a32cd" stroke="#9a32cd" points="113.58,-89.9 103.47,-86.73 109.4,-95.51 113.58,-89.9"/>
<text text-anchor="middle" x="178" y="-181" font-family="Helvetica,sans-Serif" font-size="10.00"> map</text>
<text text-anchor="middle" x="178" y="-170" font-family="Helvetica,sans-Serif" font-size="10.00">env</text>
</g>
<!-- Node3&#45;&gt;Node3 -->
<g id="edge7" class="edge">
<title>Node3&#45;&gt;Node3</title>
<path fill="none" stroke="#9a32cd" stroke-dasharray="5,2" d="M119.35,-82.51C123.9,-81.69 127,-79.86 127,-77 127,-72.31 118.65,-70.37 109.28,-71.18"/>
<polygon fill="#9a32cd" stroke="#9a32cd" points="119.17,-79.01 109.28,-82.82 119.38,-86.01 119.17,-79.01"/>
<text text-anchor="middle" x="144.5" y="-74.5" font-family="Helvetica,sans-Serif" font-size="10.00"> parent</text>
</g>
<!-- Node4&#45;&gt;Node3 -->
<g id="edge4" class="edge">
<title>Node4&#45;&gt;Node3</title>
<path fill="none" stroke="#9a32cd" stroke-dasharray="5,2" d="M72.65,-158.32C77.42,-136.86 85.05,-102.54 88.58,-86.62"/>
<polygon fill="#9a32cd" stroke="#9a32cd" points="69.21,-157.69 70.45,-168.21 76.04,-159.21 69.21,-157.69"/>
<text text-anchor="middle" x="94" y="-124.5" font-family="Helvetica,sans-Serif" font-size="10.00"> list</text>
</g>
<!-- Node4&#45;&gt;Node4 -->
<g id="edge6" class="edge">
<title>Node4&#45;&gt;Node4</title>
<path fill="none" stroke="#9a32cd" stroke-dasharray="5,2" d="M119.76,-183.09C124.51,-182.04 127.5,-180.34 127.5,-178 127.5,-174.25 119.84,-172.15 109.58,-171.71"/>
<polygon fill="#9a32cd" stroke="#9a32cd" points="119.11,-179.65 109.58,-184.29 119.92,-186.6 119.11,-179.65"/>
<text text-anchor="middle" x="140" y="-175.5" font-family="Helvetica,sans-Serif" font-size="10.00"> next</text>
</g>
<!-- Node5 -->
<g id="node5" class="node">
<title>Node5</title>
<g id="a_node5"><a xlink:href="struct__IO__FILE.html" target="_top" xlink:title=" ">
<polygon fill="white" stroke="black" points="39.5,-350.5 39.5,-369.5 97.5,-369.5 97.5,-350.5 39.5,-350.5"/>
<text text-anchor="middle" x="68.5" y="-357.5" font-family="Helvetica,sans-Serif" font-size="10.00">_IO_FILE</text>
</a>
</g>
</g>
<!-- Node5&#45;&gt;Node2 -->
<g id="edge8" class="edge">
<title>Node5&#45;&gt;Node2</title>
<path fill="none" stroke="#9a32cd" stroke-dasharray="5,2" d="M68.5,-340.35C68.5,-321.38 68.5,-292.83 68.5,-278.64"/>
<polygon fill="#9a32cd" stroke="#9a32cd" points="65,-340.47 68.5,-350.47 72,-340.47 65,-340.47"/>
<text text-anchor="middle" x="78" y="-323" font-family="Helvetica,sans-Serif" font-size="10.00"> file</text>
</g>
<!-- Node5&#45;&gt;Node5 -->
<g id="edge9" class="edge">
<title>Node5&#45;&gt;Node5</title>
<path fill="none" stroke="#9a32cd" stroke-dasharray="5,2" d="M108.1,-365.4C112.59,-364.39 115.5,-362.59 115.5,-360 115.5,-355.75 107.67,-353.62 97.88,-353.62"/>
<polygon fill="#9a32cd" stroke="#9a32cd" points="107.5,-361.94 97.88,-366.38 108.16,-368.91 107.5,-361.94"/>
<text text-anchor="middle" x="147.5" y="-363" font-family="Helvetica,sans-Serif" font-size="10.00"> _freeres_list</text>
<text text-anchor="middle" x="147.5" y="-352" font-family="Helvetica,sans-Serif" font-size="10.00">_chain</text>
</g>
</g>
</svg>
