<?xml version="1.0" encoding="UTF-8" standalone="no"?>
<!DOCTYPE svg PUBLIC "-//W3C//DTD SVG 1.1//EN"
 "http://www.w3.org/Graphics/SVG/1.1/DTD/svg11.dtd">
<!-- Generated by graphviz version 2.43.0 (0)
 -->
<!-- Title: LVM Pages: 1 -->
<svg width="322pt" height="221pt"
 viewBox="0.00 0.00 321.50 221.00" xmlns="http://www.w3.org/2000/svg" xmlns:xlink="http://www.w3.org/1999/xlink">
<g id="graph0" class="graph" transform="scale(1 1) rotate(0) translate(4 217)">
<title>LVM</title>
<polygon fill="white" stroke="transparent" points="-4,4 -4,-217 317.5,-217 317.5,4 -4,4"/>
<!-- Node1 -->
<g id="node1" class="node">
<title>Node1</title>
<g id="a_node1"><a xlink:title=" ">
<polygon fill="#bfbfbf" stroke="black" points="0,-90.5 0,-109.5 37,-109.5 37,-90.5 0,-90.5"/>
<text text-anchor="middle" x="18.5" y="-97.5" font-family="Helvetica,sans-Serif" font-size="10.00">LVM</text>
</a>
</g>
</g>
<!-- Node2 -->
<g id="node2" class="node">
<title>Node2</title>
<g id="a_node2"><a xlink:href="structENV.html" target="_top" xlink:title=" ">
<polygon fill="white" stroke="black" points="65,-192.5 65,-211.5 102,-211.5 102,-192.5 65,-192.5"/>
<text text-anchor="middle" x="83.5" y="-199.5" font-family="Helvetica,sans-Serif" font-size="10.00">ENV</text>
</a>
</g>
</g>
<!-- Node2&#45;&gt;Node1 -->
<g id="edge1" class="edge">
<title>Node2&#45;&gt;Node1</title>
<path fill="none" stroke="#9a32cd" stroke-dasharray="5,2" d="M54.78,-195.79C41.72,-191.84 27.44,-184.96 19.5,-173 6.64,-153.63 11.94,-124.4 15.8,-109.86"/>
<polygon fill="#9a32cd" stroke="#9a32cd" points="54.29,-199.28 64.84,-198.37 56.02,-192.5 54.29,-199.28"/>
<text text-anchor="middle" x="48" y="-159.5" font-family="Helvetica,sans-Serif" font-size="10.00"> global_env</text>
</g>
<!-- Node2&#45;&gt;Node2 -->
<g id="edge9" class="edge">
<title>Node2&#45;&gt;Node2</title>
<path fill="none" stroke="#9a32cd" stroke-dasharray="5,2" d="M112.35,-208.89C116.9,-207.87 120,-205.57 120,-202 120,-196.14 111.65,-193.71 102.28,-194.72"/>
<polygon fill="#9a32cd" stroke="#9a32cd" points="112.14,-205.39 102.28,-209.28 112.41,-212.39 112.14,-205.39"/>
<text text-anchor="middle" x="137.5" y="-199.5" font-family="Helvetica,sans-Serif" font-size="10.00"> parent</text>
</g>
<!-- Node4 -->
<g id="node4" class="node">
<title>Node4</title>
<g id="a_node4"><a xlink:href="structOBJ.html" target="_top" xlink:title=" ">
<polygon fill="white" stroke="black" points="127.5,-90.5 127.5,-109.5 161.5,-109.5 161.5,-90.5 127.5,-90.5"/>
<text text-anchor="middle" x="144.5" y="-97.5" font-family="Helvetica,sans-Serif" font-size="10.00">OBJ</text>
</a>
</g>
</g>
<!-- Node2&#45;&gt;Node4 -->
<g id="edge5" class="edge">
<title>Node2&#45;&gt;Node4</title>
<path fill="none" stroke="#9a32cd" stroke-dasharray="5,2" d="M96.51,-184.42C99.25,-180.73 102.05,-176.79 104.5,-173 118.82,-150.92 133.22,-123.39 140.18,-109.64"/>
<polygon fill="#9a32cd" stroke="#9a32cd" points="93.72,-182.32 90.44,-192.39 99.28,-186.56 93.72,-182.32"/>
<text text-anchor="middle" x="130" y="-165" font-family="Helvetica,sans-Serif" font-size="10.00"> map</text>
<text text-anchor="middle" x="130" y="-154" font-family="Helvetica,sans-Serif" font-size="10.00">env</text>
</g>
<!-- Node3 -->
<g id="node3" class="node">
<title>Node3</title>
<g id="a_node3"><a xlink:href="structENV__BUCKET.html" target="_top" xlink:title=" ">
<polygon fill="white" stroke="black" points="65.5,-0.5 65.5,-19.5 147.5,-19.5 147.5,-0.5 65.5,-0.5"/>
<text text-anchor="middle" x="106.5" y="-7.5" font-family="Helvetica,sans-Serif" font-size="10.00">ENV_BUCKET</text>
</a>
</g>
</g>
<!-- Node3&#45;&gt;Node2 -->
<g id="edge2" class="edge">
<title>Node3&#45;&gt;Node2</title>
<path fill="none" stroke="#9a32cd" stroke-dasharray="5,2" d="M104.13,-29.75C102.76,-40.63 101.02,-54.58 99.5,-67 93.73,-114.21 87.05,-170.81 84.53,-192.22"/>
<polygon fill="#9a32cd" stroke="#9a32cd" points="107.62,-30.09 105.39,-19.73 100.67,-29.21 107.62,-30.09"/>
<text text-anchor="middle" x="109" y="-97.5" font-family="Helvetica,sans-Serif" font-size="10.00"> list</text>
</g>
<!-- Node3&#45;&gt;Node3 -->
<g id="edge8" class="edge">
<title>Node3&#45;&gt;Node3</title>
<path fill="none" stroke="#9a32cd" stroke-dasharray="5,2" d="M157.76,-14.79C162.51,-13.81 165.5,-12.21 165.5,-10 165.5,-6.47 157.84,-4.5 147.58,-4.08"/>
<polygon fill="#9a32cd" stroke="#9a32cd" points="157.14,-11.34 147.58,-15.92 157.91,-18.3 157.14,-11.34"/>
<text text-anchor="middle" x="178" y="-7.5" font-family="Helvetica,sans-Serif" font-size="10.00"> next</text>
</g>
<!-- Node4&#45;&gt;Node3 -->
<g id="edge3" class="edge">
<title>Node4&#45;&gt;Node3</title>
<path fill="none" stroke="#9a32cd" stroke-dasharray="5,2" d="M136.74,-81.03C128.68,-62.36 116.4,-33.93 110.27,-19.72"/>
<polygon fill="#9a32cd" stroke="#9a32cd" points="133.54,-82.45 140.72,-90.24 139.97,-79.67 133.54,-82.45"/>
<text text-anchor="middle" x="132" y="-41" font-family="Helvetica,sans-Serif" font-size="10.00"> val</text>
</g>
<!-- Node4&#45;&gt;Node4 -->
<g id="edge4" class="edge">
<title>Node4&#45;&gt;Node4</title>
<path fill="none" stroke="#9a32cd" stroke-dasharray="5,2" d="M169.93,-110.2C175.47,-109.22 179.5,-105.82 179.5,-100 179.5,-90.92 169.69,-87.73 159.61,-90.43"/>
<polygon fill="#9a32cd" stroke="#9a32cd" points="169.8,-106.69 159.61,-109.57 169.38,-113.67 169.8,-106.69"/>
<text text-anchor="middle" x="196.5" y="-125" font-family="Helvetica,sans-Serif" font-size="10.00"> body</text>
<text text-anchor="middle" x="196.5" y="-114" font-family="Helvetica,sans-Serif" font-size="10.00">c_fn</text>
<text text-anchor="middle" x="196.5" y="-103" font-family="Helvetica,sans-Serif" font-size="10.00">cdr</text>
<text text-anchor="middle" x="196.5" y="-92" font-family="Helvetica,sans-Serif" font-size="10.00">args</text>
<text text-anchor="middle" x="196.5" y="-81" font-family="Helvetica,sans-Serif" font-size="10.00">moved</text>
<text text-anchor="middle" x="196.5" y="-70" font-family="Helvetica,sans-Serif" font-size="10.00">car</text>
</g>
<!-- Node5 -->
<g id="node5" class="node">
<title>Node5</title>
<g id="a_node5"><a xlink:href="struct__IO__FILE.html" target="_top" xlink:title=" ">
<polygon fill="white" stroke="black" points="173.5,-192.5 173.5,-211.5 231.5,-211.5 231.5,-192.5 173.5,-192.5"/>
<text text-anchor="middle" x="202.5" y="-199.5" font-family="Helvetica,sans-Serif" font-size="10.00">_IO_FILE</text>
</a>
</g>
</g>
<!-- Node5&#45;&gt;Node4 -->
<g id="edge6" class="edge">
<title>Node5&#45;&gt;Node4</title>
<path fill="none" stroke="#9a32cd" stroke-dasharray="5,2" d="M192.45,-183.68C179.9,-162.04 158.92,-125.87 149.43,-109.5"/>
<polygon fill="#9a32cd" stroke="#9a32cd" points="189.51,-185.58 197.55,-192.47 195.57,-182.07 189.51,-185.58"/>
<text text-anchor="middle" x="194" y="-159.5" font-family="Helvetica,sans-Serif" font-size="10.00"> file</text>
</g>
<!-- Node5&#45;&gt;Node5 -->
<g id="edge7" class="edge">
<title>Node5&#45;&gt;Node5</title>
<path fill="none" stroke="#9a32cd" stroke-dasharray="5,2" d="M242.1,-208.36C246.59,-207.17 249.5,-205.05 249.5,-202 249.5,-197 241.67,-194.5 231.88,-194.5"/>
<polygon fill="#9a32cd" stroke="#9a32cd" points="241.42,-204.91 231.88,-209.5 242.2,-211.87 241.42,-204.91"/>
<text text-anchor="middle" x="281.5" y="-205" font-family="Helvetica,sans-Serif" font-size="10.00"> _freeres_list</text>
<text text-anchor="middle" x="281.5" y="-194" font-family="Helvetica,sans-Serif" font-size="10.00">_chain</text>
</g>
</g>
</svg>
