<?xml version="1.0" encoding="UTF-8" standalone="no"?>
<!DOCTYPE svg PUBLIC "-//W3C//DTD SVG 1.1//EN"
 "http://www.w3.org/Graphics/SVG/1.1/DTD/svg11.dtd">
<!-- Generated by graphviz version 2.43.0 (0)
 -->
<!-- Title: FN Pages: 1 -->
<svg width="198pt" height="357pt"
 viewBox="0.00 0.00 198.00 357.00" xmlns="http://www.w3.org/2000/svg" xmlns:xlink="http://www.w3.org/1999/xlink">
<g id="graph0" class="graph" transform="scale(1 1) rotate(0) translate(4 353)">
<title>FN</title>
<polygon fill="white" stroke="transparent" points="-4,4 -4,-353 194,-353 194,4 -4,4"/>
<!-- Node1 -->
<g id="node1" class="node">
<title>Node1</title>
<g id="a_node1"><a xlink:title=" ">
<polygon fill="#bfbfbf" stroke="black" points="0,-0.5 0,-19.5 30,-19.5 30,-0.5 0,-0.5"/>
<text text-anchor="middle" x="15" y="-7.5" font-family="Helvetica,sans-Serif" font-size="10.00">FN</text>
</a>
</g>
</g>
<!-- Node2 -->
<g id="node2" class="node">
<title>Node2</title>
<g id="a_node2"><a xlink:href="structOBJ.html" target="_top" xlink:title=" ">
<polygon fill="white" stroke="black" points="51,-237.5 51,-256.5 85,-256.5 85,-237.5 51,-237.5"/>
<text text-anchor="middle" x="68" y="-244.5" font-family="Helvetica,sans-Serif" font-size="10.00">OBJ</text>
</a>
</g>
</g>
<!-- Node2&#45;&gt;Node1 -->
<g id="edge1" class="edge">
<title>Node2&#45;&gt;Node1</title>
<path fill="none" stroke="#9a32cd" stroke-dasharray="5,2" d="M53.5,-229.22C41.42,-214.09 25.1,-190.65 18,-167 1.79,-113.04 9.94,-43.78 13.57,-19.71"/>
<polygon fill="#9a32cd" stroke="#9a32cd" points="50.94,-231.63 60.01,-237.11 56.34,-227.17 50.94,-231.63"/>
<text text-anchor="middle" x="25" y="-119" font-family="Helvetica,sans-Serif" font-size="10.00"> body</text>
<text text-anchor="middle" x="25" y="-108" font-family="Helvetica,sans-Serif" font-size="10.00">args</text>
</g>
<!-- Node2&#45;&gt;Node2 -->
<g id="edge2" class="edge">
<title>Node2&#45;&gt;Node2</title>
<path fill="none" stroke="#9a32cd" stroke-dasharray="5,2" d="M93.43,-257.2C98.97,-256.22 103,-252.82 103,-247 103,-237.92 93.19,-234.73 83.11,-237.43"/>
<polygon fill="#9a32cd" stroke="#9a32cd" points="93.3,-253.69 83.11,-256.57 92.88,-260.67 93.3,-253.69"/>
<text text-anchor="middle" x="120" y="-272" font-family="Helvetica,sans-Serif" font-size="10.00"> body</text>
<text text-anchor="middle" x="120" y="-261" font-family="Helvetica,sans-Serif" font-size="10.00">c_fn</text>
<text text-anchor="middle" x="120" y="-250" font-family="Helvetica,sans-Serif" font-size="10.00">cdr</text>
<text text-anchor="middle" x="120" y="-239" font-family="Helvetica,sans-Serif" font-size="10.00">args</text>
<text text-anchor="middle" x="120" y="-228" font-family="Helvetica,sans-Serif" font-size="10.00">moved</text>
<text text-anchor="middle" x="120" y="-217" font-family="Helvetica,sans-Serif" font-size="10.00">car</text>
</g>
<!-- Node4 -->
<g id="node4" class="node">
<title>Node4</title>
<g id="a_node4"><a xlink:href="structENV__BUCKET.html" target="_top" xlink:title=" ">
<polygon fill="white" stroke="black" points="27,-146.5 27,-165.5 109,-165.5 109,-146.5 27,-146.5"/>
<text text-anchor="middle" x="68" y="-153.5" font-family="Helvetica,sans-Serif" font-size="10.00">ENV_BUCKET</text>
</a>
</g>
</g>
<!-- Node2&#45;&gt;Node4 -->
<g id="edge5" class="edge">
<title>Node2&#45;&gt;Node4</title>
<path fill="none" stroke="#9a32cd" stroke-dasharray="5,2" d="M68,-227.35C68,-208.38 68,-179.83 68,-165.64"/>
<polygon fill="#9a32cd" stroke="#9a32cd" points="64.5,-227.47 68,-237.47 71.5,-227.47 64.5,-227.47"/>
<text text-anchor="middle" x="77.5" y="-188" font-family="Helvetica,sans-Serif" font-size="10.00"> val</text>
</g>
<!-- Node3 -->
<g id="node3" class="node">
<title>Node3</title>
<g id="a_node3"><a xlink:href="structENV.html" target="_top" xlink:title=" ">
<polygon fill="white" stroke="black" points="49.5,-67.5 49.5,-86.5 86.5,-86.5 86.5,-67.5 49.5,-67.5"/>
<text text-anchor="middle" x="68" y="-74.5" font-family="Helvetica,sans-Serif" font-size="10.00">ENV</text>
</a>
</g>
</g>
<!-- Node3&#45;&gt;Node1 -->
<g id="edge10" class="edge">
<title>Node3&#45;&gt;Node1</title>
<path fill="none" stroke="#9a32cd" stroke-dasharray="5,2" d="M54.36,-59.27C44.03,-46.6 30.25,-29.7 22.03,-19.63"/>
<polygon fill="#9a32cd" stroke="#9a32cd" points="51.82,-61.7 60.85,-67.23 57.25,-57.27 51.82,-61.7"/>
<text text-anchor="middle" x="56" y="-41" font-family="Helvetica,sans-Serif" font-size="10.00"> env</text>
</g>
<!-- Node3&#45;&gt;Node2 -->
<g id="edge3" class="edge">
<title>Node3&#45;&gt;Node2</title>
<path fill="none" stroke="#9a32cd" stroke-dasharray="5,2" d="M96.1,-89.51C118.22,-100.25 147.49,-118.62 161,-145 182.08,-186.16 117.8,-222.94 85.43,-238.34"/>
<polygon fill="#9a32cd" stroke="#9a32cd" points="97.37,-86.24 86.82,-85.24 94.44,-92.6 97.37,-86.24"/>
<text text-anchor="middle" x="177.5" y="-159" font-family="Helvetica,sans-Serif" font-size="10.00"> map</text>
<text text-anchor="middle" x="177.5" y="-148" font-family="Helvetica,sans-Serif" font-size="10.00">env</text>
</g>
<!-- Node3&#45;&gt;Node3 -->
<g id="edge7" class="edge">
<title>Node3&#45;&gt;Node3</title>
<path fill="none" stroke="#9a32cd" stroke-dasharray="5,2" d="M96.85,-82.51C101.4,-81.69 104.5,-79.86 104.5,-77 104.5,-72.31 96.15,-70.37 86.78,-71.18"/>
<polygon fill="#9a32cd" stroke="#9a32cd" points="96.67,-79.01 86.78,-82.82 96.88,-86.01 96.67,-79.01"/>
<text text-anchor="middle" x="122" y="-74.5" font-family="Helvetica,sans-Serif" font-size="10.00"> parent</text>
</g>
<!-- Node4&#45;&gt;Node3 -->
<g id="edge4" class="edge">
<title>Node4&#45;&gt;Node3</title>
<path fill="none" stroke="#9a32cd" stroke-dasharray="5,2" d="M68,-136.31C68,-120.59 68,-98.81 68,-86.81"/>
<polygon fill="#9a32cd" stroke="#9a32cd" points="64.5,-136.47 68,-146.47 71.5,-136.47 64.5,-136.47"/>
<text text-anchor="middle" x="77.5" y="-113.5" font-family="Helvetica,sans-Serif" font-size="10.00"> list</text>
</g>
<!-- Node4&#45;&gt;Node4 -->
<g id="edge6" class="edge">
<title>Node4&#45;&gt;Node4</title>
<path fill="none" stroke="#9a32cd" stroke-dasharray="5,2" d="M119.26,-161.09C124.01,-160.04 127,-158.34 127,-156 127,-152.25 119.34,-150.15 109.08,-149.71"/>
<polygon fill="#9a32cd" stroke="#9a32cd" points="118.61,-157.65 109.08,-162.29 119.42,-164.6 118.61,-157.65"/>
<text text-anchor="middle" x="139.5" y="-153.5" font-family="Helvetica,sans-Serif" font-size="10.00"> next</text>
</g>
<!-- Node5 -->
<g id="node5" class="node">
<title>Node5</title>
<g id="a_node5"><a xlink:href="struct__IO__FILE.html" target="_top" xlink:title=" ">
<polygon fill="white" stroke="black" points="39,-328.5 39,-347.5 97,-347.5 97,-328.5 39,-328.5"/>
<text text-anchor="middle" x="68" y="-335.5" font-family="Helvetica,sans-Serif" font-size="10.00">_IO_FILE</text>
</a>
</g>
</g>
<!-- Node5&#45;&gt;Node2 -->
<g id="edge8" class="edge">
<title>Node5&#45;&gt;Node2</title>
<path fill="none" stroke="#9a32cd" stroke-dasharray="5,2" d="M68,-318.35C68,-299.38 68,-270.83 68,-256.64"/>
<polygon fill="#9a32cd" stroke="#9a32cd" points="64.5,-318.47 68,-328.47 71.5,-318.47 64.5,-318.47"/>
<text text-anchor="middle" x="77.5" y="-301" font-family="Helvetica,sans-Serif" font-size="10.00"> file</text>
</g>
<!-- Node5&#45;&gt;Node5 -->
<g id="edge9" class="edge">
<title>Node5&#45;&gt;Node5</title>
<path fill="none" stroke="#9a32cd" stroke-dasharray="5,2" d="M107.6,-343.4C112.09,-342.39 115,-340.59 115,-338 115,-333.75 107.17,-331.62 97.38,-331.62"/>
<polygon fill="#9a32cd" stroke="#9a32cd" points="107,-339.94 97.38,-344.38 107.66,-346.91 107,-339.94"/>
<text text-anchor="middle" x="147" y="-341" font-family="Helvetica,sans-Serif" font-size="10.00"> _freeres_list</text>
<text text-anchor="middle" x="147" y="-330" font-family="Helvetica,sans-Serif" font-size="10.00">_chain</text>
</g>
</g>
</svg>
