<?xml version="1.0" encoding="UTF-8" standalone="no"?>
<!DOCTYPE svg PUBLIC "-//W3C//DTD SVG 1.1//EN"
 "http://www.w3.org/Graphics/SVG/1.1/DTD/svg11.dtd">
<!-- Generated by graphviz version 2.43.0 (0)
 -->
<!-- Title: L_FILE Pages: 1 -->
<svg width="148pt" height="97pt"
 viewBox="0.00 0.00 148.00 97.00" xmlns="http://www.w3.org/2000/svg" xmlns:xlink="http://www.w3.org/1999/xlink">
<g id="graph0" class="graph" transform="scale(1 1) rotate(0) translate(4 93)">
<title>L_FILE</title>
<polygon fill="white" stroke="transparent" points="-4,4 -4,-93 144,-93 144,4 -4,4"/>
<!-- Node1 -->
<g id="node1" class="node">
<title>Node1</title>
<g id="a_node1"><a xlink:title=" ">
<polygon fill="#bfbfbf" stroke="black" points="5.5,-0.5 5.5,-19.5 52.5,-19.5 52.5,-0.5 5.5,-0.5"/>
<text text-anchor="middle" x="29" y="-7.5" font-family="Helvetica,sans-Serif" font-size="10.00">L_FILE</text>
</a>
</g>
</g>
<!-- Node2 -->
<g id="node2" class="node">
<title>Node2</title>
<g id="a_node2"><a xlink:href="struct__IO__FILE.html" target="_top" xlink:title=" ">
<polygon fill="white" stroke="black" points="0,-68.5 0,-87.5 58,-87.5 58,-68.5 0,-68.5"/>
<text text-anchor="middle" x="29" y="-75.5" font-family="Helvetica,sans-Serif" font-size="10.00">_IO_FILE</text>
</a>
</g>
</g>
<!-- Node2&#45;&gt;Node1 -->
<g id="edge1" class="edge">
<title>Node2&#45;&gt;Node1</title>
<path fill="none" stroke="#9a32cd" stroke-dasharray="5,2" d="M29,-58.04C29,-45.47 29,-29.56 29,-19.84"/>
<polygon fill="#9a32cd" stroke="#9a32cd" points="25.5,-58.37 29,-68.37 32.5,-58.37 25.5,-58.37"/>
<text text-anchor="middle" x="38.5" y="-41" font-family="Helvetica,sans-Serif" font-size="10.00"> file</text>
</g>
<!-- Node2&#45;&gt;Node2 -->
<g id="edge2" class="edge">
<title>Node2&#45;&gt;Node2</title>
<path fill="none" stroke="#9a32cd" stroke-dasharray="5,2" d="M68.6,-83.4C73.09,-82.39 76,-80.59 76,-78 76,-73.75 68.17,-71.62 58.38,-71.62"/>
<polygon fill="#9a32cd" stroke="#9a32cd" points="68,-79.94 58.38,-84.38 68.66,-86.91 68,-79.94"/>
<text text-anchor="middle" x="108" y="-81" font-family="Helvetica,sans-Serif" font-size="10.00"> _freeres_list</text>
<text text-anchor="middle" x="108" y="-70" font-family="Helvetica,sans-Serif" font-size="10.00">_chain</text>
</g>
</g>
</svg>
