<?xml version="1.0" encoding="UTF-8" standalone="no"?>
<!DOCTYPE svg PUBLIC "-//W3C//DTD SVG 1.1//EN"
 "http://www.w3.org/Graphics/SVG/1.1/DTD/svg11.dtd">
<!-- Generated by graphviz version 2.43.0 (0)
 -->
<!-- Title: OBJ Pages: 1 -->
<svg width="220pt" height="279pt"
 viewBox="0.00 0.00 220.00 279.00" xmlns="http://www.w3.org/2000/svg" xmlns:xlink="http://www.w3.org/1999/xlink">
<g id="graph0" class="graph" transform="scale(1 1) rotate(0) translate(4 275)">
<title>OBJ</title>
<polygon fill="white" stroke="transparent" points="-4,4 -4,-275 216,-275 216,4 -4,4"/>
<!-- Node1 -->
<g id="node1" class="node">
<title>Node1</title>
<g id="a_node1"><a xlink:title=" ">
<polygon fill="#bfbfbf" stroke="black" points="84,-159.5 84,-178.5 118,-178.5 118,-159.5 84,-159.5"/>
<text text-anchor="middle" x="101" y="-166.5" font-family="Helvetica,sans-Serif" font-size="10.00">OBJ</text>
</a>
</g>
</g>
<!-- Node1&#45;&gt;Node1 -->
<g id="edge1" class="edge">
<title>Node1&#45;&gt;Node1</title>
<path fill="none" stroke="#9a32cd" stroke-dasharray="5,2" d="M126.43,-179.2C131.97,-178.22 136,-174.82 136,-169 136,-159.92 126.19,-156.73 116.11,-159.43"/>
<polygon fill="#9a32cd" stroke="#9a32cd" points="126.3,-175.69 116.11,-178.57 125.88,-182.67 126.3,-175.69"/>
<text text-anchor="middle" x="153" y="-194" font-family="Helvetica,sans-Serif" font-size="10.00"> body</text>
<text text-anchor="middle" x="153" y="-183" font-family="Helvetica,sans-Serif" font-size="10.00">c_fn</text>
<text text-anchor="middle" x="153" y="-172" font-family="Helvetica,sans-Serif" font-size="10.00">cdr</text>
<text text-anchor="middle" x="153" y="-161" font-family="Helvetica,sans-Serif" font-size="10.00">args</text>
<text text-anchor="middle" x="153" y="-150" font-family="Helvetica,sans-Serif" font-size="10.00">moved</text>
<text text-anchor="middle" x="153" y="-139" font-family="Helvetica,sans-Serif" font-size="10.00">car</text>
</g>
<!-- Node3 -->
<g id="node3" class="node">
<title>Node3</title>
<g id="a_node3"><a xlink:href="structENV__BUCKET.html" target="_top" xlink:title=" ">
<polygon fill="white" stroke="black" points="0,-68.5 0,-87.5 82,-87.5 82,-68.5 0,-68.5"/>
<text text-anchor="middle" x="41" y="-75.5" font-family="Helvetica,sans-Serif" font-size="10.00">ENV_BUCKET</text>
</a>
</g>
</g>
<!-- Node1&#45;&gt;Node3 -->
<g id="edge4" class="edge">
<title>Node1&#45;&gt;Node3</title>
<path fill="none" stroke="#9a32cd" stroke-dasharray="5,2" d="M89.49,-150.93C76.73,-132 56.66,-102.23 46.82,-87.64"/>
<polygon fill="#9a32cd" stroke="#9a32cd" points="86.75,-153.13 95.25,-159.47 92.56,-149.22 86.75,-153.13"/>
<text text-anchor="middle" x="75.5" y="-110" font-family="Helvetica,sans-Serif" font-size="10.00"> val</text>
</g>
<!-- Node2 -->
<g id="node2" class="node">
<title>Node2</title>
<g id="a_node2"><a xlink:href="structENV.html" target="_top" xlink:title=" ">
<polygon fill="white" stroke="black" points="82.5,-0.5 82.5,-19.5 119.5,-19.5 119.5,-0.5 82.5,-0.5"/>
<text text-anchor="middle" x="101" y="-7.5" font-family="Helvetica,sans-Serif" font-size="10.00">ENV</text>
</a>
</g>
</g>
<!-- Node2&#45;&gt;Node1 -->
<g id="edge2" class="edge">
<title>Node2&#45;&gt;Node1</title>
<path fill="none" stroke="#9a32cd" stroke-dasharray="5,2" d="M114.32,-28.07C121.7,-38.64 130.14,-52.85 134,-67 143.46,-101.7 119.36,-142.14 107.34,-159.44"/>
<polygon fill="#9a32cd" stroke="#9a32cd" points="116.99,-25.8 108.25,-19.82 111.35,-29.95 116.99,-25.8"/>
<text text-anchor="middle" x="148.5" y="-81" font-family="Helvetica,sans-Serif" font-size="10.00"> map</text>
<text text-anchor="middle" x="148.5" y="-70" font-family="Helvetica,sans-Serif" font-size="10.00">env</text>
</g>
<!-- Node2&#45;&gt;Node2 -->
<g id="edge6" class="edge">
<title>Node2&#45;&gt;Node2</title>
<path fill="none" stroke="#9a32cd" stroke-dasharray="5,2" d="M129.85,-15.51C134.4,-14.69 137.5,-12.86 137.5,-10 137.5,-5.31 129.15,-3.37 119.78,-4.18"/>
<polygon fill="#9a32cd" stroke="#9a32cd" points="129.67,-12.01 119.78,-15.82 129.88,-19.01 129.67,-12.01"/>
<text text-anchor="middle" x="155" y="-7.5" font-family="Helvetica,sans-Serif" font-size="10.00"> parent</text>
</g>
<!-- Node3&#45;&gt;Node2 -->
<g id="edge3" class="edge">
<title>Node3&#45;&gt;Node2</title>
<path fill="none" stroke="#9a32cd" stroke-dasharray="5,2" d="M55.84,-60.68C67.57,-47.78 83.49,-30.26 92.96,-19.84"/>
<polygon fill="#9a32cd" stroke="#9a32cd" points="52.98,-58.62 48.84,-68.37 58.16,-63.33 52.98,-58.62"/>
<text text-anchor="middle" x="86.5" y="-41" font-family="Helvetica,sans-Serif" font-size="10.00"> list</text>
</g>
<!-- Node3&#45;&gt;Node3 -->
<g id="edge5" class="edge">
<title>Node3&#45;&gt;Node3</title>
<path fill="none" stroke="#9a32cd" stroke-dasharray="5,2" d="M92.26,-83.09C97.01,-82.04 100,-80.34 100,-78 100,-74.25 92.34,-72.15 82.08,-71.71"/>
<polygon fill="#9a32cd" stroke="#9a32cd" points="91.61,-79.65 82.08,-84.29 92.42,-86.6 91.61,-79.65"/>
<text text-anchor="middle" x="112.5" y="-75.5" font-family="Helvetica,sans-Serif" font-size="10.00"> next</text>
</g>
<!-- Node4 -->
<g id="node4" class="node">
<title>Node4</title>
<g id="a_node4"><a xlink:href="struct__IO__FILE.html" target="_top" xlink:title=" ">
<polygon fill="white" stroke="black" points="72,-250.5 72,-269.5 130,-269.5 130,-250.5 72,-250.5"/>
<text text-anchor="middle" x="101" y="-257.5" font-family="Helvetica,sans-Serif" font-size="10.00">_IO_FILE</text>
</a>
</g>
</g>
<!-- Node4&#45;&gt;Node1 -->
<g id="edge7" class="edge">
<title>Node4&#45;&gt;Node1</title>
<path fill="none" stroke="#9a32cd" stroke-dasharray="5,2" d="M101,-240.35C101,-221.38 101,-192.83 101,-178.64"/>
<polygon fill="#9a32cd" stroke="#9a32cd" points="97.5,-240.47 101,-250.47 104.5,-240.47 97.5,-240.47"/>
<text text-anchor="middle" x="110.5" y="-223" font-family="Helvetica,sans-Serif" font-size="10.00"> file</text>
</g>
<!-- Node4&#45;&gt;Node4 -->
<g id="edge8" class="edge">
<title>Node4&#45;&gt;Node4</title>
<path fill="none" stroke="#9a32cd" stroke-dasharray="5,2" d="M140.6,-265.4C145.09,-264.39 148,-262.59 148,-260 148,-255.75 140.17,-253.62 130.38,-253.62"/>
<polygon fill="#9a32cd" stroke="#9a32cd" points="140,-261.94 130.38,-266.38 140.66,-268.91 140,-261.94"/>
<text text-anchor="middle" x="180" y="-263" font-family="Helvetica,sans-Serif" font-size="10.00"> _freeres_list</text>
<text text-anchor="middle" x="180" y="-252" font-family="Helvetica,sans-Serif" font-size="10.00">_chain</text>
</g>
</g>
</svg>
