<?xml version="1.0" encoding="UTF-8" standalone="no"?>
<!DOCTYPE svg PUBLIC "-//W3C//DTD SVG 1.1//EN"
 "http://www.w3.org/Graphics/SVG/1.1/DTD/svg11.dtd">
<!-- Generated by graphviz version 2.43.0 (0)
 -->
<!-- Title: /home/bugy/projs/lobotomy/src/tgc.c Pages: 1 -->
<svg width="540pt" height="319pt"
 viewBox="0.00 0.00 539.50 319.00" xmlns="http://www.w3.org/2000/svg" xmlns:xlink="http://www.w3.org/1999/xlink">
<g id="graph0" class="graph" transform="scale(1 1) rotate(0) translate(4 315)">
<title>/home/bugy/projs/lobotomy/src/tgc.c</title>
<polygon fill="white" stroke="transparent" points="-4,4 -4,-315 535.5,-315 535.5,4 -4,4"/>
<!-- Node1 -->
<g id="node1" class="node">
<title>Node1</title>
<g id="a_node1"><a xlink:title=" ">
<polygon fill="#bfbfbf" stroke="black" points="363,-280.5 363,-310.5 514,-310.5 514,-280.5 363,-280.5"/>
<text text-anchor="start" x="371" y="-298.5" font-family="Helvetica,sans-Serif" font-size="10.00">/home/bugy/projs/lobotomy</text>
<text text-anchor="middle" x="438.5" y="-287.5" font-family="Helvetica,sans-Serif" font-size="10.00">/src/tgc.c</text>
</a>
</g>
</g>
<!-- Node2 -->
<g id="node2" class="node">
<title>Node2</title>
<g id="a_node2"><a xlink:title=" ">
<polygon fill="white" stroke="#bfbfbf" points="424.5,-0.5 424.5,-19.5 486.5,-19.5 486.5,-0.5 424.5,-0.5"/>
<text text-anchor="middle" x="455.5" y="-7.5" font-family="Helvetica,sans-Serif" font-size="10.00">stdbool.h</text>
</a>
</g>
</g>
<!-- Node1&#45;&gt;Node2 -->
<g id="edge1" class="edge">
<title>Node1&#45;&gt;Node2</title>
<path fill="none" stroke="midnightblue" d="M461.01,-280.33C488.54,-261.06 531.5,-223.8 531.5,-179 531.5,-179 531.5,-179 531.5,-121 531.5,-81.28 497.54,-45.5 475.02,-26.15"/>
<polygon fill="midnightblue" stroke="midnightblue" points="476.98,-23.24 467.04,-19.57 472.52,-28.63 476.98,-23.24"/>
</g>
<!-- Node3 -->
<g id="node3" class="node">
<title>Node3</title>
<g id="a_node3"><a xlink:href="gc_8h.html" target="_top" xlink:title=" ">
<polygon fill="white" stroke="black" points="420,-224.5 420,-243.5 457,-243.5 457,-224.5 420,-224.5"/>
<text text-anchor="middle" x="438.5" y="-231.5" font-family="Helvetica,sans-Serif" font-size="10.00">gc.h</text>
</a>
</g>
</g>
<!-- Node1&#45;&gt;Node3 -->
<g id="edge2" class="edge">
<title>Node1&#45;&gt;Node3</title>
<path fill="none" stroke="midnightblue" d="M438.5,-280.4C438.5,-272.47 438.5,-262.46 438.5,-253.86"/>
<polygon fill="midnightblue" stroke="midnightblue" points="442,-253.66 438.5,-243.66 435,-253.66 442,-253.66"/>
</g>
<!-- Node4 -->
<g id="node4" class="node">
<title>Node4</title>
<g id="a_node4"><a xlink:href="obj_8h.html" target="_top" xlink:title=" ">
<polygon fill="white" stroke="black" points="288,-112.5 288,-131.5 329,-131.5 329,-112.5 288,-112.5"/>
<text text-anchor="middle" x="308.5" y="-119.5" font-family="Helvetica,sans-Serif" font-size="10.00">obj.h</text>
</a>
</g>
</g>
<!-- Node1&#45;&gt;Node4 -->
<g id="edge21" class="edge">
<title>Node1&#45;&gt;Node4</title>
<path fill="none" stroke="midnightblue" d="M427.74,-280.39C412.2,-260.01 382.6,-221.15 357.5,-188 345.16,-171.71 331.13,-153.08 321.25,-139.95"/>
<polygon fill="midnightblue" stroke="midnightblue" points="323.95,-137.73 315.15,-131.84 318.36,-141.94 323.95,-137.73"/>
</g>
<!-- Node3&#45;&gt;Node2 -->
<g id="edge3" class="edge">
<title>Node3&#45;&gt;Node2</title>
<path fill="none" stroke="midnightblue" d="M446.71,-224.18C454.04,-215.66 464.26,-202.02 468.5,-188 485.35,-132.34 470.29,-62.54 461.21,-29.7"/>
<polygon fill="midnightblue" stroke="midnightblue" points="464.46,-28.34 458.31,-19.72 457.74,-30.3 464.46,-28.34"/>
</g>
<!-- Node3&#45;&gt;Node4 -->
<g id="edge4" class="edge">
<title>Node3&#45;&gt;Node4</title>
<path fill="none" stroke="midnightblue" d="M428.3,-224.37C406.28,-205.73 354.04,-161.53 326.39,-138.13"/>
<polygon fill="midnightblue" stroke="midnightblue" points="328.55,-135.38 318.65,-131.59 324.03,-140.72 328.55,-135.38"/>
</g>
<!-- Node12 -->
<g id="node12" class="node">
<title>Node12</title>
<g id="a_node12"><a xlink:href="cgc_8h.html" target="_top" xlink:title=" ">
<polygon fill="white" stroke="black" points="417.5,-168.5 417.5,-187.5 459.5,-187.5 459.5,-168.5 417.5,-168.5"/>
<text text-anchor="middle" x="438.5" y="-175.5" font-family="Helvetica,sans-Serif" font-size="10.00">cgc.h</text>
</a>
</g>
</g>
<!-- Node3&#45;&gt;Node12 -->
<g id="edge18" class="edge">
<title>Node3&#45;&gt;Node12</title>
<path fill="none" stroke="midnightblue" d="M438.5,-224.08C438.5,-217.01 438.5,-206.86 438.5,-197.99"/>
<polygon fill="midnightblue" stroke="midnightblue" points="442,-197.75 438.5,-187.75 435,-197.75 442,-197.75"/>
</g>
<!-- Node4&#45;&gt;Node2 -->
<g id="edge7" class="edge">
<title>Node4&#45;&gt;Node2</title>
<path fill="none" stroke="midnightblue" d="M329.09,-113.39C348.22,-105.72 376.93,-92.65 398.5,-76 416.43,-62.16 433.04,-42.04 443.64,-27.86"/>
<polygon fill="midnightblue" stroke="midnightblue" points="446.65,-29.68 449.7,-19.53 440.99,-25.56 446.65,-29.68"/>
</g>
<!-- Node5 -->
<g id="node5" class="node">
<title>Node5</title>
<g id="a_node5"><a xlink:title=" ">
<polygon fill="white" stroke="#bfbfbf" points="0,-0.5 0,-19.5 53,-19.5 53,-0.5 0,-0.5"/>
<text text-anchor="middle" x="26.5" y="-7.5" font-family="Helvetica,sans-Serif" font-size="10.00">stdlib.h</text>
</a>
</g>
</g>
<!-- Node4&#45;&gt;Node5 -->
<g id="edge5" class="edge">
<title>Node4&#45;&gt;Node5</title>
<path fill="none" stroke="midnightblue" d="M287.67,-119.03C236.9,-113.93 108.28,-99.02 72.5,-76 54.93,-64.7 42.07,-44.09 34.49,-29.1"/>
<polygon fill="midnightblue" stroke="midnightblue" points="37.53,-27.34 30.09,-19.8 31.2,-30.34 37.53,-27.34"/>
</g>
<!-- Node6 -->
<g id="node6" class="node">
<title>Node6</title>
<g id="a_node6"><a xlink:title=" ">
<polygon fill="white" stroke="#bfbfbf" points="75,-0.5 75,-19.5 128,-19.5 128,-0.5 75,-0.5"/>
<text text-anchor="middle" x="101.5" y="-7.5" font-family="Helvetica,sans-Serif" font-size="10.00">stdint.h</text>
</a>
</g>
</g>
<!-- Node4&#45;&gt;Node6 -->
<g id="edge6" class="edge">
<title>Node4&#45;&gt;Node6</title>
<path fill="none" stroke="midnightblue" d="M287.8,-120.12C236.84,-117.49 107.57,-107.75 81.5,-76 70.19,-62.23 79.17,-42.1 88.44,-27.9"/>
<polygon fill="midnightblue" stroke="midnightblue" points="91.44,-29.73 94.37,-19.55 85.73,-25.68 91.44,-29.73"/>
</g>
<!-- Node7 -->
<g id="node7" class="node">
<title>Node7</title>
<g id="a_node7"><a xlink:title=" ">
<polygon fill="white" stroke="#bfbfbf" points="148.5,-0.5 148.5,-19.5 198.5,-19.5 198.5,-0.5 148.5,-0.5"/>
<text text-anchor="middle" x="173.5" y="-7.5" font-family="Helvetica,sans-Serif" font-size="10.00">stdio.h</text>
</a>
</g>
</g>
<!-- Node4&#45;&gt;Node7 -->
<g id="edge8" class="edge">
<title>Node4&#45;&gt;Node7</title>
<path fill="none" stroke="midnightblue" d="M297.91,-112.37C275.04,-93.73 220.79,-49.53 192.07,-26.13"/>
<polygon fill="midnightblue" stroke="midnightblue" points="194.01,-23.19 184.04,-19.59 189.59,-28.62 194.01,-23.19"/>
</g>
<!-- Node8 -->
<g id="node8" class="node">
<title>Node8</title>
<g id="a_node8"><a xlink:title=" ">
<polygon fill="white" stroke="#bfbfbf" points="218,-0.5 218,-19.5 271,-19.5 271,-0.5 218,-0.5"/>
<text text-anchor="middle" x="244.5" y="-7.5" font-family="Helvetica,sans-Serif" font-size="10.00">string.h</text>
</a>
</g>
</g>
<!-- Node4&#45;&gt;Node8 -->
<g id="edge9" class="edge">
<title>Node4&#45;&gt;Node8</title>
<path fill="none" stroke="midnightblue" d="M300.29,-112.22C292.44,-103.52 280.64,-89.55 272.5,-76 263.52,-61.04 255.88,-42.67 250.87,-29.28"/>
<polygon fill="midnightblue" stroke="midnightblue" points="254.12,-27.99 247.43,-19.77 247.54,-30.37 254.12,-27.99"/>
</g>
<!-- Node9 -->
<g id="node9" class="node">
<title>Node9</title>
<g id="a_node9"><a xlink:title=" ">
<polygon fill="white" stroke="#bfbfbf" points="281,-56.5 281,-75.5 336,-75.5 336,-56.5 281,-56.5"/>
<text text-anchor="middle" x="308.5" y="-63.5" font-family="Helvetica,sans-Serif" font-size="10.00">wchar.h</text>
</a>
</g>
</g>
<!-- Node4&#45;&gt;Node9 -->
<g id="edge10" class="edge">
<title>Node4&#45;&gt;Node9</title>
<path fill="none" stroke="midnightblue" d="M308.5,-112.08C308.5,-105.01 308.5,-94.86 308.5,-85.99"/>
<polygon fill="midnightblue" stroke="midnightblue" points="312,-85.75 308.5,-75.75 305,-85.75 312,-85.75"/>
</g>
<!-- Node10 -->
<g id="node10" class="node">
<title>Node10</title>
<g id="a_node10"><a xlink:href="SHM_2hashmap_8h.html" target="_top" xlink:title=" ">
<polygon fill="white" stroke="black" points="90.5,-56.5 90.5,-75.5 186.5,-75.5 186.5,-56.5 90.5,-56.5"/>
<text text-anchor="middle" x="138.5" y="-63.5" font-family="Helvetica,sans-Serif" font-size="10.00">SHM/hashmap.h</text>
</a>
</g>
</g>
<!-- Node4&#45;&gt;Node10 -->
<g id="edge11" class="edge">
<title>Node4&#45;&gt;Node10</title>
<path fill="none" stroke="midnightblue" d="M287.99,-114.49C260.1,-105.63 209.74,-89.63 175.24,-78.67"/>
<polygon fill="midnightblue" stroke="midnightblue" points="176.11,-75.28 165.52,-75.58 173.99,-81.95 176.11,-75.28"/>
</g>
<!-- Node11 -->
<g id="node11" class="node">
<title>Node11</title>
<g id="a_node11"><a xlink:href="io_8h.html" target="_top" xlink:title=" ">
<polygon fill="white" stroke="black" points="354,-56.5 354,-75.5 389,-75.5 389,-56.5 354,-56.5"/>
<text text-anchor="middle" x="371.5" y="-63.5" font-family="Helvetica,sans-Serif" font-size="10.00">io.h</text>
</a>
</g>
</g>
<!-- Node4&#45;&gt;Node11 -->
<g id="edge17" class="edge">
<title>Node4&#45;&gt;Node11</title>
<path fill="none" stroke="midnightblue" d="M318.62,-112.32C328.03,-104.26 342.24,-92.08 353.57,-82.37"/>
<polygon fill="midnightblue" stroke="midnightblue" points="355.88,-85 361.19,-75.83 351.32,-79.68 355.88,-85"/>
</g>
<!-- Node10&#45;&gt;Node2 -->
<g id="edge15" class="edge">
<title>Node10&#45;&gt;Node2</title>
<path fill="none" stroke="midnightblue" d="M186.65,-56.8C248.73,-46.22 355.68,-28 414.23,-18.03"/>
<polygon fill="midnightblue" stroke="midnightblue" points="414.96,-21.46 424.23,-16.33 413.78,-14.56 414.96,-21.46"/>
</g>
<!-- Node10&#45;&gt;Node5 -->
<g id="edge12" class="edge">
<title>Node10&#45;&gt;Node5</title>
<path fill="none" stroke="midnightblue" d="M120.51,-56.32C102.46,-47.62 74.45,-34.12 53.7,-24.11"/>
<polygon fill="midnightblue" stroke="midnightblue" points="54.98,-20.84 44.45,-19.65 51.94,-27.15 54.98,-20.84"/>
</g>
<!-- Node10&#45;&gt;Node6 -->
<g id="edge14" class="edge">
<title>Node10&#45;&gt;Node6</title>
<path fill="none" stroke="midnightblue" d="M132.39,-56.08C127.22,-48.53 119.65,-37.49 113.31,-28.23"/>
<polygon fill="midnightblue" stroke="midnightblue" points="116.04,-26.02 107.5,-19.75 110.26,-29.98 116.04,-26.02"/>
</g>
<!-- Node10&#45;&gt;Node7 -->
<g id="edge13" class="edge">
<title>Node10&#45;&gt;Node7</title>
<path fill="none" stroke="midnightblue" d="M144.28,-56.08C149.17,-48.53 156.33,-37.49 162.33,-28.23"/>
<polygon fill="midnightblue" stroke="midnightblue" points="165.33,-30.05 167.83,-19.75 159.45,-26.24 165.33,-30.05"/>
</g>
<!-- Node10&#45;&gt;Node8 -->
<g id="edge16" class="edge">
<title>Node10&#45;&gt;Node8</title>
<path fill="none" stroke="midnightblue" d="M155.53,-56.32C172.53,-47.66 198.88,-34.24 218.49,-24.25"/>
<polygon fill="midnightblue" stroke="midnightblue" points="220.19,-27.31 227.51,-19.65 217.01,-21.08 220.19,-27.31"/>
</g>
<!-- Node12&#45;&gt;Node2 -->
<g id="edge19" class="edge">
<title>Node12&#45;&gt;Node2</title>
<path fill="none" stroke="midnightblue" d="M439.41,-168.08C442.09,-141.95 449.95,-65.21 453.6,-29.58"/>
<polygon fill="midnightblue" stroke="midnightblue" points="457.09,-29.87 454.62,-19.57 450.12,-29.16 457.09,-29.87"/>
</g>
<!-- Node12&#45;&gt;Node4 -->
<g id="edge20" class="edge">
<title>Node12&#45;&gt;Node4</title>
<path fill="none" stroke="midnightblue" d="M417.9,-168.44C396.51,-159.56 362.82,-145.56 338.48,-135.45"/>
<polygon fill="midnightblue" stroke="midnightblue" points="339.58,-132.12 329,-131.52 336.89,-138.58 339.58,-132.12"/>
</g>
</g>
</svg>
