<?xml version="1.0" encoding="UTF-8" standalone="no"?>
<!DOCTYPE svg PUBLIC "-//W3C//DTD SVG 1.1//EN"
 "http://www.w3.org/Graphics/SVG/1.1/DTD/svg11.dtd">
<!-- Generated by graphviz version 2.43.0 (0)
 -->
<!-- Title: /home/bugy/projs/lobotomy/src/tgc.h Pages: 1 -->
<svg width="574pt" height="441pt"
 viewBox="0.00 0.00 574.00 441.00" xmlns="http://www.w3.org/2000/svg" xmlns:xlink="http://www.w3.org/1999/xlink">
<g id="graph0" class="graph" transform="scale(1 1) rotate(0) translate(4 437)">
<title>/home/bugy/projs/lobotomy/src/tgc.h</title>
<polygon fill="white" stroke="transparent" points="-4,4 -4,-437 570,-437 570,4 -4,4"/>
<!-- Node1 -->
<g id="node1" class="node">
<title>Node1</title>
<g id="a_node1"><a xlink:title=" ">
<polygon fill="#bfbfbf" stroke="black" points="142,-402.5 142,-432.5 293,-432.5 293,-402.5 142,-402.5"/>
<text text-anchor="start" x="150" y="-420.5" font-family="Helvetica,sans-Serif" font-size="10.00">/home/bugy/projs/lobotomy</text>
<text text-anchor="middle" x="217.5" y="-409.5" font-family="Helvetica,sans-Serif" font-size="10.00">/src/tgc.h</text>
</a>
</g>
</g>
<!-- Node2 -->
<g id="node2" class="node">
<title>Node2</title>
<g id="a_node2"><a xlink:href="gc_8h.html" target="_top" xlink:title=" ">
<polygon fill="white" stroke="black" points="142,-335.5 142,-365.5 293,-365.5 293,-335.5 142,-335.5"/>
<text text-anchor="start" x="150" y="-353.5" font-family="Helvetica,sans-Serif" font-size="10.00">/home/bugy/projs/lobotomy</text>
<text text-anchor="middle" x="217.5" y="-342.5" font-family="Helvetica,sans-Serif" font-size="10.00">/src/gc.h</text>
</a>
</g>
</g>
<!-- Node1&#45;&gt;Node2 -->
<g id="edge1" class="edge">
<title>Node1&#45;&gt;Node2</title>
<path fill="none" stroke="midnightblue" d="M217.5,-392.11C217.5,-383.15 217.5,-373.32 217.5,-365.58"/>
<polygon fill="midnightblue" stroke="midnightblue" points="214,-392.4 217.5,-402.4 221,-392.4 214,-392.4"/>
</g>
<!-- Node3 -->
<g id="node3" class="node">
<title>Node3</title>
<g id="a_node3"><a xlink:href="obj_8c.html" target="_top" xlink:title=" ">
<polygon fill="white" stroke="black" points="142,-268.5 142,-298.5 293,-298.5 293,-268.5 142,-268.5"/>
<text text-anchor="start" x="150" y="-286.5" font-family="Helvetica,sans-Serif" font-size="10.00">/home/bugy/projs/lobotomy</text>
<text text-anchor="middle" x="217.5" y="-275.5" font-family="Helvetica,sans-Serif" font-size="10.00">/src/obj.c</text>
</a>
</g>
</g>
<!-- Node2&#45;&gt;Node3 -->
<g id="edge2" class="edge">
<title>Node2&#45;&gt;Node3</title>
<path fill="none" stroke="midnightblue" d="M217.5,-325.11C217.5,-316.15 217.5,-306.32 217.5,-298.58"/>
<polygon fill="midnightblue" stroke="midnightblue" points="214,-325.4 217.5,-335.4 221,-325.4 214,-325.4"/>
</g>
<!-- Node4 -->
<g id="node4" class="node">
<title>Node4</title>
<g id="a_node4"><a xlink:href="io_8c.html" target="_top" xlink:title=" ">
<polygon fill="white" stroke="black" points="0,-201.5 0,-231.5 151,-231.5 151,-201.5 0,-201.5"/>
<text text-anchor="start" x="8" y="-219.5" font-family="Helvetica,sans-Serif" font-size="10.00">/home/bugy/projs/lobotomy</text>
<text text-anchor="middle" x="75.5" y="-208.5" font-family="Helvetica,sans-Serif" font-size="10.00">/src/io.c</text>
</a>
</g>
</g>
<!-- Node3&#45;&gt;Node4 -->
<g id="edge3" class="edge">
<title>Node3&#45;&gt;Node4</title>
<path fill="none" stroke="midnightblue" d="M177.37,-264.13C154.81,-253.8 127.08,-241.11 106.25,-231.58"/>
<polygon fill="midnightblue" stroke="midnightblue" points="176.14,-267.42 186.69,-268.4 179.05,-261.05 176.14,-267.42"/>
</g>
<!-- Node6 -->
<g id="node6" class="node">
<title>Node6</title>
<g id="a_node6"><a xlink:href="eval_8c.html" target="_top" xlink:title=" ">
<polygon fill="white" stroke="black" points="38,-67.5 38,-97.5 189,-97.5 189,-67.5 38,-67.5"/>
<text text-anchor="start" x="46" y="-85.5" font-family="Helvetica,sans-Serif" font-size="10.00">/home/bugy/projs/lobotomy</text>
<text text-anchor="middle" x="113.5" y="-74.5" font-family="Helvetica,sans-Serif" font-size="10.00">/src/eval.c</text>
</a>
</g>
</g>
<!-- Node3&#45;&gt;Node6 -->
<g id="edge7" class="edge">
<title>Node3&#45;&gt;Node6</title>
<path fill="none" stroke="midnightblue" d="M211.34,-258.38C202.86,-227.88 185.74,-174.44 160.5,-134 152,-120.39 139.52,-107.19 129.56,-97.7"/>
<polygon fill="midnightblue" stroke="midnightblue" points="207.99,-259.42 213.97,-268.16 214.75,-257.59 207.99,-259.42"/>
</g>
<!-- Node7 -->
<g id="node7" class="node">
<title>Node7</title>
<g id="a_node7"><a xlink:href="main_8c.html" target="_top" xlink:title=" ">
<polygon fill="white" stroke="black" points="90,-0.5 90,-30.5 241,-30.5 241,-0.5 90,-0.5"/>
<text text-anchor="start" x="98" y="-18.5" font-family="Helvetica,sans-Serif" font-size="10.00">/home/bugy/projs/lobotomy</text>
<text text-anchor="middle" x="165.5" y="-7.5" font-family="Helvetica,sans-Serif" font-size="10.00">/src/main.c</text>
</a>
</g>
</g>
<!-- Node3&#45;&gt;Node7 -->
<g id="edge9" class="edge">
<title>Node3&#45;&gt;Node7</title>
<path fill="none" stroke="midnightblue" d="M219.12,-258.35C221.03,-217.64 221.47,-133.32 198.5,-67 193.84,-53.54 184.82,-40.13 177.38,-30.51"/>
<polygon fill="midnightblue" stroke="midnightblue" points="215.62,-258.22 218.57,-268.4 222.61,-258.6 215.62,-258.22"/>
</g>
<!-- Node8 -->
<g id="node8" class="node">
<title>Node8</title>
<g id="a_node8"><a xlink:href="l__sdl_8c.html" target="_top" xlink:title=" ">
<polygon fill="white" stroke="black" points="246,-201.5 246,-231.5 397,-231.5 397,-201.5 246,-201.5"/>
<text text-anchor="start" x="254" y="-219.5" font-family="Helvetica,sans-Serif" font-size="10.00">/home/bugy/projs/lobotomy</text>
<text text-anchor="middle" x="321.5" y="-208.5" font-family="Helvetica,sans-Serif" font-size="10.00">/src/l_sdl.c</text>
</a>
</g>
</g>
<!-- Node3&#45;&gt;Node8 -->
<g id="edge8" class="edge">
<title>Node3&#45;&gt;Node8</title>
<path fill="none" stroke="midnightblue" d="M248.68,-263.02C264.86,-252.9 284.27,-240.77 298.98,-231.58"/>
<polygon fill="midnightblue" stroke="midnightblue" points="246.69,-260.13 240.07,-268.4 250.4,-266.06 246.69,-260.13"/>
</g>
<!-- Node9 -->
<g id="node9" class="node">
<title>Node9</title>
<g id="a_node9"><a xlink:href="sample__module_8c.html" target="_top" xlink:title=" ">
<polygon fill="white" stroke="black" points="415,-201.5 415,-231.5 566,-231.5 566,-201.5 415,-201.5"/>
<text text-anchor="start" x="423" y="-219.5" font-family="Helvetica,sans-Serif" font-size="10.00">/home/bugy/projs/lobotomy</text>
<text text-anchor="middle" x="490.5" y="-208.5" font-family="Helvetica,sans-Serif" font-size="10.00">/src/sample_module.c</text>
</a>
</g>
</g>
<!-- Node3&#45;&gt;Node9 -->
<g id="edge10" class="edge">
<title>Node3&#45;&gt;Node9</title>
<path fill="none" stroke="midnightblue" d="M286.3,-266.12C330.97,-255.48 388.6,-241.76 431.23,-231.61"/>
<polygon fill="midnightblue" stroke="midnightblue" points="285.32,-262.75 276.4,-268.48 286.94,-269.56 285.32,-262.75"/>
</g>
<!-- Node5 -->
<g id="node5" class="node">
<title>Node5</title>
<g id="a_node5"><a xlink:href="l__std_8c.html" target="_top" xlink:title=" ">
<polygon fill="white" stroke="black" points="0,-134.5 0,-164.5 151,-164.5 151,-134.5 0,-134.5"/>
<text text-anchor="start" x="8" y="-152.5" font-family="Helvetica,sans-Serif" font-size="10.00">/home/bugy/projs/lobotomy</text>
<text text-anchor="middle" x="75.5" y="-141.5" font-family="Helvetica,sans-Serif" font-size="10.00">/src/l_std.c</text>
</a>
</g>
</g>
<!-- Node4&#45;&gt;Node5 -->
<g id="edge4" class="edge">
<title>Node4&#45;&gt;Node5</title>
<path fill="none" stroke="midnightblue" d="M75.5,-191.11C75.5,-182.15 75.5,-172.32 75.5,-164.58"/>
<polygon fill="midnightblue" stroke="midnightblue" points="72,-191.4 75.5,-201.4 79,-191.4 72,-191.4"/>
</g>
<!-- Node5&#45;&gt;Node6 -->
<g id="edge5" class="edge">
<title>Node5&#45;&gt;Node6</title>
<path fill="none" stroke="midnightblue" d="M88.9,-125.58C94.36,-116.24 100.49,-105.75 105.27,-97.58"/>
<polygon fill="midnightblue" stroke="midnightblue" points="85.77,-124 83.75,-134.4 91.81,-127.53 85.77,-124"/>
</g>
<!-- Node6&#45;&gt;Node7 -->
<g id="edge6" class="edge">
<title>Node6&#45;&gt;Node7</title>
<path fill="none" stroke="midnightblue" d="M131.14,-59.45C138.78,-49.9 147.5,-39 154.24,-30.58"/>
<polygon fill="midnightblue" stroke="midnightblue" points="128.3,-57.4 124.78,-67.4 133.76,-61.77 128.3,-57.4"/>
</g>
</g>
</svg>
