<?xml version="1.0" encoding="UTF-8" standalone="no"?>
<!DOCTYPE svg PUBLIC "-//W3C//DTD SVG 1.1//EN"
 "http://www.w3.org/Graphics/SVG/1.1/DTD/svg11.dtd">
<!-- Generated by graphviz version 2.43.0 (0)
 -->
<!-- Title: /home/bugy/projs/lobotomy/src/tgc.h Pages: 1 -->
<svg width="923pt" height="263pt"
 viewBox="0.00 0.00 922.50 263.00" xmlns="http://www.w3.org/2000/svg" xmlns:xlink="http://www.w3.org/1999/xlink">
<g id="graph0" class="graph" transform="scale(1 1) rotate(0) translate(4 259)">
<title>/home/bugy/projs/lobotomy/src/tgc.h</title>
<polygon fill="white" stroke="transparent" points="-4,4 -4,-259 918.5,-259 918.5,4 -4,4"/>
<!-- Node1 -->
<g id="node1" class="node">
<title>Node1</title>
<g id="a_node1"><a xlink:title=" ">
<polygon fill="#bfbfbf" stroke="black" points="732,-224.5 732,-254.5 883,-254.5 883,-224.5 732,-224.5"/>
<text text-anchor="start" x="740" y="-242.5" font-family="Helvetica,sans-Serif" font-size="10.00">/home/bugy/projs/lobotomy</text>
<text text-anchor="middle" x="807.5" y="-231.5" font-family="Helvetica,sans-Serif" font-size="10.00">/src/tgc.h</text>
</a>
</g>
</g>
<!-- Node2 -->
<g id="node2" class="node">
<title>Node2</title>
<g id="a_node2"><a xlink:title=" ">
<polygon fill="white" stroke="#bfbfbf" points="852.5,-0.5 852.5,-19.5 914.5,-19.5 914.5,-0.5 852.5,-0.5"/>
<text text-anchor="middle" x="883.5" y="-7.5" font-family="Helvetica,sans-Serif" font-size="10.00">stdbool.h</text>
</a>
</g>
</g>
<!-- Node1&#45;&gt;Node2 -->
<g id="edge1" class="edge">
<title>Node1&#45;&gt;Node2</title>
<path fill="none" stroke="midnightblue" d="M812.97,-224.27C823.7,-196.16 847.97,-131.4 865.5,-76 870.41,-60.48 875.3,-42.64 878.74,-29.58"/>
<polygon fill="midnightblue" stroke="midnightblue" points="882.13,-30.45 881.26,-19.89 875.35,-28.69 882.13,-30.45"/>
</g>
<!-- Node3 -->
<g id="node3" class="node">
<title>Node3</title>
<g id="a_node3"><a xlink:href="obj_8h.html" target="_top" xlink:title=" ">
<polygon fill="white" stroke="black" points="635,-168.5 635,-187.5 676,-187.5 676,-168.5 635,-168.5"/>
<text text-anchor="middle" x="655.5" y="-175.5" font-family="Helvetica,sans-Serif" font-size="10.00">obj.h</text>
</a>
</g>
</g>
<!-- Node1&#45;&gt;Node3 -->
<g id="edge2" class="edge">
<title>Node1&#45;&gt;Node3</title>
<path fill="none" stroke="midnightblue" d="M771.48,-224.4C745.4,-214.19 710.54,-200.54 685.87,-190.89"/>
<polygon fill="midnightblue" stroke="midnightblue" points="686.89,-187.53 676.3,-187.14 684.34,-194.05 686.89,-187.53"/>
</g>
<!-- Node3&#45;&gt;Node2 -->
<g id="edge5" class="edge">
<title>Node3&#45;&gt;Node2</title>
<path fill="none" stroke="midnightblue" d="M676.13,-174.1C704.38,-169.3 755.68,-157.58 791.5,-132 830.37,-104.25 860.26,-55.26 874.44,-28.93"/>
<polygon fill="midnightblue" stroke="midnightblue" points="877.71,-30.23 879.24,-19.75 871.51,-26.99 877.71,-30.23"/>
</g>
<!-- Node4 -->
<g id="node4" class="node">
<title>Node4</title>
<g id="a_node4"><a xlink:title=" ">
<polygon fill="white" stroke="#bfbfbf" points="124,-0.5 124,-19.5 177,-19.5 177,-0.5 124,-0.5"/>
<text text-anchor="middle" x="150.5" y="-7.5" font-family="Helvetica,sans-Serif" font-size="10.00">stdlib.h</text>
</a>
</g>
</g>
<!-- Node3&#45;&gt;Node4 -->
<g id="edge3" class="edge">
<title>Node3&#45;&gt;Node4</title>
<path fill="none" stroke="midnightblue" d="M634.77,-176.14C548.65,-172.42 221.88,-156.78 183.5,-132 159.42,-116.45 159.07,-103.65 151.5,-76 147.35,-60.85 147.42,-42.95 148.34,-29.78"/>
<polygon fill="midnightblue" stroke="midnightblue" points="151.85,-29.89 149.29,-19.6 144.88,-29.24 151.85,-29.89"/>
</g>
<!-- Node5 -->
<g id="node5" class="node">
<title>Node5</title>
<g id="a_node5"><a xlink:title=" ">
<polygon fill="white" stroke="#bfbfbf" points="204,-0.5 204,-19.5 257,-19.5 257,-0.5 204,-0.5"/>
<text text-anchor="middle" x="230.5" y="-7.5" font-family="Helvetica,sans-Serif" font-size="10.00">stdint.h</text>
</a>
</g>
</g>
<!-- Node3&#45;&gt;Node5 -->
<g id="edge4" class="edge">
<title>Node3&#45;&gt;Node5</title>
<path fill="none" stroke="midnightblue" d="M634.83,-176.27C560.72,-173.41 308.72,-161.68 234.5,-132 191.01,-114.61 139.19,-97.18 161.5,-56 169.25,-41.7 183.73,-31.22 197.44,-23.99"/>
<polygon fill="midnightblue" stroke="midnightblue" points="199.24,-27.01 206.71,-19.5 196.19,-20.71 199.24,-27.01"/>
</g>
<!-- Node6 -->
<g id="node6" class="node">
<title>Node6</title>
<g id="a_node6"><a xlink:title=" ">
<polygon fill="white" stroke="#bfbfbf" points="744.5,-0.5 744.5,-19.5 794.5,-19.5 794.5,-0.5 744.5,-0.5"/>
<text text-anchor="middle" x="769.5" y="-7.5" font-family="Helvetica,sans-Serif" font-size="10.00">stdio.h</text>
</a>
</g>
</g>
<!-- Node3&#45;&gt;Node6 -->
<g id="edge6" class="edge">
<title>Node3&#45;&gt;Node6</title>
<path fill="none" stroke="midnightblue" d="M676.2,-172.49C700.02,-166.48 739.33,-153.96 766.5,-132 795.87,-108.26 816.76,-91.72 804.5,-56 800.78,-45.16 793.27,-34.92 786.15,-26.96"/>
<polygon fill="midnightblue" stroke="midnightblue" points="788.5,-24.35 779.06,-19.55 783.45,-29.19 788.5,-24.35"/>
</g>
<!-- Node7 -->
<g id="node7" class="node">
<title>Node7</title>
<g id="a_node7"><a xlink:title=" ">
<polygon fill="white" stroke="#bfbfbf" points="610,-0.5 610,-19.5 663,-19.5 663,-0.5 610,-0.5"/>
<text text-anchor="middle" x="636.5" y="-7.5" font-family="Helvetica,sans-Serif" font-size="10.00">string.h</text>
</a>
</g>
</g>
<!-- Node3&#45;&gt;Node7 -->
<g id="edge7" class="edge">
<title>Node3&#45;&gt;Node7</title>
<path fill="none" stroke="midnightblue" d="M654.48,-168.08C651.49,-141.95 642.7,-65.21 638.63,-29.58"/>
<polygon fill="midnightblue" stroke="midnightblue" points="642.1,-29.11 637.48,-19.57 635.14,-29.9 642.1,-29.11"/>
</g>
<!-- Node8 -->
<g id="node8" class="node">
<title>Node8</title>
<g id="a_node8"><a xlink:title=" ">
<polygon fill="white" stroke="#bfbfbf" points="0,-0.5 0,-19.5 55,-19.5 55,-0.5 0,-0.5"/>
<text text-anchor="middle" x="27.5" y="-7.5" font-family="Helvetica,sans-Serif" font-size="10.00">wchar.h</text>
</a>
</g>
</g>
<!-- Node3&#45;&gt;Node8 -->
<g id="edge8" class="edge">
<title>Node3&#45;&gt;Node8</title>
<path fill="none" stroke="midnightblue" d="M634.8,-176.88C552.14,-176.11 245.95,-170.69 158.5,-132 105.84,-108.71 60.56,-55.4 39.72,-27.98"/>
<polygon fill="midnightblue" stroke="midnightblue" points="42.39,-25.7 33.62,-19.75 36.77,-29.87 42.39,-25.7"/>
</g>
<!-- Node9 -->
<g id="node9" class="node">
<title>Node9</title>
<g id="a_node9"><a xlink:href="util_8h.html" target="_top" xlink:title=" ">
<polygon fill="white" stroke="black" points="423,-112.5 423,-131.5 464,-131.5 464,-112.5 423,-112.5"/>
<text text-anchor="middle" x="443.5" y="-119.5" font-family="Helvetica,sans-Serif" font-size="10.00">util.h</text>
</a>
</g>
</g>
<!-- Node3&#45;&gt;Node9 -->
<g id="edge9" class="edge">
<title>Node3&#45;&gt;Node9</title>
<path fill="none" stroke="midnightblue" d="M634.79,-171.72C597.27,-162.17 517.89,-141.95 474.1,-130.8"/>
<polygon fill="midnightblue" stroke="midnightblue" points="474.85,-127.37 464.3,-128.3 473.12,-134.16 474.85,-127.37"/>
</g>
<!-- Node16 -->
<g id="node16" class="node">
<title>Node16</title>
<g id="a_node16"><a xlink:href="SHM_2hashmap_8h.html" target="_top" xlink:title=" ">
<polygon fill="white" stroke="black" points="683.5,-56.5 683.5,-75.5 779.5,-75.5 779.5,-56.5 683.5,-56.5"/>
<text text-anchor="middle" x="731.5" y="-63.5" font-family="Helvetica,sans-Serif" font-size="10.00">SHM/hashmap.h</text>
</a>
</g>
</g>
<!-- Node3&#45;&gt;Node16 -->
<g id="edge28" class="edge">
<title>Node3&#45;&gt;Node16</title>
<path fill="none" stroke="midnightblue" d="M661.46,-168.37C674.01,-150.22 703.31,-107.8 719.76,-83.99"/>
<polygon fill="midnightblue" stroke="midnightblue" points="722.76,-85.81 725.56,-75.59 717,-81.83 722.76,-85.81"/>
</g>
<!-- Node17 -->
<g id="node17" class="node">
<title>Node17</title>
<g id="a_node17"><a xlink:href="linked__list_8h.html" target="_top" xlink:title=" ">
<polygon fill="white" stroke="black" points="243,-112.5 243,-131.5 318,-131.5 318,-112.5 243,-112.5"/>
<text text-anchor="middle" x="280.5" y="-119.5" font-family="Helvetica,sans-Serif" font-size="10.00">linked_list.h</text>
</a>
</g>
</g>
<!-- Node3&#45;&gt;Node17 -->
<g id="edge34" class="edge">
<title>Node3&#45;&gt;Node17</title>
<path fill="none" stroke="midnightblue" d="M634.8,-174.02C576.64,-165.64 410.61,-141.74 328.15,-129.86"/>
<polygon fill="midnightblue" stroke="midnightblue" points="328.44,-126.37 318.05,-128.41 327.45,-133.3 328.44,-126.37"/>
</g>
<!-- Node18 -->
<g id="node18" class="node">
<title>Node18</title>
<g id="a_node18"><a xlink:href="io_8h.html" target="_top" xlink:title=" ">
<polygon fill="white" stroke="black" points="722,-112.5 722,-131.5 757,-131.5 757,-112.5 722,-112.5"/>
<text text-anchor="middle" x="739.5" y="-119.5" font-family="Helvetica,sans-Serif" font-size="10.00">io.h</text>
</a>
</g>
</g>
<!-- Node3&#45;&gt;Node18 -->
<g id="edge36" class="edge">
<title>Node3&#45;&gt;Node18</title>
<path fill="none" stroke="midnightblue" d="M669,-168.32C682.1,-159.9 702.21,-146.97 717.61,-137.07"/>
<polygon fill="midnightblue" stroke="midnightblue" points="719.52,-140.01 726.04,-131.65 715.73,-134.12 719.52,-140.01"/>
</g>
<!-- Node9&#45;&gt;Node2 -->
<g id="edge12" class="edge">
<title>Node9&#45;&gt;Node2</title>
<path fill="none" stroke="midnightblue" d="M464.45,-119.92C531.87,-116.21 742.42,-102.71 804.5,-76 830.38,-64.87 854.52,-42.57 869.14,-27.23"/>
<polygon fill="midnightblue" stroke="midnightblue" points="872.03,-29.25 876.23,-19.53 866.88,-24.51 872.03,-29.25"/>
</g>
<!-- Node9&#45;&gt;Node4 -->
<g id="edge10" class="edge">
<title>Node9&#45;&gt;Node4</title>
<path fill="none" stroke="midnightblue" d="M422.59,-119.07C360.46,-113.13 180.12,-94.45 161.5,-76 149.57,-64.18 147.7,-44.55 148.28,-29.95"/>
<polygon fill="midnightblue" stroke="midnightblue" points="151.8,-29.81 149.13,-19.56 144.83,-29.24 151.8,-29.81"/>
</g>
<!-- Node9&#45;&gt;Node5 -->
<g id="edge17" class="edge">
<title>Node9&#45;&gt;Node5</title>
<path fill="none" stroke="midnightblue" d="M422.94,-120.88C387.42,-119.65 313.83,-112.5 266.5,-76 251.21,-64.21 241.49,-43.99 236.06,-29.22"/>
<polygon fill="midnightblue" stroke="midnightblue" points="239.34,-28 232.84,-19.64 232.71,-30.23 239.34,-28"/>
</g>
<!-- Node9&#45;&gt;Node6 -->
<g id="edge11" class="edge">
<title>Node9&#45;&gt;Node6</title>
<path fill="none" stroke="midnightblue" d="M464.07,-119.87C535.09,-115.77 766.93,-100.57 788.5,-76 800.21,-62.67 791.51,-42.46 782.39,-28.12"/>
<polygon fill="midnightblue" stroke="midnightblue" points="785.12,-25.91 776.55,-19.68 779.36,-29.89 785.12,-25.91"/>
</g>
<!-- Node9&#45;&gt;Node7 -->
<g id="edge14" class="edge">
<title>Node9&#45;&gt;Node7</title>
<path fill="none" stroke="midnightblue" d="M464.26,-119.8C496.23,-116.98 558.06,-107.53 598.5,-76 613.93,-63.97 624.31,-43.79 630.26,-29.1"/>
<polygon fill="midnightblue" stroke="midnightblue" points="633.6,-30.16 633.83,-19.57 627.05,-27.71 633.6,-30.16"/>
</g>
<!-- Node9&#45;&gt;Node8 -->
<g id="edge19" class="edge">
<title>Node9&#45;&gt;Node8</title>
<path fill="none" stroke="midnightblue" d="M422.79,-118.81C364.21,-112.48 198.27,-93.45 146.5,-76 109.84,-63.64 71.2,-40.36 48.24,-25.27"/>
<polygon fill="midnightblue" stroke="midnightblue" points="49.94,-22.2 39.68,-19.56 46.05,-28.02 49.94,-22.2"/>
</g>
<!-- Node10 -->
<g id="node10" class="node">
<title>Node10</title>
<g id="a_node10"><a xlink:title=" ">
<polygon fill="white" stroke="#bfbfbf" points="275.5,-56.5 275.5,-75.5 331.5,-75.5 331.5,-56.5 275.5,-56.5"/>
<text text-anchor="middle" x="303.5" y="-63.5" font-family="Helvetica,sans-Serif" font-size="10.00">assert.h</text>
</a>
</g>
</g>
<!-- Node9&#45;&gt;Node10 -->
<g id="edge13" class="edge">
<title>Node9&#45;&gt;Node10</title>
<path fill="none" stroke="midnightblue" d="M422.84,-113.03C399.67,-104.1 361.84,-89.5 334.98,-79.14"/>
<polygon fill="midnightblue" stroke="midnightblue" points="336.22,-75.87 325.63,-75.54 333.7,-82.4 336.22,-75.87"/>
</g>
<!-- Node11 -->
<g id="node11" class="node">
<title>Node11</title>
<g id="a_node11"><a xlink:title=" ">
<polygon fill="white" stroke="#bfbfbf" points="350,-56.5 350,-75.5 401,-75.5 401,-56.5 350,-56.5"/>
<text text-anchor="middle" x="375.5" y="-63.5" font-family="Helvetica,sans-Serif" font-size="10.00">math.h</text>
</a>
</g>
</g>
<!-- Node9&#45;&gt;Node11 -->
<g id="edge15" class="edge">
<title>Node9&#45;&gt;Node11</title>
<path fill="none" stroke="midnightblue" d="M432.57,-112.32C422.33,-104.18 406.78,-91.84 394.5,-82.09"/>
<polygon fill="midnightblue" stroke="midnightblue" points="396.63,-79.31 386.62,-75.83 392.28,-84.79 396.63,-79.31"/>
</g>
<!-- Node12 -->
<g id="node12" class="node">
<title>Node12</title>
<g id="a_node12"><a xlink:title=" ">
<polygon fill="white" stroke="#bfbfbf" points="419.5,-56.5 419.5,-75.5 467.5,-75.5 467.5,-56.5 419.5,-56.5"/>
<text text-anchor="middle" x="443.5" y="-63.5" font-family="Helvetica,sans-Serif" font-size="10.00">float.h</text>
</a>
</g>
</g>
<!-- Node9&#45;&gt;Node12 -->
<g id="edge16" class="edge">
<title>Node9&#45;&gt;Node12</title>
<path fill="none" stroke="midnightblue" d="M443.5,-112.08C443.5,-105.01 443.5,-94.86 443.5,-85.99"/>
<polygon fill="midnightblue" stroke="midnightblue" points="447,-85.75 443.5,-75.75 440,-85.75 447,-85.75"/>
</g>
<!-- Node13 -->
<g id="node13" class="node">
<title>Node13</title>
<g id="a_node13"><a xlink:title=" ">
<polygon fill="white" stroke="#bfbfbf" points="485.5,-56.5 485.5,-75.5 533.5,-75.5 533.5,-56.5 485.5,-56.5"/>
<text text-anchor="middle" x="509.5" y="-63.5" font-family="Helvetica,sans-Serif" font-size="10.00">time.h</text>
</a>
</g>
</g>
<!-- Node9&#45;&gt;Node13 -->
<g id="edge18" class="edge">
<title>Node9&#45;&gt;Node13</title>
<path fill="none" stroke="midnightblue" d="M454.1,-112.32C463.96,-104.26 478.85,-92.08 490.72,-82.37"/>
<polygon fill="midnightblue" stroke="midnightblue" points="493.18,-84.88 498.7,-75.83 488.75,-79.46 493.18,-84.88"/>
</g>
<!-- Node14 -->
<g id="node14" class="node">
<title>Node14</title>
<g id="a_node14"><a xlink:href="os_8h.html" target="_top" xlink:title=" ">
<polygon fill="white" stroke="black" points="552,-56.5 552,-75.5 589,-75.5 589,-56.5 552,-56.5"/>
<text text-anchor="middle" x="570.5" y="-63.5" font-family="Helvetica,sans-Serif" font-size="10.00">os.h</text>
</a>
</g>
</g>
<!-- Node9&#45;&gt;Node14 -->
<g id="edge20" class="edge">
<title>Node9&#45;&gt;Node14</title>
<path fill="none" stroke="midnightblue" d="M463.62,-112.44C484.89,-103.4 518.6,-89.07 542.47,-78.92"/>
<polygon fill="midnightblue" stroke="midnightblue" points="543.88,-82.12 551.71,-74.99 541.14,-75.68 543.88,-82.12"/>
</g>
<!-- Node15 -->
<g id="node15" class="node">
<title>Node15</title>
<g id="a_node15"><a xlink:href="error_8h.html" target="_top" xlink:title=" ">
<polygon fill="white" stroke="black" points="170,-56.5 170,-75.5 219,-75.5 219,-56.5 170,-56.5"/>
<text text-anchor="middle" x="194.5" y="-63.5" font-family="Helvetica,sans-Serif" font-size="10.00">error.h</text>
</a>
</g>
</g>
<!-- Node9&#45;&gt;Node15 -->
<g id="edge21" class="edge">
<title>Node9&#45;&gt;Node15</title>
<path fill="none" stroke="midnightblue" d="M422.91,-116.7C385.27,-108.81 302.83,-91.43 233.5,-76 232.06,-75.68 230.59,-75.35 229.1,-75.02"/>
<polygon fill="midnightblue" stroke="midnightblue" points="229.77,-71.58 219.24,-72.77 228.22,-78.4 229.77,-71.58"/>
</g>
<!-- Node15&#45;&gt;Node2 -->
<g id="edge24" class="edge">
<title>Node15&#45;&gt;Node2</title>
<path fill="none" stroke="midnightblue" d="M219.12,-61.57C233.01,-59.72 250.7,-57.52 266.5,-56 504.61,-33.16 565.25,-41.38 803.5,-20 816.12,-18.87 829.82,-17.41 842.27,-16"/>
<polygon fill="midnightblue" stroke="midnightblue" points="842.85,-19.45 852.38,-14.83 842.04,-12.5 842.85,-19.45"/>
</g>
<!-- Node15&#45;&gt;Node4 -->
<g id="edge22" class="edge">
<title>Node15&#45;&gt;Node4</title>
<path fill="none" stroke="midnightblue" d="M187.23,-56.08C180.96,-48.38 171.71,-37.03 164.07,-27.65"/>
<polygon fill="midnightblue" stroke="midnightblue" points="166.66,-25.29 157.63,-19.75 161.23,-29.71 166.66,-25.29"/>
</g>
<!-- Node15&#45;&gt;Node5 -->
<g id="edge23" class="edge">
<title>Node15&#45;&gt;Node5</title>
<path fill="none" stroke="midnightblue" d="M200.44,-56.08C205.48,-48.53 212.84,-37.49 219.01,-28.23"/>
<polygon fill="midnightblue" stroke="midnightblue" points="222.03,-30.01 224.67,-19.75 216.21,-26.13 222.03,-30.01"/>
</g>
<!-- Node15&#45;&gt;Node6 -->
<g id="edge25" class="edge">
<title>Node15&#45;&gt;Node6</title>
<path fill="none" stroke="midnightblue" d="M219.13,-61.7C233.03,-59.89 250.72,-57.69 266.5,-56 446.63,-36.76 492.09,-36.37 672.5,-20 693.01,-18.14 715.96,-16.01 734.38,-14.29"/>
<polygon fill="midnightblue" stroke="midnightblue" points="734.75,-17.77 744.38,-13.36 734.1,-10.8 734.75,-17.77"/>
</g>
<!-- Node15&#45;&gt;Node7 -->
<g id="edge26" class="edge">
<title>Node15&#45;&gt;Node7</title>
<path fill="none" stroke="midnightblue" d="M219.16,-61.9C233.06,-60.15 250.75,-57.94 266.5,-56 388.42,-40.97 532.99,-23.48 599.57,-15.45"/>
<polygon fill="midnightblue" stroke="midnightblue" points="600.06,-18.92 609.57,-14.24 599.22,-11.97 600.06,-18.92"/>
</g>
<!-- Node15&#45;&gt;Node8 -->
<g id="edge27" class="edge">
<title>Node15&#45;&gt;Node8</title>
<path fill="none" stroke="midnightblue" d="M169.86,-57.03C141.86,-47.98 95.89,-33.12 63.79,-22.74"/>
<polygon fill="midnightblue" stroke="midnightblue" points="64.49,-19.28 53.9,-19.54 62.34,-25.94 64.49,-19.28"/>
</g>
<!-- Node16&#45;&gt;Node2 -->
<g id="edge32" class="edge">
<title>Node16&#45;&gt;Node2</title>
<path fill="none" stroke="midnightblue" d="M755.58,-56.44C781.04,-47.4 821.39,-33.06 849.96,-22.92"/>
<polygon fill="midnightblue" stroke="midnightblue" points="851.28,-26.16 859.53,-19.52 848.93,-19.57 851.28,-26.16"/>
</g>
<!-- Node16&#45;&gt;Node4 -->
<g id="edge29" class="edge">
<title>Node16&#45;&gt;Node4</title>
<path fill="none" stroke="midnightblue" d="M683.32,-61.66C570.01,-53.69 289.12,-33.25 195.5,-20 192.78,-19.62 189.98,-19.17 187.17,-18.69"/>
<polygon fill="midnightblue" stroke="midnightblue" points="187.53,-15.2 177.06,-16.83 186.27,-22.08 187.53,-15.2"/>
</g>
<!-- Node16&#45;&gt;Node5 -->
<g id="edge31" class="edge">
<title>Node16&#45;&gt;Node5</title>
<path fill="none" stroke="midnightblue" d="M683.46,-59.82C583.79,-49.08 356.4,-24.57 267.29,-14.97"/>
<polygon fill="midnightblue" stroke="midnightblue" points="267.44,-11.46 257.12,-13.87 266.69,-18.42 267.44,-11.46"/>
</g>
<!-- Node16&#45;&gt;Node6 -->
<g id="edge30" class="edge">
<title>Node16&#45;&gt;Node6</title>
<path fill="none" stroke="midnightblue" d="M737.77,-56.08C743.14,-48.46 751.02,-37.26 757.58,-27.94"/>
<polygon fill="midnightblue" stroke="midnightblue" points="760.45,-29.94 763.34,-19.75 754.72,-25.91 760.45,-29.94"/>
</g>
<!-- Node16&#45;&gt;Node7 -->
<g id="edge33" class="edge">
<title>Node16&#45;&gt;Node7</title>
<path fill="none" stroke="midnightblue" d="M716.24,-56.32C701.28,-47.82 678.25,-34.73 660.77,-24.8"/>
<polygon fill="midnightblue" stroke="midnightblue" points="662.15,-21.55 651.73,-19.65 658.69,-27.64 662.15,-21.55"/>
</g>
<!-- Node17&#45;&gt;Node15 -->
<g id="edge35" class="edge">
<title>Node17&#45;&gt;Node15</title>
<path fill="none" stroke="midnightblue" d="M266.68,-112.32C253.27,-103.9 232.68,-90.97 216.91,-81.07"/>
<polygon fill="midnightblue" stroke="midnightblue" points="218.61,-78.01 208.28,-75.65 214.89,-83.94 218.61,-78.01"/>
</g>
</g>
</svg>
