<?xml version="1.0" encoding="UTF-8" standalone="no"?>
<!DOCTYPE svg PUBLIC "-//W3C//DTD SVG 1.1//EN"
 "http://www.w3.org/Graphics/SVG/1.1/DTD/svg11.dtd">
<!-- Generated by graphviz version 2.43.0 (0)
 -->
<!-- Title: /home/bugy/projs/lobotomy/src/tui.h Pages: 1 -->
<svg width="797pt" height="207pt"
 viewBox="0.00 0.00 797.00 207.00" xmlns="http://www.w3.org/2000/svg" xmlns:xlink="http://www.w3.org/1999/xlink">
<g id="graph0" class="graph" transform="scale(1 1) rotate(0) translate(4 203)">
<title>/home/bugy/projs/lobotomy/src/tui.h</title>
<polygon fill="white" stroke="transparent" points="-4,4 -4,-203 793,-203 793,4 -4,4"/>
<!-- Node1 -->
<g id="node1" class="node">
<title>Node1</title>
<g id="a_node1"><a xlink:title=" ">
<polygon fill="#bfbfbf" stroke="black" points="54,-168.5 54,-198.5 205,-198.5 205,-168.5 54,-168.5"/>
<text text-anchor="start" x="62" y="-186.5" font-family="Helvetica,sans-Serif" font-size="10.00">/home/bugy/projs/lobotomy</text>
<text text-anchor="middle" x="129.5" y="-175.5" font-family="Helvetica,sans-Serif" font-size="10.00">/src/tui.h</text>
</a>
</g>
</g>
<!-- Node2 -->
<g id="node2" class="node">
<title>Node2</title>
<g id="a_node2"><a xlink:title=" ">
<polygon fill="white" stroke="#bfbfbf" points="0,-112.5 0,-131.5 63,-131.5 63,-112.5 0,-112.5"/>
<text text-anchor="middle" x="31.5" y="-119.5" font-family="Helvetica,sans-Serif" font-size="10.00">ncurses.h</text>
</a>
</g>
</g>
<!-- Node1&#45;&gt;Node2 -->
<g id="edge1" class="edge">
<title>Node1&#45;&gt;Node2</title>
<path fill="none" stroke="midnightblue" d="M106.28,-168.4C90.71,-158.95 70.3,-146.56 54.74,-137.11"/>
<polygon fill="midnightblue" stroke="midnightblue" points="56.12,-133.86 45.76,-131.66 52.49,-139.84 56.12,-133.86"/>
</g>
<!-- Node3 -->
<g id="node3" class="node">
<title>Node3</title>
<g id="a_node3"><a xlink:title=" ">
<polygon fill="white" stroke="#bfbfbf" points="142.5,-0.5 142.5,-19.5 192.5,-19.5 192.5,-0.5 142.5,-0.5"/>
<text text-anchor="middle" x="167.5" y="-7.5" font-family="Helvetica,sans-Serif" font-size="10.00">stdio.h</text>
</a>
</g>
</g>
<!-- Node1&#45;&gt;Node3 -->
<g id="edge2" class="edge">
<title>Node1&#45;&gt;Node3</title>
<path fill="none" stroke="midnightblue" d="M123.41,-168.46C113.88,-144.29 98.23,-93.78 115.5,-56 121.28,-43.36 132.55,-32.91 143.13,-25.27"/>
<polygon fill="midnightblue" stroke="midnightblue" points="145.35,-28 151.72,-19.53 141.46,-22.18 145.35,-28"/>
</g>
<!-- Node4 -->
<g id="node4" class="node">
<title>Node4</title>
<g id="a_node4"><a xlink:title=" ">
<polygon fill="white" stroke="#bfbfbf" points="213,-0.5 213,-19.5 268,-19.5 268,-0.5 213,-0.5"/>
<text text-anchor="middle" x="240.5" y="-7.5" font-family="Helvetica,sans-Serif" font-size="10.00">wchar.h</text>
</a>
</g>
</g>
<!-- Node1&#45;&gt;Node4 -->
<g id="edge3" class="edge">
<title>Node1&#45;&gt;Node4</title>
<path fill="none" stroke="midnightblue" d="M134.47,-168.26C143.44,-143.79 163.97,-92.83 191.5,-56 199.84,-44.84 211.21,-34.2 220.89,-26.07"/>
<polygon fill="midnightblue" stroke="midnightblue" points="223.28,-28.64 228.85,-19.63 218.87,-23.2 223.28,-28.64"/>
</g>
<!-- Node5 -->
<g id="node5" class="node">
<title>Node5</title>
<g id="a_node5"><a xlink:title=" ">
<polygon fill="white" stroke="#bfbfbf" points="286,-0.5 286,-19.5 339,-19.5 339,-0.5 286,-0.5"/>
<text text-anchor="middle" x="312.5" y="-7.5" font-family="Helvetica,sans-Serif" font-size="10.00">stdlib.h</text>
</a>
</g>
</g>
<!-- Node1&#45;&gt;Node5 -->
<g id="edge4" class="edge">
<title>Node1&#45;&gt;Node5</title>
<path fill="none" stroke="midnightblue" d="M144.48,-168.47C178.3,-136.77 260.4,-59.82 295.8,-26.65"/>
<polygon fill="midnightblue" stroke="midnightblue" points="298.46,-28.95 303.37,-19.56 293.68,-23.84 298.46,-28.95"/>
</g>
<!-- Node6 -->
<g id="node6" class="node">
<title>Node6</title>
<g id="a_node6"><a xlink:href="util_8h.html" target="_top" xlink:title=" ">
<polygon fill="white" stroke="black" points="457,-112.5 457,-131.5 498,-131.5 498,-112.5 457,-112.5"/>
<text text-anchor="middle" x="477.5" y="-119.5" font-family="Helvetica,sans-Serif" font-size="10.00">util.h</text>
</a>
</g>
</g>
<!-- Node1&#45;&gt;Node6 -->
<g id="edge5" class="edge">
<title>Node1&#45;&gt;Node6</title>
<path fill="none" stroke="midnightblue" d="M205.01,-169.59C280.54,-156.68 392.97,-137.45 446.72,-128.26"/>
<polygon fill="midnightblue" stroke="midnightblue" points="447.4,-131.7 456.66,-126.56 446.22,-124.8 447.4,-131.7"/>
</g>
<!-- Node6&#45;&gt;Node3 -->
<g id="edge7" class="edge">
<title>Node6&#45;&gt;Node3</title>
<path fill="none" stroke="midnightblue" d="M456.97,-119.16C418.37,-115.17 332.86,-103.71 266.5,-76 235.9,-63.22 204.56,-40.74 185.56,-25.86"/>
<polygon fill="midnightblue" stroke="midnightblue" points="187.74,-23.12 177.74,-19.62 183.37,-28.59 187.74,-23.12"/>
</g>
<!-- Node6&#45;&gt;Node4 -->
<g id="edge15" class="edge">
<title>Node6&#45;&gt;Node4</title>
<path fill="none" stroke="midnightblue" d="M456.8,-120.34C420.53,-118.3 344.32,-109.96 291.5,-76 273.09,-64.16 258.51,-43.35 249.73,-28.46"/>
<polygon fill="midnightblue" stroke="midnightblue" points="252.76,-26.7 244.82,-19.69 246.65,-30.12 252.76,-26.7"/>
</g>
<!-- Node6&#45;&gt;Node5 -->
<g id="edge6" class="edge">
<title>Node6&#45;&gt;Node5</title>
<path fill="none" stroke="midnightblue" d="M456.68,-118.86C414.15,-114.01 319.67,-100.65 300.5,-76 290.07,-62.59 295.72,-42.95 302.34,-28.77"/>
<polygon fill="midnightblue" stroke="midnightblue" points="305.61,-30.06 307.11,-19.58 299.4,-26.84 305.61,-30.06"/>
</g>
<!-- Node7 -->
<g id="node7" class="node">
<title>Node7</title>
<g id="a_node7"><a xlink:title=" ">
<polygon fill="white" stroke="#bfbfbf" points="487.5,-0.5 487.5,-19.5 549.5,-19.5 549.5,-0.5 487.5,-0.5"/>
<text text-anchor="middle" x="518.5" y="-7.5" font-family="Helvetica,sans-Serif" font-size="10.00">stdbool.h</text>
</a>
</g>
</g>
<!-- Node6&#45;&gt;Node7 -->
<g id="edge8" class="edge">
<title>Node6&#45;&gt;Node7</title>
<path fill="none" stroke="midnightblue" d="M498.21,-120.04C548.53,-117.24 674.99,-107.18 700.5,-76 706.13,-69.12 705.98,-63 700.5,-56 683.35,-34.09 607.94,-21.38 559.73,-15.35"/>
<polygon fill="midnightblue" stroke="midnightblue" points="559.94,-11.85 549.59,-14.13 559.1,-18.8 559.94,-11.85"/>
</g>
<!-- Node8 -->
<g id="node8" class="node">
<title>Node8</title>
<g id="a_node8"><a xlink:title=" ">
<polygon fill="white" stroke="#bfbfbf" points="377.5,-56.5 377.5,-75.5 433.5,-75.5 433.5,-56.5 377.5,-56.5"/>
<text text-anchor="middle" x="405.5" y="-63.5" font-family="Helvetica,sans-Serif" font-size="10.00">assert.h</text>
</a>
</g>
</g>
<!-- Node6&#45;&gt;Node8 -->
<g id="edge9" class="edge">
<title>Node6&#45;&gt;Node8</title>
<path fill="none" stroke="midnightblue" d="M465.93,-112.32C455.08,-104.18 438.62,-91.84 425.62,-82.09"/>
<polygon fill="midnightblue" stroke="midnightblue" points="427.38,-79.03 417.28,-75.83 423.18,-84.63 427.38,-79.03"/>
</g>
<!-- Node9 -->
<g id="node9" class="node">
<title>Node9</title>
<g id="a_node9"><a xlink:title=" ">
<polygon fill="white" stroke="#bfbfbf" points="633,-0.5 633,-19.5 686,-19.5 686,-0.5 633,-0.5"/>
<text text-anchor="middle" x="659.5" y="-7.5" font-family="Helvetica,sans-Serif" font-size="10.00">string.h</text>
</a>
</g>
</g>
<!-- Node6&#45;&gt;Node9 -->
<g id="edge10" class="edge">
<title>Node6&#45;&gt;Node9</title>
<path fill="none" stroke="midnightblue" d="M498.11,-120.35C550.9,-118.21 688.74,-109.48 716.5,-76 731.42,-58.01 707.09,-37.85 685.74,-24.82"/>
<polygon fill="midnightblue" stroke="midnightblue" points="687.31,-21.68 676.9,-19.7 683.8,-27.74 687.31,-21.68"/>
</g>
<!-- Node10 -->
<g id="node10" class="node">
<title>Node10</title>
<g id="a_node10"><a xlink:title=" ">
<polygon fill="white" stroke="#bfbfbf" points="452,-56.5 452,-75.5 503,-75.5 503,-56.5 452,-56.5"/>
<text text-anchor="middle" x="477.5" y="-63.5" font-family="Helvetica,sans-Serif" font-size="10.00">math.h</text>
</a>
</g>
</g>
<!-- Node6&#45;&gt;Node10 -->
<g id="edge11" class="edge">
<title>Node6&#45;&gt;Node10</title>
<path fill="none" stroke="midnightblue" d="M477.5,-112.08C477.5,-105.01 477.5,-94.86 477.5,-85.99"/>
<polygon fill="midnightblue" stroke="midnightblue" points="481,-85.75 477.5,-75.75 474,-85.75 481,-85.75"/>
</g>
<!-- Node11 -->
<g id="node11" class="node">
<title>Node11</title>
<g id="a_node11"><a xlink:title=" ">
<polygon fill="white" stroke="#bfbfbf" points="521.5,-56.5 521.5,-75.5 569.5,-75.5 569.5,-56.5 521.5,-56.5"/>
<text text-anchor="middle" x="545.5" y="-63.5" font-family="Helvetica,sans-Serif" font-size="10.00">float.h</text>
</a>
</g>
</g>
<!-- Node6&#45;&gt;Node11 -->
<g id="edge12" class="edge">
<title>Node6&#45;&gt;Node11</title>
<path fill="none" stroke="midnightblue" d="M488.43,-112.32C498.67,-104.18 514.22,-91.84 526.5,-82.09"/>
<polygon fill="midnightblue" stroke="midnightblue" points="528.72,-84.79 534.38,-75.83 524.37,-79.31 528.72,-84.79"/>
</g>
<!-- Node12 -->
<g id="node12" class="node">
<title>Node12</title>
<g id="a_node12"><a xlink:title=" ">
<polygon fill="white" stroke="#bfbfbf" points="736,-0.5 736,-19.5 789,-19.5 789,-0.5 736,-0.5"/>
<text text-anchor="middle" x="762.5" y="-7.5" font-family="Helvetica,sans-Serif" font-size="10.00">stdint.h</text>
</a>
</g>
</g>
<!-- Node6&#45;&gt;Node12 -->
<g id="edge13" class="edge">
<title>Node6&#45;&gt;Node12</title>
<path fill="none" stroke="midnightblue" d="M498.29,-119.78C552.36,-116.24 695.73,-104.33 732.5,-76 747.09,-64.76 754.84,-44.74 758.78,-29.88"/>
<polygon fill="midnightblue" stroke="midnightblue" points="762.28,-30.29 761.1,-19.76 755.46,-28.72 762.28,-30.29"/>
</g>
<!-- Node13 -->
<g id="node13" class="node">
<title>Node13</title>
<g id="a_node13"><a xlink:title=" ">
<polygon fill="white" stroke="#bfbfbf" points="587.5,-56.5 587.5,-75.5 635.5,-75.5 635.5,-56.5 587.5,-56.5"/>
<text text-anchor="middle" x="611.5" y="-63.5" font-family="Helvetica,sans-Serif" font-size="10.00">time.h</text>
</a>
</g>
</g>
<!-- Node6&#45;&gt;Node13 -->
<g id="edge14" class="edge">
<title>Node6&#45;&gt;Node13</title>
<path fill="none" stroke="midnightblue" d="M498.14,-112.68C520.18,-103.8 555.34,-89.63 580.66,-79.43"/>
<polygon fill="midnightblue" stroke="midnightblue" points="582.2,-82.58 590.17,-75.6 579.58,-76.09 582.2,-82.58"/>
</g>
<!-- Node14 -->
<g id="node14" class="node">
<title>Node14</title>
<g id="a_node14"><a xlink:href="os_8h.html" target="_top" xlink:title=" ">
<polygon fill="white" stroke="black" points="654,-56.5 654,-75.5 691,-75.5 691,-56.5 654,-56.5"/>
<text text-anchor="middle" x="672.5" y="-63.5" font-family="Helvetica,sans-Serif" font-size="10.00">os.h</text>
</a>
</g>
</g>
<!-- Node6&#45;&gt;Node14 -->
<g id="edge16" class="edge">
<title>Node6&#45;&gt;Node14</title>
<path fill="none" stroke="midnightblue" d="M498.16,-115.77C528.12,-108.12 585.6,-93.16 644.09,-76.01"/>
<polygon fill="midnightblue" stroke="midnightblue" points="645.26,-79.31 653.86,-73.13 643.28,-72.6 645.26,-79.31"/>
</g>
<!-- Node15 -->
<g id="node15" class="node">
<title>Node15</title>
<g id="a_node15"><a xlink:href="error_8h.html" target="_top" xlink:title=" ">
<polygon fill="white" stroke="black" points="310,-56.5 310,-75.5 359,-75.5 359,-56.5 310,-56.5"/>
<text text-anchor="middle" x="334.5" y="-63.5" font-family="Helvetica,sans-Serif" font-size="10.00">error.h</text>
</a>
</g>
</g>
<!-- Node6&#45;&gt;Node15 -->
<g id="edge17" class="edge">
<title>Node6&#45;&gt;Node15</title>
<path fill="none" stroke="midnightblue" d="M456.71,-113.15C433.11,-104.24 394.34,-89.6 366.8,-79.2"/>
<polygon fill="midnightblue" stroke="midnightblue" points="367.8,-75.83 357.21,-75.58 365.33,-82.38 367.8,-75.83"/>
</g>
<!-- Node15&#45;&gt;Node3 -->
<g id="edge21" class="edge">
<title>Node15&#45;&gt;Node3</title>
<path fill="none" stroke="midnightblue" d="M309.86,-57.03C281.45,-47.85 234.55,-32.68 202.39,-22.28"/>
<polygon fill="midnightblue" stroke="midnightblue" points="203.11,-18.84 192.52,-19.09 200.95,-25.5 203.11,-18.84"/>
</g>
<!-- Node15&#45;&gt;Node4 -->
<g id="edge23" class="edge">
<title>Node15&#45;&gt;Node4</title>
<path fill="none" stroke="midnightblue" d="M319.4,-56.32C304.6,-47.82 281.81,-34.73 264.52,-24.8"/>
<polygon fill="midnightblue" stroke="midnightblue" points="265.98,-21.6 255.57,-19.65 262.49,-27.67 265.98,-21.6"/>
</g>
<!-- Node15&#45;&gt;Node5 -->
<g id="edge18" class="edge">
<title>Node15&#45;&gt;Node5</title>
<path fill="none" stroke="midnightblue" d="M330.87,-56.08C327.89,-48.77 323.57,-38.18 319.88,-29.1"/>
<polygon fill="midnightblue" stroke="midnightblue" points="323.08,-27.69 316.07,-19.75 316.6,-30.33 323.08,-27.69"/>
</g>
<!-- Node15&#45;&gt;Node7 -->
<g id="edge20" class="edge">
<title>Node15&#45;&gt;Node7</title>
<path fill="none" stroke="midnightblue" d="M359.32,-57.72C390.16,-48.67 443.16,-33.11 479.46,-22.46"/>
<polygon fill="midnightblue" stroke="midnightblue" points="480.62,-25.76 489.23,-19.59 478.65,-19.05 480.62,-25.76"/>
</g>
<!-- Node15&#45;&gt;Node9 -->
<g id="edge22" class="edge">
<title>Node15&#45;&gt;Node9</title>
<path fill="none" stroke="midnightblue" d="M359.31,-58.11C362.39,-57.35 365.51,-56.62 368.5,-56 459.23,-37.03 567.41,-22.36 622.81,-15.41"/>
<polygon fill="midnightblue" stroke="midnightblue" points="623.36,-18.87 632.85,-14.17 622.49,-11.93 623.36,-18.87"/>
</g>
<!-- Node15&#45;&gt;Node12 -->
<g id="edge19" class="edge">
<title>Node15&#45;&gt;Node12</title>
<path fill="none" stroke="midnightblue" d="M359.29,-57.98C362.37,-57.24 365.5,-56.56 368.5,-56 511.8,-29.28 549.79,-37.56 694.5,-20 704.59,-18.78 715.51,-17.37 725.59,-16.03"/>
<polygon fill="midnightblue" stroke="midnightblue" points="726.26,-19.47 735.71,-14.68 725.34,-12.54 726.26,-19.47"/>
</g>
</g>
</svg>
