<?xml version="1.0" encoding="UTF-8" standalone="no"?>
<!DOCTYPE svg PUBLIC "-//W3C//DTD SVG 1.1//EN"
 "http://www.w3.org/Graphics/SVG/1.1/DTD/svg11.dtd">
<!-- Generated by graphviz version 2.43.0 (0)
 -->
<!-- Title: pthread_mutex_t Pages: 1 -->
<svg width="190pt" height="164pt"
 viewBox="0.00 0.00 190.00 164.00" xmlns="http://www.w3.org/2000/svg" xmlns:xlink="http://www.w3.org/1999/xlink">
<g id="graph0" class="graph" transform="scale(1 1) rotate(0) translate(4 160)">
<title>pthread_mutex_t</title>
<polygon fill="white" stroke="transparent" points="-4,4 -4,-160 186,-160 186,4 -4,4"/>
<!-- Node1 -->
<g id="node1" class="node">
<title>Node1</title>
<g id="a_node1"><a xlink:title=" ">
<polygon fill="#bfbfbf" stroke="black" points="14,-0.5 14,-19.5 114,-19.5 114,-0.5 14,-0.5"/>
<text text-anchor="middle" x="64" y="-7.5" font-family="Helvetica,sans-Serif" font-size="10.00">pthread_mutex_t</text>
</a>
</g>
</g>
<!-- Node2 -->
<g id="node2" class="node">
<title>Node2</title>
<g id="a_node2"><a xlink:href="struct____pthread__mutex__s.html" target="_top" xlink:title=" ">
<polygon fill="white" stroke="black" points="8,-67.5 8,-86.5 120,-86.5 120,-67.5 8,-67.5"/>
<text text-anchor="middle" x="64" y="-74.5" font-family="Helvetica,sans-Serif" font-size="10.00">__pthread_mutex_s</text>
</a>
</g>
</g>
<!-- Node2&#45;&gt;Node1 -->
<g id="edge1" class="edge">
<title>Node2&#45;&gt;Node1</title>
<path fill="none" stroke="#9a32cd" stroke-dasharray="5,2" d="M64,-57.04C64,-44.67 64,-29.12 64,-19.63"/>
<polygon fill="#9a32cd" stroke="#9a32cd" points="60.5,-57.23 64,-67.23 67.5,-57.23 60.5,-57.23"/>
<text text-anchor="middle" x="82" y="-41" font-family="Helvetica,sans-Serif" font-size="10.00"> __data</text>
</g>
<!-- Node3 -->
<g id="node3" class="node">
<title>Node3</title>
<g id="a_node3"><a xlink:href="struct____pthread__internal__list.html" target="_top" xlink:title=" ">
<polygon fill="white" stroke="black" points="0,-135.5 0,-154.5 128,-154.5 128,-135.5 0,-135.5"/>
<text text-anchor="middle" x="64" y="-142.5" font-family="Helvetica,sans-Serif" font-size="10.00">__pthread_internal_list</text>
</a>
</g>
</g>
<!-- Node3&#45;&gt;Node2 -->
<g id="edge2" class="edge">
<title>Node3&#45;&gt;Node2</title>
<path fill="none" stroke="#9a32cd" stroke-dasharray="5,2" d="M64,-125.04C64,-112.47 64,-96.56 64,-86.84"/>
<polygon fill="#9a32cd" stroke="#9a32cd" points="60.5,-125.37 64,-135.37 67.5,-125.37 60.5,-125.37"/>
<text text-anchor="middle" x="78.5" y="-108" font-family="Helvetica,sans-Serif" font-size="10.00"> __list</text>
</g>
<!-- Node3&#45;&gt;Node3 -->
<g id="edge3" class="edge">
<title>Node3&#45;&gt;Node3</title>
<path fill="none" stroke="#9a32cd" stroke-dasharray="5,2" d="M138.51,-149.48C143.18,-148.42 146,-146.93 146,-145 146,-141.91 138.79,-139.95 128.29,-139.1"/>
<polygon fill="#9a32cd" stroke="#9a32cd" points="137.71,-146.05 128.29,-150.9 138.67,-152.99 137.71,-146.05"/>
<text text-anchor="middle" x="164" y="-148" font-family="Helvetica,sans-Serif" font-size="10.00"> __prev</text>
<text text-anchor="middle" x="164" y="-137" font-family="Helvetica,sans-Serif" font-size="10.00">__next</text>
</g>
</g>
</svg>
