<?xml version="1.0" encoding="UTF-8" standalone="no"?>
<!DOCTYPE svg PUBLIC "-//W3C//DTD SVG 1.1//EN"
 "http://www.w3.org/Graphics/SVG/1.1/DTD/svg11.dtd">
<!-- Generated by graphviz version 2.43.0 (0)
 -->
<!-- Title: /home/bugy/projs/lobotomy/src/util.h Pages: 1 -->
<svg width="687pt" height="151pt"
 viewBox="0.00 0.00 687.00 151.00" xmlns="http://www.w3.org/2000/svg" xmlns:xlink="http://www.w3.org/1999/xlink">
<g id="graph0" class="graph" transform="scale(1 1) rotate(0) translate(4 147)">
<title>/home/bugy/projs/lobotomy/src/util.h</title>
<polygon fill="white" stroke="transparent" points="-4,4 -4,-147 683,-147 683,4 -4,4"/>
<!-- Node1 -->
<g id="node1" class="node">
<title>Node1</title>
<g id="a_node1"><a xlink:title=" ">
<polygon fill="#bfbfbf" stroke="black" points="243,-112.5 243,-142.5 394,-142.5 394,-112.5 243,-112.5"/>
<text text-anchor="start" x="251" y="-130.5" font-family="Helvetica,sans-Serif" font-size="10.00">/home/bugy/projs/lobotomy</text>
<text text-anchor="middle" x="318.5" y="-119.5" font-family="Helvetica,sans-Serif" font-size="10.00">/src/util.h</text>
</a>
</g>
</g>
<!-- Node2 -->
<g id="node2" class="node">
<title>Node2</title>
<g id="a_node2"><a xlink:title=" ">
<polygon fill="white" stroke="#bfbfbf" points="0,-0.5 0,-19.5 53,-19.5 53,-0.5 0,-0.5"/>
<text text-anchor="middle" x="26.5" y="-7.5" font-family="Helvetica,sans-Serif" font-size="10.00">stdlib.h</text>
</a>
</g>
</g>
<!-- Node1&#45;&gt;Node2 -->
<g id="edge1" class="edge">
<title>Node1&#45;&gt;Node2</title>
<path fill="none" stroke="midnightblue" d="M250.97,-112.45C215.78,-104 172.48,-91.79 135.5,-76 102.84,-62.06 68.11,-39.91 46.85,-25.42"/>
<polygon fill="midnightblue" stroke="midnightblue" points="48.57,-22.34 38.35,-19.53 44.58,-28.1 48.57,-22.34"/>
</g>
<!-- Node3 -->
<g id="node3" class="node">
<title>Node3</title>
<g id="a_node3"><a xlink:title=" ">
<polygon fill="white" stroke="#bfbfbf" points="71.5,-0.5 71.5,-19.5 121.5,-19.5 121.5,-0.5 71.5,-0.5"/>
<text text-anchor="middle" x="96.5" y="-7.5" font-family="Helvetica,sans-Serif" font-size="10.00">stdio.h</text>
</a>
</g>
</g>
<!-- Node1&#45;&gt;Node3 -->
<g id="edge2" class="edge">
<title>Node1&#45;&gt;Node3</title>
<path fill="none" stroke="midnightblue" d="M253.46,-112.4C224.59,-104.39 191.01,-92.59 163.5,-76 142.15,-63.13 122.27,-42.26 109.8,-27.65"/>
<polygon fill="midnightblue" stroke="midnightblue" points="112.43,-25.34 103.36,-19.88 107.05,-29.81 112.43,-25.34"/>
</g>
<!-- Node4 -->
<g id="node4" class="node">
<title>Node4</title>
<g id="a_node4"><a xlink:title=" ">
<polygon fill="white" stroke="#bfbfbf" points="139.5,-0.5 139.5,-19.5 201.5,-19.5 201.5,-0.5 139.5,-0.5"/>
<text text-anchor="middle" x="170.5" y="-7.5" font-family="Helvetica,sans-Serif" font-size="10.00">stdbool.h</text>
</a>
</g>
</g>
<!-- Node1&#45;&gt;Node4 -->
<g id="edge3" class="edge">
<title>Node1&#45;&gt;Node4</title>
<path fill="none" stroke="midnightblue" d="M242.94,-117.17C217.23,-110.07 190.88,-97.66 174.5,-76 164.6,-62.91 164.64,-43.76 166.53,-29.63"/>
<polygon fill="midnightblue" stroke="midnightblue" points="170.01,-30.05 168.29,-19.6 163.12,-28.84 170.01,-30.05"/>
</g>
<!-- Node5 -->
<g id="node5" class="node">
<title>Node5</title>
<g id="a_node5"><a xlink:title=" ">
<polygon fill="white" stroke="#bfbfbf" points="365.5,-56.5 365.5,-75.5 421.5,-75.5 421.5,-56.5 365.5,-56.5"/>
<text text-anchor="middle" x="393.5" y="-63.5" font-family="Helvetica,sans-Serif" font-size="10.00">assert.h</text>
</a>
</g>
</g>
<!-- Node1&#45;&gt;Node5 -->
<g id="edge4" class="edge">
<title>Node1&#45;&gt;Node5</title>
<path fill="none" stroke="midnightblue" d="M336.27,-112.4C347.85,-103.22 362.92,-91.26 374.7,-81.92"/>
<polygon fill="midnightblue" stroke="midnightblue" points="376.93,-84.61 382.59,-75.66 372.58,-79.13 376.93,-84.61"/>
</g>
<!-- Node6 -->
<g id="node6" class="node">
<title>Node6</title>
<g id="a_node6"><a xlink:title=" ">
<polygon fill="white" stroke="#bfbfbf" points="220,-0.5 220,-19.5 273,-19.5 273,-0.5 220,-0.5"/>
<text text-anchor="middle" x="246.5" y="-7.5" font-family="Helvetica,sans-Serif" font-size="10.00">string.h</text>
</a>
</g>
</g>
<!-- Node1&#45;&gt;Node6 -->
<g id="edge5" class="edge">
<title>Node1&#45;&gt;Node6</title>
<path fill="none" stroke="midnightblue" d="M309.67,-112.34C296.46,-91.15 271.59,-51.24 257.31,-28.34"/>
<polygon fill="midnightblue" stroke="midnightblue" points="260.16,-26.3 251.9,-19.67 254.22,-30.01 260.16,-26.3"/>
</g>
<!-- Node7 -->
<g id="node7" class="node">
<title>Node7</title>
<g id="a_node7"><a xlink:title=" ">
<polygon fill="white" stroke="#bfbfbf" points="440,-56.5 440,-75.5 491,-75.5 491,-56.5 440,-56.5"/>
<text text-anchor="middle" x="465.5" y="-63.5" font-family="Helvetica,sans-Serif" font-size="10.00">math.h</text>
</a>
</g>
</g>
<!-- Node1&#45;&gt;Node7 -->
<g id="edge6" class="edge">
<title>Node1&#45;&gt;Node7</title>
<path fill="none" stroke="midnightblue" d="M353.34,-112.4C378,-102.42 410.79,-89.15 434.53,-79.53"/>
<polygon fill="midnightblue" stroke="midnightblue" points="436.15,-82.65 444.11,-75.66 433.53,-76.17 436.15,-82.65"/>
</g>
<!-- Node8 -->
<g id="node8" class="node">
<title>Node8</title>
<g id="a_node8"><a xlink:title=" ">
<polygon fill="white" stroke="#bfbfbf" points="509.5,-56.5 509.5,-75.5 557.5,-75.5 557.5,-56.5 509.5,-56.5"/>
<text text-anchor="middle" x="533.5" y="-63.5" font-family="Helvetica,sans-Serif" font-size="10.00">float.h</text>
</a>
</g>
</g>
<!-- Node1&#45;&gt;Node8 -->
<g id="edge7" class="edge">
<title>Node1&#45;&gt;Node8</title>
<path fill="none" stroke="midnightblue" d="M369.18,-112.47C409.41,-101.34 464.53,-86.09 499.58,-76.39"/>
<polygon fill="midnightblue" stroke="midnightblue" points="500.64,-79.73 509.34,-73.69 498.77,-72.98 500.64,-79.73"/>
</g>
<!-- Node9 -->
<g id="node9" class="node">
<title>Node9</title>
<g id="a_node9"><a xlink:title=" ">
<polygon fill="white" stroke="#bfbfbf" points="291,-0.5 291,-19.5 344,-19.5 344,-0.5 291,-0.5"/>
<text text-anchor="middle" x="317.5" y="-7.5" font-family="Helvetica,sans-Serif" font-size="10.00">stdint.h</text>
</a>
</g>
</g>
<!-- Node1&#45;&gt;Node9 -->
<g id="edge8" class="edge">
<title>Node1&#45;&gt;Node9</title>
<path fill="none" stroke="midnightblue" d="M318.38,-112.34C318.2,-91.62 317.86,-53.02 317.66,-29.9"/>
<polygon fill="midnightblue" stroke="midnightblue" points="321.16,-29.64 317.58,-19.67 314.16,-29.7 321.16,-29.64"/>
</g>
<!-- Node10 -->
<g id="node10" class="node">
<title>Node10</title>
<g id="a_node10"><a xlink:title=" ">
<polygon fill="white" stroke="#bfbfbf" points="575.5,-56.5 575.5,-75.5 623.5,-75.5 623.5,-56.5 575.5,-56.5"/>
<text text-anchor="middle" x="599.5" y="-63.5" font-family="Helvetica,sans-Serif" font-size="10.00">time.h</text>
</a>
</g>
</g>
<!-- Node1&#45;&gt;Node10 -->
<g id="edge9" class="edge">
<title>Node1&#45;&gt;Node10</title>
<path fill="none" stroke="midnightblue" d="M393.94,-112.47C440.82,-103.44 502.53,-90.99 565.66,-76.08"/>
<polygon fill="midnightblue" stroke="midnightblue" points="566.48,-79.49 575.4,-73.77 564.86,-72.68 566.48,-79.49"/>
</g>
<!-- Node11 -->
<g id="node11" class="node">
<title>Node11</title>
<g id="a_node11"><a xlink:title=" ">
<polygon fill="white" stroke="#bfbfbf" points="362,-0.5 362,-19.5 417,-19.5 417,-0.5 362,-0.5"/>
<text text-anchor="middle" x="389.5" y="-7.5" font-family="Helvetica,sans-Serif" font-size="10.00">wchar.h</text>
</a>
</g>
</g>
<!-- Node1&#45;&gt;Node11 -->
<g id="edge10" class="edge">
<title>Node1&#45;&gt;Node11</title>
<path fill="none" stroke="midnightblue" d="M325.37,-112.4C332.59,-97.93 344.54,-74.92 356.5,-56 362.58,-46.38 370.03,-36.11 376.31,-27.81"/>
<polygon fill="midnightblue" stroke="midnightblue" points="379.22,-29.77 382.55,-19.71 373.68,-25.5 379.22,-29.77"/>
</g>
<!-- Node12 -->
<g id="node12" class="node">
<title>Node12</title>
<g id="a_node12"><a xlink:href="os_8h.html" target="_top" xlink:title=" ">
<polygon fill="white" stroke="black" points="642,-56.5 642,-75.5 679,-75.5 679,-56.5 642,-56.5"/>
<text text-anchor="middle" x="660.5" y="-63.5" font-family="Helvetica,sans-Serif" font-size="10.00">os.h</text>
</a>
</g>
</g>
<!-- Node1&#45;&gt;Node12 -->
<g id="edge11" class="edge">
<title>Node1&#45;&gt;Node12</title>
<path fill="none" stroke="midnightblue" d="M394.32,-117.58C456,-109.58 545.36,-96.28 632.18,-75.74"/>
<polygon fill="midnightblue" stroke="midnightblue" points="633.03,-79.14 641.94,-73.4 631.39,-72.33 633.03,-79.14"/>
</g>
<!-- Node13 -->
<g id="node13" class="node">
<title>Node13</title>
<g id="a_node13"><a xlink:href="error_8h.html" target="_top" xlink:title=" ">
<polygon fill="white" stroke="black" points="184,-56.5 184,-75.5 233,-75.5 233,-56.5 184,-56.5"/>
<text text-anchor="middle" x="208.5" y="-63.5" font-family="Helvetica,sans-Serif" font-size="10.00">error.h</text>
</a>
</g>
</g>
<!-- Node1&#45;&gt;Node13 -->
<g id="edge12" class="edge">
<title>Node1&#45;&gt;Node13</title>
<path fill="none" stroke="midnightblue" d="M292.43,-112.4C274.63,-102.77 251.19,-90.09 233.6,-80.58"/>
<polygon fill="midnightblue" stroke="midnightblue" points="234.97,-77.34 224.51,-75.66 231.64,-83.49 234.97,-77.34"/>
</g>
<!-- Node13&#45;&gt;Node2 -->
<g id="edge13" class="edge">
<title>Node13&#45;&gt;Node2</title>
<path fill="none" stroke="midnightblue" d="M183.95,-57.72C152.74,-48.45 98.57,-32.38 62.63,-21.72"/>
<polygon fill="midnightblue" stroke="midnightblue" points="63.6,-18.36 53.01,-18.87 61.6,-25.07 63.6,-18.36"/>
</g>
<!-- Node13&#45;&gt;Node3 -->
<g id="edge16" class="edge">
<title>Node13&#45;&gt;Node3</title>
<path fill="none" stroke="midnightblue" d="M190.51,-56.32C172.46,-47.62 144.45,-34.12 123.7,-24.11"/>
<polygon fill="midnightblue" stroke="midnightblue" points="124.98,-20.84 114.45,-19.65 121.94,-27.15 124.98,-20.84"/>
</g>
<!-- Node13&#45;&gt;Node4 -->
<g id="edge15" class="edge">
<title>Node13&#45;&gt;Node4</title>
<path fill="none" stroke="midnightblue" d="M202.23,-56.08C196.86,-48.46 188.98,-37.26 182.42,-27.94"/>
<polygon fill="midnightblue" stroke="midnightblue" points="185.28,-25.91 176.66,-19.75 179.55,-29.94 185.28,-25.91"/>
</g>
<!-- Node13&#45;&gt;Node6 -->
<g id="edge17" class="edge">
<title>Node13&#45;&gt;Node6</title>
<path fill="none" stroke="midnightblue" d="M214.77,-56.08C220.14,-48.46 228.02,-37.26 234.58,-27.94"/>
<polygon fill="midnightblue" stroke="midnightblue" points="237.45,-29.94 240.34,-19.75 231.72,-25.91 237.45,-29.94"/>
</g>
<!-- Node13&#45;&gt;Node9 -->
<g id="edge14" class="edge">
<title>Node13&#45;&gt;Node9</title>
<path fill="none" stroke="midnightblue" d="M226.01,-56.32C243.57,-47.62 270.83,-34.12 291.03,-24.11"/>
<polygon fill="midnightblue" stroke="midnightblue" points="292.62,-27.23 300.03,-19.65 289.52,-20.96 292.62,-27.23"/>
</g>
<!-- Node13&#45;&gt;Node11 -->
<g id="edge18" class="edge">
<title>Node13&#45;&gt;Node11</title>
<path fill="none" stroke="midnightblue" d="M233.29,-57.6C263.87,-48.48 316.16,-32.88 351.74,-22.26"/>
<polygon fill="midnightblue" stroke="midnightblue" points="353.17,-25.49 361.75,-19.28 351.17,-18.78 353.17,-25.49"/>
</g>
</g>
</svg>
