<?xml version="1.0" encoding="UTF-8" standalone="no"?>
<!DOCTYPE svg PUBLIC "-//W3C//DTD SVG 1.1//EN"
 "http://www.w3.org/Graphics/SVG/1.1/DTD/svg11.dtd">
<!-- Generated by graphviz version 2.43.0 (0)
 -->
<!-- Title: /home/bugy/projs/lobotomy/src/vm.h Pages: 1 -->
<svg width="992pt" height="207pt"
 viewBox="0.00 0.00 991.78 207.00" xmlns="http://www.w3.org/2000/svg" xmlns:xlink="http://www.w3.org/1999/xlink">
<g id="graph0" class="graph" transform="scale(1 1) rotate(0) translate(4 203)">
<title>/home/bugy/projs/lobotomy/src/vm.h</title>
<polygon fill="white" stroke="transparent" points="-4,4 -4,-203 987.78,-203 987.78,4 -4,4"/>
<!-- Node1 -->
<g id="node1" class="node">
<title>Node1</title>
<g id="a_node1"><a xlink:title=" ">
<polygon fill="#bfbfbf" stroke="black" points="384.28,-168.5 384.28,-198.5 535.28,-198.5 535.28,-168.5 384.28,-168.5"/>
<text text-anchor="start" x="392.28" y="-186.5" font-family="Helvetica,sans-Serif" font-size="10.00">/home/bugy/projs/lobotomy</text>
<text text-anchor="middle" x="459.78" y="-175.5" font-family="Helvetica,sans-Serif" font-size="10.00">/src/vm.h</text>
</a>
</g>
</g>
<!-- Node2 -->
<g id="node2" class="node">
<title>Node2</title>
<g id="a_node2"><a xlink:href="util_8h.html" target="_top" xlink:title=" ">
<polygon fill="white" stroke="black" points="592.28,-112.5 592.28,-131.5 633.28,-131.5 633.28,-112.5 592.28,-112.5"/>
<text text-anchor="middle" x="612.78" y="-119.5" font-family="Helvetica,sans-Serif" font-size="10.00">util.h</text>
</a>
</g>
</g>
<!-- Node1&#45;&gt;Node2 -->
<g id="edge1" class="edge">
<title>Node1&#45;&gt;Node2</title>
<path fill="none" stroke="midnightblue" d="M496.04,-168.4C522.45,-158.13 557.8,-144.38 582.66,-134.72"/>
<polygon fill="midnightblue" stroke="midnightblue" points="584.23,-137.86 592.28,-130.97 581.69,-131.33 584.23,-137.86"/>
</g>
<!-- Node15 -->
<g id="node15" class="node">
<title>Node15</title>
<g id="a_node15"><a xlink:href="obj_8h.html" target="_top" xlink:title=" ">
<polygon fill="white" stroke="black" points="287.28,-112.5 287.28,-131.5 328.28,-131.5 328.28,-112.5 287.28,-112.5"/>
<text text-anchor="middle" x="307.78" y="-119.5" font-family="Helvetica,sans-Serif" font-size="10.00">obj.h</text>
</a>
</g>
</g>
<!-- Node1&#45;&gt;Node15 -->
<g id="edge20" class="edge">
<title>Node1&#45;&gt;Node15</title>
<path fill="none" stroke="midnightblue" d="M423.76,-168.4C397.68,-158.19 362.82,-144.54 338.15,-134.89"/>
<polygon fill="midnightblue" stroke="midnightblue" points="339.17,-131.53 328.58,-131.14 336.62,-138.05 339.17,-131.53"/>
</g>
<!-- Node3 -->
<g id="node3" class="node">
<title>Node3</title>
<g id="a_node3"><a xlink:title=" ">
<polygon fill="white" stroke="#bfbfbf" points="194.28,-0.5 194.28,-19.5 247.28,-19.5 247.28,-0.5 194.28,-0.5"/>
<text text-anchor="middle" x="220.78" y="-7.5" font-family="Helvetica,sans-Serif" font-size="10.00">stdlib.h</text>
</a>
</g>
</g>
<!-- Node2&#45;&gt;Node3 -->
<g id="edge2" class="edge">
<title>Node2&#45;&gt;Node3</title>
<path fill="none" stroke="midnightblue" d="M592.05,-120.46C508.94,-118.11 203.08,-107.35 174.78,-76 160.38,-60.04 180.46,-39.47 198.44,-25.8"/>
<polygon fill="midnightblue" stroke="midnightblue" points="200.86,-28.37 206.93,-19.68 196.77,-22.68 200.86,-28.37"/>
</g>
<!-- Node4 -->
<g id="node4" class="node">
<title>Node4</title>
<g id="a_node4"><a xlink:title=" ">
<polygon fill="white" stroke="#bfbfbf" points="103.78,-0.5 103.78,-19.5 153.78,-19.5 153.78,-0.5 103.78,-0.5"/>
<text text-anchor="middle" x="128.78" y="-7.5" font-family="Helvetica,sans-Serif" font-size="10.00">stdio.h</text>
</a>
</g>
</g>
<!-- Node2&#45;&gt;Node4 -->
<g id="edge3" class="edge">
<title>Node2&#45;&gt;Node4</title>
<path fill="none" stroke="midnightblue" d="M592.08,-120.01C509.06,-115.89 202.96,-99.24 166.78,-76 150.15,-65.31 139.9,-44.56 134.31,-29.36"/>
<polygon fill="midnightblue" stroke="midnightblue" points="137.5,-27.89 131.03,-19.51 130.86,-30.1 137.5,-27.89"/>
</g>
<!-- Node5 -->
<g id="node5" class="node">
<title>Node5</title>
<g id="a_node5"><a xlink:title=" ">
<polygon fill="white" stroke="#bfbfbf" points="428.78,-0.5 428.78,-19.5 490.78,-19.5 490.78,-0.5 428.78,-0.5"/>
<text text-anchor="middle" x="459.78" y="-7.5" font-family="Helvetica,sans-Serif" font-size="10.00">stdbool.h</text>
</a>
</g>
</g>
<!-- Node2&#45;&gt;Node5 -->
<g id="edge4" class="edge">
<title>Node2&#45;&gt;Node5</title>
<path fill="none" stroke="midnightblue" d="M633.32,-116.68C670.06,-108.06 740.9,-86.85 714.78,-56 685.2,-21.05 561.9,-28.34 501.09,-19.88"/>
<polygon fill="midnightblue" stroke="midnightblue" points="501.63,-16.42 491.19,-18.24 500.49,-23.32 501.63,-16.42"/>
</g>
<!-- Node6 -->
<g id="node6" class="node">
<title>Node6</title>
<g id="a_node6"><a xlink:title=" ">
<polygon fill="white" stroke="#bfbfbf" points="649.78,-56.5 649.78,-75.5 705.78,-75.5 705.78,-56.5 649.78,-56.5"/>
<text text-anchor="middle" x="677.78" y="-63.5" font-family="Helvetica,sans-Serif" font-size="10.00">assert.h</text>
</a>
</g>
</g>
<!-- Node2&#45;&gt;Node6 -->
<g id="edge5" class="edge">
<title>Node2&#45;&gt;Node6</title>
<path fill="none" stroke="midnightblue" d="M623.23,-112.32C632.93,-104.26 647.6,-92.08 659.28,-82.37"/>
<polygon fill="midnightblue" stroke="midnightblue" points="661.69,-84.92 667.15,-75.83 657.22,-79.53 661.69,-84.92"/>
</g>
<!-- Node7 -->
<g id="node7" class="node">
<title>Node7</title>
<g id="a_node7"><a xlink:title=" ">
<polygon fill="white" stroke="#bfbfbf" points="283.28,-0.5 283.28,-19.5 336.28,-19.5 336.28,-0.5 283.28,-0.5"/>
<text text-anchor="middle" x="309.78" y="-7.5" font-family="Helvetica,sans-Serif" font-size="10.00">string.h</text>
</a>
</g>
</g>
<!-- Node2&#45;&gt;Node7 -->
<g id="edge6" class="edge">
<title>Node2&#45;&gt;Node7</title>
<path fill="none" stroke="midnightblue" d="M592.28,-119.33C553.73,-115.6 468.42,-104.57 402.78,-76 373.91,-63.43 344.84,-41.22 327.07,-26.3"/>
<polygon fill="midnightblue" stroke="midnightblue" points="329.17,-23.5 319.31,-19.64 324.62,-28.81 329.17,-23.5"/>
</g>
<!-- Node8 -->
<g id="node8" class="node">
<title>Node8</title>
<g id="a_node8"><a xlink:title=" ">
<polygon fill="white" stroke="#bfbfbf" points="800.28,-56.5 800.28,-75.5 851.28,-75.5 851.28,-56.5 800.28,-56.5"/>
<text text-anchor="middle" x="825.78" y="-63.5" font-family="Helvetica,sans-Serif" font-size="10.00">math.h</text>
</a>
</g>
</g>
<!-- Node2&#45;&gt;Node8 -->
<g id="edge7" class="edge">
<title>Node2&#45;&gt;Node8</title>
<path fill="none" stroke="midnightblue" d="M633.59,-115.72C669.92,-106.52 745.27,-87.41 790.07,-76.05"/>
<polygon fill="midnightblue" stroke="midnightblue" points="791.12,-79.4 799.96,-73.55 789.4,-72.61 791.12,-79.4"/>
</g>
<!-- Node9 -->
<g id="node9" class="node">
<title>Node9</title>
<g id="a_node9"><a xlink:title=" ">
<polygon fill="white" stroke="#bfbfbf" points="869.78,-56.5 869.78,-75.5 917.78,-75.5 917.78,-56.5 869.78,-56.5"/>
<text text-anchor="middle" x="893.78" y="-63.5" font-family="Helvetica,sans-Serif" font-size="10.00">float.h</text>
</a>
</g>
</g>
<!-- Node2&#45;&gt;Node9 -->
<g id="edge8" class="edge">
<title>Node2&#45;&gt;Node9</title>
<path fill="none" stroke="midnightblue" d="M633.48,-117.87C674.7,-111.5 770.11,-96.09 859.9,-76.04"/>
<polygon fill="midnightblue" stroke="midnightblue" points="860.71,-79.45 869.69,-73.83 859.17,-72.62 860.71,-79.45"/>
</g>
<!-- Node10 -->
<g id="node10" class="node">
<title>Node10</title>
<g id="a_node10"><a xlink:title=" ">
<polygon fill="white" stroke="#bfbfbf" points="357.28,-0.5 357.28,-19.5 410.28,-19.5 410.28,-0.5 357.28,-0.5"/>
<text text-anchor="middle" x="383.78" y="-7.5" font-family="Helvetica,sans-Serif" font-size="10.00">stdint.h</text>
</a>
</g>
</g>
<!-- Node2&#45;&gt;Node10 -->
<g id="edge9" class="edge">
<title>Node2&#45;&gt;Node10</title>
<path fill="none" stroke="midnightblue" d="M594.81,-112.37C554.76,-93.13 458,-46.65 410.7,-23.93"/>
<polygon fill="midnightblue" stroke="midnightblue" points="412.2,-20.77 401.67,-19.59 409.17,-27.08 412.2,-20.77"/>
</g>
<!-- Node11 -->
<g id="node11" class="node">
<title>Node11</title>
<g id="a_node11"><a xlink:title=" ">
<polygon fill="white" stroke="#bfbfbf" points="935.78,-56.5 935.78,-75.5 983.78,-75.5 983.78,-56.5 935.78,-56.5"/>
<text text-anchor="middle" x="959.78" y="-63.5" font-family="Helvetica,sans-Serif" font-size="10.00">time.h</text>
</a>
</g>
</g>
<!-- Node2&#45;&gt;Node11 -->
<g id="edge10" class="edge">
<title>Node2&#45;&gt;Node11</title>
<path fill="none" stroke="midnightblue" d="M633.51,-118.93C682.58,-113.84 809.83,-99.52 925.62,-76.01"/>
<polygon fill="midnightblue" stroke="midnightblue" points="926.63,-79.38 935.72,-73.93 925.22,-72.52 926.63,-79.38"/>
</g>
<!-- Node12 -->
<g id="node12" class="node">
<title>Node12</title>
<g id="a_node12"><a xlink:title=" ">
<polygon fill="white" stroke="#bfbfbf" points="509.28,-0.5 509.28,-19.5 564.28,-19.5 564.28,-0.5 509.28,-0.5"/>
<text text-anchor="middle" x="536.78" y="-7.5" font-family="Helvetica,sans-Serif" font-size="10.00">wchar.h</text>
</a>
</g>
</g>
<!-- Node2&#45;&gt;Node12 -->
<g id="edge11" class="edge">
<title>Node2&#45;&gt;Node12</title>
<path fill="none" stroke="midnightblue" d="M633.35,-118.92C678.69,-113.54 780.67,-96.64 747.78,-56 726.37,-29.54 628.97,-17.96 574.3,-13.48"/>
<polygon fill="midnightblue" stroke="midnightblue" points="574.54,-9.99 564.3,-12.7 573.99,-16.97 574.54,-9.99"/>
</g>
<!-- Node13 -->
<g id="node13" class="node">
<title>Node13</title>
<g id="a_node13"><a xlink:href="os_8h.html" target="_top" xlink:title=" ">
<polygon fill="white" stroke="black" points="594.28,-56.5 594.28,-75.5 631.28,-75.5 631.28,-56.5 594.28,-56.5"/>
<text text-anchor="middle" x="612.78" y="-63.5" font-family="Helvetica,sans-Serif" font-size="10.00">os.h</text>
</a>
</g>
</g>
<!-- Node2&#45;&gt;Node13 -->
<g id="edge12" class="edge">
<title>Node2&#45;&gt;Node13</title>
<path fill="none" stroke="midnightblue" d="M612.78,-112.08C612.78,-105.01 612.78,-94.86 612.78,-85.99"/>
<polygon fill="midnightblue" stroke="midnightblue" points="616.28,-85.75 612.78,-75.75 609.28,-85.75 616.28,-85.75"/>
</g>
<!-- Node14 -->
<g id="node14" class="node">
<title>Node14</title>
<g id="a_node14"><a xlink:href="error_8h.html" target="_top" xlink:title=" ">
<polygon fill="white" stroke="black" points="412.28,-56.5 412.28,-75.5 461.28,-75.5 461.28,-56.5 412.28,-56.5"/>
<text text-anchor="middle" x="436.78" y="-63.5" font-family="Helvetica,sans-Serif" font-size="10.00">error.h</text>
</a>
</g>
</g>
<!-- Node2&#45;&gt;Node14 -->
<g id="edge13" class="edge">
<title>Node2&#45;&gt;Node14</title>
<path fill="none" stroke="midnightblue" d="M592.25,-114.7C562.49,-105.57 507.02,-88.55 471.01,-77.5"/>
<polygon fill="midnightblue" stroke="midnightblue" points="472,-74.14 461.41,-74.56 469.95,-80.84 472,-74.14"/>
</g>
<!-- Node14&#45;&gt;Node3 -->
<g id="edge14" class="edge">
<title>Node14&#45;&gt;Node3</title>
<path fill="none" stroke="midnightblue" d="M412,-58.81C373.97,-49.3 300.98,-31.05 257.01,-20.06"/>
<polygon fill="midnightblue" stroke="midnightblue" points="257.84,-16.66 247.29,-17.63 256.14,-23.45 257.84,-16.66"/>
</g>
<!-- Node14&#45;&gt;Node4 -->
<g id="edge17" class="edge">
<title>Node14&#45;&gt;Node4</title>
<path fill="none" stroke="midnightblue" d="M412.1,-60.67C357.6,-51.12 226.87,-28.2 163.88,-17.15"/>
<polygon fill="midnightblue" stroke="midnightblue" points="164.47,-13.7 154.02,-15.42 163.26,-20.6 164.47,-13.7"/>
</g>
<!-- Node14&#45;&gt;Node5 -->
<g id="edge16" class="edge">
<title>Node14&#45;&gt;Node5</title>
<path fill="none" stroke="midnightblue" d="M440.58,-56.08C443.7,-48.77 448.21,-38.18 452.07,-29.1"/>
<polygon fill="midnightblue" stroke="midnightblue" points="455.36,-30.32 456.06,-19.75 448.92,-27.58 455.36,-30.32"/>
</g>
<!-- Node14&#45;&gt;Node7 -->
<g id="edge18" class="edge">
<title>Node14&#45;&gt;Node7</title>
<path fill="none" stroke="midnightblue" d="M416.66,-56.44C395.76,-47.56 362.85,-33.56 339.07,-23.45"/>
<polygon fill="midnightblue" stroke="midnightblue" points="340.38,-20.21 329.81,-19.52 337.65,-26.65 340.38,-20.21"/>
</g>
<!-- Node14&#45;&gt;Node10 -->
<g id="edge15" class="edge">
<title>Node14&#45;&gt;Node10</title>
<path fill="none" stroke="midnightblue" d="M428.03,-56.08C420.31,-48.22 408.88,-36.57 399.57,-27.08"/>
<polygon fill="midnightblue" stroke="midnightblue" points="401.87,-24.44 392.37,-19.75 396.88,-29.34 401.87,-24.44"/>
</g>
<!-- Node14&#45;&gt;Node12 -->
<g id="edge19" class="edge">
<title>Node14&#45;&gt;Node12</title>
<path fill="none" stroke="midnightblue" d="M452.85,-56.32C468.74,-47.74 493.29,-34.49 511.74,-24.52"/>
<polygon fill="midnightblue" stroke="midnightblue" points="513.62,-27.49 520.76,-19.65 510.29,-21.33 513.62,-27.49"/>
</g>
<!-- Node15&#45;&gt;Node3 -->
<g id="edge21" class="edge">
<title>Node15&#45;&gt;Node3</title>
<path fill="none" stroke="midnightblue" d="M287.01,-118.49C246.53,-113.13 159.47,-99.12 141.78,-76 125.11,-54.2 157.35,-35.03 185.53,-23.27"/>
<polygon fill="midnightblue" stroke="midnightblue" points="186.85,-26.51 194.85,-19.57 184.27,-20 186.85,-26.51"/>
</g>
<!-- Node15&#45;&gt;Node4 -->
<g id="edge24" class="edge">
<title>Node15&#45;&gt;Node4</title>
<path fill="none" stroke="midnightblue" d="M286.97,-121.23C224.91,-121.43 43.26,-118.33 6.78,-76 -21.05,-43.7 48.51,-24.93 93.68,-16.46"/>
<polygon fill="midnightblue" stroke="midnightblue" points="94.51,-19.87 103.74,-14.67 93.28,-12.98 94.51,-19.87"/>
</g>
<!-- Node15&#45;&gt;Node5 -->
<g id="edge23" class="edge">
<title>Node15&#45;&gt;Node5</title>
<path fill="none" stroke="midnightblue" d="M328.36,-118.37C368.02,-112.83 452.61,-98.6 469.78,-76 480.01,-62.54 475.06,-42.91 469.07,-28.74"/>
<polygon fill="midnightblue" stroke="midnightblue" points="472.17,-27.11 464.73,-19.56 465.84,-30.1 472.17,-27.11"/>
</g>
<!-- Node15&#45;&gt;Node7 -->
<g id="edge25" class="edge">
<title>Node15&#45;&gt;Node7</title>
<path fill="none" stroke="midnightblue" d="M307.94,-112.37C308.26,-94.62 309.01,-53.67 309.44,-29.6"/>
<polygon fill="midnightblue" stroke="midnightblue" points="312.94,-29.65 309.63,-19.59 305.95,-29.53 312.94,-29.65"/>
</g>
<!-- Node15&#45;&gt;Node10 -->
<g id="edge22" class="edge">
<title>Node15&#45;&gt;Node10</title>
<path fill="none" stroke="midnightblue" d="M313.75,-112.37C326.29,-94.22 355.59,-51.8 372.04,-27.99"/>
<polygon fill="midnightblue" stroke="midnightblue" points="375.04,-29.81 377.85,-19.59 369.28,-25.83 375.04,-29.81"/>
</g>
<!-- Node15&#45;&gt;Node12 -->
<g id="edge26" class="edge">
<title>Node15&#45;&gt;Node12</title>
<path fill="none" stroke="midnightblue" d="M328.3,-120.16C363.49,-117.83 436.42,-109.05 486.78,-76 504.77,-64.2 518.95,-43.68 527.54,-28.85"/>
<polygon fill="midnightblue" stroke="midnightblue" points="530.84,-30.11 532.58,-19.66 524.7,-26.75 530.84,-30.11"/>
</g>
<!-- Node16 -->
<g id="node16" class="node">
<title>Node16</title>
<g id="a_node16"><a xlink:href="SHM_2hashmap_8h.html" target="_top" xlink:title=" ">
<polygon fill="white" stroke="black" points="183.78,-56.5 183.78,-75.5 279.78,-75.5 279.78,-56.5 183.78,-56.5"/>
<text text-anchor="middle" x="231.78" y="-63.5" font-family="Helvetica,sans-Serif" font-size="10.00">SHM/hashmap.h</text>
</a>
</g>
</g>
<!-- Node15&#45;&gt;Node16 -->
<g id="edge27" class="edge">
<title>Node15&#45;&gt;Node16</title>
<path fill="none" stroke="midnightblue" d="M295.57,-112.32C284.01,-104.11 266.41,-91.6 252.62,-81.81"/>
<polygon fill="midnightblue" stroke="midnightblue" points="254.39,-78.77 244.22,-75.83 250.34,-84.48 254.39,-78.77"/>
</g>
<!-- Node17 -->
<g id="node17" class="node">
<title>Node17</title>
<g id="a_node17"><a xlink:href="io_8h.html" target="_top" xlink:title=" ">
<polygon fill="white" stroke="black" points="16.28,-56.5 16.28,-75.5 51.28,-75.5 51.28,-56.5 16.28,-56.5"/>
<text text-anchor="middle" x="33.78" y="-63.5" font-family="Helvetica,sans-Serif" font-size="10.00">io.h</text>
</a>
</g>
</g>
<!-- Node15&#45;&gt;Node17 -->
<g id="edge33" class="edge">
<title>Node15&#45;&gt;Node17</title>
<path fill="none" stroke="midnightblue" d="M287.26,-117.83C245.37,-111.21 147.15,-94.97 65.78,-76 64.31,-75.66 62.8,-75.29 61.28,-74.9"/>
<polygon fill="midnightblue" stroke="midnightblue" points="61.88,-71.44 51.31,-72.24 60.07,-78.2 61.88,-71.44"/>
</g>
<!-- Node16&#45;&gt;Node3 -->
<g id="edge28" class="edge">
<title>Node16&#45;&gt;Node3</title>
<path fill="none" stroke="midnightblue" d="M229.97,-56.08C228.51,-48.93 226.41,-38.64 224.59,-29.69"/>
<polygon fill="midnightblue" stroke="midnightblue" points="227.99,-28.85 222.57,-19.75 221.13,-30.25 227.99,-28.85"/>
</g>
<!-- Node16&#45;&gt;Node4 -->
<g id="edge29" class="edge">
<title>Node16&#45;&gt;Node4</title>
<path fill="none" stroke="midnightblue" d="M215.23,-56.32C198.79,-47.7 173.35,-34.36 154.31,-24.39"/>
<polygon fill="midnightblue" stroke="midnightblue" points="155.77,-21.2 145.29,-19.65 152.52,-27.4 155.77,-21.2"/>
</g>
<!-- Node16&#45;&gt;Node5 -->
<g id="edge31" class="edge">
<title>Node16&#45;&gt;Node5</title>
<path fill="none" stroke="midnightblue" d="M267.91,-56.44C308.95,-46.72 375.77,-30.9 418.74,-20.72"/>
<polygon fill="midnightblue" stroke="midnightblue" points="419.66,-24.1 428.59,-18.39 418.05,-17.29 419.66,-24.1"/>
</g>
<!-- Node16&#45;&gt;Node7 -->
<g id="edge32" class="edge">
<title>Node16&#45;&gt;Node7</title>
<path fill="none" stroke="midnightblue" d="M244.31,-56.32C256.37,-47.98 274.81,-35.21 289.05,-25.35"/>
<polygon fill="midnightblue" stroke="midnightblue" points="291.05,-28.22 297.28,-19.65 287.07,-22.47 291.05,-28.22"/>
</g>
<!-- Node16&#45;&gt;Node10 -->
<g id="edge30" class="edge">
<title>Node16&#45;&gt;Node10</title>
<path fill="none" stroke="midnightblue" d="M255.87,-56.44C281.33,-47.4 321.68,-33.06 350.24,-22.92"/>
<polygon fill="midnightblue" stroke="midnightblue" points="351.56,-26.16 359.81,-19.52 349.22,-19.57 351.56,-26.16"/>
</g>
</g>
</svg>
